G04 #@! TF.FileFunction,Soldermask,Top*
%FSLAX46Y46*%
G04 Gerber Fmt 4.6, Leading zero omitted, Abs format (unit mm)*
G04 Created by KiCad (PCBNEW (2015-04-02 BZR 5565)-product) date Fri 03 Apr 2015 12:52:12 AM CEST*
%MOMM*%
G01*
G04 APERTURE LIST*
%ADD10C,0.150000*%
%ADD11C,0.500000*%
%ADD12R,1.050000X1.500000*%
%ADD13O,1.050000X1.500000*%
%ADD14R,1.600000X0.300000*%
%ADD15R,2.500000X4.000000*%
%ADD16O,2.500000X4.000000*%
%ADD17R,1.297940X1.498600*%
%ADD18R,1.498600X1.297940*%
%ADD19R,0.998220X1.099820*%
%ADD20R,1.198880X1.198880*%
%ADD21R,1.501140X1.600200*%
%ADD22R,1.400000X1.000000*%
%ADD23R,0.650000X1.250000*%
G04 APERTURE END LIST*
D10*
D11*
X80050000Y-46400000D03*
X78550000Y-48150000D03*
X80850000Y-48150000D03*
X78550000Y-46650000D03*
X79350000Y-46400000D03*
X80850000Y-46650000D03*
X79350000Y-48400000D03*
X80050000Y-48400000D03*
D12*
X94220000Y-49865000D03*
D13*
X94220000Y-51535000D03*
X92950000Y-49865000D03*
X92950000Y-51535000D03*
X91680000Y-49865000D03*
X91680000Y-51535000D03*
D14*
X91150000Y-54200000D03*
X91150000Y-54700000D03*
X91150000Y-55200000D03*
X91150000Y-55700000D03*
X91150000Y-56200000D03*
X94750000Y-56200000D03*
X94750000Y-55700000D03*
X94750000Y-55200000D03*
X94750000Y-54700000D03*
X94750000Y-54200000D03*
D15*
X103900000Y-55270000D03*
D16*
X103900000Y-50730000D03*
D15*
X77700000Y-55270000D03*
D16*
X77700000Y-50730000D03*
D17*
X97350040Y-49450000D03*
X99249960Y-49450000D03*
D18*
X100800000Y-54500040D03*
X100800000Y-56399960D03*
D17*
X97350040Y-51950000D03*
X99249960Y-51950000D03*
D19*
X82648360Y-49800000D03*
X80951640Y-49800000D03*
X81051640Y-56200000D03*
X82748360Y-56200000D03*
D20*
X88975860Y-52100760D03*
X88975860Y-50099240D03*
D21*
X85724660Y-51100000D03*
D20*
X88975860Y-56125760D03*
X88975860Y-54124240D03*
D21*
X85724660Y-55125000D03*
D22*
X83000000Y-53950000D03*
X83000000Y-52050000D03*
X80800000Y-53000000D03*
D23*
X98750000Y-54050000D03*
X97800000Y-54050000D03*
X96850000Y-54050000D03*
X96850000Y-56650000D03*
X98750000Y-56650000D03*
D11*
X102150000Y-57600000D03*
X100650000Y-59350000D03*
X102950000Y-59350000D03*
X100650000Y-57850000D03*
X101450000Y-57600000D03*
X102950000Y-57850000D03*
X101450000Y-59600000D03*
X102150000Y-59600000D03*
X102150000Y-46400000D03*
X100650000Y-48150000D03*
X102950000Y-48150000D03*
X100650000Y-46650000D03*
X101450000Y-46400000D03*
X102950000Y-46650000D03*
X101450000Y-48400000D03*
X102150000Y-48400000D03*
X80050000Y-57600000D03*
X78550000Y-59350000D03*
X80850000Y-59350000D03*
X78550000Y-57850000D03*
X79350000Y-57600000D03*
X80850000Y-57850000D03*
X79350000Y-59600000D03*
X80050000Y-59600000D03*
D10*
G36*
X93625000Y-57225000D02*
X92225000Y-57225000D01*
X92225000Y-53875000D01*
X92635000Y-53875000D01*
X92635000Y-56565000D01*
X93625000Y-56565000D01*
X93625000Y-57225000D01*
X93625000Y-57225000D01*
G37*
X93625000Y-57225000D02*
X92225000Y-57225000D01*
X92225000Y-53875000D01*
X92635000Y-53875000D01*
X92635000Y-56565000D01*
X93625000Y-56565000D01*
X93625000Y-57225000D01*
M02*
