G04 (created by PCBNEW (2013-07-01 BZR 4234)-testing) date Mon 01 Jul 2013 08:20:37 PM CEST*
%MOIN*%
G04 Gerber Fmt 3.4, Leading zero omitted, Abs format*
%FSLAX34Y34*%
G01*
G70*
G90*
G04 APERTURE LIST*
%ADD10C,0.005906*%
%ADD11R,0.055433X0.010394*%
%ADD12R,0.044968X0.051920*%
%ADD13R,0.051920X0.044968*%
%ADD14R,0.034584X0.038104*%
%ADD15R,0.041536X0.041536*%
%ADD16R,0.052008X0.055440*%
%ADD17R,0.048504X0.034646*%
%ADD18R,0.022520X0.043307*%
G04 APERTURE END LIST*
G54D10*
G54D11*
X35885Y-21338D03*
X35885Y-21535D03*
X35885Y-21732D03*
X35885Y-21929D03*
X35885Y-22125D03*
X37303Y-22125D03*
X37303Y-21929D03*
X37303Y-21732D03*
X37303Y-21535D03*
X37303Y-21338D03*
G54D12*
X38326Y-19468D03*
X39074Y-19468D03*
G54D13*
X39685Y-21456D03*
X39685Y-22204D03*
G54D12*
X38326Y-20452D03*
X39074Y-20452D03*
G54D14*
X32538Y-19606D03*
X31870Y-19606D03*
X31910Y-22125D03*
X32578Y-22125D03*
G54D15*
X35029Y-20512D03*
X35029Y-19724D03*
G54D16*
X33749Y-20118D03*
G54D15*
X35029Y-22096D03*
X35029Y-21308D03*
G54D16*
X33749Y-21702D03*
G54D17*
X32677Y-21240D03*
X32677Y-20492D03*
X31811Y-20866D03*
G54D18*
X38129Y-22303D03*
X38503Y-22303D03*
X38877Y-22303D03*
X38877Y-21279D03*
X38129Y-21279D03*
G54D10*
G36*
X36438Y-22214D02*
X36332Y-22214D01*
X36332Y-21250D01*
X36438Y-21250D01*
X36438Y-22214D01*
X36438Y-22214D01*
G37*
X36438Y-22214D02*
X36332Y-22214D01*
X36332Y-21250D01*
X36438Y-21250D01*
X36438Y-22214D01*
M02*
