G04 #@! TF.FileFunction,Other,Comment*
%FSLAX46Y46*%
G04 Gerber Fmt 4.6, Leading zero omitted, Abs format (unit mm)*
G04 Created by KiCad (PCBNEW (2015-04-02 BZR 5565)-product) date Fri 03 Apr 2015 12:52:12 AM CEST*
%MOMM*%
G01*
G04 APERTURE LIST*
%ADD10C,0.150000*%
%ADD11C,0.200000*%
G04 APERTURE END LIST*
D10*
D11*
X108411905Y-55857143D02*
X108411905Y-56314286D01*
X108411905Y-56085715D02*
X107611905Y-56085715D01*
X107726190Y-56161905D01*
X107802381Y-56238096D01*
X107840476Y-56314286D01*
X107611905Y-55361905D02*
X107611905Y-55285714D01*
X107650000Y-55209524D01*
X107688095Y-55171429D01*
X107764286Y-55133333D01*
X107916667Y-55095238D01*
X108107143Y-55095238D01*
X108259524Y-55133333D01*
X108335714Y-55171429D01*
X108373810Y-55209524D01*
X108411905Y-55285714D01*
X108411905Y-55361905D01*
X108373810Y-55438095D01*
X108335714Y-55476191D01*
X108259524Y-55514286D01*
X108107143Y-55552381D01*
X107916667Y-55552381D01*
X107764286Y-55514286D01*
X107688095Y-55476191D01*
X107650000Y-55438095D01*
X107611905Y-55361905D01*
X108335714Y-54752381D02*
X108373810Y-54714286D01*
X108411905Y-54752381D01*
X108373810Y-54790476D01*
X108335714Y-54752381D01*
X108411905Y-54752381D01*
X107611905Y-54219048D02*
X107611905Y-54142857D01*
X107650000Y-54066667D01*
X107688095Y-54028572D01*
X107764286Y-53990476D01*
X107916667Y-53952381D01*
X108107143Y-53952381D01*
X108259524Y-53990476D01*
X108335714Y-54028572D01*
X108373810Y-54066667D01*
X108411905Y-54142857D01*
X108411905Y-54219048D01*
X108373810Y-54295238D01*
X108335714Y-54333334D01*
X108259524Y-54371429D01*
X108107143Y-54409524D01*
X107916667Y-54409524D01*
X107764286Y-54371429D01*
X107688095Y-54333334D01*
X107650000Y-54295238D01*
X107611905Y-54219048D01*
X107611905Y-53457143D02*
X107611905Y-53380952D01*
X107650000Y-53304762D01*
X107688095Y-53266667D01*
X107764286Y-53228571D01*
X107916667Y-53190476D01*
X108107143Y-53190476D01*
X108259524Y-53228571D01*
X108335714Y-53266667D01*
X108373810Y-53304762D01*
X108411905Y-53380952D01*
X108411905Y-53457143D01*
X108373810Y-53533333D01*
X108335714Y-53571429D01*
X108259524Y-53609524D01*
X108107143Y-53647619D01*
X107916667Y-53647619D01*
X107764286Y-53609524D01*
X107688095Y-53571429D01*
X107650000Y-53533333D01*
X107611905Y-53457143D01*
X107611905Y-52695238D02*
X107611905Y-52619047D01*
X107650000Y-52542857D01*
X107688095Y-52504762D01*
X107764286Y-52466666D01*
X107916667Y-52428571D01*
X108107143Y-52428571D01*
X108259524Y-52466666D01*
X108335714Y-52504762D01*
X108373810Y-52542857D01*
X108411905Y-52619047D01*
X108411905Y-52695238D01*
X108373810Y-52771428D01*
X108335714Y-52809524D01*
X108259524Y-52847619D01*
X108107143Y-52885714D01*
X107916667Y-52885714D01*
X107764286Y-52847619D01*
X107688095Y-52809524D01*
X107650000Y-52771428D01*
X107611905Y-52695238D01*
X108411905Y-51476190D02*
X107878571Y-51476190D01*
X107954762Y-51476190D02*
X107916667Y-51438095D01*
X107878571Y-51361904D01*
X107878571Y-51247618D01*
X107916667Y-51171428D01*
X107992857Y-51133333D01*
X108411905Y-51133333D01*
X107992857Y-51133333D02*
X107916667Y-51095237D01*
X107878571Y-51019047D01*
X107878571Y-50904761D01*
X107916667Y-50828571D01*
X107992857Y-50790476D01*
X108411905Y-50790476D01*
X108411905Y-50409523D02*
X107878571Y-50409523D01*
X107954762Y-50409523D02*
X107916667Y-50371428D01*
X107878571Y-50295237D01*
X107878571Y-50180951D01*
X107916667Y-50104761D01*
X107992857Y-50066666D01*
X108411905Y-50066666D01*
X107992857Y-50066666D02*
X107916667Y-50028570D01*
X107878571Y-49952380D01*
X107878571Y-49838094D01*
X107916667Y-49761904D01*
X107992857Y-49723809D01*
X108411905Y-49723809D01*
X107150000Y-58000000D02*
X107150000Y-48000000D01*
X105650000Y-58000000D02*
X108950000Y-58000000D01*
X105650000Y-48000000D02*
X108950000Y-48000000D01*
X107150000Y-48000000D02*
X107736421Y-49126504D01*
X107150000Y-48000000D02*
X106563579Y-49126504D01*
X107150000Y-58000000D02*
X107736421Y-56873496D01*
X107150000Y-58000000D02*
X106563579Y-56873496D01*
X87510714Y-59838095D02*
X87548809Y-59800000D01*
X87625000Y-59761905D01*
X87815476Y-59761905D01*
X87891666Y-59800000D01*
X87929762Y-59838095D01*
X87967857Y-59914286D01*
X87967857Y-59990476D01*
X87929762Y-60104762D01*
X87472619Y-60561905D01*
X87967857Y-60561905D01*
X88348809Y-60561905D02*
X88501190Y-60561905D01*
X88577381Y-60523810D01*
X88615476Y-60485714D01*
X88691667Y-60371429D01*
X88729762Y-60219048D01*
X88729762Y-59914286D01*
X88691667Y-59838095D01*
X88653571Y-59800000D01*
X88577381Y-59761905D01*
X88425000Y-59761905D01*
X88348809Y-59800000D01*
X88310714Y-59838095D01*
X88272619Y-59914286D01*
X88272619Y-60104762D01*
X88310714Y-60180952D01*
X88348809Y-60219048D01*
X88425000Y-60257143D01*
X88577381Y-60257143D01*
X88653571Y-60219048D01*
X88691667Y-60180952D01*
X88729762Y-60104762D01*
X89072619Y-60485714D02*
X89110714Y-60523810D01*
X89072619Y-60561905D01*
X89034524Y-60523810D01*
X89072619Y-60485714D01*
X89072619Y-60561905D01*
X89796428Y-59761905D02*
X89644047Y-59761905D01*
X89567857Y-59800000D01*
X89529762Y-59838095D01*
X89453571Y-59952381D01*
X89415476Y-60104762D01*
X89415476Y-60409524D01*
X89453571Y-60485714D01*
X89491666Y-60523810D01*
X89567857Y-60561905D01*
X89720238Y-60561905D01*
X89796428Y-60523810D01*
X89834524Y-60485714D01*
X89872619Y-60409524D01*
X89872619Y-60219048D01*
X89834524Y-60142857D01*
X89796428Y-60104762D01*
X89720238Y-60066667D01*
X89567857Y-60066667D01*
X89491666Y-60104762D01*
X89453571Y-60142857D01*
X89415476Y-60219048D01*
X90596429Y-59761905D02*
X90215476Y-59761905D01*
X90177381Y-60142857D01*
X90215476Y-60104762D01*
X90291667Y-60066667D01*
X90482143Y-60066667D01*
X90558333Y-60104762D01*
X90596429Y-60142857D01*
X90634524Y-60219048D01*
X90634524Y-60409524D01*
X90596429Y-60485714D01*
X90558333Y-60523810D01*
X90482143Y-60561905D01*
X90291667Y-60561905D01*
X90215476Y-60523810D01*
X90177381Y-60485714D01*
X91129762Y-59761905D02*
X91205953Y-59761905D01*
X91282143Y-59800000D01*
X91320238Y-59838095D01*
X91358334Y-59914286D01*
X91396429Y-60066667D01*
X91396429Y-60257143D01*
X91358334Y-60409524D01*
X91320238Y-60485714D01*
X91282143Y-60523810D01*
X91205953Y-60561905D01*
X91129762Y-60561905D01*
X91053572Y-60523810D01*
X91015476Y-60485714D01*
X90977381Y-60409524D01*
X90939286Y-60257143D01*
X90939286Y-60066667D01*
X90977381Y-59914286D01*
X91015476Y-59838095D01*
X91053572Y-59800000D01*
X91129762Y-59761905D01*
X92348810Y-60561905D02*
X92348810Y-60028571D01*
X92348810Y-60104762D02*
X92386905Y-60066667D01*
X92463096Y-60028571D01*
X92577382Y-60028571D01*
X92653572Y-60066667D01*
X92691667Y-60142857D01*
X92691667Y-60561905D01*
X92691667Y-60142857D02*
X92729763Y-60066667D01*
X92805953Y-60028571D01*
X92920239Y-60028571D01*
X92996429Y-60066667D01*
X93034524Y-60142857D01*
X93034524Y-60561905D01*
X93415477Y-60561905D02*
X93415477Y-60028571D01*
X93415477Y-60104762D02*
X93453572Y-60066667D01*
X93529763Y-60028571D01*
X93644049Y-60028571D01*
X93720239Y-60066667D01*
X93758334Y-60142857D01*
X93758334Y-60561905D01*
X93758334Y-60142857D02*
X93796430Y-60066667D01*
X93872620Y-60028571D01*
X93986906Y-60028571D01*
X94063096Y-60066667D01*
X94101191Y-60142857D01*
X94101191Y-60561905D01*
X76000000Y-59300000D02*
X105650000Y-59300000D01*
X76000000Y-58000000D02*
X76000000Y-61100000D01*
X105650000Y-58000000D02*
X105650000Y-61100000D01*
X105650000Y-59300000D02*
X104523496Y-59886421D01*
X105650000Y-59300000D02*
X104523496Y-58713579D01*
X76000000Y-59300000D02*
X77126504Y-59886421D01*
X76000000Y-59300000D02*
X77126504Y-58713579D01*
M02*
