G04 #@! TF.FileFunction,Copper,L2,Bot,Signal*
%FSLAX46Y46*%
G04 Gerber Fmt 4.6, Leading zero omitted, Abs format (unit mm)*
G04 Created by KiCad (PCBNEW (2015-04-02 BZR 5565)-product) date Fri 03 Apr 2015 12:52:12 AM CEST*
%MOMM*%
G01*
G04 APERTURE LIST*
%ADD10C,0.150000*%
%ADD11R,1.050000X1.500000*%
%ADD12O,1.050000X1.500000*%
%ADD13R,2.500000X4.000000*%
%ADD14O,2.500000X4.000000*%
%ADD15C,0.762000*%
%ADD16C,0.152400*%
%ADD17C,2.000000*%
%ADD18C,0.250000*%
G04 APERTURE END LIST*
D10*
D11*
X94220000Y-49865000D03*
D12*
X94220000Y-51535000D03*
X92950000Y-49865000D03*
X92950000Y-51535000D03*
X91680000Y-49865000D03*
X91680000Y-51535000D03*
D13*
X103900000Y-55270000D03*
D14*
X103900000Y-50730000D03*
D13*
X77700000Y-55270000D03*
D14*
X77700000Y-50730000D03*
D15*
X100800000Y-54500040D03*
X88975860Y-50099240D03*
X99300000Y-49450000D03*
X84150000Y-52800000D03*
X83100000Y-52800000D03*
X83100000Y-51300000D03*
X84150000Y-52050000D03*
X84150000Y-51300000D03*
X97400000Y-52000000D03*
X88975860Y-52100760D03*
D16*
X103900000Y-54270000D02*
X101030040Y-54270000D01*
X101030040Y-54270000D02*
X100800000Y-54500040D01*
D17*
X83180000Y-56350000D02*
X99400000Y-56350000D01*
X77700000Y-54270000D02*
X81100000Y-54270000D01*
X81100000Y-54270000D02*
X83180000Y-56350000D01*
X101480000Y-54270000D02*
X103900000Y-54270000D01*
X99400000Y-56350000D02*
X101480000Y-54270000D01*
D16*
X88975860Y-50099240D02*
X88975860Y-50795860D01*
X89515000Y-51335000D02*
X91680000Y-51335000D01*
X88975860Y-50795860D02*
X89515000Y-51335000D01*
X97070000Y-48650000D02*
X97870000Y-49450000D01*
X97870000Y-49450000D02*
X99300000Y-49450000D01*
X89000000Y-49170000D02*
X89520000Y-48650000D01*
X89520000Y-48650000D02*
X97070000Y-48650000D01*
X89000000Y-50075100D02*
X89000000Y-49170000D01*
X88975860Y-50099240D02*
X89000000Y-50075100D01*
X84150000Y-52800000D02*
X83100000Y-52800000D01*
D17*
X86619950Y-52070050D02*
X84170050Y-52070050D01*
X84170050Y-52070050D02*
X84150000Y-52050000D01*
D16*
X84150000Y-51300000D02*
X83100000Y-51300000D01*
X84150000Y-52050000D02*
X84150000Y-51300000D01*
D17*
X88599900Y-54050000D02*
X98250000Y-54050000D01*
X100570000Y-51730000D02*
X103900000Y-51730000D01*
X98250000Y-54050000D02*
X100570000Y-51730000D01*
X86619950Y-52070050D02*
X88599900Y-54050000D01*
D16*
X94220000Y-51335000D02*
X94220000Y-52748199D01*
X90751801Y-52748199D02*
X94220000Y-52748199D01*
X94220000Y-52748199D02*
X95131801Y-52748199D01*
X95131801Y-52748199D02*
X95880000Y-52000000D01*
X95880000Y-52000000D02*
X97400000Y-52000000D01*
X88975860Y-52100760D02*
X90104362Y-52100760D01*
X90104362Y-52100760D02*
X90751801Y-52748199D01*
D18*
G36*
X84475000Y-52693859D02*
X84467202Y-52773041D01*
X84445896Y-52843275D01*
X84411299Y-52908002D01*
X84364737Y-52964737D01*
X84308002Y-53011299D01*
X84243275Y-53045896D01*
X84173041Y-53067202D01*
X84093859Y-53075000D01*
X82806141Y-53075000D01*
X82726959Y-53067202D01*
X82656725Y-53045896D01*
X82591998Y-53011299D01*
X82535263Y-52964737D01*
X82488701Y-52908002D01*
X82454104Y-52843275D01*
X82432798Y-52773041D01*
X82425000Y-52693859D01*
X82425000Y-51406141D01*
X82432798Y-51326959D01*
X82454104Y-51256725D01*
X82488701Y-51191998D01*
X82535263Y-51135263D01*
X82591998Y-51088701D01*
X82656725Y-51054104D01*
X82726959Y-51032798D01*
X82806141Y-51025000D01*
X84093859Y-51025000D01*
X84173041Y-51032798D01*
X84243275Y-51054104D01*
X84308002Y-51088701D01*
X84364737Y-51135263D01*
X84411299Y-51191998D01*
X84445896Y-51256725D01*
X84467202Y-51326959D01*
X84475000Y-51406141D01*
X84475000Y-52693859D01*
X84475000Y-52693859D01*
G37*
X84475000Y-52693859D02*
X84467202Y-52773041D01*
X84445896Y-52843275D01*
X84411299Y-52908002D01*
X84364737Y-52964737D01*
X84308002Y-53011299D01*
X84243275Y-53045896D01*
X84173041Y-53067202D01*
X84093859Y-53075000D01*
X82806141Y-53075000D01*
X82726959Y-53067202D01*
X82656725Y-53045896D01*
X82591998Y-53011299D01*
X82535263Y-52964737D01*
X82488701Y-52908002D01*
X82454104Y-52843275D01*
X82432798Y-52773041D01*
X82425000Y-52693859D01*
X82425000Y-51406141D01*
X82432798Y-51326959D01*
X82454104Y-51256725D01*
X82488701Y-51191998D01*
X82535263Y-51135263D01*
X82591998Y-51088701D01*
X82656725Y-51054104D01*
X82726959Y-51032798D01*
X82806141Y-51025000D01*
X84093859Y-51025000D01*
X84173041Y-51032798D01*
X84243275Y-51054104D01*
X84308002Y-51088701D01*
X84364737Y-51135263D01*
X84411299Y-51191998D01*
X84445896Y-51256725D01*
X84467202Y-51326959D01*
X84475000Y-51406141D01*
X84475000Y-52693859D01*
M02*
