M48
METRIC,TZ
T1C0.330
T2C0.500
T3C1.200
%
G90
G05
T1
X083100Y-051300
X083100Y-052800
X084150Y-051300
X084150Y-052050
X084150Y-052800
X088976Y-050099
X088976Y-052101
X097400Y-052000
X099300Y-049450
X100800Y-054500
T2
X091680Y-050065
X091680Y-051335
X092950Y-050065
X092950Y-051335
X094220Y-050065
X094220Y-051335
T3
X077700Y-051730
X077700Y-054270
X103900Y-051730
X103900Y-054270
T0
M30
