G04 (created by PCBNEW (2013-07-01 BZR 4234)-testing) date Mon 01 Jul 2013 08:20:37 PM CEST*
%MOIN*%
G04 Gerber Fmt 3.4, Leading zero omitted, Abs format*
%FSLAX34Y34*%
G01*
G70*
G90*
G04 APERTURE LIST*
%ADD10C,0.005906*%
%ADD11C,0.009843*%
%ADD12R,0.062992X0.011811*%
%ADD13R,0.041339X0.059055*%
%ADD14O,0.041339X0.059055*%
%ADD15R,0.019685X0.019685*%
%ADD16R,0.098425X0.157480*%
%ADD17O,0.098425X0.157480*%
%ADD18R,0.051100X0.059000*%
%ADD19R,0.059000X0.051100*%
%ADD20R,0.039300X0.043300*%
%ADD21R,0.047200X0.047200*%
%ADD22R,0.059100X0.063000*%
%ADD23R,0.055118X0.039370*%
%ADD24R,0.025591X0.049213*%
%ADD25C,0.030000*%
%ADD26C,0.006000*%
%ADD27C,0.039370*%
%ADD28C,0.012000*%
%ADD29C,0.008000*%
G04 APERTURE END LIST*
G54D10*
G54D11*
X39751Y-20502D02*
X40051Y-20502D01*
X39751Y-20402D02*
X40051Y-20402D01*
X39751Y-20452D02*
X40051Y-20452D01*
G54D12*
X35885Y-21338D03*
X35885Y-21535D03*
X35885Y-21732D03*
X35885Y-21929D03*
X35885Y-22125D03*
X37303Y-22125D03*
X37303Y-21929D03*
X37303Y-21732D03*
X37303Y-21535D03*
X37303Y-21338D03*
G54D13*
X37094Y-19631D03*
G54D14*
X37094Y-20289D03*
X36594Y-19631D03*
X36594Y-20289D03*
X36094Y-19631D03*
X36094Y-20289D03*
G54D15*
X39751Y-20452D03*
X40051Y-20452D03*
G54D16*
X40905Y-21759D03*
G54D17*
X40905Y-19972D03*
G54D16*
X30590Y-21759D03*
G54D17*
X30590Y-19972D03*
G54D18*
X38326Y-19468D03*
X39074Y-19468D03*
G54D19*
X39685Y-21456D03*
X39685Y-22204D03*
G54D18*
X38326Y-20452D03*
X39074Y-20452D03*
G54D20*
X32538Y-19606D03*
X31870Y-19606D03*
X31910Y-22125D03*
X32578Y-22125D03*
G54D21*
X35029Y-20512D03*
X35029Y-19724D03*
G54D22*
X33749Y-20118D03*
G54D21*
X35029Y-22096D03*
X35029Y-21308D03*
G54D22*
X33749Y-21702D03*
G54D23*
X32677Y-21240D03*
X32677Y-20492D03*
X31811Y-20866D03*
G54D24*
X38129Y-22303D03*
X38503Y-22303D03*
X38877Y-22303D03*
X38877Y-21279D03*
X38129Y-21279D03*
G54D25*
X39685Y-21456D03*
X35029Y-19724D03*
X39094Y-19468D03*
X33129Y-20787D03*
X32716Y-20787D03*
X32716Y-20196D03*
X33129Y-20492D03*
X33129Y-20196D03*
X38346Y-20472D03*
X35029Y-20512D03*
G54D26*
X37480Y-20511D02*
X37480Y-19807D01*
X37480Y-20511D02*
X37185Y-20807D01*
X37185Y-20807D02*
X36889Y-20807D01*
X36889Y-20807D02*
X36712Y-20983D01*
X36712Y-20983D02*
X36712Y-21811D01*
X36712Y-21811D02*
X36830Y-21929D01*
X37185Y-21929D02*
X36830Y-21929D01*
X37383Y-19710D02*
X37094Y-19710D01*
X37480Y-19807D02*
X37383Y-19710D01*
X37185Y-22125D02*
X36857Y-22125D01*
X36590Y-20214D02*
X36590Y-21858D01*
X36590Y-20214D02*
X36594Y-20210D01*
X36857Y-22125D02*
X36590Y-21858D01*
X32066Y-22657D02*
X37057Y-22657D01*
X32066Y-22657D02*
X31910Y-22500D01*
X31910Y-22125D02*
X31910Y-22500D01*
X37185Y-22529D02*
X37185Y-22125D01*
X37057Y-22657D02*
X37185Y-22529D01*
X37185Y-22125D02*
X37519Y-22125D01*
X36589Y-20216D02*
X36594Y-20210D01*
X31910Y-22283D02*
X31910Y-21593D01*
X31870Y-20020D02*
X31870Y-19488D01*
X32244Y-20393D02*
X31870Y-20020D01*
X32244Y-21259D02*
X32244Y-20393D01*
X31910Y-21593D02*
X32244Y-21259D01*
X34015Y-19232D02*
X33749Y-19498D01*
X35442Y-21466D02*
X35511Y-21535D01*
X36003Y-21535D02*
X35511Y-21535D01*
X35354Y-19232D02*
X35442Y-19320D01*
X34015Y-19232D02*
X35354Y-19232D01*
X35442Y-19320D02*
X35442Y-21466D01*
X33749Y-19498D02*
X33749Y-20118D01*
X35629Y-21535D02*
X36003Y-21535D01*
X33907Y-22519D02*
X33749Y-22362D01*
X33907Y-22519D02*
X35364Y-22519D01*
X35364Y-22519D02*
X35413Y-22470D01*
X35413Y-22470D02*
X35413Y-21998D01*
X35413Y-21998D02*
X35482Y-21929D01*
X36003Y-21929D02*
X35482Y-21929D01*
X33749Y-22362D02*
X33749Y-21702D01*
X35649Y-21929D02*
X36003Y-21929D01*
X35649Y-19822D02*
X35649Y-20738D01*
X35649Y-19822D02*
X35761Y-19710D01*
X36094Y-19710D02*
X35761Y-19710D01*
X36003Y-21092D02*
X36003Y-21338D01*
X35649Y-20738D02*
X36003Y-21092D01*
X36003Y-21338D02*
X35787Y-21338D01*
X36594Y-19710D02*
X36594Y-19232D01*
X36905Y-21535D02*
X36836Y-21466D01*
X36836Y-21466D02*
X36836Y-21175D01*
X36836Y-21175D02*
X37007Y-21003D01*
X37007Y-21003D02*
X37303Y-21003D01*
X37303Y-21003D02*
X37618Y-20688D01*
X36905Y-21535D02*
X37185Y-21535D01*
X37618Y-19350D02*
X37618Y-20688D01*
X37421Y-19153D02*
X37618Y-19350D01*
X36673Y-19153D02*
X37421Y-19153D01*
X36594Y-19232D02*
X36673Y-19153D01*
X38877Y-21279D02*
X39110Y-21279D01*
X39110Y-21279D02*
X39287Y-21456D01*
X39287Y-21456D02*
X39685Y-21456D01*
X38129Y-22302D02*
X38129Y-21830D01*
X38129Y-21830D02*
X38228Y-21732D01*
X38228Y-21732D02*
X38385Y-21732D01*
X38385Y-21732D02*
X38523Y-21594D01*
X38523Y-21594D02*
X38523Y-21377D01*
X38523Y-21377D02*
X38622Y-21279D01*
X38622Y-21279D02*
X38877Y-21279D01*
X39508Y-21280D02*
X39685Y-21456D01*
G54D27*
X30590Y-20366D02*
X31724Y-20366D01*
X31811Y-20452D02*
X31811Y-20866D01*
X31724Y-20366D02*
X31811Y-20452D01*
G54D26*
X39074Y-19468D02*
X39094Y-19468D01*
X34606Y-22096D02*
X34419Y-21909D01*
X34419Y-21909D02*
X34419Y-19881D01*
X34419Y-19881D02*
X34577Y-19724D01*
X34606Y-22096D02*
X35029Y-22096D01*
X35029Y-19724D02*
X34577Y-19724D01*
X36094Y-20210D02*
X36094Y-20720D01*
X36338Y-22125D02*
X36003Y-22125D01*
X36381Y-22082D02*
X36338Y-22125D01*
X36381Y-21007D02*
X36381Y-22082D01*
X36094Y-20720D02*
X36381Y-21007D01*
G54D28*
X39074Y-19468D02*
X39074Y-19468D01*
X39094Y-19448D02*
X39074Y-19468D01*
G54D26*
X39074Y-19468D02*
X39074Y-20452D01*
X39751Y-20452D02*
X39074Y-20452D01*
G54D28*
X39074Y-19488D02*
X39074Y-19507D01*
X39055Y-19468D02*
X39074Y-19488D01*
G54D26*
X33129Y-20492D02*
X33129Y-20787D01*
X32716Y-20787D02*
X32712Y-20787D01*
X32716Y-20196D02*
X32716Y-20452D01*
X32716Y-20452D02*
X32677Y-20492D01*
X33129Y-20492D02*
X33129Y-20196D01*
X40051Y-20452D02*
X40051Y-20886D01*
X40090Y-22204D02*
X40196Y-22098D01*
X40090Y-22204D02*
X39685Y-22204D01*
X40196Y-21031D02*
X40196Y-22098D01*
X40051Y-20886D02*
X40196Y-21031D01*
X38503Y-22303D02*
X38503Y-21929D01*
X39287Y-22204D02*
X39685Y-22204D01*
X39212Y-22129D02*
X39287Y-22204D01*
X39212Y-21929D02*
X39212Y-22129D01*
X39114Y-21830D02*
X39212Y-21929D01*
X38602Y-21830D02*
X39114Y-21830D01*
X38503Y-21929D02*
X38602Y-21830D01*
X32538Y-20353D02*
X32677Y-20492D01*
X32538Y-19488D02*
X32538Y-20353D01*
X40051Y-20452D02*
X40818Y-20452D01*
X40818Y-20452D02*
X40905Y-20366D01*
X32677Y-21240D02*
X32677Y-21633D01*
X32578Y-21732D02*
X32578Y-22125D01*
X32677Y-21633D02*
X32578Y-21732D01*
G54D29*
X32677Y-22184D02*
X32578Y-22283D01*
G54D26*
X38346Y-20472D02*
X38326Y-20452D01*
X38346Y-20472D02*
X38346Y-20472D01*
X38129Y-21279D02*
X38334Y-21279D01*
X38326Y-20862D02*
X38326Y-20452D01*
X38433Y-20968D02*
X38326Y-20862D01*
X38433Y-21181D02*
X38433Y-20968D01*
X38334Y-21279D02*
X38433Y-21181D01*
X37185Y-21338D02*
X38070Y-21338D01*
X38070Y-21338D02*
X38129Y-21279D01*
X35029Y-21308D02*
X35029Y-20512D01*
X38326Y-19468D02*
X38326Y-20452D01*
G54D28*
X38267Y-20393D02*
X38326Y-20452D01*
G54D10*
G36*
X33257Y-20745D02*
X33254Y-20776D01*
X33246Y-20804D01*
X33232Y-20829D01*
X33214Y-20852D01*
X33192Y-20870D01*
X33166Y-20884D01*
X33138Y-20892D01*
X33107Y-20895D01*
X32967Y-20895D01*
X32938Y-20895D01*
X32600Y-20895D01*
X32569Y-20892D01*
X32542Y-20884D01*
X32516Y-20870D01*
X32494Y-20852D01*
X32475Y-20829D01*
X32462Y-20804D01*
X32453Y-20776D01*
X32450Y-20745D01*
X32450Y-20238D01*
X32453Y-20207D01*
X32462Y-20179D01*
X32475Y-20154D01*
X32494Y-20131D01*
X32516Y-20113D01*
X32542Y-20100D01*
X32569Y-20091D01*
X32600Y-20088D01*
X33107Y-20088D01*
X33138Y-20091D01*
X33166Y-20100D01*
X33192Y-20113D01*
X33214Y-20131D01*
X33232Y-20154D01*
X33246Y-20179D01*
X33254Y-20207D01*
X33257Y-20238D01*
X33257Y-20745D01*
X33257Y-20745D01*
G37*
G54D11*
X33257Y-20745D02*
X33254Y-20776D01*
X33246Y-20804D01*
X33232Y-20829D01*
X33214Y-20852D01*
X33192Y-20870D01*
X33166Y-20884D01*
X33138Y-20892D01*
X33107Y-20895D01*
X32967Y-20895D01*
X32938Y-20895D01*
X32600Y-20895D01*
X32569Y-20892D01*
X32542Y-20884D01*
X32516Y-20870D01*
X32494Y-20852D01*
X32475Y-20829D01*
X32462Y-20804D01*
X32453Y-20776D01*
X32450Y-20745D01*
X32450Y-20238D01*
X32453Y-20207D01*
X32462Y-20179D01*
X32475Y-20154D01*
X32494Y-20131D01*
X32516Y-20113D01*
X32542Y-20100D01*
X32569Y-20091D01*
X32600Y-20088D01*
X33107Y-20088D01*
X33138Y-20091D01*
X33166Y-20100D01*
X33192Y-20113D01*
X33214Y-20131D01*
X33232Y-20154D01*
X33246Y-20179D01*
X33254Y-20207D01*
X33257Y-20238D01*
X33257Y-20745D01*
G54D10*
G36*
X36860Y-22529D02*
X36309Y-22529D01*
X36309Y-22195D01*
X36309Y-22174D01*
X36309Y-22162D01*
X36309Y-22089D01*
X36309Y-22077D01*
X36309Y-22056D01*
X36309Y-21210D01*
X36470Y-21210D01*
X36470Y-22269D01*
X36860Y-22269D01*
X36860Y-22529D01*
X36860Y-22529D01*
G37*
X36860Y-22529D02*
X36309Y-22529D01*
X36309Y-22195D01*
X36309Y-22174D01*
X36309Y-22162D01*
X36309Y-22089D01*
X36309Y-22077D01*
X36309Y-22056D01*
X36309Y-21210D01*
X36470Y-21210D01*
X36470Y-22269D01*
X36860Y-22269D01*
X36860Y-22529D01*
M02*
