G04 #@! TF.FileFunction,Copper,L1,Top,Signal*
%FSLAX46Y46*%
G04 Gerber Fmt 4.6, Leading zero omitted, Abs format (unit mm)*
G04 Created by KiCad (PCBNEW (2015-04-02 BZR 5565)-product) date Fri 03 Apr 2015 12:52:12 AM CEST*
%MOMM*%
G01*
G04 APERTURE LIST*
%ADD10C,0.150000*%
%ADD11C,0.250000*%
%ADD12R,1.050000X1.500000*%
%ADD13O,1.050000X1.500000*%
%ADD14R,1.600000X0.300000*%
%ADD15R,0.500000X0.500000*%
%ADD16R,2.500000X4.000000*%
%ADD17O,2.500000X4.000000*%
%ADD18R,1.297940X1.498600*%
%ADD19R,1.498600X1.297940*%
%ADD20R,0.998220X1.099820*%
%ADD21R,1.198880X1.198880*%
%ADD22R,1.501140X1.600200*%
%ADD23R,1.400000X1.000000*%
%ADD24R,0.650000X1.250000*%
%ADD25C,0.762000*%
%ADD26C,0.152400*%
%ADD27C,1.000000*%
%ADD28C,0.304800*%
%ADD29C,0.203200*%
G04 APERTURE END LIST*
D10*
D11*
X100969000Y-52077000D02*
X101731000Y-52077000D01*
X100969000Y-51823000D02*
X101731000Y-51823000D01*
X100969000Y-51950000D02*
X101731000Y-51950000D01*
D12*
X94220000Y-49865000D03*
D13*
X94220000Y-51535000D03*
X92950000Y-49865000D03*
X92950000Y-51535000D03*
X91680000Y-49865000D03*
X91680000Y-51535000D03*
D14*
X91150000Y-54200000D03*
X91150000Y-54700000D03*
X91150000Y-55200000D03*
X91150000Y-55700000D03*
X91150000Y-56200000D03*
X94750000Y-56200000D03*
X94750000Y-55700000D03*
X94750000Y-55200000D03*
X94750000Y-54700000D03*
X94750000Y-54200000D03*
D15*
X100969000Y-51950000D03*
X101731000Y-51950000D03*
D16*
X103900000Y-55270000D03*
D17*
X103900000Y-50730000D03*
D16*
X77700000Y-55270000D03*
D17*
X77700000Y-50730000D03*
D18*
X97350040Y-49450000D03*
X99249960Y-49450000D03*
D19*
X100800000Y-54500040D03*
X100800000Y-56399960D03*
D18*
X97350040Y-51950000D03*
X99249960Y-51950000D03*
D20*
X82648360Y-49800000D03*
X80951640Y-49800000D03*
X81051640Y-56200000D03*
X82748360Y-56200000D03*
D21*
X88975860Y-52100760D03*
X88975860Y-50099240D03*
D22*
X85724660Y-51100000D03*
D21*
X88975860Y-56125760D03*
X88975860Y-54124240D03*
D22*
X85724660Y-55125000D03*
D23*
X83000000Y-53950000D03*
X83000000Y-52050000D03*
X80800000Y-53000000D03*
D24*
X98750000Y-54050000D03*
X97800000Y-54050000D03*
X96850000Y-54050000D03*
X96850000Y-56650000D03*
X98750000Y-56650000D03*
D25*
X100800000Y-54500040D03*
X88975860Y-50099240D03*
X99300000Y-49450000D03*
X84150000Y-52800000D03*
X83100000Y-52800000D03*
X83100000Y-51300000D03*
X84150000Y-52050000D03*
X84150000Y-51300000D03*
X97400000Y-52000000D03*
X88975860Y-52100760D03*
D26*
X95200000Y-52100000D02*
X95200000Y-50310000D01*
X95200000Y-52100000D02*
X94450000Y-52850000D01*
X94450000Y-52850000D02*
X93700000Y-52850000D01*
X93700000Y-52850000D02*
X93250800Y-53299200D01*
X93250800Y-53299200D02*
X93250800Y-55400800D01*
X93250800Y-55400800D02*
X93550000Y-55700000D01*
X94450000Y-55700000D02*
X93550000Y-55700000D01*
X94955000Y-50065000D02*
X94220000Y-50065000D01*
X95200000Y-50310000D02*
X94955000Y-50065000D01*
X94450000Y-56200000D02*
X93618944Y-56200000D01*
X92940000Y-51345000D02*
X92940000Y-55521056D01*
X92940000Y-51345000D02*
X92950000Y-51335000D01*
X93618944Y-56200000D02*
X92940000Y-55521056D01*
X94450000Y-56200000D02*
X95300000Y-56200000D01*
X92936200Y-51348800D02*
X92950000Y-51335000D01*
X81051640Y-56600000D02*
X81051640Y-54848360D01*
X80951640Y-50851640D02*
X80951640Y-49500000D01*
X81900000Y-51800000D02*
X80951640Y-50851640D01*
X81900000Y-54000000D02*
X81900000Y-51800000D01*
X81051640Y-54848360D02*
X81900000Y-54000000D01*
X81051640Y-56826640D02*
X81051640Y-56200000D01*
X81775000Y-57550000D02*
X81051640Y-56826640D01*
X94125000Y-57550000D02*
X81775000Y-57550000D01*
X94450000Y-57225000D02*
X94125000Y-57550000D01*
X94450000Y-56200000D02*
X94450000Y-57225000D01*
X86400000Y-48850000D02*
X85724660Y-49525340D01*
X90025000Y-54525000D02*
X90200000Y-54700000D01*
X91450000Y-54700000D02*
X90200000Y-54700000D01*
X89800000Y-48850000D02*
X90025000Y-49075000D01*
X86400000Y-48850000D02*
X89800000Y-48850000D01*
X90025000Y-49075000D02*
X90025000Y-54525000D01*
X85724660Y-49525340D02*
X85724660Y-51100000D01*
X90500000Y-54700000D02*
X91450000Y-54700000D01*
X86125000Y-57200000D02*
X85724660Y-56799660D01*
X86125000Y-57200000D02*
X89825000Y-57200000D01*
X89825000Y-57200000D02*
X89950000Y-57075000D01*
X89950000Y-57075000D02*
X89950000Y-55875000D01*
X89950000Y-55875000D02*
X90125000Y-55700000D01*
X91450000Y-55700000D02*
X90125000Y-55700000D01*
X85724660Y-56799660D02*
X85724660Y-55125000D01*
X90550000Y-55700000D02*
X91450000Y-55700000D01*
X90550000Y-50350000D02*
X90550000Y-52675000D01*
X90550000Y-50350000D02*
X90835000Y-50065000D01*
X91680000Y-50065000D02*
X90835000Y-50065000D01*
X91450000Y-53575000D02*
X91450000Y-54200000D01*
X90550000Y-52675000D02*
X91450000Y-53575000D01*
X91450000Y-54200000D02*
X90900000Y-54200000D01*
X92950000Y-50065000D02*
X92950000Y-48850000D01*
X93740000Y-54700000D02*
X93565400Y-54525400D01*
X93565400Y-54525400D02*
X93565400Y-53784600D01*
X93565400Y-53784600D02*
X94000000Y-53350000D01*
X94000000Y-53350000D02*
X94750000Y-53350000D01*
X94750000Y-53350000D02*
X95550000Y-52550000D01*
X93740000Y-54700000D02*
X94450000Y-54700000D01*
X95550000Y-49150000D02*
X95550000Y-52550000D01*
X95050000Y-48650000D02*
X95550000Y-49150000D01*
X93150000Y-48650000D02*
X95050000Y-48650000D01*
X92950000Y-48850000D02*
X93150000Y-48650000D01*
X99448260Y-54050000D02*
X98750000Y-54050000D01*
X99898300Y-54500040D02*
X99448260Y-54050000D01*
X100800000Y-54500040D02*
X99898300Y-54500040D01*
X98750000Y-54827400D02*
X98750000Y-54050000D01*
X98627400Y-54950000D02*
X98750000Y-54827400D01*
X96972600Y-54950000D02*
X98627400Y-54950000D01*
X96850000Y-54827400D02*
X96972600Y-54950000D01*
X96850000Y-54050000D02*
X96850000Y-54827400D01*
D27*
X77700000Y-51730000D02*
X80580000Y-51730000D01*
X80800000Y-51950000D02*
X80800000Y-53000000D01*
X80580000Y-51730000D02*
X80800000Y-51950000D01*
D26*
X99249960Y-49450000D02*
X99300000Y-49450000D01*
X87900760Y-56125760D02*
X87425000Y-55650000D01*
X87425000Y-55650000D02*
X87425000Y-50500000D01*
X87425000Y-50500000D02*
X87825760Y-50099240D01*
X87900760Y-56125760D02*
X88975860Y-56125760D01*
X88975860Y-50099240D02*
X87825760Y-50099240D01*
X91680000Y-51335000D02*
X91680000Y-52630000D01*
X92300000Y-56200000D02*
X91450000Y-56200000D01*
X92410000Y-56090000D02*
X92300000Y-56200000D01*
X92410000Y-53360000D02*
X92410000Y-56090000D01*
X91680000Y-52630000D02*
X92410000Y-53360000D01*
D28*
X99250000Y-49450000D02*
X99249960Y-49450000D01*
X99300000Y-49400000D02*
X99250000Y-49450000D01*
D26*
X99249960Y-49450000D02*
X99249960Y-51950000D01*
X100969000Y-51950000D02*
X99249960Y-51950000D01*
D28*
X99249960Y-49499960D02*
X99249960Y-49550000D01*
X99200000Y-49450000D02*
X99249960Y-49499960D01*
D26*
X84150000Y-52050000D02*
X84150000Y-52800000D01*
X83100000Y-52800000D02*
X83090000Y-52800000D01*
X83100000Y-51300000D02*
X83100000Y-51950000D01*
X83100000Y-51950000D02*
X83000000Y-52050000D01*
X84150000Y-52050000D02*
X84150000Y-51300000D01*
X101731000Y-51950000D02*
X101731000Y-53051000D01*
X101830040Y-56399960D02*
X102100000Y-56130000D01*
X101830040Y-56399960D02*
X100800000Y-56399960D01*
X102100000Y-53420000D02*
X102100000Y-56130000D01*
X101731000Y-53051000D02*
X102100000Y-53420000D01*
X82648360Y-51698580D02*
X82999820Y-52050040D01*
X82648360Y-49500000D02*
X82648360Y-51698580D01*
X101731000Y-51950000D02*
X103680000Y-51950000D01*
X103680000Y-51950000D02*
X103900000Y-51730000D01*
X99898300Y-56399960D02*
X100800000Y-56399960D01*
X99550000Y-56051660D02*
X99898300Y-56399960D01*
X99165380Y-55300000D02*
X99550000Y-55684620D01*
X96625000Y-55300000D02*
X99165380Y-55300000D01*
X99550000Y-55684620D02*
X99550000Y-56051660D01*
X96250000Y-54925000D02*
X96625000Y-55300000D01*
X96475000Y-53075000D02*
X96250000Y-53300000D01*
X96250000Y-53300000D02*
X96250000Y-54925000D01*
X97602400Y-53075000D02*
X96475000Y-53075000D01*
X97800000Y-53272600D02*
X97602400Y-53075000D01*
X97800000Y-54050000D02*
X97800000Y-53272600D01*
X97400000Y-51999960D02*
X97350040Y-51950000D01*
X97400000Y-52000000D02*
X97400000Y-51999960D01*
X88975860Y-54124240D02*
X88975860Y-52100760D01*
X97350040Y-49450000D02*
X97350040Y-51950000D01*
D28*
X97200000Y-51799960D02*
X97350040Y-51950000D01*
D26*
X95402400Y-54200000D02*
X95412870Y-54189530D01*
X94450000Y-54200000D02*
X95402400Y-54200000D01*
X98225000Y-56650000D02*
X98750000Y-56650000D01*
X97874544Y-56299544D02*
X98225000Y-56650000D01*
X97600000Y-55675000D02*
X97874544Y-55949544D01*
X96375000Y-55675000D02*
X97600000Y-55675000D01*
X97874544Y-55949544D02*
X97874544Y-56299544D01*
X95412870Y-54189530D02*
X95695341Y-54189530D01*
X95695341Y-53054659D02*
X95695341Y-54189530D01*
X95991589Y-52758411D02*
X95695341Y-53054659D01*
X95991589Y-52208411D02*
X95991589Y-52758411D01*
X96200000Y-52000000D02*
X95991589Y-52208411D01*
X97400000Y-52000000D02*
X96200000Y-52000000D01*
X95695341Y-54189530D02*
X95764530Y-54189530D01*
X95764530Y-54189530D02*
X95925000Y-54350000D01*
X95925000Y-55225000D02*
X96375000Y-55675000D01*
X95925000Y-54350000D02*
X95925000Y-55225000D01*
X83000000Y-53950000D02*
X83000000Y-54950000D01*
X82748360Y-55201640D02*
X82748360Y-56200000D01*
X83000000Y-54950000D02*
X82748360Y-55201640D01*
D29*
X82999820Y-56348540D02*
X82748360Y-56600000D01*
D11*
G36*
X84475000Y-52693859D02*
X84467202Y-52773041D01*
X84445896Y-52843275D01*
X84411299Y-52908002D01*
X84364737Y-52964737D01*
X84308002Y-53011299D01*
X84243275Y-53045896D01*
X84173041Y-53067202D01*
X84093859Y-53075000D01*
X83712793Y-53075000D01*
X83700000Y-53073186D01*
X82787721Y-53073186D01*
X82726959Y-53067202D01*
X82656725Y-53045896D01*
X82591998Y-53011299D01*
X82535263Y-52964737D01*
X82488701Y-52908002D01*
X82454104Y-52843275D01*
X82432798Y-52773041D01*
X82425000Y-52693859D01*
X82425000Y-51406141D01*
X82432798Y-51326959D01*
X82454104Y-51256725D01*
X82488701Y-51191998D01*
X82535263Y-51135263D01*
X82591998Y-51088701D01*
X82656725Y-51054104D01*
X82726959Y-51032798D01*
X82806141Y-51025000D01*
X84093859Y-51025000D01*
X84173041Y-51032798D01*
X84243275Y-51054104D01*
X84308002Y-51088701D01*
X84364737Y-51135263D01*
X84411299Y-51191998D01*
X84445896Y-51256725D01*
X84467202Y-51326959D01*
X84475000Y-51406141D01*
X84475000Y-52693859D01*
X84475000Y-52693859D01*
G37*
X84475000Y-52693859D02*
X84467202Y-52773041D01*
X84445896Y-52843275D01*
X84411299Y-52908002D01*
X84364737Y-52964737D01*
X84308002Y-53011299D01*
X84243275Y-53045896D01*
X84173041Y-53067202D01*
X84093859Y-53075000D01*
X83712793Y-53075000D01*
X83700000Y-53073186D01*
X82787721Y-53073186D01*
X82726959Y-53067202D01*
X82656725Y-53045896D01*
X82591998Y-53011299D01*
X82535263Y-52964737D01*
X82488701Y-52908002D01*
X82454104Y-52843275D01*
X82432798Y-52773041D01*
X82425000Y-52693859D01*
X82425000Y-51406141D01*
X82432798Y-51326959D01*
X82454104Y-51256725D01*
X82488701Y-51191998D01*
X82535263Y-51135263D01*
X82591998Y-51088701D01*
X82656725Y-51054104D01*
X82726959Y-51032798D01*
X82806141Y-51025000D01*
X84093859Y-51025000D01*
X84173041Y-51032798D01*
X84243275Y-51054104D01*
X84308002Y-51088701D01*
X84364737Y-51135263D01*
X84411299Y-51191998D01*
X84445896Y-51256725D01*
X84467202Y-51326959D01*
X84475000Y-51406141D01*
X84475000Y-52693859D01*
D10*
G36*
X93625000Y-57225000D02*
X92225000Y-57225000D01*
X92225000Y-56377085D01*
X92225000Y-56322915D01*
X92225000Y-56293750D01*
X92225000Y-56106250D01*
X92225000Y-56077085D01*
X92225000Y-56022915D01*
X92225000Y-53875000D01*
X92635000Y-53875000D01*
X92635000Y-56565000D01*
X93625000Y-56565000D01*
X93625000Y-57225000D01*
X93625000Y-57225000D01*
G37*
X93625000Y-57225000D02*
X92225000Y-57225000D01*
X92225000Y-56377085D01*
X92225000Y-56322915D01*
X92225000Y-56293750D01*
X92225000Y-56106250D01*
X92225000Y-56077085D01*
X92225000Y-56022915D01*
X92225000Y-53875000D01*
X92635000Y-53875000D01*
X92635000Y-56565000D01*
X93625000Y-56565000D01*
X93625000Y-57225000D01*
M02*
