M48
INCH,TZ
T1C0.013
T2C0.020
T3C0.047
%
G90
G05
T1
X3.2717Y-2.0197
X3.2717Y-2.0787
X3.313Y-2.0197
X3.313Y-2.0492
X3.313Y-2.0787
X3.503Y-1.9724
X3.503Y-2.0512
X3.8346Y-2.0472
X3.9094Y-1.9469
X3.9685Y-2.1457
T2
X3.0925Y-1.8366
X3.0925Y-1.8957
X3.0925Y-2.2776
X3.0925Y-2.3366
X3.124Y-1.8268
X3.124Y-1.9055
X3.124Y-2.2677
X3.124Y-2.3465
X3.1516Y-1.8268
X3.1516Y-1.9055
X3.1516Y-2.2677
X3.1516Y-2.3465
X3.1831Y-1.8366
X3.1831Y-1.8957
X3.1831Y-2.2776
X3.1831Y-2.3366
X3.6094Y-1.9711
X3.6094Y-2.0211
X3.6594Y-1.9711
X3.6594Y-2.0211
X3.7094Y-1.9711
X3.7094Y-2.0211
X3.9626Y-1.8366
X3.9626Y-1.8957
X3.9626Y-2.2776
X3.9626Y-2.3366
X3.9941Y-1.8268
X3.9941Y-1.9055
X3.9941Y-2.2677
X3.9941Y-2.3465
X4.0217Y-1.8268
X4.0217Y-1.9055
X4.0217Y-2.2677
X4.0217Y-2.3465
X4.0531Y-1.8366
X4.0531Y-1.8957
X4.0531Y-2.2776
X4.0531Y-2.3366
T3
X3.0591Y-2.0366
X3.0591Y-2.1366
X4.0906Y-2.0366
X4.0906Y-2.1366
T0
M30
