M48
INCH,TZ
T10C0.013
T11C0.020
T12C0.098
T13C0.157
%
T10
T11
X074488Y-35758
X074488Y-36033
X074488Y-44557
X074488Y-44833
X074488Y-47904
X074488Y-48179
X074488Y-56703
X074488Y-56978
X074488Y-60049
X074488Y-60325
X074488Y-68848
X074488Y-69124
X074587Y-35443
X074587Y-36348
X074587Y-44242
X074587Y-45148
X074587Y-47589
X074587Y-48494
X074587Y-56388
X074587Y-57293
X074587Y-59734
X074587Y-60640
X074587Y-68533
X074587Y-69439
X075177Y-35443
X075177Y-36348
X075177Y-44242
X075177Y-45148
X075177Y-47589
X075177Y-48494
X075177Y-56388
X075177Y-57293
X075177Y-59734
X075177Y-60640
X075177Y-68533
X075177Y-69439
X075276Y-35758
X075276Y-36033
X075276Y-44557
X075276Y-44833
X075276Y-47904
X075276Y-48179
X075276Y-56703
X075276Y-56978
X075276Y-60049
X075276Y-60325
X075276Y-68848
X075276Y-69124
X078898Y-35758
X078898Y-36033
X078898Y-44557
X078898Y-44833
X078898Y-47904
X078898Y-48179
X078898Y-56703
X078898Y-56978
X078898Y-60049
X078898Y-60325
X078898Y-68848
X078898Y-69124
X078996Y-35443
X078996Y-36348
X078996Y-44242
X078996Y-45148
X078996Y-47589
X078996Y-48494
X078996Y-56388
X078996Y-57293
X078996Y-59734
X078996Y-60640
X078996Y-68533
X078996Y-69439
X079587Y-35443
X079587Y-36348
X079587Y-44242
X079587Y-45148
X079587Y-47589
X079587Y-48494
X079587Y-56388
X079587Y-57293
X079587Y-59734
X079587Y-60640
X079587Y-68533
X079587Y-69439
X079685Y-35758
X079685Y-36033
X079685Y-44557
X079685Y-44833
X079685Y-47904
X079685Y-48179
X079685Y-56703
X079685Y-56978
X079685Y-60049
X079685Y-60325
X079685Y-68848
X079685Y-69124
X083307Y-35758
X083307Y-36033
X083307Y-44557
X083307Y-44833
X083307Y-47904
X083307Y-48179
X083307Y-56703
X083307Y-56978
X083307Y-60049
X083307Y-60325
X083307Y-68848
X083307Y-69124
X083406Y-35443
X083406Y-36348
X083406Y-44242
X083406Y-45148
X083406Y-47589
X083406Y-48494
X083406Y-56388
X083406Y-57293
X083406Y-59734
X083406Y-60640
X083406Y-68533
X083406Y-69439
X083996Y-35443
X083996Y-36348
X083996Y-44242
X083996Y-45148
X083996Y-47589
X083996Y-48494
X083996Y-56388
X083996Y-57293
X083996Y-59734
X083996Y-60640
X083996Y-68533
X083996Y-69439
X084094Y-35758
X084094Y-36033
X084094Y-44557
X084094Y-44833
X084094Y-47904
X084094Y-48179
X084094Y-56703
X084094Y-56978
X084094Y-60049
X084094Y-60325
X084094Y-68848
X084094Y-69124
X087717Y-35758
X087717Y-36033
X087717Y-44557
X087717Y-44833
X087717Y-47904
X087717Y-48179
X087717Y-56703
X087717Y-56978
X087717Y-60049
X087717Y-60325
X087717Y-68848
X087717Y-69124
X087815Y-35443
X087815Y-36348
X087815Y-44242
X087815Y-45148
X087815Y-47589
X087815Y-48494
X087815Y-56388
X087815Y-57293
X087815Y-59734
X087815Y-60640
X087815Y-68533
X087815Y-69439
X088406Y-35443
X088406Y-36348
X088406Y-44242
X088406Y-45148
X088406Y-47589
X088406Y-48494
X088406Y-56388
X088406Y-57293
X088406Y-59734
X088406Y-60640
X088406Y-68533
X088406Y-69439
X088504Y-35758
X088504Y-36033
X088504Y-44557
X088504Y-44833
X088504Y-47904
X088504Y-48179
X088504Y-56703
X088504Y-56978
X088504Y-60049
X088504Y-60325
X088504Y-68848
X088504Y-69124
X092126Y-35758
X092126Y-36033
X092126Y-44557
X092126Y-44833
X092126Y-47904
X092126Y-48179
X092126Y-56703
X092126Y-56978
X092126Y-60049
X092126Y-60325
X092126Y-68848
X092126Y-69124
X092224Y-35443
X092224Y-36348
X092224Y-44242
X092224Y-45148
X092224Y-47589
X092224Y-48494
X092224Y-56388
X092224Y-57293
X092224Y-59734
X092224Y-60640
X092224Y-68533
X092224Y-69439
X092815Y-35443
X092815Y-36348
X092815Y-44242
X092815Y-45148
X092815Y-47589
X092815Y-48494
X092815Y-56388
X092815Y-57293
X092815Y-59734
X092815Y-60640
X092815Y-68533
X092815Y-69439
X092913Y-35758
X092913Y-36033
X092913Y-44557
X092913Y-44833
X092913Y-47904
X092913Y-48179
X092913Y-56703
X092913Y-56978
X092913Y-60049
X092913Y-60325
X092913Y-68848
X092913Y-69124
X096535Y-35758
X096535Y-36033
X096535Y-44557
X096535Y-44557
X096535Y-44833
X096535Y-44833
X096535Y-47904
X096535Y-47904
X096535Y-48179
X096535Y-48179
X096535Y-56703
X096535Y-56978
X096535Y-60049
X096535Y-60325
X096535Y-68848
X096535Y-69124
X096634Y-35443
X096634Y-36348
X096634Y-44242
X096634Y-44242
X096634Y-45148
X096634Y-45148
X096634Y-47589
X096634Y-47589
X096634Y-48494
X096634Y-48494
X096634Y-56388
X096634Y-57293
X096634Y-59734
X096634Y-60640
X096634Y-68533
X096634Y-69439
X097224Y-35443
X097224Y-36348
X097224Y-44242
X097224Y-44242
X097224Y-45148
X097224Y-45148
X097224Y-47589
X097224Y-47589
X097224Y-48494
X097224Y-48494
X097224Y-56388
X097224Y-57293
X097224Y-59734
X097224Y-60640
X097224Y-68533
X097224Y-69439
X097323Y-35758
X097323Y-36033
X097323Y-44557
X097323Y-44557
X097323Y-44833
X097323Y-44833
X097323Y-47904
X097323Y-47904
X097323Y-48179
X097323Y-48179
X097323Y-56703
X097323Y-56978
X097323Y-60049
X097323Y-60325
X097323Y-68848
X097323Y-69124
X100945Y-35758
X100945Y-36033
X100945Y-44557
X100945Y-44557
X100945Y-44833
X100945Y-44833
X100945Y-47904
X100945Y-47904
X100945Y-48179
X100945Y-48179
X100945Y-56703
X100945Y-56978
X100945Y-60049
X100945Y-60325
X100945Y-68848
X100945Y-69124
X101043Y-35443
X101043Y-36348
X101043Y-44242
X101043Y-44242
X101043Y-45148
X101043Y-45148
X101043Y-47589
X101043Y-47589
X101043Y-48494
X101043Y-48494
X101043Y-56388
X101043Y-57293
X101043Y-59734
X101043Y-60640
X101043Y-68533
X101043Y-69439
X101634Y-35443
X101634Y-36348
X101634Y-44242
X101634Y-44242
X101634Y-45148
X101634Y-45148
X101634Y-47589
X101634Y-47589
X101634Y-48494
X101634Y-48494
X101634Y-56388
X101634Y-57293
X101634Y-59734
X101634Y-60640
X101634Y-68533
X101634Y-69439
X101732Y-35758
X101732Y-36033
X101732Y-44557
X101732Y-44557
X101732Y-44833
X101732Y-44833
X101732Y-47904
X101732Y-47904
X101732Y-48179
X101732Y-48179
X101732Y-56703
X101732Y-56978
X101732Y-60049
X101732Y-60325
X101732Y-68848
X101732Y-69124
X105354Y-35758
X105354Y-36033
X105354Y-44557
X105354Y-44833
X105354Y-47904
X105354Y-48179
X105354Y-56703
X105354Y-56978
X105354Y-60049
X105354Y-60325
X105354Y-68848
X105354Y-69124
X105453Y-35443
X105453Y-36348
X105453Y-44242
X105453Y-45148
X105453Y-47589
X105453Y-48494
X105453Y-56388
X105453Y-57293
X105453Y-59734
X105453Y-60640
X105453Y-68533
X105453Y-69439
X106043Y-35443
X106043Y-36348
X106043Y-44242
X106043Y-45148
X106043Y-47589
X106043Y-48494
X106043Y-56388
X106043Y-57293
X106043Y-59734
X106043Y-60640
X106043Y-68533
X106043Y-69439
X106142Y-35758
X106142Y-36033
X106142Y-44557
X106142Y-44833
X106142Y-47904
X106142Y-48179
X106142Y-56703
X106142Y-56978
X106142Y-60049
X106142Y-60325
X106142Y-68848
X106142Y-69124
T12
X072638Y-36614
X072638Y-52362
X072638Y-68110
X108071Y-36614
X108071Y-52362
X108071Y-68110
T13
X072638Y-38583
X072638Y-66142
X108071Y-38583
X108071Y-66142
M30

