G04 (created by PCBNEW (2013-08-09 BZR 4280)-product) date Fri 09 Aug 2013 07:25:22 PM CEST*
%MOIN*%
G04 Gerber Fmt 3.4, Leading zero omitted, Abs format*
%FSLAX34Y34*%
G01*
G70*
G90*
G04 APERTURE LIST*
%ADD10C,0.005906*%
%ADD11C,0.007874*%
%ADD12C,0.001969*%
%ADD13C,0.003937*%
G04 APERTURE END LIST*
G54D10*
G54D11*
X75118Y-69950D02*
G75*
G03X75511Y-70344I393J0D01*
G74*
G01*
X78661Y-70344D02*
G75*
G03X79055Y-69950I0J393D01*
G74*
G01*
X79055Y-59064D02*
G75*
G03X78661Y-58671I-393J0D01*
G74*
G01*
X75511Y-58671D02*
G75*
G03X75118Y-59064I0J-393D01*
G74*
G01*
X75118Y-69950D02*
X75118Y-59064D01*
X75511Y-58671D02*
X78661Y-58671D01*
X79055Y-59064D02*
X79055Y-69950D01*
X78661Y-70344D02*
X75511Y-70344D01*
G54D12*
X75531Y-59064D02*
G75*
G03X75531Y-59064I-19J0D01*
G74*
G01*
X78681Y-59064D02*
G75*
G03X78681Y-59064I-19J0D01*
G74*
G01*
X75531Y-69950D02*
G75*
G03X75531Y-69950I-19J0D01*
G74*
G01*
X78681Y-69950D02*
G75*
G03X78681Y-69950I-19J0D01*
G74*
G01*
G54D11*
X75118Y-57805D02*
G75*
G03X75511Y-58198I393J0D01*
G74*
G01*
X78661Y-58198D02*
G75*
G03X79055Y-57805I0J393D01*
G74*
G01*
X79055Y-46919D02*
G75*
G03X78661Y-46525I-393J0D01*
G74*
G01*
X75511Y-46525D02*
G75*
G03X75118Y-46919I0J-393D01*
G74*
G01*
X75118Y-57805D02*
X75118Y-46919D01*
X75511Y-46525D02*
X78661Y-46525D01*
X79055Y-46919D02*
X79055Y-57805D01*
X78661Y-58198D02*
X75511Y-58198D01*
G54D12*
X75531Y-46919D02*
G75*
G03X75531Y-46919I-19J0D01*
G74*
G01*
X78681Y-46919D02*
G75*
G03X78681Y-46919I-19J0D01*
G74*
G01*
X75531Y-57805D02*
G75*
G03X75531Y-57805I-19J0D01*
G74*
G01*
X78681Y-57805D02*
G75*
G03X78681Y-57805I-19J0D01*
G74*
G01*
G54D11*
X75118Y-45659D02*
G75*
G03X75511Y-46053I393J0D01*
G74*
G01*
X78661Y-46053D02*
G75*
G03X79055Y-45659I0J393D01*
G74*
G01*
X79055Y-34773D02*
G75*
G03X78661Y-34379I-393J0D01*
G74*
G01*
X75511Y-34379D02*
G75*
G03X75118Y-34773I0J-393D01*
G74*
G01*
X75118Y-45659D02*
X75118Y-34773D01*
X75511Y-34379D02*
X78661Y-34379D01*
X79055Y-34773D02*
X79055Y-45659D01*
X78661Y-46053D02*
X75511Y-46053D01*
G54D12*
X75531Y-34773D02*
G75*
G03X75531Y-34773I-19J0D01*
G74*
G01*
X78681Y-34773D02*
G75*
G03X78681Y-34773I-19J0D01*
G74*
G01*
X75531Y-45659D02*
G75*
G03X75531Y-45659I-19J0D01*
G74*
G01*
X78681Y-45659D02*
G75*
G03X78681Y-45659I-19J0D01*
G74*
G01*
X83090Y-45659D02*
G75*
G03X83090Y-45659I-19J0D01*
G74*
G01*
X79940Y-45659D02*
G75*
G03X79940Y-45659I-19J0D01*
G74*
G01*
X83090Y-34773D02*
G75*
G03X83090Y-34773I-19J0D01*
G74*
G01*
X79940Y-34773D02*
G75*
G03X79940Y-34773I-19J0D01*
G74*
G01*
G54D11*
X83070Y-46053D02*
X79921Y-46053D01*
X83464Y-34773D02*
X83464Y-45659D01*
X79921Y-34379D02*
X83070Y-34379D01*
X79527Y-45659D02*
X79527Y-34773D01*
X79921Y-34379D02*
G75*
G03X79527Y-34773I0J-393D01*
G74*
G01*
X83464Y-34773D02*
G75*
G03X83070Y-34379I-393J0D01*
G74*
G01*
X83070Y-46053D02*
G75*
G03X83464Y-45659I0J393D01*
G74*
G01*
X79527Y-45659D02*
G75*
G03X79921Y-46053I393J0D01*
G74*
G01*
G54D12*
X83090Y-57805D02*
G75*
G03X83090Y-57805I-19J0D01*
G74*
G01*
X79940Y-57805D02*
G75*
G03X79940Y-57805I-19J0D01*
G74*
G01*
X83090Y-46919D02*
G75*
G03X83090Y-46919I-19J0D01*
G74*
G01*
X79940Y-46919D02*
G75*
G03X79940Y-46919I-19J0D01*
G74*
G01*
G54D11*
X83070Y-58198D02*
X79921Y-58198D01*
X83464Y-46919D02*
X83464Y-57805D01*
X79921Y-46525D02*
X83070Y-46525D01*
X79527Y-57805D02*
X79527Y-46919D01*
X79921Y-46525D02*
G75*
G03X79527Y-46919I0J-393D01*
G74*
G01*
X83464Y-46919D02*
G75*
G03X83070Y-46525I-393J0D01*
G74*
G01*
X83070Y-58198D02*
G75*
G03X83464Y-57805I0J393D01*
G74*
G01*
X79527Y-57805D02*
G75*
G03X79921Y-58198I393J0D01*
G74*
G01*
G54D12*
X83090Y-69950D02*
G75*
G03X83090Y-69950I-19J0D01*
G74*
G01*
X79940Y-69950D02*
G75*
G03X79940Y-69950I-19J0D01*
G74*
G01*
X83090Y-59064D02*
G75*
G03X83090Y-59064I-19J0D01*
G74*
G01*
X79940Y-59064D02*
G75*
G03X79940Y-59064I-19J0D01*
G74*
G01*
G54D11*
X83070Y-70344D02*
X79921Y-70344D01*
X83464Y-59064D02*
X83464Y-69950D01*
X79921Y-58671D02*
X83070Y-58671D01*
X79527Y-69950D02*
X79527Y-59064D01*
X79921Y-58671D02*
G75*
G03X79527Y-59064I0J-393D01*
G74*
G01*
X83464Y-59064D02*
G75*
G03X83070Y-58671I-393J0D01*
G74*
G01*
X83070Y-70344D02*
G75*
G03X83464Y-69950I0J393D01*
G74*
G01*
X79527Y-69950D02*
G75*
G03X79921Y-70344I393J0D01*
G74*
G01*
X83937Y-69950D02*
G75*
G03X84330Y-70344I393J0D01*
G74*
G01*
X87480Y-70344D02*
G75*
G03X87874Y-69950I0J393D01*
G74*
G01*
X87874Y-59064D02*
G75*
G03X87480Y-58671I-393J0D01*
G74*
G01*
X84330Y-58671D02*
G75*
G03X83937Y-59064I0J-393D01*
G74*
G01*
X83937Y-69950D02*
X83937Y-59064D01*
X84330Y-58671D02*
X87480Y-58671D01*
X87874Y-59064D02*
X87874Y-69950D01*
X87480Y-70344D02*
X84330Y-70344D01*
G54D12*
X84350Y-59064D02*
G75*
G03X84350Y-59064I-19J0D01*
G74*
G01*
X87500Y-59064D02*
G75*
G03X87500Y-59064I-19J0D01*
G74*
G01*
X84350Y-69950D02*
G75*
G03X84350Y-69950I-19J0D01*
G74*
G01*
X87500Y-69950D02*
G75*
G03X87500Y-69950I-19J0D01*
G74*
G01*
G54D11*
X83937Y-57805D02*
G75*
G03X84330Y-58198I393J0D01*
G74*
G01*
X87480Y-58198D02*
G75*
G03X87874Y-57805I0J393D01*
G74*
G01*
X87874Y-46919D02*
G75*
G03X87480Y-46525I-393J0D01*
G74*
G01*
X84330Y-46525D02*
G75*
G03X83937Y-46919I0J-393D01*
G74*
G01*
X83937Y-57805D02*
X83937Y-46919D01*
X84330Y-46525D02*
X87480Y-46525D01*
X87874Y-46919D02*
X87874Y-57805D01*
X87480Y-58198D02*
X84330Y-58198D01*
G54D12*
X84350Y-46919D02*
G75*
G03X84350Y-46919I-19J0D01*
G74*
G01*
X87500Y-46919D02*
G75*
G03X87500Y-46919I-19J0D01*
G74*
G01*
X84350Y-57805D02*
G75*
G03X84350Y-57805I-19J0D01*
G74*
G01*
X87500Y-57805D02*
G75*
G03X87500Y-57805I-19J0D01*
G74*
G01*
G54D11*
X83937Y-45659D02*
G75*
G03X84330Y-46053I393J0D01*
G74*
G01*
X87480Y-46053D02*
G75*
G03X87874Y-45659I0J393D01*
G74*
G01*
X87874Y-34773D02*
G75*
G03X87480Y-34379I-393J0D01*
G74*
G01*
X84330Y-34379D02*
G75*
G03X83937Y-34773I0J-393D01*
G74*
G01*
X83937Y-45659D02*
X83937Y-34773D01*
X84330Y-34379D02*
X87480Y-34379D01*
X87874Y-34773D02*
X87874Y-45659D01*
X87480Y-46053D02*
X84330Y-46053D01*
G54D12*
X84350Y-34773D02*
G75*
G03X84350Y-34773I-19J0D01*
G74*
G01*
X87500Y-34773D02*
G75*
G03X87500Y-34773I-19J0D01*
G74*
G01*
X84350Y-45659D02*
G75*
G03X84350Y-45659I-19J0D01*
G74*
G01*
X87500Y-45659D02*
G75*
G03X87500Y-45659I-19J0D01*
G74*
G01*
X96318Y-45659D02*
G75*
G03X96318Y-45659I-19J0D01*
G74*
G01*
X93169Y-45659D02*
G75*
G03X93169Y-45659I-19J0D01*
G74*
G01*
X96318Y-34773D02*
G75*
G03X96318Y-34773I-19J0D01*
G74*
G01*
X93169Y-34773D02*
G75*
G03X93169Y-34773I-19J0D01*
G74*
G01*
G54D11*
X96299Y-46053D02*
X93149Y-46053D01*
X96692Y-34773D02*
X96692Y-45659D01*
X93149Y-34379D02*
X96299Y-34379D01*
X92755Y-45659D02*
X92755Y-34773D01*
X93149Y-34379D02*
G75*
G03X92755Y-34773I0J-393D01*
G74*
G01*
X96692Y-34773D02*
G75*
G03X96299Y-34379I-393J0D01*
G74*
G01*
X96299Y-46053D02*
G75*
G03X96692Y-45659I0J393D01*
G74*
G01*
X92755Y-45659D02*
G75*
G03X93149Y-46053I393J0D01*
G74*
G01*
G54D12*
X96318Y-57805D02*
G75*
G03X96318Y-57805I-19J0D01*
G74*
G01*
X93169Y-57805D02*
G75*
G03X93169Y-57805I-19J0D01*
G74*
G01*
X96318Y-46919D02*
G75*
G03X96318Y-46919I-19J0D01*
G74*
G01*
X93169Y-46919D02*
G75*
G03X93169Y-46919I-19J0D01*
G74*
G01*
G54D11*
X96299Y-58198D02*
X93149Y-58198D01*
X96692Y-46919D02*
X96692Y-57805D01*
X93149Y-46525D02*
X96299Y-46525D01*
X92755Y-57805D02*
X92755Y-46919D01*
X93149Y-46525D02*
G75*
G03X92755Y-46919I0J-393D01*
G74*
G01*
X96692Y-46919D02*
G75*
G03X96299Y-46525I-393J0D01*
G74*
G01*
X96299Y-58198D02*
G75*
G03X96692Y-57805I0J393D01*
G74*
G01*
X92755Y-57805D02*
G75*
G03X93149Y-58198I393J0D01*
G74*
G01*
G54D12*
X96318Y-69950D02*
G75*
G03X96318Y-69950I-19J0D01*
G74*
G01*
X93169Y-69950D02*
G75*
G03X93169Y-69950I-19J0D01*
G74*
G01*
X96318Y-59064D02*
G75*
G03X96318Y-59064I-19J0D01*
G74*
G01*
X93169Y-59064D02*
G75*
G03X93169Y-59064I-19J0D01*
G74*
G01*
G54D11*
X96299Y-70344D02*
X93149Y-70344D01*
X96692Y-59064D02*
X96692Y-69950D01*
X93149Y-58671D02*
X96299Y-58671D01*
X92755Y-69950D02*
X92755Y-59064D01*
X93149Y-58671D02*
G75*
G03X92755Y-59064I0J-393D01*
G74*
G01*
X96692Y-59064D02*
G75*
G03X96299Y-58671I-393J0D01*
G74*
G01*
X96299Y-70344D02*
G75*
G03X96692Y-69950I0J393D01*
G74*
G01*
X92755Y-69950D02*
G75*
G03X93149Y-70344I393J0D01*
G74*
G01*
X88346Y-69950D02*
G75*
G03X88740Y-70344I393J0D01*
G74*
G01*
X91889Y-70344D02*
G75*
G03X92283Y-69950I0J393D01*
G74*
G01*
X92283Y-59064D02*
G75*
G03X91889Y-58671I-393J0D01*
G74*
G01*
X88740Y-58671D02*
G75*
G03X88346Y-59064I0J-393D01*
G74*
G01*
X88346Y-69950D02*
X88346Y-59064D01*
X88740Y-58671D02*
X91889Y-58671D01*
X92283Y-59064D02*
X92283Y-69950D01*
X91889Y-70344D02*
X88740Y-70344D01*
G54D12*
X88759Y-59064D02*
G75*
G03X88759Y-59064I-19J0D01*
G74*
G01*
X91909Y-59064D02*
G75*
G03X91909Y-59064I-19J0D01*
G74*
G01*
X88759Y-69950D02*
G75*
G03X88759Y-69950I-19J0D01*
G74*
G01*
X91909Y-69950D02*
G75*
G03X91909Y-69950I-19J0D01*
G74*
G01*
G54D11*
X88346Y-57805D02*
G75*
G03X88740Y-58198I393J0D01*
G74*
G01*
X91889Y-58198D02*
G75*
G03X92283Y-57805I0J393D01*
G74*
G01*
X92283Y-46919D02*
G75*
G03X91889Y-46525I-393J0D01*
G74*
G01*
X88740Y-46525D02*
G75*
G03X88346Y-46919I0J-393D01*
G74*
G01*
X88346Y-57805D02*
X88346Y-46919D01*
X88740Y-46525D02*
X91889Y-46525D01*
X92283Y-46919D02*
X92283Y-57805D01*
X91889Y-58198D02*
X88740Y-58198D01*
G54D12*
X88759Y-46919D02*
G75*
G03X88759Y-46919I-19J0D01*
G74*
G01*
X91909Y-46919D02*
G75*
G03X91909Y-46919I-19J0D01*
G74*
G01*
X88759Y-57805D02*
G75*
G03X88759Y-57805I-19J0D01*
G74*
G01*
X91909Y-57805D02*
G75*
G03X91909Y-57805I-19J0D01*
G74*
G01*
G54D11*
X88346Y-45659D02*
G75*
G03X88740Y-46053I393J0D01*
G74*
G01*
X91889Y-46053D02*
G75*
G03X92283Y-45659I0J393D01*
G74*
G01*
X92283Y-34773D02*
G75*
G03X91889Y-34379I-393J0D01*
G74*
G01*
X88740Y-34379D02*
G75*
G03X88346Y-34773I0J-393D01*
G74*
G01*
X88346Y-45659D02*
X88346Y-34773D01*
X88740Y-34379D02*
X91889Y-34379D01*
X92283Y-34773D02*
X92283Y-45659D01*
X91889Y-46053D02*
X88740Y-46053D01*
G54D12*
X88759Y-34773D02*
G75*
G03X88759Y-34773I-19J0D01*
G74*
G01*
X91909Y-34773D02*
G75*
G03X91909Y-34773I-19J0D01*
G74*
G01*
X88759Y-45659D02*
G75*
G03X88759Y-45659I-19J0D01*
G74*
G01*
X91909Y-45659D02*
G75*
G03X91909Y-45659I-19J0D01*
G74*
G01*
X100728Y-45659D02*
G75*
G03X100728Y-45659I-19J0D01*
G74*
G01*
X97578Y-45659D02*
G75*
G03X97578Y-45659I-19J0D01*
G74*
G01*
X100728Y-34773D02*
G75*
G03X100728Y-34773I-19J0D01*
G74*
G01*
X97578Y-34773D02*
G75*
G03X97578Y-34773I-19J0D01*
G74*
G01*
G54D11*
X100708Y-46053D02*
X97559Y-46053D01*
X101102Y-34773D02*
X101102Y-45659D01*
X97559Y-34379D02*
X100708Y-34379D01*
X97165Y-45659D02*
X97165Y-34773D01*
X97559Y-34379D02*
G75*
G03X97165Y-34773I0J-393D01*
G74*
G01*
X101102Y-34773D02*
G75*
G03X100708Y-34379I-393J0D01*
G74*
G01*
X100708Y-46053D02*
G75*
G03X101102Y-45659I0J393D01*
G74*
G01*
X97165Y-45659D02*
G75*
G03X97559Y-46053I393J0D01*
G74*
G01*
G54D12*
X100728Y-57805D02*
G75*
G03X100728Y-57805I-19J0D01*
G74*
G01*
X97578Y-57805D02*
G75*
G03X97578Y-57805I-19J0D01*
G74*
G01*
X100728Y-46919D02*
G75*
G03X100728Y-46919I-19J0D01*
G74*
G01*
X97578Y-46919D02*
G75*
G03X97578Y-46919I-19J0D01*
G74*
G01*
G54D11*
X100708Y-58198D02*
X97559Y-58198D01*
X101102Y-46919D02*
X101102Y-57805D01*
X97559Y-46525D02*
X100708Y-46525D01*
X97165Y-57805D02*
X97165Y-46919D01*
X97559Y-46525D02*
G75*
G03X97165Y-46919I0J-393D01*
G74*
G01*
X101102Y-46919D02*
G75*
G03X100708Y-46525I-393J0D01*
G74*
G01*
X100708Y-58198D02*
G75*
G03X101102Y-57805I0J393D01*
G74*
G01*
X97165Y-57805D02*
G75*
G03X97559Y-58198I393J0D01*
G74*
G01*
G54D12*
X100728Y-69950D02*
G75*
G03X100728Y-69950I-19J0D01*
G74*
G01*
X97578Y-69950D02*
G75*
G03X97578Y-69950I-19J0D01*
G74*
G01*
X100728Y-59064D02*
G75*
G03X100728Y-59064I-19J0D01*
G74*
G01*
X97578Y-59064D02*
G75*
G03X97578Y-59064I-19J0D01*
G74*
G01*
G54D11*
X100708Y-70344D02*
X97559Y-70344D01*
X101102Y-59064D02*
X101102Y-69950D01*
X97559Y-58671D02*
X100708Y-58671D01*
X97165Y-69950D02*
X97165Y-59064D01*
X97559Y-58671D02*
G75*
G03X97165Y-59064I0J-393D01*
G74*
G01*
X101102Y-59064D02*
G75*
G03X100708Y-58671I-393J0D01*
G74*
G01*
X100708Y-70344D02*
G75*
G03X101102Y-69950I0J393D01*
G74*
G01*
X97165Y-69950D02*
G75*
G03X97559Y-70344I393J0D01*
G74*
G01*
X101574Y-69950D02*
G75*
G03X101968Y-70344I393J0D01*
G74*
G01*
X105118Y-70344D02*
G75*
G03X105511Y-69950I0J393D01*
G74*
G01*
X105511Y-59064D02*
G75*
G03X105118Y-58671I-393J0D01*
G74*
G01*
X101968Y-58671D02*
G75*
G03X101574Y-59064I0J-393D01*
G74*
G01*
X101574Y-69950D02*
X101574Y-59064D01*
X101968Y-58671D02*
X105118Y-58671D01*
X105511Y-59064D02*
X105511Y-69950D01*
X105118Y-70344D02*
X101968Y-70344D01*
G54D12*
X101988Y-59064D02*
G75*
G03X101988Y-59064I-19J0D01*
G74*
G01*
X105137Y-59064D02*
G75*
G03X105137Y-59064I-19J0D01*
G74*
G01*
X101988Y-69950D02*
G75*
G03X101988Y-69950I-19J0D01*
G74*
G01*
X105137Y-69950D02*
G75*
G03X105137Y-69950I-19J0D01*
G74*
G01*
G54D11*
X101574Y-57805D02*
G75*
G03X101968Y-58198I393J0D01*
G74*
G01*
X105118Y-58198D02*
G75*
G03X105511Y-57805I0J393D01*
G74*
G01*
X105511Y-46919D02*
G75*
G03X105118Y-46525I-393J0D01*
G74*
G01*
X101968Y-46525D02*
G75*
G03X101574Y-46919I0J-393D01*
G74*
G01*
X101574Y-57805D02*
X101574Y-46919D01*
X101968Y-46525D02*
X105118Y-46525D01*
X105511Y-46919D02*
X105511Y-57805D01*
X105118Y-58198D02*
X101968Y-58198D01*
G54D12*
X101988Y-46919D02*
G75*
G03X101988Y-46919I-19J0D01*
G74*
G01*
X105137Y-46919D02*
G75*
G03X105137Y-46919I-19J0D01*
G74*
G01*
X101988Y-57805D02*
G75*
G03X101988Y-57805I-19J0D01*
G74*
G01*
X105137Y-57805D02*
G75*
G03X105137Y-57805I-19J0D01*
G74*
G01*
G54D11*
X101574Y-45659D02*
G75*
G03X101968Y-46053I393J0D01*
G74*
G01*
X105118Y-46053D02*
G75*
G03X105511Y-45659I0J393D01*
G74*
G01*
X105511Y-34773D02*
G75*
G03X105118Y-34379I-393J0D01*
G74*
G01*
X101968Y-34379D02*
G75*
G03X101574Y-34773I0J-393D01*
G74*
G01*
X101574Y-45659D02*
X101574Y-34773D01*
X101968Y-34379D02*
X105118Y-34379D01*
X105511Y-34773D02*
X105511Y-45659D01*
X105118Y-46053D02*
X101968Y-46053D01*
G54D12*
X101988Y-34773D02*
G75*
G03X101988Y-34773I-19J0D01*
G74*
G01*
X105137Y-34773D02*
G75*
G03X105137Y-34773I-19J0D01*
G74*
G01*
X101988Y-45659D02*
G75*
G03X101988Y-45659I-19J0D01*
G74*
G01*
X105137Y-45659D02*
G75*
G03X105137Y-45659I-19J0D01*
G74*
G01*
G54D13*
X76515Y-61486D02*
X76830Y-61486D01*
X76515Y-61643D02*
X76830Y-61643D01*
X76673Y-61643D02*
X76673Y-61801D01*
X76673Y-61486D02*
X76673Y-61328D01*
G54D11*
X76425Y-61958D02*
X76425Y-61171D01*
X76425Y-61171D02*
X76921Y-61171D01*
X76921Y-61171D02*
X76921Y-61958D01*
X76921Y-61958D02*
X76425Y-61958D01*
G54D13*
X78129Y-60423D02*
X78129Y-60738D01*
X77972Y-60423D02*
X77972Y-60738D01*
X77972Y-60580D02*
X77814Y-60580D01*
X78129Y-60580D02*
X78287Y-60580D01*
G54D11*
X77657Y-60332D02*
X78444Y-60332D01*
X78444Y-60332D02*
X78444Y-60828D01*
X78444Y-60828D02*
X77657Y-60828D01*
X77657Y-60828D02*
X77657Y-60332D01*
G54D13*
X75531Y-61486D02*
X75846Y-61486D01*
X75531Y-61643D02*
X75846Y-61643D01*
X75688Y-61643D02*
X75688Y-61801D01*
X75688Y-61486D02*
X75688Y-61328D01*
G54D11*
X75440Y-61958D02*
X75440Y-61171D01*
X75440Y-61171D02*
X75937Y-61171D01*
X75937Y-61171D02*
X75937Y-61958D01*
X75937Y-61958D02*
X75440Y-61958D01*
G54D13*
X76515Y-49340D02*
X76830Y-49340D01*
X76515Y-49498D02*
X76830Y-49498D01*
X76673Y-49498D02*
X76673Y-49655D01*
X76673Y-49340D02*
X76673Y-49183D01*
G54D11*
X76425Y-49812D02*
X76425Y-49025D01*
X76425Y-49025D02*
X76921Y-49025D01*
X76921Y-49025D02*
X76921Y-49812D01*
X76921Y-49812D02*
X76425Y-49812D01*
G54D13*
X78129Y-48277D02*
X78129Y-48592D01*
X77972Y-48277D02*
X77972Y-48592D01*
X77972Y-48435D02*
X77814Y-48435D01*
X78129Y-48435D02*
X78287Y-48435D01*
G54D11*
X77657Y-48187D02*
X78444Y-48187D01*
X78444Y-48187D02*
X78444Y-48683D01*
X78444Y-48683D02*
X77657Y-48683D01*
X77657Y-48683D02*
X77657Y-48187D01*
G54D13*
X75531Y-49340D02*
X75846Y-49340D01*
X75531Y-49498D02*
X75846Y-49498D01*
X75688Y-49498D02*
X75688Y-49655D01*
X75688Y-49340D02*
X75688Y-49183D01*
G54D11*
X75440Y-49812D02*
X75440Y-49025D01*
X75440Y-49025D02*
X75937Y-49025D01*
X75937Y-49025D02*
X75937Y-49812D01*
X75937Y-49812D02*
X75440Y-49812D01*
G54D13*
X76515Y-37194D02*
X76830Y-37194D01*
X76515Y-37352D02*
X76830Y-37352D01*
X76673Y-37352D02*
X76673Y-37509D01*
X76673Y-37194D02*
X76673Y-37037D01*
G54D11*
X76425Y-37667D02*
X76425Y-36879D01*
X76425Y-36879D02*
X76921Y-36879D01*
X76921Y-36879D02*
X76921Y-37667D01*
X76921Y-37667D02*
X76425Y-37667D01*
G54D13*
X78129Y-36131D02*
X78129Y-36446D01*
X77972Y-36131D02*
X77972Y-36446D01*
X77972Y-36289D02*
X77814Y-36289D01*
X78129Y-36289D02*
X78287Y-36289D01*
G54D11*
X77657Y-36041D02*
X78444Y-36041D01*
X78444Y-36041D02*
X78444Y-36537D01*
X78444Y-36537D02*
X77657Y-36537D01*
X77657Y-36537D02*
X77657Y-36041D01*
G54D13*
X75531Y-37194D02*
X75846Y-37194D01*
X75531Y-37352D02*
X75846Y-37352D01*
X75688Y-37352D02*
X75688Y-37509D01*
X75688Y-37194D02*
X75688Y-37037D01*
G54D11*
X75440Y-37667D02*
X75440Y-36879D01*
X75440Y-36879D02*
X75937Y-36879D01*
X75937Y-36879D02*
X75937Y-37667D01*
X75937Y-37667D02*
X75440Y-37667D01*
G54D13*
X79940Y-37194D02*
X80255Y-37194D01*
X79940Y-37352D02*
X80255Y-37352D01*
X80098Y-37352D02*
X80098Y-37509D01*
X80098Y-37194D02*
X80098Y-37037D01*
G54D11*
X79850Y-37667D02*
X79850Y-36879D01*
X79850Y-36879D02*
X80346Y-36879D01*
X80346Y-36879D02*
X80346Y-37667D01*
X80346Y-37667D02*
X79850Y-37667D01*
G54D13*
X82539Y-36131D02*
X82539Y-36446D01*
X82381Y-36131D02*
X82381Y-36446D01*
X82381Y-36289D02*
X82224Y-36289D01*
X82539Y-36289D02*
X82696Y-36289D01*
G54D11*
X82066Y-36041D02*
X82854Y-36041D01*
X82854Y-36041D02*
X82854Y-36537D01*
X82854Y-36537D02*
X82066Y-36537D01*
X82066Y-36537D02*
X82066Y-36041D01*
G54D13*
X80925Y-37194D02*
X81240Y-37194D01*
X80925Y-37352D02*
X81240Y-37352D01*
X81082Y-37352D02*
X81082Y-37509D01*
X81082Y-37194D02*
X81082Y-37037D01*
G54D11*
X80834Y-37667D02*
X80834Y-36879D01*
X80834Y-36879D02*
X81330Y-36879D01*
X81330Y-36879D02*
X81330Y-37667D01*
X81330Y-37667D02*
X80834Y-37667D01*
G54D13*
X79940Y-49340D02*
X80255Y-49340D01*
X79940Y-49498D02*
X80255Y-49498D01*
X80098Y-49498D02*
X80098Y-49655D01*
X80098Y-49340D02*
X80098Y-49183D01*
G54D11*
X79850Y-49812D02*
X79850Y-49025D01*
X79850Y-49025D02*
X80346Y-49025D01*
X80346Y-49025D02*
X80346Y-49812D01*
X80346Y-49812D02*
X79850Y-49812D01*
G54D13*
X82539Y-48277D02*
X82539Y-48592D01*
X82381Y-48277D02*
X82381Y-48592D01*
X82381Y-48435D02*
X82224Y-48435D01*
X82539Y-48435D02*
X82696Y-48435D01*
G54D11*
X82066Y-48187D02*
X82854Y-48187D01*
X82854Y-48187D02*
X82854Y-48683D01*
X82854Y-48683D02*
X82066Y-48683D01*
X82066Y-48683D02*
X82066Y-48187D01*
G54D13*
X80925Y-49340D02*
X81240Y-49340D01*
X80925Y-49498D02*
X81240Y-49498D01*
X81082Y-49498D02*
X81082Y-49655D01*
X81082Y-49340D02*
X81082Y-49183D01*
G54D11*
X80834Y-49812D02*
X80834Y-49025D01*
X80834Y-49025D02*
X81330Y-49025D01*
X81330Y-49025D02*
X81330Y-49812D01*
X81330Y-49812D02*
X80834Y-49812D01*
G54D13*
X79940Y-61486D02*
X80255Y-61486D01*
X79940Y-61643D02*
X80255Y-61643D01*
X80098Y-61643D02*
X80098Y-61801D01*
X80098Y-61486D02*
X80098Y-61328D01*
G54D11*
X79850Y-61958D02*
X79850Y-61171D01*
X79850Y-61171D02*
X80346Y-61171D01*
X80346Y-61171D02*
X80346Y-61958D01*
X80346Y-61958D02*
X79850Y-61958D01*
G54D13*
X82539Y-60423D02*
X82539Y-60738D01*
X82381Y-60423D02*
X82381Y-60738D01*
X82381Y-60580D02*
X82224Y-60580D01*
X82539Y-60580D02*
X82696Y-60580D01*
G54D11*
X82066Y-60332D02*
X82854Y-60332D01*
X82854Y-60332D02*
X82854Y-60828D01*
X82854Y-60828D02*
X82066Y-60828D01*
X82066Y-60828D02*
X82066Y-60332D01*
G54D13*
X80925Y-61486D02*
X81240Y-61486D01*
X80925Y-61643D02*
X81240Y-61643D01*
X81082Y-61643D02*
X81082Y-61801D01*
X81082Y-61486D02*
X81082Y-61328D01*
G54D11*
X80834Y-61958D02*
X80834Y-61171D01*
X80834Y-61171D02*
X81330Y-61171D01*
X81330Y-61171D02*
X81330Y-61958D01*
X81330Y-61958D02*
X80834Y-61958D01*
G54D13*
X85334Y-61486D02*
X85649Y-61486D01*
X85334Y-61643D02*
X85649Y-61643D01*
X85492Y-61643D02*
X85492Y-61801D01*
X85492Y-61486D02*
X85492Y-61328D01*
G54D11*
X85244Y-61958D02*
X85244Y-61171D01*
X85244Y-61171D02*
X85740Y-61171D01*
X85740Y-61171D02*
X85740Y-61958D01*
X85740Y-61958D02*
X85244Y-61958D01*
G54D13*
X86948Y-60423D02*
X86948Y-60738D01*
X86791Y-60423D02*
X86791Y-60738D01*
X86791Y-60580D02*
X86633Y-60580D01*
X86948Y-60580D02*
X87106Y-60580D01*
G54D11*
X86476Y-60332D02*
X87263Y-60332D01*
X87263Y-60332D02*
X87263Y-60828D01*
X87263Y-60828D02*
X86476Y-60828D01*
X86476Y-60828D02*
X86476Y-60332D01*
G54D13*
X84350Y-61486D02*
X84665Y-61486D01*
X84350Y-61643D02*
X84665Y-61643D01*
X84507Y-61643D02*
X84507Y-61801D01*
X84507Y-61486D02*
X84507Y-61328D01*
G54D11*
X84259Y-61958D02*
X84259Y-61171D01*
X84259Y-61171D02*
X84755Y-61171D01*
X84755Y-61171D02*
X84755Y-61958D01*
X84755Y-61958D02*
X84259Y-61958D01*
G54D13*
X85334Y-49340D02*
X85649Y-49340D01*
X85334Y-49498D02*
X85649Y-49498D01*
X85492Y-49498D02*
X85492Y-49655D01*
X85492Y-49340D02*
X85492Y-49183D01*
G54D11*
X85244Y-49812D02*
X85244Y-49025D01*
X85244Y-49025D02*
X85740Y-49025D01*
X85740Y-49025D02*
X85740Y-49812D01*
X85740Y-49812D02*
X85244Y-49812D01*
G54D13*
X86948Y-48277D02*
X86948Y-48592D01*
X86791Y-48277D02*
X86791Y-48592D01*
X86791Y-48435D02*
X86633Y-48435D01*
X86948Y-48435D02*
X87106Y-48435D01*
G54D11*
X86476Y-48187D02*
X87263Y-48187D01*
X87263Y-48187D02*
X87263Y-48683D01*
X87263Y-48683D02*
X86476Y-48683D01*
X86476Y-48683D02*
X86476Y-48187D01*
G54D13*
X84350Y-49340D02*
X84665Y-49340D01*
X84350Y-49498D02*
X84665Y-49498D01*
X84507Y-49498D02*
X84507Y-49655D01*
X84507Y-49340D02*
X84507Y-49183D01*
G54D11*
X84259Y-49812D02*
X84259Y-49025D01*
X84259Y-49025D02*
X84755Y-49025D01*
X84755Y-49025D02*
X84755Y-49812D01*
X84755Y-49812D02*
X84259Y-49812D01*
G54D13*
X85334Y-37194D02*
X85649Y-37194D01*
X85334Y-37352D02*
X85649Y-37352D01*
X85492Y-37352D02*
X85492Y-37509D01*
X85492Y-37194D02*
X85492Y-37037D01*
G54D11*
X85244Y-37667D02*
X85244Y-36879D01*
X85244Y-36879D02*
X85740Y-36879D01*
X85740Y-36879D02*
X85740Y-37667D01*
X85740Y-37667D02*
X85244Y-37667D01*
G54D13*
X86948Y-36131D02*
X86948Y-36446D01*
X86791Y-36131D02*
X86791Y-36446D01*
X86791Y-36289D02*
X86633Y-36289D01*
X86948Y-36289D02*
X87106Y-36289D01*
G54D11*
X86476Y-36041D02*
X87263Y-36041D01*
X87263Y-36041D02*
X87263Y-36537D01*
X87263Y-36537D02*
X86476Y-36537D01*
X86476Y-36537D02*
X86476Y-36041D01*
G54D13*
X84350Y-37194D02*
X84665Y-37194D01*
X84350Y-37352D02*
X84665Y-37352D01*
X84507Y-37352D02*
X84507Y-37509D01*
X84507Y-37194D02*
X84507Y-37037D01*
G54D11*
X84259Y-37667D02*
X84259Y-36879D01*
X84259Y-36879D02*
X84755Y-36879D01*
X84755Y-36879D02*
X84755Y-37667D01*
X84755Y-37667D02*
X84259Y-37667D01*
G54D13*
X93169Y-37194D02*
X93484Y-37194D01*
X93169Y-37352D02*
X93484Y-37352D01*
X93326Y-37352D02*
X93326Y-37509D01*
X93326Y-37194D02*
X93326Y-37037D01*
G54D11*
X93078Y-37667D02*
X93078Y-36879D01*
X93078Y-36879D02*
X93574Y-36879D01*
X93574Y-36879D02*
X93574Y-37667D01*
X93574Y-37667D02*
X93078Y-37667D01*
G54D13*
X95767Y-36131D02*
X95767Y-36446D01*
X95610Y-36131D02*
X95610Y-36446D01*
X95610Y-36289D02*
X95452Y-36289D01*
X95767Y-36289D02*
X95925Y-36289D01*
G54D11*
X95295Y-36041D02*
X96082Y-36041D01*
X96082Y-36041D02*
X96082Y-36537D01*
X96082Y-36537D02*
X95295Y-36537D01*
X95295Y-36537D02*
X95295Y-36041D01*
G54D13*
X94153Y-37194D02*
X94468Y-37194D01*
X94153Y-37352D02*
X94468Y-37352D01*
X94311Y-37352D02*
X94311Y-37509D01*
X94311Y-37194D02*
X94311Y-37037D01*
G54D11*
X94062Y-37667D02*
X94062Y-36879D01*
X94062Y-36879D02*
X94559Y-36879D01*
X94559Y-36879D02*
X94559Y-37667D01*
X94559Y-37667D02*
X94062Y-37667D01*
G54D13*
X93169Y-49340D02*
X93484Y-49340D01*
X93169Y-49498D02*
X93484Y-49498D01*
X93326Y-49498D02*
X93326Y-49655D01*
X93326Y-49340D02*
X93326Y-49183D01*
G54D11*
X93078Y-49812D02*
X93078Y-49025D01*
X93078Y-49025D02*
X93574Y-49025D01*
X93574Y-49025D02*
X93574Y-49812D01*
X93574Y-49812D02*
X93078Y-49812D01*
G54D13*
X95767Y-48277D02*
X95767Y-48592D01*
X95610Y-48277D02*
X95610Y-48592D01*
X95610Y-48435D02*
X95452Y-48435D01*
X95767Y-48435D02*
X95925Y-48435D01*
G54D11*
X95295Y-48187D02*
X96082Y-48187D01*
X96082Y-48187D02*
X96082Y-48683D01*
X96082Y-48683D02*
X95295Y-48683D01*
X95295Y-48683D02*
X95295Y-48187D01*
G54D13*
X94153Y-49340D02*
X94468Y-49340D01*
X94153Y-49498D02*
X94468Y-49498D01*
X94311Y-49498D02*
X94311Y-49655D01*
X94311Y-49340D02*
X94311Y-49183D01*
G54D11*
X94062Y-49812D02*
X94062Y-49025D01*
X94062Y-49025D02*
X94559Y-49025D01*
X94559Y-49025D02*
X94559Y-49812D01*
X94559Y-49812D02*
X94062Y-49812D01*
G54D13*
X93169Y-61486D02*
X93484Y-61486D01*
X93169Y-61643D02*
X93484Y-61643D01*
X93326Y-61643D02*
X93326Y-61801D01*
X93326Y-61486D02*
X93326Y-61328D01*
G54D11*
X93078Y-61958D02*
X93078Y-61171D01*
X93078Y-61171D02*
X93574Y-61171D01*
X93574Y-61171D02*
X93574Y-61958D01*
X93574Y-61958D02*
X93078Y-61958D01*
G54D13*
X95767Y-60423D02*
X95767Y-60738D01*
X95610Y-60423D02*
X95610Y-60738D01*
X95610Y-60580D02*
X95452Y-60580D01*
X95767Y-60580D02*
X95925Y-60580D01*
G54D11*
X95295Y-60332D02*
X96082Y-60332D01*
X96082Y-60332D02*
X96082Y-60828D01*
X96082Y-60828D02*
X95295Y-60828D01*
X95295Y-60828D02*
X95295Y-60332D01*
G54D13*
X94153Y-61486D02*
X94468Y-61486D01*
X94153Y-61643D02*
X94468Y-61643D01*
X94311Y-61643D02*
X94311Y-61801D01*
X94311Y-61486D02*
X94311Y-61328D01*
G54D11*
X94062Y-61958D02*
X94062Y-61171D01*
X94062Y-61171D02*
X94559Y-61171D01*
X94559Y-61171D02*
X94559Y-61958D01*
X94559Y-61958D02*
X94062Y-61958D01*
G54D13*
X89744Y-61486D02*
X90059Y-61486D01*
X89744Y-61643D02*
X90059Y-61643D01*
X89901Y-61643D02*
X89901Y-61801D01*
X89901Y-61486D02*
X89901Y-61328D01*
G54D11*
X89653Y-61958D02*
X89653Y-61171D01*
X89653Y-61171D02*
X90149Y-61171D01*
X90149Y-61171D02*
X90149Y-61958D01*
X90149Y-61958D02*
X89653Y-61958D01*
G54D13*
X91358Y-60423D02*
X91358Y-60738D01*
X91200Y-60423D02*
X91200Y-60738D01*
X91200Y-60580D02*
X91043Y-60580D01*
X91358Y-60580D02*
X91515Y-60580D01*
G54D11*
X90885Y-60332D02*
X91673Y-60332D01*
X91673Y-60332D02*
X91673Y-60828D01*
X91673Y-60828D02*
X90885Y-60828D01*
X90885Y-60828D02*
X90885Y-60332D01*
G54D13*
X88759Y-61486D02*
X89074Y-61486D01*
X88759Y-61643D02*
X89074Y-61643D01*
X88917Y-61643D02*
X88917Y-61801D01*
X88917Y-61486D02*
X88917Y-61328D01*
G54D11*
X88669Y-61958D02*
X88669Y-61171D01*
X88669Y-61171D02*
X89165Y-61171D01*
X89165Y-61171D02*
X89165Y-61958D01*
X89165Y-61958D02*
X88669Y-61958D01*
G54D13*
X89744Y-49340D02*
X90059Y-49340D01*
X89744Y-49498D02*
X90059Y-49498D01*
X89901Y-49498D02*
X89901Y-49655D01*
X89901Y-49340D02*
X89901Y-49183D01*
G54D11*
X89653Y-49812D02*
X89653Y-49025D01*
X89653Y-49025D02*
X90149Y-49025D01*
X90149Y-49025D02*
X90149Y-49812D01*
X90149Y-49812D02*
X89653Y-49812D01*
G54D13*
X91358Y-48277D02*
X91358Y-48592D01*
X91200Y-48277D02*
X91200Y-48592D01*
X91200Y-48435D02*
X91043Y-48435D01*
X91358Y-48435D02*
X91515Y-48435D01*
G54D11*
X90885Y-48187D02*
X91673Y-48187D01*
X91673Y-48187D02*
X91673Y-48683D01*
X91673Y-48683D02*
X90885Y-48683D01*
X90885Y-48683D02*
X90885Y-48187D01*
G54D13*
X88759Y-49340D02*
X89074Y-49340D01*
X88759Y-49498D02*
X89074Y-49498D01*
X88917Y-49498D02*
X88917Y-49655D01*
X88917Y-49340D02*
X88917Y-49183D01*
G54D11*
X88669Y-49812D02*
X88669Y-49025D01*
X88669Y-49025D02*
X89165Y-49025D01*
X89165Y-49025D02*
X89165Y-49812D01*
X89165Y-49812D02*
X88669Y-49812D01*
G54D13*
X89744Y-37194D02*
X90059Y-37194D01*
X89744Y-37352D02*
X90059Y-37352D01*
X89901Y-37352D02*
X89901Y-37509D01*
X89901Y-37194D02*
X89901Y-37037D01*
G54D11*
X89653Y-37667D02*
X89653Y-36879D01*
X89653Y-36879D02*
X90149Y-36879D01*
X90149Y-36879D02*
X90149Y-37667D01*
X90149Y-37667D02*
X89653Y-37667D01*
G54D13*
X91358Y-36131D02*
X91358Y-36446D01*
X91200Y-36131D02*
X91200Y-36446D01*
X91200Y-36289D02*
X91043Y-36289D01*
X91358Y-36289D02*
X91515Y-36289D01*
G54D11*
X90885Y-36041D02*
X91673Y-36041D01*
X91673Y-36041D02*
X91673Y-36537D01*
X91673Y-36537D02*
X90885Y-36537D01*
X90885Y-36537D02*
X90885Y-36041D01*
G54D13*
X88759Y-37194D02*
X89074Y-37194D01*
X88759Y-37352D02*
X89074Y-37352D01*
X88917Y-37352D02*
X88917Y-37509D01*
X88917Y-37194D02*
X88917Y-37037D01*
G54D11*
X88669Y-37667D02*
X88669Y-36879D01*
X88669Y-36879D02*
X89165Y-36879D01*
X89165Y-36879D02*
X89165Y-37667D01*
X89165Y-37667D02*
X88669Y-37667D01*
G54D13*
X97578Y-37194D02*
X97893Y-37194D01*
X97578Y-37352D02*
X97893Y-37352D01*
X97736Y-37352D02*
X97736Y-37509D01*
X97736Y-37194D02*
X97736Y-37037D01*
G54D11*
X97488Y-37667D02*
X97488Y-36879D01*
X97488Y-36879D02*
X97984Y-36879D01*
X97984Y-36879D02*
X97984Y-37667D01*
X97984Y-37667D02*
X97488Y-37667D01*
G54D13*
X100177Y-36131D02*
X100177Y-36446D01*
X100019Y-36131D02*
X100019Y-36446D01*
X100019Y-36289D02*
X99862Y-36289D01*
X100177Y-36289D02*
X100334Y-36289D01*
G54D11*
X99704Y-36041D02*
X100492Y-36041D01*
X100492Y-36041D02*
X100492Y-36537D01*
X100492Y-36537D02*
X99704Y-36537D01*
X99704Y-36537D02*
X99704Y-36041D01*
G54D13*
X98562Y-37194D02*
X98877Y-37194D01*
X98562Y-37352D02*
X98877Y-37352D01*
X98720Y-37352D02*
X98720Y-37509D01*
X98720Y-37194D02*
X98720Y-37037D01*
G54D11*
X98472Y-37667D02*
X98472Y-36879D01*
X98472Y-36879D02*
X98968Y-36879D01*
X98968Y-36879D02*
X98968Y-37667D01*
X98968Y-37667D02*
X98472Y-37667D01*
G54D13*
X97578Y-49340D02*
X97893Y-49340D01*
X97578Y-49498D02*
X97893Y-49498D01*
X97736Y-49498D02*
X97736Y-49655D01*
X97736Y-49340D02*
X97736Y-49183D01*
G54D11*
X97488Y-49812D02*
X97488Y-49025D01*
X97488Y-49025D02*
X97984Y-49025D01*
X97984Y-49025D02*
X97984Y-49812D01*
X97984Y-49812D02*
X97488Y-49812D01*
G54D13*
X100177Y-48277D02*
X100177Y-48592D01*
X100019Y-48277D02*
X100019Y-48592D01*
X100019Y-48435D02*
X99862Y-48435D01*
X100177Y-48435D02*
X100334Y-48435D01*
G54D11*
X99704Y-48187D02*
X100492Y-48187D01*
X100492Y-48187D02*
X100492Y-48683D01*
X100492Y-48683D02*
X99704Y-48683D01*
X99704Y-48683D02*
X99704Y-48187D01*
G54D13*
X98562Y-49340D02*
X98877Y-49340D01*
X98562Y-49498D02*
X98877Y-49498D01*
X98720Y-49498D02*
X98720Y-49655D01*
X98720Y-49340D02*
X98720Y-49183D01*
G54D11*
X98472Y-49812D02*
X98472Y-49025D01*
X98472Y-49025D02*
X98968Y-49025D01*
X98968Y-49025D02*
X98968Y-49812D01*
X98968Y-49812D02*
X98472Y-49812D01*
G54D13*
X97578Y-61486D02*
X97893Y-61486D01*
X97578Y-61643D02*
X97893Y-61643D01*
X97736Y-61643D02*
X97736Y-61801D01*
X97736Y-61486D02*
X97736Y-61328D01*
G54D11*
X97488Y-61958D02*
X97488Y-61171D01*
X97488Y-61171D02*
X97984Y-61171D01*
X97984Y-61171D02*
X97984Y-61958D01*
X97984Y-61958D02*
X97488Y-61958D01*
G54D13*
X100177Y-60423D02*
X100177Y-60738D01*
X100019Y-60423D02*
X100019Y-60738D01*
X100019Y-60580D02*
X99862Y-60580D01*
X100177Y-60580D02*
X100334Y-60580D01*
G54D11*
X99704Y-60332D02*
X100492Y-60332D01*
X100492Y-60332D02*
X100492Y-60828D01*
X100492Y-60828D02*
X99704Y-60828D01*
X99704Y-60828D02*
X99704Y-60332D01*
G54D13*
X98562Y-61486D02*
X98877Y-61486D01*
X98562Y-61643D02*
X98877Y-61643D01*
X98720Y-61643D02*
X98720Y-61801D01*
X98720Y-61486D02*
X98720Y-61328D01*
G54D11*
X98472Y-61958D02*
X98472Y-61171D01*
X98472Y-61171D02*
X98968Y-61171D01*
X98968Y-61171D02*
X98968Y-61958D01*
X98968Y-61958D02*
X98472Y-61958D01*
G54D13*
X102972Y-61486D02*
X103287Y-61486D01*
X102972Y-61643D02*
X103287Y-61643D01*
X103129Y-61643D02*
X103129Y-61801D01*
X103129Y-61486D02*
X103129Y-61328D01*
G54D11*
X102881Y-61958D02*
X102881Y-61171D01*
X102881Y-61171D02*
X103377Y-61171D01*
X103377Y-61171D02*
X103377Y-61958D01*
X103377Y-61958D02*
X102881Y-61958D01*
G54D13*
X104586Y-60423D02*
X104586Y-60738D01*
X104429Y-60423D02*
X104429Y-60738D01*
X104429Y-60580D02*
X104271Y-60580D01*
X104586Y-60580D02*
X104744Y-60580D01*
G54D11*
X104114Y-60332D02*
X104901Y-60332D01*
X104901Y-60332D02*
X104901Y-60828D01*
X104901Y-60828D02*
X104114Y-60828D01*
X104114Y-60828D02*
X104114Y-60332D01*
G54D13*
X101988Y-61486D02*
X102303Y-61486D01*
X101988Y-61643D02*
X102303Y-61643D01*
X102145Y-61643D02*
X102145Y-61801D01*
X102145Y-61486D02*
X102145Y-61328D01*
G54D11*
X101897Y-61958D02*
X101897Y-61171D01*
X101897Y-61171D02*
X102393Y-61171D01*
X102393Y-61171D02*
X102393Y-61958D01*
X102393Y-61958D02*
X101897Y-61958D01*
G54D13*
X102972Y-49340D02*
X103287Y-49340D01*
X102972Y-49498D02*
X103287Y-49498D01*
X103129Y-49498D02*
X103129Y-49655D01*
X103129Y-49340D02*
X103129Y-49183D01*
G54D11*
X102881Y-49812D02*
X102881Y-49025D01*
X102881Y-49025D02*
X103377Y-49025D01*
X103377Y-49025D02*
X103377Y-49812D01*
X103377Y-49812D02*
X102881Y-49812D01*
G54D13*
X104586Y-48277D02*
X104586Y-48592D01*
X104429Y-48277D02*
X104429Y-48592D01*
X104429Y-48435D02*
X104271Y-48435D01*
X104586Y-48435D02*
X104744Y-48435D01*
G54D11*
X104114Y-48187D02*
X104901Y-48187D01*
X104901Y-48187D02*
X104901Y-48683D01*
X104901Y-48683D02*
X104114Y-48683D01*
X104114Y-48683D02*
X104114Y-48187D01*
G54D13*
X101988Y-49340D02*
X102303Y-49340D01*
X101988Y-49498D02*
X102303Y-49498D01*
X102145Y-49498D02*
X102145Y-49655D01*
X102145Y-49340D02*
X102145Y-49183D01*
G54D11*
X101897Y-49812D02*
X101897Y-49025D01*
X101897Y-49025D02*
X102393Y-49025D01*
X102393Y-49025D02*
X102393Y-49812D01*
X102393Y-49812D02*
X101897Y-49812D01*
G54D13*
X102972Y-37194D02*
X103287Y-37194D01*
X102972Y-37352D02*
X103287Y-37352D01*
X103129Y-37352D02*
X103129Y-37509D01*
X103129Y-37194D02*
X103129Y-37037D01*
G54D11*
X102881Y-37667D02*
X102881Y-36879D01*
X102881Y-36879D02*
X103377Y-36879D01*
X103377Y-36879D02*
X103377Y-37667D01*
X103377Y-37667D02*
X102881Y-37667D01*
G54D13*
X104586Y-36131D02*
X104586Y-36446D01*
X104429Y-36131D02*
X104429Y-36446D01*
X104429Y-36289D02*
X104271Y-36289D01*
X104586Y-36289D02*
X104744Y-36289D01*
G54D11*
X104114Y-36041D02*
X104901Y-36041D01*
X104901Y-36041D02*
X104901Y-36537D01*
X104901Y-36537D02*
X104114Y-36537D01*
X104114Y-36537D02*
X104114Y-36041D01*
G54D13*
X101988Y-37194D02*
X102303Y-37194D01*
X101988Y-37352D02*
X102303Y-37352D01*
X102145Y-37352D02*
X102145Y-37509D01*
X102145Y-37194D02*
X102145Y-37037D01*
G54D11*
X101897Y-37667D02*
X101897Y-36879D01*
X101897Y-36879D02*
X102393Y-36879D01*
X102393Y-36879D02*
X102393Y-37667D01*
X102393Y-37667D02*
X101897Y-37667D01*
M02*
