G04 (created by PCBNEW (2013-08-09 BZR 4280)-product) date Sun 11 Aug 2013 03:04:53 PM CEST*
%MOIN*%
G04 Gerber Fmt 3.4, Leading zero omitted, Abs format*
%FSLAX34Y34*%
G01*
G70*
G90*
G04 APERTURE LIST*
%ADD10C,0.005906*%
%ADD11C,0.019685*%
%ADD12R,0.049213X0.025591*%
%ADD13R,0.039370X0.055118*%
%ADD14R,0.047200X0.047200*%
%ADD15R,0.063000X0.059100*%
%ADD16R,0.043300X0.039300*%
%ADD17R,0.059000X0.051100*%
%ADD18R,0.051100X0.059000*%
%ADD19R,0.157480X0.098425*%
%ADD20O,0.157480X0.098425*%
%ADD21R,0.011811X0.062992*%
%ADD22R,0.059055X0.041339*%
%ADD23O,0.059055X0.041339*%
%ADD24C,0.098425*%
G04 APERTURE END LIST*
G54D10*
G54D11*
X74488Y-60049D03*
X75177Y-60639D03*
X75177Y-59734D03*
X74586Y-60639D03*
X74488Y-60324D03*
X74586Y-59734D03*
X75275Y-60324D03*
X75275Y-60049D03*
X74488Y-68848D03*
X75177Y-69438D03*
X75177Y-68533D03*
X74586Y-69438D03*
X74488Y-69124D03*
X74586Y-68533D03*
X75275Y-69124D03*
X75275Y-68848D03*
G54D12*
X78523Y-62135D03*
X78523Y-61761D03*
X78523Y-61387D03*
X77500Y-61387D03*
X77500Y-62135D03*
G54D13*
X77460Y-67588D03*
X76712Y-67588D03*
X77086Y-68454D03*
G54D14*
X78317Y-65235D03*
X77529Y-65235D03*
G54D15*
X77923Y-66515D03*
G54D14*
X76732Y-65235D03*
X75944Y-65235D03*
G54D15*
X76338Y-66515D03*
G54D16*
X78346Y-68355D03*
X78346Y-67687D03*
X75826Y-67727D03*
X75826Y-68395D03*
G54D17*
X76673Y-61938D03*
X76673Y-61190D03*
G54D18*
X77677Y-60580D03*
X78425Y-60580D03*
G54D17*
X75688Y-61938D03*
X75688Y-61190D03*
G54D19*
X77980Y-69675D03*
G54D20*
X76192Y-69675D03*
G54D19*
X77980Y-59360D03*
G54D20*
X76192Y-59360D03*
G54D21*
X77559Y-64379D03*
X77755Y-64379D03*
X77952Y-64379D03*
X78149Y-64379D03*
X78346Y-64379D03*
X78346Y-62962D03*
X78149Y-62962D03*
X77952Y-62962D03*
X77755Y-62962D03*
X77559Y-62962D03*
G54D22*
X75852Y-63171D03*
G54D23*
X76509Y-63171D03*
X75852Y-63671D03*
X76509Y-63671D03*
X75852Y-64171D03*
X76509Y-64171D03*
G54D11*
X74488Y-47903D03*
X75177Y-48494D03*
X75177Y-47588D03*
X74586Y-48494D03*
X74488Y-48179D03*
X74586Y-47588D03*
X75275Y-48179D03*
X75275Y-47903D03*
X74488Y-56702D03*
X75177Y-57293D03*
X75177Y-56387D03*
X74586Y-57293D03*
X74488Y-56978D03*
X74586Y-56387D03*
X75275Y-56978D03*
X75275Y-56702D03*
G54D12*
X78523Y-49990D03*
X78523Y-49616D03*
X78523Y-49242D03*
X77500Y-49242D03*
X77500Y-49990D03*
G54D13*
X77460Y-55442D03*
X76712Y-55442D03*
X77086Y-56309D03*
G54D14*
X78317Y-53090D03*
X77529Y-53090D03*
G54D15*
X77923Y-54370D03*
G54D14*
X76732Y-53090D03*
X75944Y-53090D03*
G54D15*
X76338Y-54370D03*
G54D16*
X78346Y-56209D03*
X78346Y-55541D03*
X75826Y-55581D03*
X75826Y-56249D03*
G54D17*
X76673Y-49793D03*
X76673Y-49045D03*
G54D18*
X77677Y-48435D03*
X78425Y-48435D03*
G54D17*
X75688Y-49793D03*
X75688Y-49045D03*
G54D19*
X77980Y-57529D03*
G54D20*
X76192Y-57529D03*
G54D19*
X77980Y-47214D03*
G54D20*
X76192Y-47214D03*
G54D21*
X77559Y-52234D03*
X77755Y-52234D03*
X77952Y-52234D03*
X78149Y-52234D03*
X78346Y-52234D03*
X78346Y-50816D03*
X78149Y-50816D03*
X77952Y-50816D03*
X77755Y-50816D03*
X77559Y-50816D03*
G54D22*
X75852Y-51025D03*
G54D23*
X76509Y-51025D03*
X75852Y-51525D03*
X76509Y-51525D03*
X75852Y-52025D03*
X76509Y-52025D03*
G54D11*
X74488Y-35757D03*
X75177Y-36348D03*
X75177Y-35442D03*
X74586Y-36348D03*
X74488Y-36033D03*
X74586Y-35442D03*
X75275Y-36033D03*
X75275Y-35757D03*
X74488Y-44557D03*
X75177Y-45147D03*
X75177Y-44242D03*
X74586Y-45147D03*
X74488Y-44832D03*
X74586Y-44242D03*
X75275Y-44832D03*
X75275Y-44557D03*
G54D12*
X78523Y-37844D03*
X78523Y-37470D03*
X78523Y-37096D03*
X77500Y-37096D03*
X77500Y-37844D03*
G54D13*
X77460Y-43297D03*
X76712Y-43297D03*
X77086Y-44163D03*
G54D14*
X78317Y-40944D03*
X77529Y-40944D03*
G54D15*
X77923Y-42224D03*
G54D14*
X76732Y-40944D03*
X75944Y-40944D03*
G54D15*
X76338Y-42224D03*
G54D16*
X78346Y-44064D03*
X78346Y-43396D03*
X75826Y-43435D03*
X75826Y-44103D03*
G54D17*
X76673Y-37647D03*
X76673Y-36899D03*
G54D18*
X77677Y-36289D03*
X78425Y-36289D03*
G54D17*
X75688Y-37647D03*
X75688Y-36899D03*
G54D19*
X77980Y-45383D03*
G54D20*
X76192Y-45383D03*
G54D19*
X77980Y-35068D03*
G54D20*
X76192Y-35068D03*
G54D21*
X77559Y-40088D03*
X77755Y-40088D03*
X77952Y-40088D03*
X78149Y-40088D03*
X78346Y-40088D03*
X78346Y-38671D03*
X78149Y-38671D03*
X77952Y-38671D03*
X77755Y-38671D03*
X77559Y-38671D03*
G54D22*
X75852Y-38879D03*
G54D23*
X76509Y-38879D03*
X75852Y-39379D03*
X76509Y-39379D03*
X75852Y-39879D03*
X76509Y-39879D03*
G54D22*
X80261Y-38879D03*
G54D23*
X80919Y-38879D03*
X80261Y-39379D03*
X80919Y-39379D03*
X80261Y-39879D03*
X80919Y-39879D03*
G54D21*
X81968Y-40088D03*
X82165Y-40088D03*
X82362Y-40088D03*
X82559Y-40088D03*
X82755Y-40088D03*
X82755Y-38671D03*
X82559Y-38671D03*
X82362Y-38671D03*
X82165Y-38671D03*
X81968Y-38671D03*
G54D19*
X82389Y-35068D03*
G54D20*
X80602Y-35068D03*
G54D19*
X82389Y-45383D03*
G54D20*
X80602Y-45383D03*
G54D17*
X80098Y-37647D03*
X80098Y-36899D03*
G54D18*
X82086Y-36289D03*
X82834Y-36289D03*
G54D17*
X81082Y-37647D03*
X81082Y-36899D03*
G54D16*
X80236Y-43435D03*
X80236Y-44103D03*
X82755Y-44064D03*
X82755Y-43396D03*
G54D14*
X81142Y-40944D03*
X80354Y-40944D03*
G54D15*
X80748Y-42224D03*
G54D14*
X82726Y-40944D03*
X81938Y-40944D03*
G54D15*
X82332Y-42224D03*
G54D13*
X81870Y-43297D03*
X81122Y-43297D03*
X81496Y-44163D03*
G54D12*
X82933Y-37844D03*
X82933Y-37470D03*
X82933Y-37096D03*
X81909Y-37096D03*
X81909Y-37844D03*
G54D11*
X78897Y-44557D03*
X79586Y-45147D03*
X79586Y-44242D03*
X78996Y-45147D03*
X78897Y-44832D03*
X78996Y-44242D03*
X79685Y-44832D03*
X79685Y-44557D03*
X78897Y-35757D03*
X79586Y-36348D03*
X79586Y-35442D03*
X78996Y-36348D03*
X78897Y-36033D03*
X78996Y-35442D03*
X79685Y-36033D03*
X79685Y-35757D03*
G54D22*
X80261Y-51025D03*
G54D23*
X80919Y-51025D03*
X80261Y-51525D03*
X80919Y-51525D03*
X80261Y-52025D03*
X80919Y-52025D03*
G54D21*
X81968Y-52234D03*
X82165Y-52234D03*
X82362Y-52234D03*
X82559Y-52234D03*
X82755Y-52234D03*
X82755Y-50816D03*
X82559Y-50816D03*
X82362Y-50816D03*
X82165Y-50816D03*
X81968Y-50816D03*
G54D19*
X82389Y-47214D03*
G54D20*
X80602Y-47214D03*
G54D19*
X82389Y-57529D03*
G54D20*
X80602Y-57529D03*
G54D17*
X80098Y-49793D03*
X80098Y-49045D03*
G54D18*
X82086Y-48435D03*
X82834Y-48435D03*
G54D17*
X81082Y-49793D03*
X81082Y-49045D03*
G54D16*
X80236Y-55581D03*
X80236Y-56249D03*
X82755Y-56209D03*
X82755Y-55541D03*
G54D14*
X81142Y-53090D03*
X80354Y-53090D03*
G54D15*
X80748Y-54370D03*
G54D14*
X82726Y-53090D03*
X81938Y-53090D03*
G54D15*
X82332Y-54370D03*
G54D13*
X81870Y-55442D03*
X81122Y-55442D03*
X81496Y-56309D03*
G54D12*
X82933Y-49990D03*
X82933Y-49616D03*
X82933Y-49242D03*
X81909Y-49242D03*
X81909Y-49990D03*
G54D11*
X78897Y-56702D03*
X79586Y-57293D03*
X79586Y-56387D03*
X78996Y-57293D03*
X78897Y-56978D03*
X78996Y-56387D03*
X79685Y-56978D03*
X79685Y-56702D03*
X78897Y-47903D03*
X79586Y-48494D03*
X79586Y-47588D03*
X78996Y-48494D03*
X78897Y-48179D03*
X78996Y-47588D03*
X79685Y-48179D03*
X79685Y-47903D03*
G54D22*
X80261Y-63171D03*
G54D23*
X80919Y-63171D03*
X80261Y-63671D03*
X80919Y-63671D03*
X80261Y-64171D03*
X80919Y-64171D03*
G54D21*
X81968Y-64379D03*
X82165Y-64379D03*
X82362Y-64379D03*
X82559Y-64379D03*
X82755Y-64379D03*
X82755Y-62962D03*
X82559Y-62962D03*
X82362Y-62962D03*
X82165Y-62962D03*
X81968Y-62962D03*
G54D19*
X82389Y-59360D03*
G54D20*
X80602Y-59360D03*
G54D19*
X82389Y-69675D03*
G54D20*
X80602Y-69675D03*
G54D17*
X80098Y-61938D03*
X80098Y-61190D03*
G54D18*
X82086Y-60580D03*
X82834Y-60580D03*
G54D17*
X81082Y-61938D03*
X81082Y-61190D03*
G54D16*
X80236Y-67727D03*
X80236Y-68395D03*
X82755Y-68355D03*
X82755Y-67687D03*
G54D14*
X81142Y-65235D03*
X80354Y-65235D03*
G54D15*
X80748Y-66515D03*
G54D14*
X82726Y-65235D03*
X81938Y-65235D03*
G54D15*
X82332Y-66515D03*
G54D13*
X81870Y-67588D03*
X81122Y-67588D03*
X81496Y-68454D03*
G54D12*
X82933Y-62135D03*
X82933Y-61761D03*
X82933Y-61387D03*
X81909Y-61387D03*
X81909Y-62135D03*
G54D11*
X78897Y-68848D03*
X79586Y-69438D03*
X79586Y-68533D03*
X78996Y-69438D03*
X78897Y-69124D03*
X78996Y-68533D03*
X79685Y-69124D03*
X79685Y-68848D03*
X78897Y-60049D03*
X79586Y-60639D03*
X79586Y-59734D03*
X78996Y-60639D03*
X78897Y-60324D03*
X78996Y-59734D03*
X79685Y-60324D03*
X79685Y-60049D03*
X83307Y-60049D03*
X83996Y-60639D03*
X83996Y-59734D03*
X83405Y-60639D03*
X83307Y-60324D03*
X83405Y-59734D03*
X84094Y-60324D03*
X84094Y-60049D03*
X83307Y-68848D03*
X83996Y-69438D03*
X83996Y-68533D03*
X83405Y-69438D03*
X83307Y-69124D03*
X83405Y-68533D03*
X84094Y-69124D03*
X84094Y-68848D03*
G54D12*
X87342Y-62135D03*
X87342Y-61761D03*
X87342Y-61387D03*
X86318Y-61387D03*
X86318Y-62135D03*
G54D13*
X86279Y-67588D03*
X85531Y-67588D03*
X85905Y-68454D03*
G54D14*
X87136Y-65235D03*
X86348Y-65235D03*
G54D15*
X86742Y-66515D03*
G54D14*
X85551Y-65235D03*
X84763Y-65235D03*
G54D15*
X85157Y-66515D03*
G54D16*
X87165Y-68355D03*
X87165Y-67687D03*
X84645Y-67727D03*
X84645Y-68395D03*
G54D17*
X85492Y-61938D03*
X85492Y-61190D03*
G54D18*
X86496Y-60580D03*
X87244Y-60580D03*
G54D17*
X84507Y-61938D03*
X84507Y-61190D03*
G54D19*
X86799Y-69675D03*
G54D20*
X85011Y-69675D03*
G54D19*
X86799Y-59360D03*
G54D20*
X85011Y-59360D03*
G54D21*
X86377Y-64379D03*
X86574Y-64379D03*
X86771Y-64379D03*
X86968Y-64379D03*
X87165Y-64379D03*
X87165Y-62962D03*
X86968Y-62962D03*
X86771Y-62962D03*
X86574Y-62962D03*
X86377Y-62962D03*
G54D22*
X84671Y-63171D03*
G54D23*
X85328Y-63171D03*
X84671Y-63671D03*
X85328Y-63671D03*
X84671Y-64171D03*
X85328Y-64171D03*
G54D11*
X83307Y-47903D03*
X83996Y-48494D03*
X83996Y-47588D03*
X83405Y-48494D03*
X83307Y-48179D03*
X83405Y-47588D03*
X84094Y-48179D03*
X84094Y-47903D03*
X83307Y-56702D03*
X83996Y-57293D03*
X83996Y-56387D03*
X83405Y-57293D03*
X83307Y-56978D03*
X83405Y-56387D03*
X84094Y-56978D03*
X84094Y-56702D03*
G54D12*
X87342Y-49990D03*
X87342Y-49616D03*
X87342Y-49242D03*
X86318Y-49242D03*
X86318Y-49990D03*
G54D13*
X86279Y-55442D03*
X85531Y-55442D03*
X85905Y-56309D03*
G54D14*
X87136Y-53090D03*
X86348Y-53090D03*
G54D15*
X86742Y-54370D03*
G54D14*
X85551Y-53090D03*
X84763Y-53090D03*
G54D15*
X85157Y-54370D03*
G54D16*
X87165Y-56209D03*
X87165Y-55541D03*
X84645Y-55581D03*
X84645Y-56249D03*
G54D17*
X85492Y-49793D03*
X85492Y-49045D03*
G54D18*
X86496Y-48435D03*
X87244Y-48435D03*
G54D17*
X84507Y-49793D03*
X84507Y-49045D03*
G54D19*
X86799Y-57529D03*
G54D20*
X85011Y-57529D03*
G54D19*
X86799Y-47214D03*
G54D20*
X85011Y-47214D03*
G54D21*
X86377Y-52234D03*
X86574Y-52234D03*
X86771Y-52234D03*
X86968Y-52234D03*
X87165Y-52234D03*
X87165Y-50816D03*
X86968Y-50816D03*
X86771Y-50816D03*
X86574Y-50816D03*
X86377Y-50816D03*
G54D22*
X84671Y-51025D03*
G54D23*
X85328Y-51025D03*
X84671Y-51525D03*
X85328Y-51525D03*
X84671Y-52025D03*
X85328Y-52025D03*
G54D11*
X83307Y-35757D03*
X83996Y-36348D03*
X83996Y-35442D03*
X83405Y-36348D03*
X83307Y-36033D03*
X83405Y-35442D03*
X84094Y-36033D03*
X84094Y-35757D03*
X83307Y-44557D03*
X83996Y-45147D03*
X83996Y-44242D03*
X83405Y-45147D03*
X83307Y-44832D03*
X83405Y-44242D03*
X84094Y-44832D03*
X84094Y-44557D03*
G54D12*
X87342Y-37844D03*
X87342Y-37470D03*
X87342Y-37096D03*
X86318Y-37096D03*
X86318Y-37844D03*
G54D13*
X86279Y-43297D03*
X85531Y-43297D03*
X85905Y-44163D03*
G54D14*
X87136Y-40944D03*
X86348Y-40944D03*
G54D15*
X86742Y-42224D03*
G54D14*
X85551Y-40944D03*
X84763Y-40944D03*
G54D15*
X85157Y-42224D03*
G54D16*
X87165Y-44064D03*
X87165Y-43396D03*
X84645Y-43435D03*
X84645Y-44103D03*
G54D17*
X85492Y-37647D03*
X85492Y-36899D03*
G54D18*
X86496Y-36289D03*
X87244Y-36289D03*
G54D17*
X84507Y-37647D03*
X84507Y-36899D03*
G54D19*
X86799Y-45383D03*
G54D20*
X85011Y-45383D03*
G54D19*
X86799Y-35068D03*
G54D20*
X85011Y-35068D03*
G54D21*
X86377Y-40088D03*
X86574Y-40088D03*
X86771Y-40088D03*
X86968Y-40088D03*
X87165Y-40088D03*
X87165Y-38671D03*
X86968Y-38671D03*
X86771Y-38671D03*
X86574Y-38671D03*
X86377Y-38671D03*
G54D22*
X84671Y-38879D03*
G54D23*
X85328Y-38879D03*
X84671Y-39379D03*
X85328Y-39379D03*
X84671Y-39879D03*
X85328Y-39879D03*
G54D22*
X93490Y-38879D03*
G54D23*
X94147Y-38879D03*
X93490Y-39379D03*
X94147Y-39379D03*
X93490Y-39879D03*
X94147Y-39879D03*
G54D21*
X95196Y-40088D03*
X95393Y-40088D03*
X95590Y-40088D03*
X95787Y-40088D03*
X95984Y-40088D03*
X95984Y-38671D03*
X95787Y-38671D03*
X95590Y-38671D03*
X95393Y-38671D03*
X95196Y-38671D03*
G54D19*
X95618Y-35068D03*
G54D20*
X93830Y-35068D03*
G54D19*
X95618Y-45383D03*
G54D20*
X93830Y-45383D03*
G54D17*
X93326Y-37647D03*
X93326Y-36899D03*
G54D18*
X95314Y-36289D03*
X96062Y-36289D03*
G54D17*
X94311Y-37647D03*
X94311Y-36899D03*
G54D16*
X93464Y-43435D03*
X93464Y-44103D03*
X95984Y-44064D03*
X95984Y-43396D03*
G54D14*
X94370Y-40944D03*
X93582Y-40944D03*
G54D15*
X93976Y-42224D03*
G54D14*
X95955Y-40944D03*
X95167Y-40944D03*
G54D15*
X95561Y-42224D03*
G54D13*
X95098Y-43297D03*
X94350Y-43297D03*
X94724Y-44163D03*
G54D12*
X96161Y-37844D03*
X96161Y-37470D03*
X96161Y-37096D03*
X95137Y-37096D03*
X95137Y-37844D03*
G54D11*
X96535Y-44557D03*
X97224Y-45147D03*
X97224Y-44242D03*
X96633Y-45147D03*
X96535Y-44832D03*
X96633Y-44242D03*
X97322Y-44832D03*
X97322Y-44557D03*
G54D22*
X93490Y-51025D03*
G54D23*
X94147Y-51025D03*
X93490Y-51525D03*
X94147Y-51525D03*
X93490Y-52025D03*
X94147Y-52025D03*
G54D21*
X95196Y-52234D03*
X95393Y-52234D03*
X95590Y-52234D03*
X95787Y-52234D03*
X95984Y-52234D03*
X95984Y-50816D03*
X95787Y-50816D03*
X95590Y-50816D03*
X95393Y-50816D03*
X95196Y-50816D03*
G54D19*
X95618Y-47214D03*
G54D20*
X93830Y-47214D03*
G54D19*
X95618Y-57529D03*
G54D20*
X93830Y-57529D03*
G54D17*
X93326Y-49793D03*
X93326Y-49045D03*
G54D18*
X95314Y-48435D03*
X96062Y-48435D03*
G54D17*
X94311Y-49793D03*
X94311Y-49045D03*
G54D16*
X93464Y-55581D03*
X93464Y-56249D03*
X95984Y-56209D03*
X95984Y-55541D03*
G54D14*
X94370Y-53090D03*
X93582Y-53090D03*
G54D15*
X93976Y-54370D03*
G54D14*
X95955Y-53090D03*
X95167Y-53090D03*
G54D15*
X95561Y-54370D03*
G54D13*
X95098Y-55442D03*
X94350Y-55442D03*
X94724Y-56309D03*
G54D12*
X96161Y-49990D03*
X96161Y-49616D03*
X96161Y-49242D03*
X95137Y-49242D03*
X95137Y-49990D03*
G54D11*
X96535Y-47903D03*
X97224Y-48494D03*
X97224Y-47588D03*
X96633Y-48494D03*
X96535Y-48179D03*
X96633Y-47588D03*
X97322Y-48179D03*
X97322Y-47903D03*
G54D22*
X93490Y-63171D03*
G54D23*
X94147Y-63171D03*
X93490Y-63671D03*
X94147Y-63671D03*
X93490Y-64171D03*
X94147Y-64171D03*
G54D21*
X95196Y-64379D03*
X95393Y-64379D03*
X95590Y-64379D03*
X95787Y-64379D03*
X95984Y-64379D03*
X95984Y-62962D03*
X95787Y-62962D03*
X95590Y-62962D03*
X95393Y-62962D03*
X95196Y-62962D03*
G54D19*
X95618Y-59360D03*
G54D20*
X93830Y-59360D03*
G54D19*
X95618Y-69675D03*
G54D20*
X93830Y-69675D03*
G54D17*
X93326Y-61938D03*
X93326Y-61190D03*
G54D18*
X95314Y-60580D03*
X96062Y-60580D03*
G54D17*
X94311Y-61938D03*
X94311Y-61190D03*
G54D16*
X93464Y-67727D03*
X93464Y-68395D03*
X95984Y-68355D03*
X95984Y-67687D03*
G54D14*
X94370Y-65235D03*
X93582Y-65235D03*
G54D15*
X93976Y-66515D03*
G54D14*
X95955Y-65235D03*
X95167Y-65235D03*
G54D15*
X95561Y-66515D03*
G54D13*
X95098Y-67588D03*
X94350Y-67588D03*
X94724Y-68454D03*
G54D12*
X96161Y-62135D03*
X96161Y-61761D03*
X96161Y-61387D03*
X95137Y-61387D03*
X95137Y-62135D03*
G54D11*
X92125Y-60049D03*
X92814Y-60639D03*
X92814Y-59734D03*
X92224Y-60639D03*
X92125Y-60324D03*
X92224Y-59734D03*
X92913Y-60324D03*
X92913Y-60049D03*
X87716Y-60049D03*
X88405Y-60639D03*
X88405Y-59734D03*
X87814Y-60639D03*
X87716Y-60324D03*
X87814Y-59734D03*
X88503Y-60324D03*
X88503Y-60049D03*
X92125Y-68848D03*
X92814Y-69438D03*
X92814Y-68533D03*
X92224Y-69438D03*
X92125Y-69124D03*
X92224Y-68533D03*
X92913Y-69124D03*
X92913Y-68848D03*
X87716Y-68848D03*
X88405Y-69438D03*
X88405Y-68533D03*
X87814Y-69438D03*
X87716Y-69124D03*
X87814Y-68533D03*
X88503Y-69124D03*
X88503Y-68848D03*
G54D12*
X91751Y-62135D03*
X91751Y-61761D03*
X91751Y-61387D03*
X90728Y-61387D03*
X90728Y-62135D03*
G54D13*
X90688Y-67588D03*
X89940Y-67588D03*
X90314Y-68454D03*
G54D14*
X91545Y-65235D03*
X90757Y-65235D03*
G54D15*
X91151Y-66515D03*
G54D14*
X89960Y-65235D03*
X89172Y-65235D03*
G54D15*
X89566Y-66515D03*
G54D16*
X91574Y-68355D03*
X91574Y-67687D03*
X89055Y-67727D03*
X89055Y-68395D03*
G54D17*
X89901Y-61938D03*
X89901Y-61190D03*
G54D18*
X90905Y-60580D03*
X91653Y-60580D03*
G54D17*
X88917Y-61938D03*
X88917Y-61190D03*
G54D19*
X91208Y-69675D03*
G54D20*
X89421Y-69675D03*
G54D19*
X91208Y-59360D03*
G54D20*
X89421Y-59360D03*
G54D21*
X90787Y-64379D03*
X90984Y-64379D03*
X91181Y-64379D03*
X91377Y-64379D03*
X91574Y-64379D03*
X91574Y-62962D03*
X91377Y-62962D03*
X91181Y-62962D03*
X90984Y-62962D03*
X90787Y-62962D03*
G54D22*
X89080Y-63171D03*
G54D23*
X89738Y-63171D03*
X89080Y-63671D03*
X89738Y-63671D03*
X89080Y-64171D03*
X89738Y-64171D03*
G54D11*
X92125Y-47903D03*
X92814Y-48494D03*
X92814Y-47588D03*
X92224Y-48494D03*
X92125Y-48179D03*
X92224Y-47588D03*
X92913Y-48179D03*
X92913Y-47903D03*
X87716Y-47903D03*
X88405Y-48494D03*
X88405Y-47588D03*
X87814Y-48494D03*
X87716Y-48179D03*
X87814Y-47588D03*
X88503Y-48179D03*
X88503Y-47903D03*
X92125Y-56702D03*
X92814Y-57293D03*
X92814Y-56387D03*
X92224Y-57293D03*
X92125Y-56978D03*
X92224Y-56387D03*
X92913Y-56978D03*
X92913Y-56702D03*
X87716Y-56702D03*
X88405Y-57293D03*
X88405Y-56387D03*
X87814Y-57293D03*
X87716Y-56978D03*
X87814Y-56387D03*
X88503Y-56978D03*
X88503Y-56702D03*
G54D12*
X91751Y-49990D03*
X91751Y-49616D03*
X91751Y-49242D03*
X90728Y-49242D03*
X90728Y-49990D03*
G54D13*
X90688Y-55442D03*
X89940Y-55442D03*
X90314Y-56309D03*
G54D14*
X91545Y-53090D03*
X90757Y-53090D03*
G54D15*
X91151Y-54370D03*
G54D14*
X89960Y-53090D03*
X89172Y-53090D03*
G54D15*
X89566Y-54370D03*
G54D16*
X91574Y-56209D03*
X91574Y-55541D03*
X89055Y-55581D03*
X89055Y-56249D03*
G54D17*
X89901Y-49793D03*
X89901Y-49045D03*
G54D18*
X90905Y-48435D03*
X91653Y-48435D03*
G54D17*
X88917Y-49793D03*
X88917Y-49045D03*
G54D19*
X91208Y-57529D03*
G54D20*
X89421Y-57529D03*
G54D19*
X91208Y-47214D03*
G54D20*
X89421Y-47214D03*
G54D21*
X90787Y-52234D03*
X90984Y-52234D03*
X91181Y-52234D03*
X91377Y-52234D03*
X91574Y-52234D03*
X91574Y-50816D03*
X91377Y-50816D03*
X91181Y-50816D03*
X90984Y-50816D03*
X90787Y-50816D03*
G54D22*
X89080Y-51025D03*
G54D23*
X89738Y-51025D03*
X89080Y-51525D03*
X89738Y-51525D03*
X89080Y-52025D03*
X89738Y-52025D03*
G54D11*
X92125Y-35757D03*
X92814Y-36348D03*
X92814Y-35442D03*
X92224Y-36348D03*
X92125Y-36033D03*
X92224Y-35442D03*
X92913Y-36033D03*
X92913Y-35757D03*
X87716Y-35757D03*
X88405Y-36348D03*
X88405Y-35442D03*
X87814Y-36348D03*
X87716Y-36033D03*
X87814Y-35442D03*
X88503Y-36033D03*
X88503Y-35757D03*
X92125Y-44557D03*
X92814Y-45147D03*
X92814Y-44242D03*
X92224Y-45147D03*
X92125Y-44832D03*
X92224Y-44242D03*
X92913Y-44832D03*
X92913Y-44557D03*
X87716Y-44557D03*
X88405Y-45147D03*
X88405Y-44242D03*
X87814Y-45147D03*
X87716Y-44832D03*
X87814Y-44242D03*
X88503Y-44832D03*
X88503Y-44557D03*
G54D12*
X91751Y-37844D03*
X91751Y-37470D03*
X91751Y-37096D03*
X90728Y-37096D03*
X90728Y-37844D03*
G54D13*
X90688Y-43297D03*
X89940Y-43297D03*
X90314Y-44163D03*
G54D14*
X91545Y-40944D03*
X90757Y-40944D03*
G54D15*
X91151Y-42224D03*
G54D14*
X89960Y-40944D03*
X89172Y-40944D03*
G54D15*
X89566Y-42224D03*
G54D16*
X91574Y-44064D03*
X91574Y-43396D03*
X89055Y-43435D03*
X89055Y-44103D03*
G54D17*
X89901Y-37647D03*
X89901Y-36899D03*
G54D18*
X90905Y-36289D03*
X91653Y-36289D03*
G54D17*
X88917Y-37647D03*
X88917Y-36899D03*
G54D19*
X91208Y-45383D03*
G54D20*
X89421Y-45383D03*
G54D19*
X91208Y-35068D03*
G54D20*
X89421Y-35068D03*
G54D21*
X90787Y-40088D03*
X90984Y-40088D03*
X91181Y-40088D03*
X91377Y-40088D03*
X91574Y-40088D03*
X91574Y-38671D03*
X91377Y-38671D03*
X91181Y-38671D03*
X90984Y-38671D03*
X90787Y-38671D03*
G54D22*
X89080Y-38879D03*
G54D23*
X89738Y-38879D03*
X89080Y-39379D03*
X89738Y-39379D03*
X89080Y-39879D03*
X89738Y-39879D03*
G54D22*
X97899Y-38879D03*
G54D23*
X98557Y-38879D03*
X97899Y-39379D03*
X98557Y-39379D03*
X97899Y-39879D03*
X98557Y-39879D03*
G54D21*
X99606Y-40088D03*
X99803Y-40088D03*
X100000Y-40088D03*
X100196Y-40088D03*
X100393Y-40088D03*
X100393Y-38671D03*
X100196Y-38671D03*
X100000Y-38671D03*
X99803Y-38671D03*
X99606Y-38671D03*
G54D19*
X100027Y-35068D03*
G54D20*
X98240Y-35068D03*
G54D19*
X100027Y-45383D03*
G54D20*
X98240Y-45383D03*
G54D17*
X97736Y-37647D03*
X97736Y-36899D03*
G54D18*
X99724Y-36289D03*
X100472Y-36289D03*
G54D17*
X98720Y-37647D03*
X98720Y-36899D03*
G54D16*
X97874Y-43435D03*
X97874Y-44103D03*
X100393Y-44064D03*
X100393Y-43396D03*
G54D14*
X98779Y-40944D03*
X97991Y-40944D03*
G54D15*
X98385Y-42224D03*
G54D14*
X100364Y-40944D03*
X99576Y-40944D03*
G54D15*
X99970Y-42224D03*
G54D13*
X99507Y-43297D03*
X98759Y-43297D03*
X99133Y-44163D03*
G54D12*
X100570Y-37844D03*
X100570Y-37470D03*
X100570Y-37096D03*
X99547Y-37096D03*
X99547Y-37844D03*
G54D11*
X96535Y-44557D03*
X97224Y-45147D03*
X97224Y-44242D03*
X96633Y-45147D03*
X96535Y-44832D03*
X96633Y-44242D03*
X97322Y-44832D03*
X97322Y-44557D03*
X100944Y-44557D03*
X101633Y-45147D03*
X101633Y-44242D03*
X101043Y-45147D03*
X100944Y-44832D03*
X101043Y-44242D03*
X101732Y-44832D03*
X101732Y-44557D03*
X96535Y-35757D03*
X97224Y-36348D03*
X97224Y-35442D03*
X96633Y-36348D03*
X96535Y-36033D03*
X96633Y-35442D03*
X97322Y-36033D03*
X97322Y-35757D03*
G54D22*
X97899Y-51025D03*
G54D23*
X98557Y-51025D03*
X97899Y-51525D03*
X98557Y-51525D03*
X97899Y-52025D03*
X98557Y-52025D03*
G54D21*
X99606Y-52234D03*
X99803Y-52234D03*
X100000Y-52234D03*
X100196Y-52234D03*
X100393Y-52234D03*
X100393Y-50816D03*
X100196Y-50816D03*
X100000Y-50816D03*
X99803Y-50816D03*
X99606Y-50816D03*
G54D19*
X100027Y-47214D03*
G54D20*
X98240Y-47214D03*
G54D19*
X100027Y-57529D03*
G54D20*
X98240Y-57529D03*
G54D17*
X97736Y-49793D03*
X97736Y-49045D03*
G54D18*
X99724Y-48435D03*
X100472Y-48435D03*
G54D17*
X98720Y-49793D03*
X98720Y-49045D03*
G54D16*
X97874Y-55581D03*
X97874Y-56249D03*
X100393Y-56209D03*
X100393Y-55541D03*
G54D14*
X98779Y-53090D03*
X97991Y-53090D03*
G54D15*
X98385Y-54370D03*
G54D14*
X100364Y-53090D03*
X99576Y-53090D03*
G54D15*
X99970Y-54370D03*
G54D13*
X99507Y-55442D03*
X98759Y-55442D03*
X99133Y-56309D03*
G54D12*
X100570Y-49990D03*
X100570Y-49616D03*
X100570Y-49242D03*
X99547Y-49242D03*
X99547Y-49990D03*
G54D11*
X96535Y-56702D03*
X97224Y-57293D03*
X97224Y-56387D03*
X96633Y-57293D03*
X96535Y-56978D03*
X96633Y-56387D03*
X97322Y-56978D03*
X97322Y-56702D03*
X96535Y-47903D03*
X97224Y-48494D03*
X97224Y-47588D03*
X96633Y-48494D03*
X96535Y-48179D03*
X96633Y-47588D03*
X97322Y-48179D03*
X97322Y-47903D03*
X100944Y-47903D03*
X101633Y-48494D03*
X101633Y-47588D03*
X101043Y-48494D03*
X100944Y-48179D03*
X101043Y-47588D03*
X101732Y-48179D03*
X101732Y-47903D03*
G54D22*
X97899Y-63171D03*
G54D23*
X98557Y-63171D03*
X97899Y-63671D03*
X98557Y-63671D03*
X97899Y-64171D03*
X98557Y-64171D03*
G54D21*
X99606Y-64379D03*
X99803Y-64379D03*
X100000Y-64379D03*
X100196Y-64379D03*
X100393Y-64379D03*
X100393Y-62962D03*
X100196Y-62962D03*
X100000Y-62962D03*
X99803Y-62962D03*
X99606Y-62962D03*
G54D19*
X100027Y-59360D03*
G54D20*
X98240Y-59360D03*
G54D19*
X100027Y-69675D03*
G54D20*
X98240Y-69675D03*
G54D17*
X97736Y-61938D03*
X97736Y-61190D03*
G54D18*
X99724Y-60580D03*
X100472Y-60580D03*
G54D17*
X98720Y-61938D03*
X98720Y-61190D03*
G54D16*
X97874Y-67727D03*
X97874Y-68395D03*
X100393Y-68355D03*
X100393Y-67687D03*
G54D14*
X98779Y-65235D03*
X97991Y-65235D03*
G54D15*
X98385Y-66515D03*
G54D14*
X100364Y-65235D03*
X99576Y-65235D03*
G54D15*
X99970Y-66515D03*
G54D13*
X99507Y-67588D03*
X98759Y-67588D03*
X99133Y-68454D03*
G54D12*
X100570Y-62135D03*
X100570Y-61761D03*
X100570Y-61387D03*
X99547Y-61387D03*
X99547Y-62135D03*
G54D11*
X96535Y-68848D03*
X97224Y-69438D03*
X97224Y-68533D03*
X96633Y-69438D03*
X96535Y-69124D03*
X96633Y-68533D03*
X97322Y-69124D03*
X97322Y-68848D03*
X96535Y-60049D03*
X97224Y-60639D03*
X97224Y-59734D03*
X96633Y-60639D03*
X96535Y-60324D03*
X96633Y-59734D03*
X97322Y-60324D03*
X97322Y-60049D03*
X105354Y-60049D03*
X106043Y-60639D03*
X106043Y-59734D03*
X105452Y-60639D03*
X105354Y-60324D03*
X105452Y-59734D03*
X106141Y-60324D03*
X106141Y-60049D03*
X100944Y-60049D03*
X101633Y-60639D03*
X101633Y-59734D03*
X101043Y-60639D03*
X100944Y-60324D03*
X101043Y-59734D03*
X101732Y-60324D03*
X101732Y-60049D03*
X105354Y-68848D03*
X106043Y-69438D03*
X106043Y-68533D03*
X105452Y-69438D03*
X105354Y-69124D03*
X105452Y-68533D03*
X106141Y-69124D03*
X106141Y-68848D03*
X100944Y-68848D03*
X101633Y-69438D03*
X101633Y-68533D03*
X101043Y-69438D03*
X100944Y-69124D03*
X101043Y-68533D03*
X101732Y-69124D03*
X101732Y-68848D03*
G54D12*
X104980Y-62135D03*
X104980Y-61761D03*
X104980Y-61387D03*
X103956Y-61387D03*
X103956Y-62135D03*
G54D13*
X103917Y-67588D03*
X103169Y-67588D03*
X103543Y-68454D03*
G54D14*
X104773Y-65235D03*
X103985Y-65235D03*
G54D15*
X104379Y-66515D03*
G54D14*
X103189Y-65235D03*
X102401Y-65235D03*
G54D15*
X102795Y-66515D03*
G54D16*
X104803Y-68355D03*
X104803Y-67687D03*
X102283Y-67727D03*
X102283Y-68395D03*
G54D17*
X103129Y-61938D03*
X103129Y-61190D03*
G54D18*
X104133Y-60580D03*
X104881Y-60580D03*
G54D17*
X102145Y-61938D03*
X102145Y-61190D03*
G54D19*
X104437Y-69675D03*
G54D20*
X102649Y-69675D03*
G54D19*
X104437Y-59360D03*
G54D20*
X102649Y-59360D03*
G54D21*
X104015Y-64379D03*
X104212Y-64379D03*
X104409Y-64379D03*
X104606Y-64379D03*
X104803Y-64379D03*
X104803Y-62962D03*
X104606Y-62962D03*
X104409Y-62962D03*
X104212Y-62962D03*
X104015Y-62962D03*
G54D22*
X102309Y-63171D03*
G54D23*
X102966Y-63171D03*
X102309Y-63671D03*
X102966Y-63671D03*
X102309Y-64171D03*
X102966Y-64171D03*
G54D11*
X105354Y-47903D03*
X106043Y-48494D03*
X106043Y-47588D03*
X105452Y-48494D03*
X105354Y-48179D03*
X105452Y-47588D03*
X106141Y-48179D03*
X106141Y-47903D03*
X100944Y-47903D03*
X101633Y-48494D03*
X101633Y-47588D03*
X101043Y-48494D03*
X100944Y-48179D03*
X101043Y-47588D03*
X101732Y-48179D03*
X101732Y-47903D03*
X105354Y-56702D03*
X106043Y-57293D03*
X106043Y-56387D03*
X105452Y-57293D03*
X105354Y-56978D03*
X105452Y-56387D03*
X106141Y-56978D03*
X106141Y-56702D03*
X100944Y-56702D03*
X101633Y-57293D03*
X101633Y-56387D03*
X101043Y-57293D03*
X100944Y-56978D03*
X101043Y-56387D03*
X101732Y-56978D03*
X101732Y-56702D03*
G54D12*
X104980Y-49990D03*
X104980Y-49616D03*
X104980Y-49242D03*
X103956Y-49242D03*
X103956Y-49990D03*
G54D13*
X103917Y-55442D03*
X103169Y-55442D03*
X103543Y-56309D03*
G54D14*
X104773Y-53090D03*
X103985Y-53090D03*
G54D15*
X104379Y-54370D03*
G54D14*
X103189Y-53090D03*
X102401Y-53090D03*
G54D15*
X102795Y-54370D03*
G54D16*
X104803Y-56209D03*
X104803Y-55541D03*
X102283Y-55581D03*
X102283Y-56249D03*
G54D17*
X103129Y-49793D03*
X103129Y-49045D03*
G54D18*
X104133Y-48435D03*
X104881Y-48435D03*
G54D17*
X102145Y-49793D03*
X102145Y-49045D03*
G54D19*
X104437Y-57529D03*
G54D20*
X102649Y-57529D03*
G54D19*
X104437Y-47214D03*
G54D20*
X102649Y-47214D03*
G54D21*
X104015Y-52234D03*
X104212Y-52234D03*
X104409Y-52234D03*
X104606Y-52234D03*
X104803Y-52234D03*
X104803Y-50816D03*
X104606Y-50816D03*
X104409Y-50816D03*
X104212Y-50816D03*
X104015Y-50816D03*
G54D22*
X102309Y-51025D03*
G54D23*
X102966Y-51025D03*
X102309Y-51525D03*
X102966Y-51525D03*
X102309Y-52025D03*
X102966Y-52025D03*
G54D11*
X105354Y-35757D03*
X106043Y-36348D03*
X106043Y-35442D03*
X105452Y-36348D03*
X105354Y-36033D03*
X105452Y-35442D03*
X106141Y-36033D03*
X106141Y-35757D03*
X100944Y-35757D03*
X101633Y-36348D03*
X101633Y-35442D03*
X101043Y-36348D03*
X100944Y-36033D03*
X101043Y-35442D03*
X101732Y-36033D03*
X101732Y-35757D03*
X105354Y-44557D03*
X106043Y-45147D03*
X106043Y-44242D03*
X105452Y-45147D03*
X105354Y-44832D03*
X105452Y-44242D03*
X106141Y-44832D03*
X106141Y-44557D03*
X100944Y-44557D03*
X101633Y-45147D03*
X101633Y-44242D03*
X101043Y-45147D03*
X100944Y-44832D03*
X101043Y-44242D03*
X101732Y-44832D03*
X101732Y-44557D03*
G54D12*
X104980Y-37844D03*
X104980Y-37470D03*
X104980Y-37096D03*
X103956Y-37096D03*
X103956Y-37844D03*
G54D13*
X103917Y-43297D03*
X103169Y-43297D03*
X103543Y-44163D03*
G54D14*
X104773Y-40944D03*
X103985Y-40944D03*
G54D15*
X104379Y-42224D03*
G54D14*
X103189Y-40944D03*
X102401Y-40944D03*
G54D15*
X102795Y-42224D03*
G54D16*
X104803Y-44064D03*
X104803Y-43396D03*
X102283Y-43435D03*
X102283Y-44103D03*
G54D17*
X103129Y-37647D03*
X103129Y-36899D03*
G54D18*
X104133Y-36289D03*
X104881Y-36289D03*
G54D17*
X102145Y-37647D03*
X102145Y-36899D03*
G54D19*
X104437Y-45383D03*
G54D20*
X102649Y-45383D03*
G54D19*
X104437Y-35068D03*
G54D20*
X102649Y-35068D03*
G54D21*
X104015Y-40088D03*
X104212Y-40088D03*
X104409Y-40088D03*
X104606Y-40088D03*
X104803Y-40088D03*
X104803Y-38671D03*
X104606Y-38671D03*
X104409Y-38671D03*
X104212Y-38671D03*
X104015Y-38671D03*
G54D22*
X102309Y-38879D03*
G54D23*
X102966Y-38879D03*
X102309Y-39379D03*
X102966Y-39379D03*
X102309Y-39879D03*
X102966Y-39879D03*
G54D24*
X72637Y-71259D03*
X72637Y-33464D03*
X108070Y-33464D03*
X108070Y-71259D03*
G54D10*
G36*
X105206Y-39665D02*
X103887Y-39665D01*
X103887Y-39503D01*
X104946Y-39503D01*
X104946Y-39114D01*
X105206Y-39114D01*
X105206Y-39665D01*
X105206Y-39665D01*
G37*
X105206Y-39665D02*
X103887Y-39665D01*
X103887Y-39503D01*
X104946Y-39503D01*
X104946Y-39114D01*
X105206Y-39114D01*
X105206Y-39665D01*
G36*
X105206Y-51811D02*
X103887Y-51811D01*
X103887Y-51649D01*
X104946Y-51649D01*
X104946Y-51259D01*
X105206Y-51259D01*
X105206Y-51811D01*
X105206Y-51811D01*
G37*
X105206Y-51811D02*
X103887Y-51811D01*
X103887Y-51649D01*
X104946Y-51649D01*
X104946Y-51259D01*
X105206Y-51259D01*
X105206Y-51811D01*
G36*
X105206Y-63956D02*
X103887Y-63956D01*
X103887Y-63795D01*
X104946Y-63795D01*
X104946Y-63405D01*
X105206Y-63405D01*
X105206Y-63956D01*
X105206Y-63956D01*
G37*
X105206Y-63956D02*
X103887Y-63956D01*
X103887Y-63795D01*
X104946Y-63795D01*
X104946Y-63405D01*
X105206Y-63405D01*
X105206Y-63956D01*
G36*
X100797Y-39665D02*
X99478Y-39665D01*
X99478Y-39503D01*
X100537Y-39503D01*
X100537Y-39114D01*
X100797Y-39114D01*
X100797Y-39665D01*
X100797Y-39665D01*
G37*
X100797Y-39665D02*
X99478Y-39665D01*
X99478Y-39503D01*
X100537Y-39503D01*
X100537Y-39114D01*
X100797Y-39114D01*
X100797Y-39665D01*
G36*
X100797Y-51811D02*
X99478Y-51811D01*
X99478Y-51649D01*
X100537Y-51649D01*
X100537Y-51259D01*
X100797Y-51259D01*
X100797Y-51811D01*
X100797Y-51811D01*
G37*
X100797Y-51811D02*
X99478Y-51811D01*
X99478Y-51649D01*
X100537Y-51649D01*
X100537Y-51259D01*
X100797Y-51259D01*
X100797Y-51811D01*
G36*
X100797Y-63956D02*
X99478Y-63956D01*
X99478Y-63795D01*
X100537Y-63795D01*
X100537Y-63405D01*
X100797Y-63405D01*
X100797Y-63956D01*
X100797Y-63956D01*
G37*
X100797Y-63956D02*
X99478Y-63956D01*
X99478Y-63795D01*
X100537Y-63795D01*
X100537Y-63405D01*
X100797Y-63405D01*
X100797Y-63956D01*
G36*
X96387Y-39665D02*
X95068Y-39665D01*
X95068Y-39503D01*
X96127Y-39503D01*
X96127Y-39114D01*
X96387Y-39114D01*
X96387Y-39665D01*
X96387Y-39665D01*
G37*
X96387Y-39665D02*
X95068Y-39665D01*
X95068Y-39503D01*
X96127Y-39503D01*
X96127Y-39114D01*
X96387Y-39114D01*
X96387Y-39665D01*
G36*
X96387Y-51811D02*
X95068Y-51811D01*
X95068Y-51649D01*
X96127Y-51649D01*
X96127Y-51259D01*
X96387Y-51259D01*
X96387Y-51811D01*
X96387Y-51811D01*
G37*
X96387Y-51811D02*
X95068Y-51811D01*
X95068Y-51649D01*
X96127Y-51649D01*
X96127Y-51259D01*
X96387Y-51259D01*
X96387Y-51811D01*
G36*
X96387Y-63956D02*
X95068Y-63956D01*
X95068Y-63795D01*
X96127Y-63795D01*
X96127Y-63405D01*
X96387Y-63405D01*
X96387Y-63956D01*
X96387Y-63956D01*
G37*
X96387Y-63956D02*
X95068Y-63956D01*
X95068Y-63795D01*
X96127Y-63795D01*
X96127Y-63405D01*
X96387Y-63405D01*
X96387Y-63956D01*
G36*
X91978Y-39665D02*
X90659Y-39665D01*
X90659Y-39503D01*
X91718Y-39503D01*
X91718Y-39114D01*
X91978Y-39114D01*
X91978Y-39665D01*
X91978Y-39665D01*
G37*
X91978Y-39665D02*
X90659Y-39665D01*
X90659Y-39503D01*
X91718Y-39503D01*
X91718Y-39114D01*
X91978Y-39114D01*
X91978Y-39665D01*
G36*
X91978Y-51811D02*
X90659Y-51811D01*
X90659Y-51649D01*
X91718Y-51649D01*
X91718Y-51259D01*
X91978Y-51259D01*
X91978Y-51811D01*
X91978Y-51811D01*
G37*
X91978Y-51811D02*
X90659Y-51811D01*
X90659Y-51649D01*
X91718Y-51649D01*
X91718Y-51259D01*
X91978Y-51259D01*
X91978Y-51811D01*
G36*
X91978Y-63956D02*
X90659Y-63956D01*
X90659Y-63795D01*
X91718Y-63795D01*
X91718Y-63405D01*
X91978Y-63405D01*
X91978Y-63956D01*
X91978Y-63956D01*
G37*
X91978Y-63956D02*
X90659Y-63956D01*
X90659Y-63795D01*
X91718Y-63795D01*
X91718Y-63405D01*
X91978Y-63405D01*
X91978Y-63956D01*
G36*
X87568Y-39665D02*
X86250Y-39665D01*
X86250Y-39503D01*
X87309Y-39503D01*
X87309Y-39114D01*
X87568Y-39114D01*
X87568Y-39665D01*
X87568Y-39665D01*
G37*
X87568Y-39665D02*
X86250Y-39665D01*
X86250Y-39503D01*
X87309Y-39503D01*
X87309Y-39114D01*
X87568Y-39114D01*
X87568Y-39665D01*
G36*
X87568Y-51811D02*
X86250Y-51811D01*
X86250Y-51649D01*
X87309Y-51649D01*
X87309Y-51259D01*
X87568Y-51259D01*
X87568Y-51811D01*
X87568Y-51811D01*
G37*
X87568Y-51811D02*
X86250Y-51811D01*
X86250Y-51649D01*
X87309Y-51649D01*
X87309Y-51259D01*
X87568Y-51259D01*
X87568Y-51811D01*
G36*
X87568Y-63956D02*
X86250Y-63956D01*
X86250Y-63795D01*
X87309Y-63795D01*
X87309Y-63405D01*
X87568Y-63405D01*
X87568Y-63956D01*
X87568Y-63956D01*
G37*
X87568Y-63956D02*
X86250Y-63956D01*
X86250Y-63795D01*
X87309Y-63795D01*
X87309Y-63405D01*
X87568Y-63405D01*
X87568Y-63956D01*
G36*
X83159Y-39665D02*
X81840Y-39665D01*
X81840Y-39503D01*
X82899Y-39503D01*
X82899Y-39114D01*
X83159Y-39114D01*
X83159Y-39665D01*
X83159Y-39665D01*
G37*
X83159Y-39665D02*
X81840Y-39665D01*
X81840Y-39503D01*
X82899Y-39503D01*
X82899Y-39114D01*
X83159Y-39114D01*
X83159Y-39665D01*
G36*
X83159Y-51811D02*
X81840Y-51811D01*
X81840Y-51649D01*
X82899Y-51649D01*
X82899Y-51259D01*
X83159Y-51259D01*
X83159Y-51811D01*
X83159Y-51811D01*
G37*
X83159Y-51811D02*
X81840Y-51811D01*
X81840Y-51649D01*
X82899Y-51649D01*
X82899Y-51259D01*
X83159Y-51259D01*
X83159Y-51811D01*
G36*
X83159Y-63956D02*
X81840Y-63956D01*
X81840Y-63795D01*
X82899Y-63795D01*
X82899Y-63405D01*
X83159Y-63405D01*
X83159Y-63956D01*
X83159Y-63956D01*
G37*
X83159Y-63956D02*
X81840Y-63956D01*
X81840Y-63795D01*
X82899Y-63795D01*
X82899Y-63405D01*
X83159Y-63405D01*
X83159Y-63956D01*
G36*
X78750Y-39665D02*
X77431Y-39665D01*
X77431Y-39503D01*
X78490Y-39503D01*
X78490Y-39114D01*
X78750Y-39114D01*
X78750Y-39665D01*
X78750Y-39665D01*
G37*
X78750Y-39665D02*
X77431Y-39665D01*
X77431Y-39503D01*
X78490Y-39503D01*
X78490Y-39114D01*
X78750Y-39114D01*
X78750Y-39665D01*
G36*
X78750Y-51811D02*
X77431Y-51811D01*
X77431Y-51649D01*
X78490Y-51649D01*
X78490Y-51259D01*
X78750Y-51259D01*
X78750Y-51811D01*
X78750Y-51811D01*
G37*
X78750Y-51811D02*
X77431Y-51811D01*
X77431Y-51649D01*
X78490Y-51649D01*
X78490Y-51259D01*
X78750Y-51259D01*
X78750Y-51811D01*
G36*
X78750Y-63956D02*
X77431Y-63956D01*
X77431Y-63795D01*
X78490Y-63795D01*
X78490Y-63405D01*
X78750Y-63405D01*
X78750Y-63956D01*
X78750Y-63956D01*
G37*
X78750Y-63956D02*
X77431Y-63956D01*
X77431Y-63795D01*
X78490Y-63795D01*
X78490Y-63405D01*
X78750Y-63405D01*
X78750Y-63956D01*
M02*
