G04 (created by PCBNEW (2013-08-09 BZR 4280)-product) date Sun 11 Aug 2013 03:04:53 PM CEST*
%MOIN*%
G04 Gerber Fmt 3.4, Leading zero omitted, Abs format*
%FSLAX34Y34*%
G01*
G70*
G90*
G04 APERTURE LIST*
%ADD10C,0.005906*%
%ADD11C,0.039370*%
G04 APERTURE END LIST*
G54D10*
G54D11*
X75511Y-58435D02*
G75*
G03X74881Y-59064I0J-629D01*
G74*
G01*
X79291Y-59064D02*
G75*
G03X78661Y-58435I-629J0D01*
G74*
G01*
X78661Y-70580D02*
G75*
G03X79291Y-69950I0J629D01*
G74*
G01*
X74881Y-69950D02*
G75*
G03X75511Y-70580I629J0D01*
G74*
G01*
X74881Y-69576D02*
X74881Y-69950D01*
X79291Y-69576D02*
X79291Y-69950D01*
X75511Y-70580D02*
X78661Y-70580D01*
X74881Y-68395D02*
X74881Y-60777D01*
X79291Y-68395D02*
X79291Y-60777D01*
X79291Y-59596D02*
X79291Y-59064D01*
X78661Y-58435D02*
X75511Y-58435D01*
X74881Y-59596D02*
X74881Y-59064D01*
X75511Y-46289D02*
G75*
G03X74881Y-46919I0J-629D01*
G74*
G01*
X79291Y-46919D02*
G75*
G03X78661Y-46289I-629J0D01*
G74*
G01*
X78661Y-58435D02*
G75*
G03X79291Y-57805I0J629D01*
G74*
G01*
X74881Y-57805D02*
G75*
G03X75511Y-58435I629J0D01*
G74*
G01*
X74881Y-57431D02*
X74881Y-57805D01*
X79291Y-57431D02*
X79291Y-57805D01*
X75511Y-58435D02*
X78661Y-58435D01*
X74881Y-56250D02*
X74881Y-48631D01*
X79291Y-56250D02*
X79291Y-48631D01*
X79291Y-47450D02*
X79291Y-46919D01*
X78661Y-46289D02*
X75511Y-46289D01*
X74881Y-47450D02*
X74881Y-46919D01*
X75511Y-34143D02*
G75*
G03X74881Y-34773I0J-629D01*
G74*
G01*
X79291Y-34773D02*
G75*
G03X78661Y-34143I-629J0D01*
G74*
G01*
X78661Y-46289D02*
G75*
G03X79291Y-45659I0J629D01*
G74*
G01*
X74881Y-45659D02*
G75*
G03X75511Y-46289I629J0D01*
G74*
G01*
X74881Y-45285D02*
X74881Y-45659D01*
X79291Y-45285D02*
X79291Y-45659D01*
X75511Y-46289D02*
X78661Y-46289D01*
X74881Y-44104D02*
X74881Y-36486D01*
X79291Y-44104D02*
X79291Y-36486D01*
X79291Y-35305D02*
X79291Y-34773D01*
X78661Y-34143D02*
X75511Y-34143D01*
X74881Y-35305D02*
X74881Y-34773D01*
X79291Y-35305D02*
X79291Y-34773D01*
X83070Y-34143D02*
X79921Y-34143D01*
X83700Y-35305D02*
X83700Y-34773D01*
X83700Y-44104D02*
X83700Y-36486D01*
X79291Y-44104D02*
X79291Y-36486D01*
X79921Y-46289D02*
X83070Y-46289D01*
X83700Y-45285D02*
X83700Y-45659D01*
X79291Y-45285D02*
X79291Y-45659D01*
X79291Y-45659D02*
G75*
G03X79921Y-46289I629J0D01*
G74*
G01*
X83070Y-46289D02*
G75*
G03X83700Y-45659I0J629D01*
G74*
G01*
X83700Y-34773D02*
G75*
G03X83070Y-34143I-629J0D01*
G74*
G01*
X79921Y-34143D02*
G75*
G03X79291Y-34773I0J-629D01*
G74*
G01*
X79291Y-47450D02*
X79291Y-46919D01*
X83070Y-46289D02*
X79921Y-46289D01*
X83700Y-47450D02*
X83700Y-46919D01*
X83700Y-56250D02*
X83700Y-48631D01*
X79291Y-56250D02*
X79291Y-48631D01*
X79921Y-58435D02*
X83070Y-58435D01*
X83700Y-57431D02*
X83700Y-57805D01*
X79291Y-57431D02*
X79291Y-57805D01*
X79291Y-57805D02*
G75*
G03X79921Y-58435I629J0D01*
G74*
G01*
X83070Y-58435D02*
G75*
G03X83700Y-57805I0J629D01*
G74*
G01*
X83700Y-46919D02*
G75*
G03X83070Y-46289I-629J0D01*
G74*
G01*
X79921Y-46289D02*
G75*
G03X79291Y-46919I0J-629D01*
G74*
G01*
X79291Y-59596D02*
X79291Y-59064D01*
X83070Y-58435D02*
X79921Y-58435D01*
X83700Y-59596D02*
X83700Y-59064D01*
X83700Y-68395D02*
X83700Y-60777D01*
X79291Y-68395D02*
X79291Y-60777D01*
X79921Y-70580D02*
X83070Y-70580D01*
X83700Y-69576D02*
X83700Y-69950D01*
X79291Y-69576D02*
X79291Y-69950D01*
X79291Y-69950D02*
G75*
G03X79921Y-70580I629J0D01*
G74*
G01*
X83070Y-70580D02*
G75*
G03X83700Y-69950I0J629D01*
G74*
G01*
X83700Y-59064D02*
G75*
G03X83070Y-58435I-629J0D01*
G74*
G01*
X79921Y-58435D02*
G75*
G03X79291Y-59064I0J-629D01*
G74*
G01*
X84330Y-58435D02*
G75*
G03X83700Y-59064I0J-629D01*
G74*
G01*
X88110Y-59064D02*
G75*
G03X87480Y-58435I-629J0D01*
G74*
G01*
X87480Y-70580D02*
G75*
G03X88110Y-69950I0J629D01*
G74*
G01*
X83700Y-69950D02*
G75*
G03X84330Y-70580I629J0D01*
G74*
G01*
X83700Y-69576D02*
X83700Y-69950D01*
X88110Y-69576D02*
X88110Y-69950D01*
X84330Y-70580D02*
X87480Y-70580D01*
X83700Y-68395D02*
X83700Y-60777D01*
X88110Y-68395D02*
X88110Y-60777D01*
X88110Y-59596D02*
X88110Y-59064D01*
X87480Y-58435D02*
X84330Y-58435D01*
X83700Y-59596D02*
X83700Y-59064D01*
X84330Y-46289D02*
G75*
G03X83700Y-46919I0J-629D01*
G74*
G01*
X88110Y-46919D02*
G75*
G03X87480Y-46289I-629J0D01*
G74*
G01*
X87480Y-58435D02*
G75*
G03X88110Y-57805I0J629D01*
G74*
G01*
X83700Y-57805D02*
G75*
G03X84330Y-58435I629J0D01*
G74*
G01*
X83700Y-57431D02*
X83700Y-57805D01*
X88110Y-57431D02*
X88110Y-57805D01*
X84330Y-58435D02*
X87480Y-58435D01*
X83700Y-56250D02*
X83700Y-48631D01*
X88110Y-56250D02*
X88110Y-48631D01*
X88110Y-47450D02*
X88110Y-46919D01*
X87480Y-46289D02*
X84330Y-46289D01*
X83700Y-47450D02*
X83700Y-46919D01*
X84330Y-34143D02*
G75*
G03X83700Y-34773I0J-629D01*
G74*
G01*
X88110Y-34773D02*
G75*
G03X87480Y-34143I-629J0D01*
G74*
G01*
X87480Y-46289D02*
G75*
G03X88110Y-45659I0J629D01*
G74*
G01*
X83700Y-45659D02*
G75*
G03X84330Y-46289I629J0D01*
G74*
G01*
X83700Y-45285D02*
X83700Y-45659D01*
X88110Y-45285D02*
X88110Y-45659D01*
X84330Y-46289D02*
X87480Y-46289D01*
X83700Y-44104D02*
X83700Y-36486D01*
X88110Y-44104D02*
X88110Y-36486D01*
X88110Y-35305D02*
X88110Y-34773D01*
X87480Y-34143D02*
X84330Y-34143D01*
X83700Y-35305D02*
X83700Y-34773D01*
X92519Y-35305D02*
X92519Y-34773D01*
X96299Y-34143D02*
X93149Y-34143D01*
X96929Y-35305D02*
X96929Y-34773D01*
X96929Y-44104D02*
X96929Y-36486D01*
X92519Y-44104D02*
X92519Y-36486D01*
X93149Y-46289D02*
X96299Y-46289D01*
X96929Y-45285D02*
X96929Y-45659D01*
X92519Y-45285D02*
X92519Y-45659D01*
X92519Y-45659D02*
G75*
G03X93149Y-46289I629J0D01*
G74*
G01*
X96299Y-46289D02*
G75*
G03X96929Y-45659I0J629D01*
G74*
G01*
X96929Y-34773D02*
G75*
G03X96299Y-34143I-629J0D01*
G74*
G01*
X93149Y-34143D02*
G75*
G03X92519Y-34773I0J-629D01*
G74*
G01*
X92519Y-47450D02*
X92519Y-46919D01*
X96299Y-46289D02*
X93149Y-46289D01*
X96929Y-47450D02*
X96929Y-46919D01*
X96929Y-56250D02*
X96929Y-48631D01*
X92519Y-56250D02*
X92519Y-48631D01*
X93149Y-58435D02*
X96299Y-58435D01*
X96929Y-57431D02*
X96929Y-57805D01*
X92519Y-57431D02*
X92519Y-57805D01*
X92519Y-57805D02*
G75*
G03X93149Y-58435I629J0D01*
G74*
G01*
X96299Y-58435D02*
G75*
G03X96929Y-57805I0J629D01*
G74*
G01*
X96929Y-46919D02*
G75*
G03X96299Y-46289I-629J0D01*
G74*
G01*
X93149Y-46289D02*
G75*
G03X92519Y-46919I0J-629D01*
G74*
G01*
X92519Y-59596D02*
X92519Y-59064D01*
X96299Y-58435D02*
X93149Y-58435D01*
X96929Y-59596D02*
X96929Y-59064D01*
X96929Y-68395D02*
X96929Y-60777D01*
X92519Y-68395D02*
X92519Y-60777D01*
X93149Y-70580D02*
X96299Y-70580D01*
X96929Y-69576D02*
X96929Y-69950D01*
X92519Y-69576D02*
X92519Y-69950D01*
X92519Y-69950D02*
G75*
G03X93149Y-70580I629J0D01*
G74*
G01*
X96299Y-70580D02*
G75*
G03X96929Y-69950I0J629D01*
G74*
G01*
X96929Y-59064D02*
G75*
G03X96299Y-58435I-629J0D01*
G74*
G01*
X93149Y-58435D02*
G75*
G03X92519Y-59064I0J-629D01*
G74*
G01*
X88740Y-58435D02*
G75*
G03X88110Y-59064I0J-629D01*
G74*
G01*
X92519Y-59064D02*
G75*
G03X91889Y-58435I-629J0D01*
G74*
G01*
X91889Y-70580D02*
G75*
G03X92519Y-69950I0J629D01*
G74*
G01*
X88110Y-69950D02*
G75*
G03X88740Y-70580I629J0D01*
G74*
G01*
X88110Y-69576D02*
X88110Y-69950D01*
X92519Y-69576D02*
X92519Y-69950D01*
X88740Y-70580D02*
X91889Y-70580D01*
X88110Y-68395D02*
X88110Y-60777D01*
X92519Y-68395D02*
X92519Y-60777D01*
X92519Y-59596D02*
X92519Y-59064D01*
X91889Y-58435D02*
X88740Y-58435D01*
X88110Y-59596D02*
X88110Y-59064D01*
X88740Y-46289D02*
G75*
G03X88110Y-46919I0J-629D01*
G74*
G01*
X92519Y-46919D02*
G75*
G03X91889Y-46289I-629J0D01*
G74*
G01*
X91889Y-58435D02*
G75*
G03X92519Y-57805I0J629D01*
G74*
G01*
X88110Y-57805D02*
G75*
G03X88740Y-58435I629J0D01*
G74*
G01*
X88110Y-57431D02*
X88110Y-57805D01*
X92519Y-57431D02*
X92519Y-57805D01*
X88740Y-58435D02*
X91889Y-58435D01*
X88110Y-56250D02*
X88110Y-48631D01*
X92519Y-56250D02*
X92519Y-48631D01*
X92519Y-47450D02*
X92519Y-46919D01*
X91889Y-46289D02*
X88740Y-46289D01*
X88110Y-47450D02*
X88110Y-46919D01*
X88740Y-34143D02*
G75*
G03X88110Y-34773I0J-629D01*
G74*
G01*
X92519Y-34773D02*
G75*
G03X91889Y-34143I-629J0D01*
G74*
G01*
X91889Y-46289D02*
G75*
G03X92519Y-45659I0J629D01*
G74*
G01*
X88110Y-45659D02*
G75*
G03X88740Y-46289I629J0D01*
G74*
G01*
X88110Y-45285D02*
X88110Y-45659D01*
X92519Y-45285D02*
X92519Y-45659D01*
X88740Y-46289D02*
X91889Y-46289D01*
X88110Y-44104D02*
X88110Y-36486D01*
X92519Y-44104D02*
X92519Y-36486D01*
X92519Y-35305D02*
X92519Y-34773D01*
X91889Y-34143D02*
X88740Y-34143D01*
X88110Y-35305D02*
X88110Y-34773D01*
X96929Y-35305D02*
X96929Y-34773D01*
X100708Y-34143D02*
X97559Y-34143D01*
X101338Y-35305D02*
X101338Y-34773D01*
X101338Y-44104D02*
X101338Y-36486D01*
X96929Y-44104D02*
X96929Y-36486D01*
X97559Y-46289D02*
X100708Y-46289D01*
X101338Y-45285D02*
X101338Y-45659D01*
X96929Y-45285D02*
X96929Y-45659D01*
X96929Y-45659D02*
G75*
G03X97559Y-46289I629J0D01*
G74*
G01*
X100708Y-46289D02*
G75*
G03X101338Y-45659I0J629D01*
G74*
G01*
X101338Y-34773D02*
G75*
G03X100708Y-34143I-629J0D01*
G74*
G01*
X97559Y-34143D02*
G75*
G03X96929Y-34773I0J-629D01*
G74*
G01*
X96929Y-47450D02*
X96929Y-46919D01*
X100708Y-46289D02*
X97559Y-46289D01*
X101338Y-47450D02*
X101338Y-46919D01*
X101338Y-56250D02*
X101338Y-48631D01*
X96929Y-56250D02*
X96929Y-48631D01*
X97559Y-58435D02*
X100708Y-58435D01*
X101338Y-57431D02*
X101338Y-57805D01*
X96929Y-57431D02*
X96929Y-57805D01*
X96929Y-57805D02*
G75*
G03X97559Y-58435I629J0D01*
G74*
G01*
X100708Y-58435D02*
G75*
G03X101338Y-57805I0J629D01*
G74*
G01*
X101338Y-46919D02*
G75*
G03X100708Y-46289I-629J0D01*
G74*
G01*
X97559Y-46289D02*
G75*
G03X96929Y-46919I0J-629D01*
G74*
G01*
X96929Y-59596D02*
X96929Y-59064D01*
X100708Y-58435D02*
X97559Y-58435D01*
X101338Y-59596D02*
X101338Y-59064D01*
X101338Y-68395D02*
X101338Y-60777D01*
X96929Y-68395D02*
X96929Y-60777D01*
X97559Y-70580D02*
X100708Y-70580D01*
X101338Y-69576D02*
X101338Y-69950D01*
X96929Y-69576D02*
X96929Y-69950D01*
X96929Y-69950D02*
G75*
G03X97559Y-70580I629J0D01*
G74*
G01*
X100708Y-70580D02*
G75*
G03X101338Y-69950I0J629D01*
G74*
G01*
X101338Y-59064D02*
G75*
G03X100708Y-58435I-629J0D01*
G74*
G01*
X97559Y-58435D02*
G75*
G03X96929Y-59064I0J-629D01*
G74*
G01*
X101968Y-58435D02*
G75*
G03X101338Y-59064I0J-629D01*
G74*
G01*
X105748Y-59064D02*
G75*
G03X105118Y-58435I-629J0D01*
G74*
G01*
X105118Y-70580D02*
G75*
G03X105748Y-69950I0J629D01*
G74*
G01*
X101338Y-69950D02*
G75*
G03X101968Y-70580I629J0D01*
G74*
G01*
X101338Y-69576D02*
X101338Y-69950D01*
X105748Y-69576D02*
X105748Y-69950D01*
X101968Y-70580D02*
X105118Y-70580D01*
X101338Y-68395D02*
X101338Y-60777D01*
X105748Y-68395D02*
X105748Y-60777D01*
X105748Y-59596D02*
X105748Y-59064D01*
X105118Y-58435D02*
X101968Y-58435D01*
X101338Y-59596D02*
X101338Y-59064D01*
X101968Y-46289D02*
G75*
G03X101338Y-46919I0J-629D01*
G74*
G01*
X105748Y-46919D02*
G75*
G03X105118Y-46289I-629J0D01*
G74*
G01*
X105118Y-58435D02*
G75*
G03X105748Y-57805I0J629D01*
G74*
G01*
X101338Y-57805D02*
G75*
G03X101968Y-58435I629J0D01*
G74*
G01*
X101338Y-57431D02*
X101338Y-57805D01*
X105748Y-57431D02*
X105748Y-57805D01*
X101968Y-58435D02*
X105118Y-58435D01*
X101338Y-56250D02*
X101338Y-48631D01*
X105748Y-56250D02*
X105748Y-48631D01*
X105748Y-47450D02*
X105748Y-46919D01*
X105118Y-46289D02*
X101968Y-46289D01*
X101338Y-47450D02*
X101338Y-46919D01*
X101968Y-34143D02*
G75*
G03X101338Y-34773I0J-629D01*
G74*
G01*
X105748Y-34773D02*
G75*
G03X105118Y-34143I-629J0D01*
G74*
G01*
X105118Y-46289D02*
G75*
G03X105748Y-45659I0J629D01*
G74*
G01*
X101338Y-45659D02*
G75*
G03X101968Y-46289I629J0D01*
G74*
G01*
X101338Y-45285D02*
X101338Y-45659D01*
X105748Y-45285D02*
X105748Y-45659D01*
X101968Y-46289D02*
X105118Y-46289D01*
X101338Y-44104D02*
X101338Y-36486D01*
X105748Y-44104D02*
X105748Y-36486D01*
X105748Y-35305D02*
X105748Y-34773D01*
X105118Y-34143D02*
X101968Y-34143D01*
X101338Y-35305D02*
X101338Y-34773D01*
X74881Y-60777D02*
X74881Y-60777D01*
X74881Y-59596D02*
X74881Y-59596D01*
X74881Y-69576D02*
X74881Y-69576D01*
X74881Y-68395D02*
X74881Y-68395D01*
X74881Y-48631D02*
X74881Y-48631D01*
X74881Y-47450D02*
X74881Y-47450D01*
X74881Y-57431D02*
X74881Y-57431D01*
X74881Y-56250D02*
X74881Y-56250D01*
X74881Y-36486D02*
X74881Y-36486D01*
X74881Y-35305D02*
X74881Y-35305D01*
X74881Y-45285D02*
X74881Y-45285D01*
X74881Y-44104D02*
X74881Y-44104D01*
X79291Y-45285D02*
X79291Y-45285D01*
X79291Y-44104D02*
X79291Y-44104D01*
X79291Y-36486D02*
X79291Y-36486D01*
X79291Y-35305D02*
X79291Y-35305D01*
X79291Y-57431D02*
X79291Y-57431D01*
X79291Y-56250D02*
X79291Y-56250D01*
X79291Y-48631D02*
X79291Y-48631D01*
X79291Y-47450D02*
X79291Y-47450D01*
X79291Y-69576D02*
X79291Y-69576D01*
X79291Y-68395D02*
X79291Y-68395D01*
X79291Y-60777D02*
X79291Y-60777D01*
X79291Y-59596D02*
X79291Y-59596D01*
X83700Y-60777D02*
X83700Y-60777D01*
X83700Y-59596D02*
X83700Y-59596D01*
X83700Y-69576D02*
X83700Y-69576D01*
X83700Y-68395D02*
X83700Y-68395D01*
X83700Y-48631D02*
X83700Y-48631D01*
X83700Y-47450D02*
X83700Y-47450D01*
X83700Y-57431D02*
X83700Y-57431D01*
X83700Y-56250D02*
X83700Y-56250D01*
X83700Y-36486D02*
X83700Y-36486D01*
X83700Y-35305D02*
X83700Y-35305D01*
X83700Y-45285D02*
X83700Y-45285D01*
X83700Y-44104D02*
X83700Y-44104D01*
X96929Y-45285D02*
X96929Y-45285D01*
X96929Y-44104D02*
X96929Y-44104D01*
X96929Y-48631D02*
X96929Y-48631D01*
X96929Y-47450D02*
X96929Y-47450D01*
X92519Y-60777D02*
X92519Y-60777D01*
X92519Y-59596D02*
X92519Y-59596D01*
X88110Y-60777D02*
X88110Y-60777D01*
X88110Y-59596D02*
X88110Y-59596D01*
X92519Y-69576D02*
X92519Y-69576D01*
X92519Y-68395D02*
X92519Y-68395D01*
X88110Y-69576D02*
X88110Y-69576D01*
X88110Y-68395D02*
X88110Y-68395D01*
X92519Y-48631D02*
X92519Y-48631D01*
X92519Y-47450D02*
X92519Y-47450D01*
X88110Y-48631D02*
X88110Y-48631D01*
X88110Y-47450D02*
X88110Y-47450D01*
X92519Y-57431D02*
X92519Y-57431D01*
X92519Y-56250D02*
X92519Y-56250D01*
X88110Y-57431D02*
X88110Y-57431D01*
X88110Y-56250D02*
X88110Y-56250D01*
X92519Y-36486D02*
X92519Y-36486D01*
X92519Y-35305D02*
X92519Y-35305D01*
X88110Y-36486D02*
X88110Y-36486D01*
X88110Y-35305D02*
X88110Y-35305D01*
X92519Y-45285D02*
X92519Y-45285D01*
X92519Y-44104D02*
X92519Y-44104D01*
X88110Y-45285D02*
X88110Y-45285D01*
X88110Y-44104D02*
X88110Y-44104D01*
X96929Y-45285D02*
X96929Y-45285D01*
X96929Y-44104D02*
X96929Y-44104D01*
X101338Y-45285D02*
X101338Y-45285D01*
X101338Y-44104D02*
X101338Y-44104D01*
X96929Y-36486D02*
X96929Y-36486D01*
X96929Y-35305D02*
X96929Y-35305D01*
X96929Y-57431D02*
X96929Y-57431D01*
X96929Y-56250D02*
X96929Y-56250D01*
X96929Y-48631D02*
X96929Y-48631D01*
X96929Y-47450D02*
X96929Y-47450D01*
X101338Y-48631D02*
X101338Y-48631D01*
X101338Y-47450D02*
X101338Y-47450D01*
X96929Y-69576D02*
X96929Y-69576D01*
X96929Y-68395D02*
X96929Y-68395D01*
X96929Y-60777D02*
X96929Y-60777D01*
X96929Y-59596D02*
X96929Y-59596D01*
X105748Y-60777D02*
X105748Y-60777D01*
X105748Y-59596D02*
X105748Y-59596D01*
X101338Y-60777D02*
X101338Y-60777D01*
X101338Y-59596D02*
X101338Y-59596D01*
X105748Y-69576D02*
X105748Y-69576D01*
X105748Y-68395D02*
X105748Y-68395D01*
X101338Y-69576D02*
X101338Y-69576D01*
X101338Y-68395D02*
X101338Y-68395D01*
X105748Y-48631D02*
X105748Y-48631D01*
X105748Y-47450D02*
X105748Y-47450D01*
X101338Y-48631D02*
X101338Y-48631D01*
X101338Y-47450D02*
X101338Y-47450D01*
X105748Y-57431D02*
X105748Y-57431D01*
X105748Y-56250D02*
X105748Y-56250D01*
X101338Y-57431D02*
X101338Y-57431D01*
X101338Y-56250D02*
X101338Y-56250D01*
X105748Y-36486D02*
X105748Y-36486D01*
X105748Y-35305D02*
X105748Y-35305D01*
X101338Y-36486D02*
X101338Y-36486D01*
X101338Y-35305D02*
X101338Y-35305D01*
X105748Y-45285D02*
X105748Y-45285D01*
X105748Y-44104D02*
X105748Y-44104D01*
X101338Y-45285D02*
X101338Y-45285D01*
X101338Y-44104D02*
X101338Y-44104D01*
M02*
