M48
METRIC,TZ
T1C0.330
T2C0.500
T3C1.200
%
G90
G05
T1
X192250Y-093675
X192250Y-124525
X192250Y-155375
X192899Y-103999
X192899Y-134849
X192899Y-165699
X194100Y-108825
X194100Y-109875
X194100Y-139675
X194100Y-140725
X194100Y-170525
X194100Y-171575
X194800Y-095575
X194800Y-126425
X194800Y-157275
X194850Y-108825
X194850Y-139675
X194850Y-170525
X194901Y-103999
X194901Y-134849
X194901Y-165699
X195600Y-108825
X195600Y-109875
X195600Y-139675
X195600Y-140725
X195600Y-170525
X195600Y-171575
X197300Y-092175
X197300Y-123025
X197300Y-153875
X203450Y-093675
X203450Y-124525
X203450Y-155375
X204099Y-103999
X204099Y-134849
X204099Y-165699
X205300Y-108825
X205300Y-109875
X205300Y-139675
X205300Y-140725
X205300Y-170525
X205300Y-171575
X206000Y-095575
X206000Y-126425
X206000Y-157275
X206050Y-108825
X206050Y-139675
X206050Y-170525
X206101Y-103999
X206101Y-134849
X206101Y-165699
X206800Y-108825
X206800Y-109875
X206800Y-139675
X206800Y-140725
X206800Y-170525
X206800Y-171575
X208500Y-092175
X208500Y-123025
X208500Y-153875
X214650Y-093675
X214650Y-124525
X214650Y-155375
X215299Y-103999
X215299Y-134849
X215299Y-165699
X216500Y-108825
X216500Y-109875
X216500Y-139675
X216500Y-140725
X216500Y-170525
X216500Y-171575
X217200Y-095575
X217200Y-126425
X217200Y-157275
X217250Y-108825
X217250Y-139675
X217250Y-170525
X217301Y-103999
X217301Y-134849
X217301Y-165699
X218000Y-108825
X218000Y-109875
X218000Y-139675
X218000Y-140725
X218000Y-170525
X218000Y-171575
X219700Y-092175
X219700Y-123025
X219700Y-153875
X225850Y-093675
X225850Y-124525
X225850Y-155375
X226499Y-103999
X226499Y-134849
X226499Y-165699
X227700Y-108825
X227700Y-109875
X227700Y-139675
X227700Y-140725
X227700Y-170525
X227700Y-171575
X228400Y-095575
X228400Y-126425
X228400Y-157275
X228450Y-108825
X228450Y-139675
X228450Y-170525
X228501Y-103999
X228501Y-134849
X228501Y-165699
X229200Y-108825
X229200Y-109875
X229200Y-139675
X229200Y-140725
X229200Y-170525
X229200Y-171575
X230900Y-092175
X230900Y-123025
X230900Y-153875
X237050Y-093675
X237050Y-124525
X237050Y-155375
X237699Y-103999
X237699Y-134849
X237699Y-165699
X238900Y-108825
X238900Y-109875
X238900Y-139675
X238900Y-140725
X238900Y-170525
X238900Y-171575
X239600Y-095575
X239600Y-126425
X239600Y-157275
X239650Y-108825
X239650Y-139675
X239650Y-170525
X239701Y-103999
X239701Y-134849
X239701Y-165699
X240400Y-108825
X240400Y-109875
X240400Y-139675
X240400Y-140725
X240400Y-170525
X240400Y-171575
X242100Y-092175
X242100Y-123025
X242100Y-153875
X248250Y-093675
X248250Y-124525
X248250Y-155375
X248899Y-103999
X248899Y-134849
X248899Y-165699
X250100Y-108825
X250100Y-109875
X250100Y-139675
X250100Y-140725
X250100Y-170525
X250100Y-171575
X250800Y-095575
X250800Y-126425
X250800Y-157275
X250850Y-108825
X250850Y-139675
X250850Y-170525
X250901Y-103999
X250901Y-134849
X250901Y-165699
X251600Y-108825
X251600Y-109875
X251600Y-139675
X251600Y-140725
X251600Y-170525
X251600Y-171575
X253300Y-092175
X253300Y-123025
X253300Y-153875
X259450Y-093675
X259450Y-124525
X259450Y-155375
X260099Y-103999
X260099Y-134849
X260099Y-165699
X261300Y-108825
X261300Y-109875
X261300Y-139675
X261300Y-140725
X261300Y-170525
X261300Y-171575
X262000Y-095575
X262000Y-126425
X262000Y-157275
X262050Y-108825
X262050Y-139675
X262050Y-170525
X262101Y-103999
X262101Y-134849
X262101Y-165699
X262800Y-108825
X262800Y-109875
X262800Y-139675
X262800Y-140725
X262800Y-170525
X262800Y-171575
X264500Y-092175
X264500Y-123025
X264500Y-153875
T2
X192865Y-098755
X192865Y-100025
X192865Y-101295
X192865Y-129605
X192865Y-130875
X192865Y-132145
X192865Y-160455
X192865Y-161725
X192865Y-162995
X194135Y-098755
X194135Y-100025
X194135Y-101295
X194135Y-129605
X194135Y-130875
X194135Y-132145
X194135Y-160455
X194135Y-161725
X194135Y-162995
X204065Y-098755
X204065Y-100025
X204065Y-101295
X204065Y-129605
X204065Y-130875
X204065Y-132145
X204065Y-160455
X204065Y-161725
X204065Y-162995
X205335Y-098755
X205335Y-100025
X205335Y-101295
X205335Y-129605
X205335Y-130875
X205335Y-132145
X205335Y-160455
X205335Y-161725
X205335Y-162995
X215265Y-098755
X215265Y-100025
X215265Y-101295
X215265Y-129605
X215265Y-130875
X215265Y-132145
X215265Y-160455
X215265Y-161725
X215265Y-162995
X216535Y-098755
X216535Y-100025
X216535Y-101295
X216535Y-129605
X216535Y-130875
X216535Y-132145
X216535Y-160455
X216535Y-161725
X216535Y-162995
X226465Y-098755
X226465Y-100025
X226465Y-101295
X226465Y-129605
X226465Y-130875
X226465Y-132145
X226465Y-160455
X226465Y-161725
X226465Y-162995
X227735Y-098755
X227735Y-100025
X227735Y-101295
X227735Y-129605
X227735Y-130875
X227735Y-132145
X227735Y-160455
X227735Y-161725
X227735Y-162995
X237665Y-098755
X237665Y-100025
X237665Y-101295
X237665Y-129605
X237665Y-130875
X237665Y-132145
X237665Y-160455
X237665Y-161725
X237665Y-162995
X238935Y-098755
X238935Y-100025
X238935Y-101295
X238935Y-129605
X238935Y-130875
X238935Y-132145
X238935Y-160455
X238935Y-161725
X238935Y-162995
X248865Y-098755
X248865Y-100025
X248865Y-101295
X248865Y-129605
X248865Y-130875
X248865Y-132145
X248865Y-160455
X248865Y-161725
X248865Y-162995
X250135Y-098755
X250135Y-100025
X250135Y-101295
X250135Y-129605
X250135Y-130875
X250135Y-132145
X250135Y-160455
X250135Y-161725
X250135Y-162995
X260065Y-098755
X260065Y-100025
X260065Y-101295
X260065Y-129605
X260065Y-130875
X260065Y-132145
X260065Y-160455
X260065Y-161725
X260065Y-162995
X261335Y-098755
X261335Y-100025
X261335Y-101295
X261335Y-129605
X261335Y-130875
X261335Y-132145
X261335Y-160455
X261335Y-161725
X261335Y-162995
T3
X194530Y-089075
X194530Y-115275
X194530Y-119925
X194530Y-146125
X194530Y-150775
X194530Y-176975
X197070Y-089075
X197070Y-115275
X197070Y-119925
X197070Y-146125
X197070Y-150775
X197070Y-176975
X205730Y-089075
X205730Y-115275
X205730Y-119925
X205730Y-146125
X205730Y-150775
X205730Y-176975
X208270Y-089075
X208270Y-115275
X208270Y-119925
X208270Y-146125
X208270Y-150775
X208270Y-176975
X216930Y-089075
X216930Y-115275
X216930Y-119925
X216930Y-146125
X216930Y-150775
X216930Y-176975
X219470Y-089075
X219470Y-115275
X219470Y-119925
X219470Y-146125
X219470Y-150775
X219470Y-176975
X228130Y-089075
X228130Y-115275
X228130Y-119925
X228130Y-146125
X228130Y-150775
X228130Y-176975
X230670Y-089075
X230670Y-115275
X230670Y-119925
X230670Y-146125
X230670Y-150775
X230670Y-176975
X239330Y-089075
X239330Y-115275
X239330Y-119925
X239330Y-146125
X239330Y-150775
X239330Y-176975
X241870Y-089075
X241870Y-115275
X241870Y-119925
X241870Y-146125
X241870Y-150775
X241870Y-176975
X250530Y-089075
X250530Y-115275
X250530Y-119925
X250530Y-146125
X250530Y-150775
X250530Y-176975
X253070Y-089075
X253070Y-115275
X253070Y-119925
X253070Y-146125
X253070Y-150775
X253070Y-176975
X261730Y-089075
X261730Y-115275
X261730Y-119925
X261730Y-146125
X261730Y-150775
X261730Y-176975
X264270Y-089075
X264270Y-115275
X264270Y-119925
X264270Y-146125
X264270Y-150775
X264270Y-176975
T0
M30
