M48
METRIC,TZ
T1C0.500
T2C2.500
T3C4.000
%
G90
G05
T1
X189200Y-090825
X189200Y-091525
X189200Y-113175
X189200Y-113875
X189200Y-121675
X189200Y-122375
X189200Y-144025
X189200Y-144725
X189200Y-152525
X189200Y-153225
X189200Y-174875
X189200Y-175575
X189450Y-090025
X189450Y-092325
X189450Y-112375
X189450Y-114675
X189450Y-120875
X189450Y-123175
X189450Y-143225
X189450Y-145525
X189450Y-151725
X189450Y-154025
X189450Y-174075
X189450Y-176375
X190950Y-090025
X190950Y-092325
X190950Y-112375
X190950Y-114675
X190950Y-120875
X190950Y-123175
X190950Y-143225
X190950Y-145525
X190950Y-151725
X190950Y-154025
X190950Y-174075
X190950Y-176375
X191200Y-090825
X191200Y-091525
X191200Y-113175
X191200Y-113875
X191200Y-121675
X191200Y-122375
X191200Y-144025
X191200Y-144725
X191200Y-152525
X191200Y-153225
X191200Y-174875
X191200Y-175575
X200400Y-090825
X200400Y-091525
X200400Y-113175
X200400Y-113875
X200400Y-121675
X200400Y-122375
X200400Y-144025
X200400Y-144725
X200400Y-152525
X200400Y-153225
X200400Y-174875
X200400Y-175575
X200650Y-090025
X200650Y-092325
X200650Y-112375
X200650Y-114675
X200650Y-120875
X200650Y-123175
X200650Y-143225
X200650Y-145525
X200650Y-151725
X200650Y-154025
X200650Y-174075
X200650Y-176375
X202150Y-090025
X202150Y-092325
X202150Y-112375
X202150Y-114675
X202150Y-120875
X202150Y-123175
X202150Y-143225
X202150Y-145525
X202150Y-151725
X202150Y-154025
X202150Y-174075
X202150Y-176375
X202400Y-090825
X202400Y-091525
X202400Y-113175
X202400Y-113875
X202400Y-121675
X202400Y-122375
X202400Y-144025
X202400Y-144725
X202400Y-152525
X202400Y-153225
X202400Y-174875
X202400Y-175575
X211600Y-090825
X211600Y-091525
X211600Y-113175
X211600Y-113875
X211600Y-121675
X211600Y-122375
X211600Y-144025
X211600Y-144725
X211600Y-152525
X211600Y-153225
X211600Y-174875
X211600Y-175575
X211850Y-090025
X211850Y-092325
X211850Y-112375
X211850Y-114675
X211850Y-120875
X211850Y-123175
X211850Y-143225
X211850Y-145525
X211850Y-151725
X211850Y-154025
X211850Y-174075
X211850Y-176375
X213350Y-090025
X213350Y-092325
X213350Y-112375
X213350Y-114675
X213350Y-120875
X213350Y-123175
X213350Y-143225
X213350Y-145525
X213350Y-151725
X213350Y-154025
X213350Y-174075
X213350Y-176375
X213600Y-090825
X213600Y-091525
X213600Y-113175
X213600Y-113875
X213600Y-121675
X213600Y-122375
X213600Y-144025
X213600Y-144725
X213600Y-152525
X213600Y-153225
X213600Y-174875
X213600Y-175575
X222800Y-090825
X222800Y-091525
X222800Y-113175
X222800Y-113875
X222800Y-121675
X222800Y-122375
X222800Y-144025
X222800Y-144725
X222800Y-152525
X222800Y-153225
X222800Y-174875
X222800Y-175575
X223050Y-090025
X223050Y-092325
X223050Y-112375
X223050Y-114675
X223050Y-120875
X223050Y-123175
X223050Y-143225
X223050Y-145525
X223050Y-151725
X223050Y-154025
X223050Y-174075
X223050Y-176375
X224550Y-090025
X224550Y-092325
X224550Y-112375
X224550Y-114675
X224550Y-120875
X224550Y-123175
X224550Y-143225
X224550Y-145525
X224550Y-151725
X224550Y-154025
X224550Y-174075
X224550Y-176375
X224800Y-090825
X224800Y-091525
X224800Y-113175
X224800Y-113875
X224800Y-121675
X224800Y-122375
X224800Y-144025
X224800Y-144725
X224800Y-152525
X224800Y-153225
X224800Y-174875
X224800Y-175575
X234000Y-090825
X234000Y-091525
X234000Y-113175
X234000Y-113875
X234000Y-121675
X234000Y-122375
X234000Y-144025
X234000Y-144725
X234000Y-152525
X234000Y-153225
X234000Y-174875
X234000Y-175575
X234250Y-090025
X234250Y-092325
X234250Y-112375
X234250Y-114675
X234250Y-120875
X234250Y-123175
X234250Y-143225
X234250Y-145525
X234250Y-151725
X234250Y-154025
X234250Y-174075
X234250Y-176375
X235750Y-090025
X235750Y-092325
X235750Y-112375
X235750Y-114675
X235750Y-120875
X235750Y-123175
X235750Y-143225
X235750Y-145525
X235750Y-151725
X235750Y-154025
X235750Y-174075
X235750Y-176375
X236000Y-090825
X236000Y-091525
X236000Y-113175
X236000Y-113875
X236000Y-121675
X236000Y-122375
X236000Y-144025
X236000Y-144725
X236000Y-152525
X236000Y-153225
X236000Y-174875
X236000Y-175575
X245200Y-090825
X245200Y-091525
X245200Y-113175
X245200Y-113175
X245200Y-113875
X245200Y-113875
X245200Y-121675
X245200Y-121675
X245200Y-122375
X245200Y-122375
X245200Y-144025
X245200Y-144725
X245200Y-152525
X245200Y-153225
X245200Y-174875
X245200Y-175575
X245450Y-090025
X245450Y-092325
X245450Y-112375
X245450Y-112375
X245450Y-114675
X245450Y-114675
X245450Y-120875
X245450Y-120875
X245450Y-123175
X245450Y-123175
X245450Y-143225
X245450Y-145525
X245450Y-151725
X245450Y-154025
X245450Y-174075
X245450Y-176375
X246950Y-090025
X246950Y-092325
X246950Y-112375
X246950Y-112375
X246950Y-114675
X246950Y-114675
X246950Y-120875
X246950Y-120875
X246950Y-123175
X246950Y-123175
X246950Y-143225
X246950Y-145525
X246950Y-151725
X246950Y-154025
X246950Y-174075
X246950Y-176375
X247200Y-090825
X247200Y-091525
X247200Y-113175
X247200Y-113175
X247200Y-113875
X247200Y-113875
X247200Y-121675
X247200Y-121675
X247200Y-122375
X247200Y-122375
X247200Y-144025
X247200Y-144725
X247200Y-152525
X247200Y-153225
X247200Y-174875
X247200Y-175575
X256400Y-090825
X256400Y-091525
X256400Y-113175
X256400Y-113175
X256400Y-113875
X256400Y-113875
X256400Y-121675
X256400Y-121675
X256400Y-122375
X256400Y-122375
X256400Y-144025
X256400Y-144725
X256400Y-152525
X256400Y-153225
X256400Y-174875
X256400Y-175575
X256650Y-090025
X256650Y-092325
X256650Y-112375
X256650Y-112375
X256650Y-114675
X256650Y-114675
X256650Y-120875
X256650Y-120875
X256650Y-123175
X256650Y-123175
X256650Y-143225
X256650Y-145525
X256650Y-151725
X256650Y-154025
X256650Y-174075
X256650Y-176375
X258150Y-090025
X258150Y-092325
X258150Y-112375
X258150Y-112375
X258150Y-114675
X258150Y-114675
X258150Y-120875
X258150Y-120875
X258150Y-123175
X258150Y-123175
X258150Y-143225
X258150Y-145525
X258150Y-151725
X258150Y-154025
X258150Y-174075
X258150Y-176375
X258400Y-090825
X258400Y-091525
X258400Y-113175
X258400Y-113175
X258400Y-113875
X258400Y-113875
X258400Y-121675
X258400Y-121675
X258400Y-122375
X258400Y-122375
X258400Y-144025
X258400Y-144725
X258400Y-152525
X258400Y-153225
X258400Y-174875
X258400Y-175575
X267600Y-090825
X267600Y-091525
X267600Y-113175
X267600Y-113875
X267600Y-121675
X267600Y-122375
X267600Y-144025
X267600Y-144725
X267600Y-152525
X267600Y-153225
X267600Y-174875
X267600Y-175575
X267850Y-090025
X267850Y-092325
X267850Y-112375
X267850Y-114675
X267850Y-120875
X267850Y-123175
X267850Y-143225
X267850Y-145525
X267850Y-151725
X267850Y-154025
X267850Y-174075
X267850Y-176375
X269350Y-090025
X269350Y-092325
X269350Y-112375
X269350Y-114675
X269350Y-120875
X269350Y-123175
X269350Y-143225
X269350Y-145525
X269350Y-151725
X269350Y-154025
X269350Y-174075
X269350Y-176375
X269600Y-090825
X269600Y-091525
X269600Y-113175
X269600Y-113875
X269600Y-121675
X269600Y-122375
X269600Y-144025
X269600Y-144725
X269600Y-152525
X269600Y-153225
X269600Y-174875
X269600Y-175575
T2
X184500Y-093000
X184500Y-133000
X184500Y-173000
X274500Y-093000
X274500Y-133000
X274500Y-173000
T3
X184500Y-098000
X184500Y-168000
X274500Y-098000
X274500Y-168000
T0
M30
