G04 (created by PCBNEW (2013-08-09 BZR 4280)-product) date Sun 11 Aug 2013 03:04:53 PM CEST*
%MOIN*%
G04 Gerber Fmt 3.4, Leading zero omitted, Abs format*
%FSLAX34Y34*%
G01*
G70*
G90*
G04 APERTURE LIST*
%ADD10C,0.005906*%
%ADD11R,0.043307X0.022520*%
%ADD12R,0.034646X0.048504*%
%ADD13R,0.041536X0.041536*%
%ADD14R,0.055440X0.052008*%
%ADD15R,0.038104X0.034584*%
%ADD16R,0.051920X0.044968*%
%ADD17R,0.044968X0.051920*%
%ADD18R,0.010394X0.055433*%
%ADD19C,0.098425*%
G04 APERTURE END LIST*
G54D10*
G54D11*
X78523Y-62135D03*
X78523Y-61761D03*
X78523Y-61387D03*
X77500Y-61387D03*
X77500Y-62135D03*
G54D12*
X77460Y-67588D03*
X76712Y-67588D03*
X77086Y-68454D03*
G54D13*
X78317Y-65235D03*
X77529Y-65235D03*
G54D14*
X77923Y-66515D03*
G54D13*
X76732Y-65235D03*
X75944Y-65235D03*
G54D14*
X76338Y-66515D03*
G54D15*
X78346Y-68355D03*
X78346Y-67687D03*
X75826Y-67727D03*
X75826Y-68395D03*
G54D16*
X76673Y-61938D03*
X76673Y-61190D03*
G54D17*
X77677Y-60580D03*
X78425Y-60580D03*
G54D16*
X75688Y-61938D03*
X75688Y-61190D03*
G54D18*
X77559Y-64379D03*
X77755Y-64379D03*
X77952Y-64379D03*
X78149Y-64379D03*
X78346Y-64379D03*
X78346Y-62962D03*
X78149Y-62962D03*
X77952Y-62962D03*
X77755Y-62962D03*
X77559Y-62962D03*
G54D11*
X78523Y-49990D03*
X78523Y-49616D03*
X78523Y-49242D03*
X77500Y-49242D03*
X77500Y-49990D03*
G54D12*
X77460Y-55442D03*
X76712Y-55442D03*
X77086Y-56309D03*
G54D13*
X78317Y-53090D03*
X77529Y-53090D03*
G54D14*
X77923Y-54370D03*
G54D13*
X76732Y-53090D03*
X75944Y-53090D03*
G54D14*
X76338Y-54370D03*
G54D15*
X78346Y-56209D03*
X78346Y-55541D03*
X75826Y-55581D03*
X75826Y-56249D03*
G54D16*
X76673Y-49793D03*
X76673Y-49045D03*
G54D17*
X77677Y-48435D03*
X78425Y-48435D03*
G54D16*
X75688Y-49793D03*
X75688Y-49045D03*
G54D18*
X77559Y-52234D03*
X77755Y-52234D03*
X77952Y-52234D03*
X78149Y-52234D03*
X78346Y-52234D03*
X78346Y-50816D03*
X78149Y-50816D03*
X77952Y-50816D03*
X77755Y-50816D03*
X77559Y-50816D03*
G54D11*
X78523Y-37844D03*
X78523Y-37470D03*
X78523Y-37096D03*
X77500Y-37096D03*
X77500Y-37844D03*
G54D12*
X77460Y-43297D03*
X76712Y-43297D03*
X77086Y-44163D03*
G54D13*
X78317Y-40944D03*
X77529Y-40944D03*
G54D14*
X77923Y-42224D03*
G54D13*
X76732Y-40944D03*
X75944Y-40944D03*
G54D14*
X76338Y-42224D03*
G54D15*
X78346Y-44064D03*
X78346Y-43396D03*
X75826Y-43435D03*
X75826Y-44103D03*
G54D16*
X76673Y-37647D03*
X76673Y-36899D03*
G54D17*
X77677Y-36289D03*
X78425Y-36289D03*
G54D16*
X75688Y-37647D03*
X75688Y-36899D03*
G54D18*
X77559Y-40088D03*
X77755Y-40088D03*
X77952Y-40088D03*
X78149Y-40088D03*
X78346Y-40088D03*
X78346Y-38671D03*
X78149Y-38671D03*
X77952Y-38671D03*
X77755Y-38671D03*
X77559Y-38671D03*
X81968Y-40088D03*
X82165Y-40088D03*
X82362Y-40088D03*
X82559Y-40088D03*
X82755Y-40088D03*
X82755Y-38671D03*
X82559Y-38671D03*
X82362Y-38671D03*
X82165Y-38671D03*
X81968Y-38671D03*
G54D16*
X80098Y-37647D03*
X80098Y-36899D03*
G54D17*
X82086Y-36289D03*
X82834Y-36289D03*
G54D16*
X81082Y-37647D03*
X81082Y-36899D03*
G54D15*
X80236Y-43435D03*
X80236Y-44103D03*
X82755Y-44064D03*
X82755Y-43396D03*
G54D13*
X81142Y-40944D03*
X80354Y-40944D03*
G54D14*
X80748Y-42224D03*
G54D13*
X82726Y-40944D03*
X81938Y-40944D03*
G54D14*
X82332Y-42224D03*
G54D12*
X81870Y-43297D03*
X81122Y-43297D03*
X81496Y-44163D03*
G54D11*
X82933Y-37844D03*
X82933Y-37470D03*
X82933Y-37096D03*
X81909Y-37096D03*
X81909Y-37844D03*
G54D18*
X81968Y-52234D03*
X82165Y-52234D03*
X82362Y-52234D03*
X82559Y-52234D03*
X82755Y-52234D03*
X82755Y-50816D03*
X82559Y-50816D03*
X82362Y-50816D03*
X82165Y-50816D03*
X81968Y-50816D03*
G54D16*
X80098Y-49793D03*
X80098Y-49045D03*
G54D17*
X82086Y-48435D03*
X82834Y-48435D03*
G54D16*
X81082Y-49793D03*
X81082Y-49045D03*
G54D15*
X80236Y-55581D03*
X80236Y-56249D03*
X82755Y-56209D03*
X82755Y-55541D03*
G54D13*
X81142Y-53090D03*
X80354Y-53090D03*
G54D14*
X80748Y-54370D03*
G54D13*
X82726Y-53090D03*
X81938Y-53090D03*
G54D14*
X82332Y-54370D03*
G54D12*
X81870Y-55442D03*
X81122Y-55442D03*
X81496Y-56309D03*
G54D11*
X82933Y-49990D03*
X82933Y-49616D03*
X82933Y-49242D03*
X81909Y-49242D03*
X81909Y-49990D03*
G54D18*
X81968Y-64379D03*
X82165Y-64379D03*
X82362Y-64379D03*
X82559Y-64379D03*
X82755Y-64379D03*
X82755Y-62962D03*
X82559Y-62962D03*
X82362Y-62962D03*
X82165Y-62962D03*
X81968Y-62962D03*
G54D16*
X80098Y-61938D03*
X80098Y-61190D03*
G54D17*
X82086Y-60580D03*
X82834Y-60580D03*
G54D16*
X81082Y-61938D03*
X81082Y-61190D03*
G54D15*
X80236Y-67727D03*
X80236Y-68395D03*
X82755Y-68355D03*
X82755Y-67687D03*
G54D13*
X81142Y-65235D03*
X80354Y-65235D03*
G54D14*
X80748Y-66515D03*
G54D13*
X82726Y-65235D03*
X81938Y-65235D03*
G54D14*
X82332Y-66515D03*
G54D12*
X81870Y-67588D03*
X81122Y-67588D03*
X81496Y-68454D03*
G54D11*
X82933Y-62135D03*
X82933Y-61761D03*
X82933Y-61387D03*
X81909Y-61387D03*
X81909Y-62135D03*
X87342Y-62135D03*
X87342Y-61761D03*
X87342Y-61387D03*
X86318Y-61387D03*
X86318Y-62135D03*
G54D12*
X86279Y-67588D03*
X85531Y-67588D03*
X85905Y-68454D03*
G54D13*
X87136Y-65235D03*
X86348Y-65235D03*
G54D14*
X86742Y-66515D03*
G54D13*
X85551Y-65235D03*
X84763Y-65235D03*
G54D14*
X85157Y-66515D03*
G54D15*
X87165Y-68355D03*
X87165Y-67687D03*
X84645Y-67727D03*
X84645Y-68395D03*
G54D16*
X85492Y-61938D03*
X85492Y-61190D03*
G54D17*
X86496Y-60580D03*
X87244Y-60580D03*
G54D16*
X84507Y-61938D03*
X84507Y-61190D03*
G54D18*
X86377Y-64379D03*
X86574Y-64379D03*
X86771Y-64379D03*
X86968Y-64379D03*
X87165Y-64379D03*
X87165Y-62962D03*
X86968Y-62962D03*
X86771Y-62962D03*
X86574Y-62962D03*
X86377Y-62962D03*
G54D11*
X87342Y-49990D03*
X87342Y-49616D03*
X87342Y-49242D03*
X86318Y-49242D03*
X86318Y-49990D03*
G54D12*
X86279Y-55442D03*
X85531Y-55442D03*
X85905Y-56309D03*
G54D13*
X87136Y-53090D03*
X86348Y-53090D03*
G54D14*
X86742Y-54370D03*
G54D13*
X85551Y-53090D03*
X84763Y-53090D03*
G54D14*
X85157Y-54370D03*
G54D15*
X87165Y-56209D03*
X87165Y-55541D03*
X84645Y-55581D03*
X84645Y-56249D03*
G54D16*
X85492Y-49793D03*
X85492Y-49045D03*
G54D17*
X86496Y-48435D03*
X87244Y-48435D03*
G54D16*
X84507Y-49793D03*
X84507Y-49045D03*
G54D18*
X86377Y-52234D03*
X86574Y-52234D03*
X86771Y-52234D03*
X86968Y-52234D03*
X87165Y-52234D03*
X87165Y-50816D03*
X86968Y-50816D03*
X86771Y-50816D03*
X86574Y-50816D03*
X86377Y-50816D03*
G54D11*
X87342Y-37844D03*
X87342Y-37470D03*
X87342Y-37096D03*
X86318Y-37096D03*
X86318Y-37844D03*
G54D12*
X86279Y-43297D03*
X85531Y-43297D03*
X85905Y-44163D03*
G54D13*
X87136Y-40944D03*
X86348Y-40944D03*
G54D14*
X86742Y-42224D03*
G54D13*
X85551Y-40944D03*
X84763Y-40944D03*
G54D14*
X85157Y-42224D03*
G54D15*
X87165Y-44064D03*
X87165Y-43396D03*
X84645Y-43435D03*
X84645Y-44103D03*
G54D16*
X85492Y-37647D03*
X85492Y-36899D03*
G54D17*
X86496Y-36289D03*
X87244Y-36289D03*
G54D16*
X84507Y-37647D03*
X84507Y-36899D03*
G54D18*
X86377Y-40088D03*
X86574Y-40088D03*
X86771Y-40088D03*
X86968Y-40088D03*
X87165Y-40088D03*
X87165Y-38671D03*
X86968Y-38671D03*
X86771Y-38671D03*
X86574Y-38671D03*
X86377Y-38671D03*
X95196Y-40088D03*
X95393Y-40088D03*
X95590Y-40088D03*
X95787Y-40088D03*
X95984Y-40088D03*
X95984Y-38671D03*
X95787Y-38671D03*
X95590Y-38671D03*
X95393Y-38671D03*
X95196Y-38671D03*
G54D16*
X93326Y-37647D03*
X93326Y-36899D03*
G54D17*
X95314Y-36289D03*
X96062Y-36289D03*
G54D16*
X94311Y-37647D03*
X94311Y-36899D03*
G54D15*
X93464Y-43435D03*
X93464Y-44103D03*
X95984Y-44064D03*
X95984Y-43396D03*
G54D13*
X94370Y-40944D03*
X93582Y-40944D03*
G54D14*
X93976Y-42224D03*
G54D13*
X95955Y-40944D03*
X95167Y-40944D03*
G54D14*
X95561Y-42224D03*
G54D12*
X95098Y-43297D03*
X94350Y-43297D03*
X94724Y-44163D03*
G54D11*
X96161Y-37844D03*
X96161Y-37470D03*
X96161Y-37096D03*
X95137Y-37096D03*
X95137Y-37844D03*
G54D18*
X95196Y-52234D03*
X95393Y-52234D03*
X95590Y-52234D03*
X95787Y-52234D03*
X95984Y-52234D03*
X95984Y-50816D03*
X95787Y-50816D03*
X95590Y-50816D03*
X95393Y-50816D03*
X95196Y-50816D03*
G54D16*
X93326Y-49793D03*
X93326Y-49045D03*
G54D17*
X95314Y-48435D03*
X96062Y-48435D03*
G54D16*
X94311Y-49793D03*
X94311Y-49045D03*
G54D15*
X93464Y-55581D03*
X93464Y-56249D03*
X95984Y-56209D03*
X95984Y-55541D03*
G54D13*
X94370Y-53090D03*
X93582Y-53090D03*
G54D14*
X93976Y-54370D03*
G54D13*
X95955Y-53090D03*
X95167Y-53090D03*
G54D14*
X95561Y-54370D03*
G54D12*
X95098Y-55442D03*
X94350Y-55442D03*
X94724Y-56309D03*
G54D11*
X96161Y-49990D03*
X96161Y-49616D03*
X96161Y-49242D03*
X95137Y-49242D03*
X95137Y-49990D03*
G54D18*
X95196Y-64379D03*
X95393Y-64379D03*
X95590Y-64379D03*
X95787Y-64379D03*
X95984Y-64379D03*
X95984Y-62962D03*
X95787Y-62962D03*
X95590Y-62962D03*
X95393Y-62962D03*
X95196Y-62962D03*
G54D16*
X93326Y-61938D03*
X93326Y-61190D03*
G54D17*
X95314Y-60580D03*
X96062Y-60580D03*
G54D16*
X94311Y-61938D03*
X94311Y-61190D03*
G54D15*
X93464Y-67727D03*
X93464Y-68395D03*
X95984Y-68355D03*
X95984Y-67687D03*
G54D13*
X94370Y-65235D03*
X93582Y-65235D03*
G54D14*
X93976Y-66515D03*
G54D13*
X95955Y-65235D03*
X95167Y-65235D03*
G54D14*
X95561Y-66515D03*
G54D12*
X95098Y-67588D03*
X94350Y-67588D03*
X94724Y-68454D03*
G54D11*
X96161Y-62135D03*
X96161Y-61761D03*
X96161Y-61387D03*
X95137Y-61387D03*
X95137Y-62135D03*
X91751Y-62135D03*
X91751Y-61761D03*
X91751Y-61387D03*
X90728Y-61387D03*
X90728Y-62135D03*
G54D12*
X90688Y-67588D03*
X89940Y-67588D03*
X90314Y-68454D03*
G54D13*
X91545Y-65235D03*
X90757Y-65235D03*
G54D14*
X91151Y-66515D03*
G54D13*
X89960Y-65235D03*
X89172Y-65235D03*
G54D14*
X89566Y-66515D03*
G54D15*
X91574Y-68355D03*
X91574Y-67687D03*
X89055Y-67727D03*
X89055Y-68395D03*
G54D16*
X89901Y-61938D03*
X89901Y-61190D03*
G54D17*
X90905Y-60580D03*
X91653Y-60580D03*
G54D16*
X88917Y-61938D03*
X88917Y-61190D03*
G54D18*
X90787Y-64379D03*
X90984Y-64379D03*
X91181Y-64379D03*
X91377Y-64379D03*
X91574Y-64379D03*
X91574Y-62962D03*
X91377Y-62962D03*
X91181Y-62962D03*
X90984Y-62962D03*
X90787Y-62962D03*
G54D11*
X91751Y-49990D03*
X91751Y-49616D03*
X91751Y-49242D03*
X90728Y-49242D03*
X90728Y-49990D03*
G54D12*
X90688Y-55442D03*
X89940Y-55442D03*
X90314Y-56309D03*
G54D13*
X91545Y-53090D03*
X90757Y-53090D03*
G54D14*
X91151Y-54370D03*
G54D13*
X89960Y-53090D03*
X89172Y-53090D03*
G54D14*
X89566Y-54370D03*
G54D15*
X91574Y-56209D03*
X91574Y-55541D03*
X89055Y-55581D03*
X89055Y-56249D03*
G54D16*
X89901Y-49793D03*
X89901Y-49045D03*
G54D17*
X90905Y-48435D03*
X91653Y-48435D03*
G54D16*
X88917Y-49793D03*
X88917Y-49045D03*
G54D18*
X90787Y-52234D03*
X90984Y-52234D03*
X91181Y-52234D03*
X91377Y-52234D03*
X91574Y-52234D03*
X91574Y-50816D03*
X91377Y-50816D03*
X91181Y-50816D03*
X90984Y-50816D03*
X90787Y-50816D03*
G54D11*
X91751Y-37844D03*
X91751Y-37470D03*
X91751Y-37096D03*
X90728Y-37096D03*
X90728Y-37844D03*
G54D12*
X90688Y-43297D03*
X89940Y-43297D03*
X90314Y-44163D03*
G54D13*
X91545Y-40944D03*
X90757Y-40944D03*
G54D14*
X91151Y-42224D03*
G54D13*
X89960Y-40944D03*
X89172Y-40944D03*
G54D14*
X89566Y-42224D03*
G54D15*
X91574Y-44064D03*
X91574Y-43396D03*
X89055Y-43435D03*
X89055Y-44103D03*
G54D16*
X89901Y-37647D03*
X89901Y-36899D03*
G54D17*
X90905Y-36289D03*
X91653Y-36289D03*
G54D16*
X88917Y-37647D03*
X88917Y-36899D03*
G54D18*
X90787Y-40088D03*
X90984Y-40088D03*
X91181Y-40088D03*
X91377Y-40088D03*
X91574Y-40088D03*
X91574Y-38671D03*
X91377Y-38671D03*
X91181Y-38671D03*
X90984Y-38671D03*
X90787Y-38671D03*
X99606Y-40088D03*
X99803Y-40088D03*
X100000Y-40088D03*
X100196Y-40088D03*
X100393Y-40088D03*
X100393Y-38671D03*
X100196Y-38671D03*
X100000Y-38671D03*
X99803Y-38671D03*
X99606Y-38671D03*
G54D16*
X97736Y-37647D03*
X97736Y-36899D03*
G54D17*
X99724Y-36289D03*
X100472Y-36289D03*
G54D16*
X98720Y-37647D03*
X98720Y-36899D03*
G54D15*
X97874Y-43435D03*
X97874Y-44103D03*
X100393Y-44064D03*
X100393Y-43396D03*
G54D13*
X98779Y-40944D03*
X97991Y-40944D03*
G54D14*
X98385Y-42224D03*
G54D13*
X100364Y-40944D03*
X99576Y-40944D03*
G54D14*
X99970Y-42224D03*
G54D12*
X99507Y-43297D03*
X98759Y-43297D03*
X99133Y-44163D03*
G54D11*
X100570Y-37844D03*
X100570Y-37470D03*
X100570Y-37096D03*
X99547Y-37096D03*
X99547Y-37844D03*
G54D18*
X99606Y-52234D03*
X99803Y-52234D03*
X100000Y-52234D03*
X100196Y-52234D03*
X100393Y-52234D03*
X100393Y-50816D03*
X100196Y-50816D03*
X100000Y-50816D03*
X99803Y-50816D03*
X99606Y-50816D03*
G54D16*
X97736Y-49793D03*
X97736Y-49045D03*
G54D17*
X99724Y-48435D03*
X100472Y-48435D03*
G54D16*
X98720Y-49793D03*
X98720Y-49045D03*
G54D15*
X97874Y-55581D03*
X97874Y-56249D03*
X100393Y-56209D03*
X100393Y-55541D03*
G54D13*
X98779Y-53090D03*
X97991Y-53090D03*
G54D14*
X98385Y-54370D03*
G54D13*
X100364Y-53090D03*
X99576Y-53090D03*
G54D14*
X99970Y-54370D03*
G54D12*
X99507Y-55442D03*
X98759Y-55442D03*
X99133Y-56309D03*
G54D11*
X100570Y-49990D03*
X100570Y-49616D03*
X100570Y-49242D03*
X99547Y-49242D03*
X99547Y-49990D03*
G54D18*
X99606Y-64379D03*
X99803Y-64379D03*
X100000Y-64379D03*
X100196Y-64379D03*
X100393Y-64379D03*
X100393Y-62962D03*
X100196Y-62962D03*
X100000Y-62962D03*
X99803Y-62962D03*
X99606Y-62962D03*
G54D16*
X97736Y-61938D03*
X97736Y-61190D03*
G54D17*
X99724Y-60580D03*
X100472Y-60580D03*
G54D16*
X98720Y-61938D03*
X98720Y-61190D03*
G54D15*
X97874Y-67727D03*
X97874Y-68395D03*
X100393Y-68355D03*
X100393Y-67687D03*
G54D13*
X98779Y-65235D03*
X97991Y-65235D03*
G54D14*
X98385Y-66515D03*
G54D13*
X100364Y-65235D03*
X99576Y-65235D03*
G54D14*
X99970Y-66515D03*
G54D12*
X99507Y-67588D03*
X98759Y-67588D03*
X99133Y-68454D03*
G54D11*
X100570Y-62135D03*
X100570Y-61761D03*
X100570Y-61387D03*
X99547Y-61387D03*
X99547Y-62135D03*
X104980Y-62135D03*
X104980Y-61761D03*
X104980Y-61387D03*
X103956Y-61387D03*
X103956Y-62135D03*
G54D12*
X103917Y-67588D03*
X103169Y-67588D03*
X103543Y-68454D03*
G54D13*
X104773Y-65235D03*
X103985Y-65235D03*
G54D14*
X104379Y-66515D03*
G54D13*
X103189Y-65235D03*
X102401Y-65235D03*
G54D14*
X102795Y-66515D03*
G54D15*
X104803Y-68355D03*
X104803Y-67687D03*
X102283Y-67727D03*
X102283Y-68395D03*
G54D16*
X103129Y-61938D03*
X103129Y-61190D03*
G54D17*
X104133Y-60580D03*
X104881Y-60580D03*
G54D16*
X102145Y-61938D03*
X102145Y-61190D03*
G54D18*
X104015Y-64379D03*
X104212Y-64379D03*
X104409Y-64379D03*
X104606Y-64379D03*
X104803Y-64379D03*
X104803Y-62962D03*
X104606Y-62962D03*
X104409Y-62962D03*
X104212Y-62962D03*
X104015Y-62962D03*
G54D11*
X104980Y-49990D03*
X104980Y-49616D03*
X104980Y-49242D03*
X103956Y-49242D03*
X103956Y-49990D03*
G54D12*
X103917Y-55442D03*
X103169Y-55442D03*
X103543Y-56309D03*
G54D13*
X104773Y-53090D03*
X103985Y-53090D03*
G54D14*
X104379Y-54370D03*
G54D13*
X103189Y-53090D03*
X102401Y-53090D03*
G54D14*
X102795Y-54370D03*
G54D15*
X104803Y-56209D03*
X104803Y-55541D03*
X102283Y-55581D03*
X102283Y-56249D03*
G54D16*
X103129Y-49793D03*
X103129Y-49045D03*
G54D17*
X104133Y-48435D03*
X104881Y-48435D03*
G54D16*
X102145Y-49793D03*
X102145Y-49045D03*
G54D18*
X104015Y-52234D03*
X104212Y-52234D03*
X104409Y-52234D03*
X104606Y-52234D03*
X104803Y-52234D03*
X104803Y-50816D03*
X104606Y-50816D03*
X104409Y-50816D03*
X104212Y-50816D03*
X104015Y-50816D03*
G54D11*
X104980Y-37844D03*
X104980Y-37470D03*
X104980Y-37096D03*
X103956Y-37096D03*
X103956Y-37844D03*
G54D12*
X103917Y-43297D03*
X103169Y-43297D03*
X103543Y-44163D03*
G54D13*
X104773Y-40944D03*
X103985Y-40944D03*
G54D14*
X104379Y-42224D03*
G54D13*
X103189Y-40944D03*
X102401Y-40944D03*
G54D14*
X102795Y-42224D03*
G54D15*
X104803Y-44064D03*
X104803Y-43396D03*
X102283Y-43435D03*
X102283Y-44103D03*
G54D16*
X103129Y-37647D03*
X103129Y-36899D03*
G54D17*
X104133Y-36289D03*
X104881Y-36289D03*
G54D16*
X102145Y-37647D03*
X102145Y-36899D03*
G54D18*
X104015Y-40088D03*
X104212Y-40088D03*
X104409Y-40088D03*
X104606Y-40088D03*
X104803Y-40088D03*
X104803Y-38671D03*
X104606Y-38671D03*
X104409Y-38671D03*
X104212Y-38671D03*
X104015Y-38671D03*
G54D19*
X108070Y-52362D03*
X72637Y-52362D03*
X72637Y-36614D03*
X72637Y-68110D03*
X108070Y-36614D03*
X108070Y-68110D03*
G54D10*
G36*
X104891Y-39641D02*
X103927Y-39641D01*
X103927Y-39535D01*
X104891Y-39535D01*
X104891Y-39641D01*
X104891Y-39641D01*
G37*
X104891Y-39641D02*
X103927Y-39641D01*
X103927Y-39535D01*
X104891Y-39535D01*
X104891Y-39641D01*
G36*
X104891Y-51787D02*
X103927Y-51787D01*
X103927Y-51681D01*
X104891Y-51681D01*
X104891Y-51787D01*
X104891Y-51787D01*
G37*
X104891Y-51787D02*
X103927Y-51787D01*
X103927Y-51681D01*
X104891Y-51681D01*
X104891Y-51787D01*
G36*
X104891Y-63933D02*
X103927Y-63933D01*
X103927Y-63826D01*
X104891Y-63826D01*
X104891Y-63933D01*
X104891Y-63933D01*
G37*
X104891Y-63933D02*
X103927Y-63933D01*
X103927Y-63826D01*
X104891Y-63826D01*
X104891Y-63933D01*
G36*
X100482Y-39641D02*
X99517Y-39641D01*
X99517Y-39535D01*
X100482Y-39535D01*
X100482Y-39641D01*
X100482Y-39641D01*
G37*
X100482Y-39641D02*
X99517Y-39641D01*
X99517Y-39535D01*
X100482Y-39535D01*
X100482Y-39641D01*
G36*
X100482Y-51787D02*
X99517Y-51787D01*
X99517Y-51681D01*
X100482Y-51681D01*
X100482Y-51787D01*
X100482Y-51787D01*
G37*
X100482Y-51787D02*
X99517Y-51787D01*
X99517Y-51681D01*
X100482Y-51681D01*
X100482Y-51787D01*
G36*
X100482Y-63933D02*
X99517Y-63933D01*
X99517Y-63826D01*
X100482Y-63826D01*
X100482Y-63933D01*
X100482Y-63933D01*
G37*
X100482Y-63933D02*
X99517Y-63933D01*
X99517Y-63826D01*
X100482Y-63826D01*
X100482Y-63933D01*
G36*
X96072Y-39641D02*
X95108Y-39641D01*
X95108Y-39535D01*
X96072Y-39535D01*
X96072Y-39641D01*
X96072Y-39641D01*
G37*
X96072Y-39641D02*
X95108Y-39641D01*
X95108Y-39535D01*
X96072Y-39535D01*
X96072Y-39641D01*
G36*
X96072Y-51787D02*
X95108Y-51787D01*
X95108Y-51681D01*
X96072Y-51681D01*
X96072Y-51787D01*
X96072Y-51787D01*
G37*
X96072Y-51787D02*
X95108Y-51787D01*
X95108Y-51681D01*
X96072Y-51681D01*
X96072Y-51787D01*
G36*
X96072Y-63933D02*
X95108Y-63933D01*
X95108Y-63826D01*
X96072Y-63826D01*
X96072Y-63933D01*
X96072Y-63933D01*
G37*
X96072Y-63933D02*
X95108Y-63933D01*
X95108Y-63826D01*
X96072Y-63826D01*
X96072Y-63933D01*
G36*
X91663Y-39641D02*
X90698Y-39641D01*
X90698Y-39535D01*
X91663Y-39535D01*
X91663Y-39641D01*
X91663Y-39641D01*
G37*
X91663Y-39641D02*
X90698Y-39641D01*
X90698Y-39535D01*
X91663Y-39535D01*
X91663Y-39641D01*
G36*
X91663Y-51787D02*
X90698Y-51787D01*
X90698Y-51681D01*
X91663Y-51681D01*
X91663Y-51787D01*
X91663Y-51787D01*
G37*
X91663Y-51787D02*
X90698Y-51787D01*
X90698Y-51681D01*
X91663Y-51681D01*
X91663Y-51787D01*
G36*
X91663Y-63933D02*
X90698Y-63933D01*
X90698Y-63826D01*
X91663Y-63826D01*
X91663Y-63933D01*
X91663Y-63933D01*
G37*
X91663Y-63933D02*
X90698Y-63933D01*
X90698Y-63826D01*
X91663Y-63826D01*
X91663Y-63933D01*
G36*
X87253Y-39641D02*
X86289Y-39641D01*
X86289Y-39535D01*
X87253Y-39535D01*
X87253Y-39641D01*
X87253Y-39641D01*
G37*
X87253Y-39641D02*
X86289Y-39641D01*
X86289Y-39535D01*
X87253Y-39535D01*
X87253Y-39641D01*
G36*
X87253Y-51787D02*
X86289Y-51787D01*
X86289Y-51681D01*
X87253Y-51681D01*
X87253Y-51787D01*
X87253Y-51787D01*
G37*
X87253Y-51787D02*
X86289Y-51787D01*
X86289Y-51681D01*
X87253Y-51681D01*
X87253Y-51787D01*
G36*
X87253Y-63933D02*
X86289Y-63933D01*
X86289Y-63826D01*
X87253Y-63826D01*
X87253Y-63933D01*
X87253Y-63933D01*
G37*
X87253Y-63933D02*
X86289Y-63933D01*
X86289Y-63826D01*
X87253Y-63826D01*
X87253Y-63933D01*
G36*
X82844Y-39641D02*
X81879Y-39641D01*
X81879Y-39535D01*
X82844Y-39535D01*
X82844Y-39641D01*
X82844Y-39641D01*
G37*
X82844Y-39641D02*
X81879Y-39641D01*
X81879Y-39535D01*
X82844Y-39535D01*
X82844Y-39641D01*
G36*
X82844Y-51787D02*
X81879Y-51787D01*
X81879Y-51681D01*
X82844Y-51681D01*
X82844Y-51787D01*
X82844Y-51787D01*
G37*
X82844Y-51787D02*
X81879Y-51787D01*
X81879Y-51681D01*
X82844Y-51681D01*
X82844Y-51787D01*
G36*
X82844Y-63933D02*
X81879Y-63933D01*
X81879Y-63826D01*
X82844Y-63826D01*
X82844Y-63933D01*
X82844Y-63933D01*
G37*
X82844Y-63933D02*
X81879Y-63933D01*
X81879Y-63826D01*
X82844Y-63826D01*
X82844Y-63933D01*
G36*
X78435Y-39641D02*
X77470Y-39641D01*
X77470Y-39535D01*
X78435Y-39535D01*
X78435Y-39641D01*
X78435Y-39641D01*
G37*
X78435Y-39641D02*
X77470Y-39641D01*
X77470Y-39535D01*
X78435Y-39535D01*
X78435Y-39641D01*
G36*
X78435Y-51787D02*
X77470Y-51787D01*
X77470Y-51681D01*
X78435Y-51681D01*
X78435Y-51787D01*
X78435Y-51787D01*
G37*
X78435Y-51787D02*
X77470Y-51787D01*
X77470Y-51681D01*
X78435Y-51681D01*
X78435Y-51787D01*
G36*
X78435Y-63933D02*
X77470Y-63933D01*
X77470Y-63826D01*
X78435Y-63826D01*
X78435Y-63933D01*
X78435Y-63933D01*
G37*
X78435Y-63933D02*
X77470Y-63933D01*
X77470Y-63826D01*
X78435Y-63826D01*
X78435Y-63933D01*
M02*
