G04 (created by PCBNEW (2013-08-09 BZR 4280)-product) date Sun 11 Aug 2013 03:04:53 PM CEST*
%MOIN*%
G04 Gerber Fmt 3.4, Leading zero omitted, Abs format*
%FSLAX34Y34*%
G01*
G70*
G90*
G04 APERTURE LIST*
%ADD10C,0.005906*%
%ADD11C,0.009843*%
%ADD12R,0.049213X0.025591*%
%ADD13R,0.039370X0.055118*%
%ADD14R,0.047200X0.047200*%
%ADD15R,0.063000X0.059100*%
%ADD16R,0.043300X0.039300*%
%ADD17R,0.059000X0.051100*%
%ADD18R,0.051100X0.059000*%
%ADD19R,0.157480X0.098425*%
%ADD20O,0.157480X0.098425*%
%ADD21R,0.019685X0.019685*%
%ADD22R,0.011811X0.062992*%
%ADD23R,0.059055X0.041339*%
%ADD24O,0.059055X0.041339*%
%ADD25C,0.039370*%
%ADD26C,0.030000*%
%ADD27C,0.006000*%
%ADD28C,0.039370*%
%ADD29C,0.012000*%
%ADD30C,0.008000*%
G04 APERTURE END LIST*
G54D10*
G54D11*
X76723Y-60514D02*
X76723Y-60214D01*
X76623Y-60514D02*
X76623Y-60214D01*
X76673Y-60514D02*
X76673Y-60214D01*
X76723Y-48368D02*
X76723Y-48068D01*
X76623Y-48368D02*
X76623Y-48068D01*
X76673Y-48368D02*
X76673Y-48068D01*
X76723Y-36222D02*
X76723Y-35922D01*
X76623Y-36222D02*
X76623Y-35922D01*
X76673Y-36222D02*
X76673Y-35922D01*
X81132Y-36222D02*
X81132Y-35922D01*
X81032Y-36222D02*
X81032Y-35922D01*
X81082Y-36222D02*
X81082Y-35922D01*
X81132Y-48368D02*
X81132Y-48068D01*
X81032Y-48368D02*
X81032Y-48068D01*
X81082Y-48368D02*
X81082Y-48068D01*
X81132Y-60514D02*
X81132Y-60214D01*
X81032Y-60514D02*
X81032Y-60214D01*
X81082Y-60514D02*
X81082Y-60214D01*
X85542Y-60514D02*
X85542Y-60214D01*
X85442Y-60514D02*
X85442Y-60214D01*
X85492Y-60514D02*
X85492Y-60214D01*
X85542Y-48368D02*
X85542Y-48068D01*
X85442Y-48368D02*
X85442Y-48068D01*
X85492Y-48368D02*
X85492Y-48068D01*
X85542Y-36222D02*
X85542Y-35922D01*
X85442Y-36222D02*
X85442Y-35922D01*
X85492Y-36222D02*
X85492Y-35922D01*
X94361Y-36222D02*
X94361Y-35922D01*
X94261Y-36222D02*
X94261Y-35922D01*
X94311Y-36222D02*
X94311Y-35922D01*
X94361Y-48368D02*
X94361Y-48068D01*
X94261Y-48368D02*
X94261Y-48068D01*
X94311Y-48368D02*
X94311Y-48068D01*
X94361Y-60514D02*
X94361Y-60214D01*
X94261Y-60514D02*
X94261Y-60214D01*
X94311Y-60514D02*
X94311Y-60214D01*
X89951Y-60514D02*
X89951Y-60214D01*
X89851Y-60514D02*
X89851Y-60214D01*
X89901Y-60514D02*
X89901Y-60214D01*
X89951Y-48368D02*
X89951Y-48068D01*
X89851Y-48368D02*
X89851Y-48068D01*
X89901Y-48368D02*
X89901Y-48068D01*
X89951Y-36222D02*
X89951Y-35922D01*
X89851Y-36222D02*
X89851Y-35922D01*
X89901Y-36222D02*
X89901Y-35922D01*
X98770Y-36222D02*
X98770Y-35922D01*
X98670Y-36222D02*
X98670Y-35922D01*
X98720Y-36222D02*
X98720Y-35922D01*
X98770Y-48368D02*
X98770Y-48068D01*
X98670Y-48368D02*
X98670Y-48068D01*
X98720Y-48368D02*
X98720Y-48068D01*
X98770Y-60514D02*
X98770Y-60214D01*
X98670Y-60514D02*
X98670Y-60214D01*
X98720Y-60514D02*
X98720Y-60214D01*
X103179Y-60514D02*
X103179Y-60214D01*
X103079Y-60514D02*
X103079Y-60214D01*
X103129Y-60514D02*
X103129Y-60214D01*
X103179Y-48368D02*
X103179Y-48068D01*
X103079Y-48368D02*
X103079Y-48068D01*
X103129Y-48368D02*
X103129Y-48068D01*
X103179Y-36222D02*
X103179Y-35922D01*
X103079Y-36222D02*
X103079Y-35922D01*
X103129Y-36222D02*
X103129Y-35922D01*
G54D12*
X78523Y-62135D03*
X78523Y-61761D03*
X78523Y-61387D03*
X77500Y-61387D03*
X77500Y-62135D03*
G54D13*
X77460Y-67588D03*
X76712Y-67588D03*
X77086Y-68454D03*
G54D14*
X78317Y-65235D03*
X77529Y-65235D03*
G54D15*
X77923Y-66515D03*
G54D14*
X76732Y-65235D03*
X75944Y-65235D03*
G54D15*
X76338Y-66515D03*
G54D16*
X78346Y-68355D03*
X78346Y-67687D03*
X75826Y-67727D03*
X75826Y-68395D03*
G54D17*
X76673Y-61938D03*
X76673Y-61190D03*
G54D18*
X77677Y-60580D03*
X78425Y-60580D03*
G54D17*
X75688Y-61938D03*
X75688Y-61190D03*
G54D19*
X77980Y-69675D03*
G54D20*
X76192Y-69675D03*
G54D19*
X77980Y-59360D03*
G54D20*
X76192Y-59360D03*
G54D21*
X76673Y-60514D03*
X76673Y-60214D03*
G54D22*
X77559Y-64379D03*
X77755Y-64379D03*
X77952Y-64379D03*
X78149Y-64379D03*
X78346Y-64379D03*
X78346Y-62962D03*
X78149Y-62962D03*
X77952Y-62962D03*
X77755Y-62962D03*
X77559Y-62962D03*
G54D23*
X75852Y-63171D03*
G54D24*
X76509Y-63171D03*
X75852Y-63671D03*
X76509Y-63671D03*
X75852Y-64171D03*
X76509Y-64171D03*
G54D12*
X78523Y-49990D03*
X78523Y-49616D03*
X78523Y-49242D03*
X77500Y-49242D03*
X77500Y-49990D03*
G54D13*
X77460Y-55442D03*
X76712Y-55442D03*
X77086Y-56309D03*
G54D14*
X78317Y-53090D03*
X77529Y-53090D03*
G54D15*
X77923Y-54370D03*
G54D14*
X76732Y-53090D03*
X75944Y-53090D03*
G54D15*
X76338Y-54370D03*
G54D16*
X78346Y-56209D03*
X78346Y-55541D03*
X75826Y-55581D03*
X75826Y-56249D03*
G54D17*
X76673Y-49793D03*
X76673Y-49045D03*
G54D18*
X77677Y-48435D03*
X78425Y-48435D03*
G54D17*
X75688Y-49793D03*
X75688Y-49045D03*
G54D19*
X77980Y-57529D03*
G54D20*
X76192Y-57529D03*
G54D19*
X77980Y-47214D03*
G54D20*
X76192Y-47214D03*
G54D21*
X76673Y-48368D03*
X76673Y-48068D03*
G54D22*
X77559Y-52234D03*
X77755Y-52234D03*
X77952Y-52234D03*
X78149Y-52234D03*
X78346Y-52234D03*
X78346Y-50816D03*
X78149Y-50816D03*
X77952Y-50816D03*
X77755Y-50816D03*
X77559Y-50816D03*
G54D23*
X75852Y-51025D03*
G54D24*
X76509Y-51025D03*
X75852Y-51525D03*
X76509Y-51525D03*
X75852Y-52025D03*
X76509Y-52025D03*
G54D12*
X78523Y-37844D03*
X78523Y-37470D03*
X78523Y-37096D03*
X77500Y-37096D03*
X77500Y-37844D03*
G54D13*
X77460Y-43297D03*
X76712Y-43297D03*
X77086Y-44163D03*
G54D14*
X78317Y-40944D03*
X77529Y-40944D03*
G54D15*
X77923Y-42224D03*
G54D14*
X76732Y-40944D03*
X75944Y-40944D03*
G54D15*
X76338Y-42224D03*
G54D16*
X78346Y-44064D03*
X78346Y-43396D03*
X75826Y-43435D03*
X75826Y-44103D03*
G54D17*
X76673Y-37647D03*
X76673Y-36899D03*
G54D18*
X77677Y-36289D03*
X78425Y-36289D03*
G54D17*
X75688Y-37647D03*
X75688Y-36899D03*
G54D19*
X77980Y-45383D03*
G54D20*
X76192Y-45383D03*
G54D19*
X77980Y-35068D03*
G54D20*
X76192Y-35068D03*
G54D21*
X76673Y-36222D03*
X76673Y-35922D03*
G54D22*
X77559Y-40088D03*
X77755Y-40088D03*
X77952Y-40088D03*
X78149Y-40088D03*
X78346Y-40088D03*
X78346Y-38671D03*
X78149Y-38671D03*
X77952Y-38671D03*
X77755Y-38671D03*
X77559Y-38671D03*
G54D23*
X75852Y-38879D03*
G54D24*
X76509Y-38879D03*
X75852Y-39379D03*
X76509Y-39379D03*
X75852Y-39879D03*
X76509Y-39879D03*
G54D23*
X80261Y-38879D03*
G54D24*
X80919Y-38879D03*
X80261Y-39379D03*
X80919Y-39379D03*
X80261Y-39879D03*
X80919Y-39879D03*
G54D22*
X81968Y-40088D03*
X82165Y-40088D03*
X82362Y-40088D03*
X82559Y-40088D03*
X82755Y-40088D03*
X82755Y-38671D03*
X82559Y-38671D03*
X82362Y-38671D03*
X82165Y-38671D03*
X81968Y-38671D03*
G54D21*
X81082Y-36222D03*
X81082Y-35922D03*
G54D19*
X82389Y-35068D03*
G54D20*
X80602Y-35068D03*
G54D19*
X82389Y-45383D03*
G54D20*
X80602Y-45383D03*
G54D17*
X80098Y-37647D03*
X80098Y-36899D03*
G54D18*
X82086Y-36289D03*
X82834Y-36289D03*
G54D17*
X81082Y-37647D03*
X81082Y-36899D03*
G54D16*
X80236Y-43435D03*
X80236Y-44103D03*
X82755Y-44064D03*
X82755Y-43396D03*
G54D14*
X81142Y-40944D03*
X80354Y-40944D03*
G54D15*
X80748Y-42224D03*
G54D14*
X82726Y-40944D03*
X81938Y-40944D03*
G54D15*
X82332Y-42224D03*
G54D13*
X81870Y-43297D03*
X81122Y-43297D03*
X81496Y-44163D03*
G54D12*
X82933Y-37844D03*
X82933Y-37470D03*
X82933Y-37096D03*
X81909Y-37096D03*
X81909Y-37844D03*
G54D23*
X80261Y-51025D03*
G54D24*
X80919Y-51025D03*
X80261Y-51525D03*
X80919Y-51525D03*
X80261Y-52025D03*
X80919Y-52025D03*
G54D22*
X81968Y-52234D03*
X82165Y-52234D03*
X82362Y-52234D03*
X82559Y-52234D03*
X82755Y-52234D03*
X82755Y-50816D03*
X82559Y-50816D03*
X82362Y-50816D03*
X82165Y-50816D03*
X81968Y-50816D03*
G54D21*
X81082Y-48368D03*
X81082Y-48068D03*
G54D19*
X82389Y-47214D03*
G54D20*
X80602Y-47214D03*
G54D19*
X82389Y-57529D03*
G54D20*
X80602Y-57529D03*
G54D17*
X80098Y-49793D03*
X80098Y-49045D03*
G54D18*
X82086Y-48435D03*
X82834Y-48435D03*
G54D17*
X81082Y-49793D03*
X81082Y-49045D03*
G54D16*
X80236Y-55581D03*
X80236Y-56249D03*
X82755Y-56209D03*
X82755Y-55541D03*
G54D14*
X81142Y-53090D03*
X80354Y-53090D03*
G54D15*
X80748Y-54370D03*
G54D14*
X82726Y-53090D03*
X81938Y-53090D03*
G54D15*
X82332Y-54370D03*
G54D13*
X81870Y-55442D03*
X81122Y-55442D03*
X81496Y-56309D03*
G54D12*
X82933Y-49990D03*
X82933Y-49616D03*
X82933Y-49242D03*
X81909Y-49242D03*
X81909Y-49990D03*
G54D23*
X80261Y-63171D03*
G54D24*
X80919Y-63171D03*
X80261Y-63671D03*
X80919Y-63671D03*
X80261Y-64171D03*
X80919Y-64171D03*
G54D22*
X81968Y-64379D03*
X82165Y-64379D03*
X82362Y-64379D03*
X82559Y-64379D03*
X82755Y-64379D03*
X82755Y-62962D03*
X82559Y-62962D03*
X82362Y-62962D03*
X82165Y-62962D03*
X81968Y-62962D03*
G54D21*
X81082Y-60514D03*
X81082Y-60214D03*
G54D19*
X82389Y-59360D03*
G54D20*
X80602Y-59360D03*
G54D19*
X82389Y-69675D03*
G54D20*
X80602Y-69675D03*
G54D17*
X80098Y-61938D03*
X80098Y-61190D03*
G54D18*
X82086Y-60580D03*
X82834Y-60580D03*
G54D17*
X81082Y-61938D03*
X81082Y-61190D03*
G54D16*
X80236Y-67727D03*
X80236Y-68395D03*
X82755Y-68355D03*
X82755Y-67687D03*
G54D14*
X81142Y-65235D03*
X80354Y-65235D03*
G54D15*
X80748Y-66515D03*
G54D14*
X82726Y-65235D03*
X81938Y-65235D03*
G54D15*
X82332Y-66515D03*
G54D13*
X81870Y-67588D03*
X81122Y-67588D03*
X81496Y-68454D03*
G54D12*
X82933Y-62135D03*
X82933Y-61761D03*
X82933Y-61387D03*
X81909Y-61387D03*
X81909Y-62135D03*
X87342Y-62135D03*
X87342Y-61761D03*
X87342Y-61387D03*
X86318Y-61387D03*
X86318Y-62135D03*
G54D13*
X86279Y-67588D03*
X85531Y-67588D03*
X85905Y-68454D03*
G54D14*
X87136Y-65235D03*
X86348Y-65235D03*
G54D15*
X86742Y-66515D03*
G54D14*
X85551Y-65235D03*
X84763Y-65235D03*
G54D15*
X85157Y-66515D03*
G54D16*
X87165Y-68355D03*
X87165Y-67687D03*
X84645Y-67727D03*
X84645Y-68395D03*
G54D17*
X85492Y-61938D03*
X85492Y-61190D03*
G54D18*
X86496Y-60580D03*
X87244Y-60580D03*
G54D17*
X84507Y-61938D03*
X84507Y-61190D03*
G54D19*
X86799Y-69675D03*
G54D20*
X85011Y-69675D03*
G54D19*
X86799Y-59360D03*
G54D20*
X85011Y-59360D03*
G54D21*
X85492Y-60514D03*
X85492Y-60214D03*
G54D22*
X86377Y-64379D03*
X86574Y-64379D03*
X86771Y-64379D03*
X86968Y-64379D03*
X87165Y-64379D03*
X87165Y-62962D03*
X86968Y-62962D03*
X86771Y-62962D03*
X86574Y-62962D03*
X86377Y-62962D03*
G54D23*
X84671Y-63171D03*
G54D24*
X85328Y-63171D03*
X84671Y-63671D03*
X85328Y-63671D03*
X84671Y-64171D03*
X85328Y-64171D03*
G54D12*
X87342Y-49990D03*
X87342Y-49616D03*
X87342Y-49242D03*
X86318Y-49242D03*
X86318Y-49990D03*
G54D13*
X86279Y-55442D03*
X85531Y-55442D03*
X85905Y-56309D03*
G54D14*
X87136Y-53090D03*
X86348Y-53090D03*
G54D15*
X86742Y-54370D03*
G54D14*
X85551Y-53090D03*
X84763Y-53090D03*
G54D15*
X85157Y-54370D03*
G54D16*
X87165Y-56209D03*
X87165Y-55541D03*
X84645Y-55581D03*
X84645Y-56249D03*
G54D17*
X85492Y-49793D03*
X85492Y-49045D03*
G54D18*
X86496Y-48435D03*
X87244Y-48435D03*
G54D17*
X84507Y-49793D03*
X84507Y-49045D03*
G54D19*
X86799Y-57529D03*
G54D20*
X85011Y-57529D03*
G54D19*
X86799Y-47214D03*
G54D20*
X85011Y-47214D03*
G54D21*
X85492Y-48368D03*
X85492Y-48068D03*
G54D22*
X86377Y-52234D03*
X86574Y-52234D03*
X86771Y-52234D03*
X86968Y-52234D03*
X87165Y-52234D03*
X87165Y-50816D03*
X86968Y-50816D03*
X86771Y-50816D03*
X86574Y-50816D03*
X86377Y-50816D03*
G54D23*
X84671Y-51025D03*
G54D24*
X85328Y-51025D03*
X84671Y-51525D03*
X85328Y-51525D03*
X84671Y-52025D03*
X85328Y-52025D03*
G54D12*
X87342Y-37844D03*
X87342Y-37470D03*
X87342Y-37096D03*
X86318Y-37096D03*
X86318Y-37844D03*
G54D13*
X86279Y-43297D03*
X85531Y-43297D03*
X85905Y-44163D03*
G54D14*
X87136Y-40944D03*
X86348Y-40944D03*
G54D15*
X86742Y-42224D03*
G54D14*
X85551Y-40944D03*
X84763Y-40944D03*
G54D15*
X85157Y-42224D03*
G54D16*
X87165Y-44064D03*
X87165Y-43396D03*
X84645Y-43435D03*
X84645Y-44103D03*
G54D17*
X85492Y-37647D03*
X85492Y-36899D03*
G54D18*
X86496Y-36289D03*
X87244Y-36289D03*
G54D17*
X84507Y-37647D03*
X84507Y-36899D03*
G54D19*
X86799Y-45383D03*
G54D20*
X85011Y-45383D03*
G54D19*
X86799Y-35068D03*
G54D20*
X85011Y-35068D03*
G54D21*
X85492Y-36222D03*
X85492Y-35922D03*
G54D22*
X86377Y-40088D03*
X86574Y-40088D03*
X86771Y-40088D03*
X86968Y-40088D03*
X87165Y-40088D03*
X87165Y-38671D03*
X86968Y-38671D03*
X86771Y-38671D03*
X86574Y-38671D03*
X86377Y-38671D03*
G54D23*
X84671Y-38879D03*
G54D24*
X85328Y-38879D03*
X84671Y-39379D03*
X85328Y-39379D03*
X84671Y-39879D03*
X85328Y-39879D03*
G54D23*
X93490Y-38879D03*
G54D24*
X94147Y-38879D03*
X93490Y-39379D03*
X94147Y-39379D03*
X93490Y-39879D03*
X94147Y-39879D03*
G54D22*
X95196Y-40088D03*
X95393Y-40088D03*
X95590Y-40088D03*
X95787Y-40088D03*
X95984Y-40088D03*
X95984Y-38671D03*
X95787Y-38671D03*
X95590Y-38671D03*
X95393Y-38671D03*
X95196Y-38671D03*
G54D21*
X94311Y-36222D03*
X94311Y-35922D03*
G54D19*
X95618Y-35068D03*
G54D20*
X93830Y-35068D03*
G54D19*
X95618Y-45383D03*
G54D20*
X93830Y-45383D03*
G54D17*
X93326Y-37647D03*
X93326Y-36899D03*
G54D18*
X95314Y-36289D03*
X96062Y-36289D03*
G54D17*
X94311Y-37647D03*
X94311Y-36899D03*
G54D16*
X93464Y-43435D03*
X93464Y-44103D03*
X95984Y-44064D03*
X95984Y-43396D03*
G54D14*
X94370Y-40944D03*
X93582Y-40944D03*
G54D15*
X93976Y-42224D03*
G54D14*
X95955Y-40944D03*
X95167Y-40944D03*
G54D15*
X95561Y-42224D03*
G54D13*
X95098Y-43297D03*
X94350Y-43297D03*
X94724Y-44163D03*
G54D12*
X96161Y-37844D03*
X96161Y-37470D03*
X96161Y-37096D03*
X95137Y-37096D03*
X95137Y-37844D03*
G54D23*
X93490Y-51025D03*
G54D24*
X94147Y-51025D03*
X93490Y-51525D03*
X94147Y-51525D03*
X93490Y-52025D03*
X94147Y-52025D03*
G54D22*
X95196Y-52234D03*
X95393Y-52234D03*
X95590Y-52234D03*
X95787Y-52234D03*
X95984Y-52234D03*
X95984Y-50816D03*
X95787Y-50816D03*
X95590Y-50816D03*
X95393Y-50816D03*
X95196Y-50816D03*
G54D21*
X94311Y-48368D03*
X94311Y-48068D03*
G54D19*
X95618Y-47214D03*
G54D20*
X93830Y-47214D03*
G54D19*
X95618Y-57529D03*
G54D20*
X93830Y-57529D03*
G54D17*
X93326Y-49793D03*
X93326Y-49045D03*
G54D18*
X95314Y-48435D03*
X96062Y-48435D03*
G54D17*
X94311Y-49793D03*
X94311Y-49045D03*
G54D16*
X93464Y-55581D03*
X93464Y-56249D03*
X95984Y-56209D03*
X95984Y-55541D03*
G54D14*
X94370Y-53090D03*
X93582Y-53090D03*
G54D15*
X93976Y-54370D03*
G54D14*
X95955Y-53090D03*
X95167Y-53090D03*
G54D15*
X95561Y-54370D03*
G54D13*
X95098Y-55442D03*
X94350Y-55442D03*
X94724Y-56309D03*
G54D12*
X96161Y-49990D03*
X96161Y-49616D03*
X96161Y-49242D03*
X95137Y-49242D03*
X95137Y-49990D03*
G54D23*
X93490Y-63171D03*
G54D24*
X94147Y-63171D03*
X93490Y-63671D03*
X94147Y-63671D03*
X93490Y-64171D03*
X94147Y-64171D03*
G54D22*
X95196Y-64379D03*
X95393Y-64379D03*
X95590Y-64379D03*
X95787Y-64379D03*
X95984Y-64379D03*
X95984Y-62962D03*
X95787Y-62962D03*
X95590Y-62962D03*
X95393Y-62962D03*
X95196Y-62962D03*
G54D21*
X94311Y-60514D03*
X94311Y-60214D03*
G54D19*
X95618Y-59360D03*
G54D20*
X93830Y-59360D03*
G54D19*
X95618Y-69675D03*
G54D20*
X93830Y-69675D03*
G54D17*
X93326Y-61938D03*
X93326Y-61190D03*
G54D18*
X95314Y-60580D03*
X96062Y-60580D03*
G54D17*
X94311Y-61938D03*
X94311Y-61190D03*
G54D16*
X93464Y-67727D03*
X93464Y-68395D03*
X95984Y-68355D03*
X95984Y-67687D03*
G54D14*
X94370Y-65235D03*
X93582Y-65235D03*
G54D15*
X93976Y-66515D03*
G54D14*
X95955Y-65235D03*
X95167Y-65235D03*
G54D15*
X95561Y-66515D03*
G54D13*
X95098Y-67588D03*
X94350Y-67588D03*
X94724Y-68454D03*
G54D12*
X96161Y-62135D03*
X96161Y-61761D03*
X96161Y-61387D03*
X95137Y-61387D03*
X95137Y-62135D03*
X91751Y-62135D03*
X91751Y-61761D03*
X91751Y-61387D03*
X90728Y-61387D03*
X90728Y-62135D03*
G54D13*
X90688Y-67588D03*
X89940Y-67588D03*
X90314Y-68454D03*
G54D14*
X91545Y-65235D03*
X90757Y-65235D03*
G54D15*
X91151Y-66515D03*
G54D14*
X89960Y-65235D03*
X89172Y-65235D03*
G54D15*
X89566Y-66515D03*
G54D16*
X91574Y-68355D03*
X91574Y-67687D03*
X89055Y-67727D03*
X89055Y-68395D03*
G54D17*
X89901Y-61938D03*
X89901Y-61190D03*
G54D18*
X90905Y-60580D03*
X91653Y-60580D03*
G54D17*
X88917Y-61938D03*
X88917Y-61190D03*
G54D19*
X91208Y-69675D03*
G54D20*
X89421Y-69675D03*
G54D19*
X91208Y-59360D03*
G54D20*
X89421Y-59360D03*
G54D21*
X89901Y-60514D03*
X89901Y-60214D03*
G54D22*
X90787Y-64379D03*
X90984Y-64379D03*
X91181Y-64379D03*
X91377Y-64379D03*
X91574Y-64379D03*
X91574Y-62962D03*
X91377Y-62962D03*
X91181Y-62962D03*
X90984Y-62962D03*
X90787Y-62962D03*
G54D23*
X89080Y-63171D03*
G54D24*
X89738Y-63171D03*
X89080Y-63671D03*
X89738Y-63671D03*
X89080Y-64171D03*
X89738Y-64171D03*
G54D12*
X91751Y-49990D03*
X91751Y-49616D03*
X91751Y-49242D03*
X90728Y-49242D03*
X90728Y-49990D03*
G54D13*
X90688Y-55442D03*
X89940Y-55442D03*
X90314Y-56309D03*
G54D14*
X91545Y-53090D03*
X90757Y-53090D03*
G54D15*
X91151Y-54370D03*
G54D14*
X89960Y-53090D03*
X89172Y-53090D03*
G54D15*
X89566Y-54370D03*
G54D16*
X91574Y-56209D03*
X91574Y-55541D03*
X89055Y-55581D03*
X89055Y-56249D03*
G54D17*
X89901Y-49793D03*
X89901Y-49045D03*
G54D18*
X90905Y-48435D03*
X91653Y-48435D03*
G54D17*
X88917Y-49793D03*
X88917Y-49045D03*
G54D19*
X91208Y-57529D03*
G54D20*
X89421Y-57529D03*
G54D19*
X91208Y-47214D03*
G54D20*
X89421Y-47214D03*
G54D21*
X89901Y-48368D03*
X89901Y-48068D03*
G54D22*
X90787Y-52234D03*
X90984Y-52234D03*
X91181Y-52234D03*
X91377Y-52234D03*
X91574Y-52234D03*
X91574Y-50816D03*
X91377Y-50816D03*
X91181Y-50816D03*
X90984Y-50816D03*
X90787Y-50816D03*
G54D23*
X89080Y-51025D03*
G54D24*
X89738Y-51025D03*
X89080Y-51525D03*
X89738Y-51525D03*
X89080Y-52025D03*
X89738Y-52025D03*
G54D12*
X91751Y-37844D03*
X91751Y-37470D03*
X91751Y-37096D03*
X90728Y-37096D03*
X90728Y-37844D03*
G54D13*
X90688Y-43297D03*
X89940Y-43297D03*
X90314Y-44163D03*
G54D14*
X91545Y-40944D03*
X90757Y-40944D03*
G54D15*
X91151Y-42224D03*
G54D14*
X89960Y-40944D03*
X89172Y-40944D03*
G54D15*
X89566Y-42224D03*
G54D16*
X91574Y-44064D03*
X91574Y-43396D03*
X89055Y-43435D03*
X89055Y-44103D03*
G54D17*
X89901Y-37647D03*
X89901Y-36899D03*
G54D18*
X90905Y-36289D03*
X91653Y-36289D03*
G54D17*
X88917Y-37647D03*
X88917Y-36899D03*
G54D19*
X91208Y-45383D03*
G54D20*
X89421Y-45383D03*
G54D19*
X91208Y-35068D03*
G54D20*
X89421Y-35068D03*
G54D21*
X89901Y-36222D03*
X89901Y-35922D03*
G54D22*
X90787Y-40088D03*
X90984Y-40088D03*
X91181Y-40088D03*
X91377Y-40088D03*
X91574Y-40088D03*
X91574Y-38671D03*
X91377Y-38671D03*
X91181Y-38671D03*
X90984Y-38671D03*
X90787Y-38671D03*
G54D23*
X89080Y-38879D03*
G54D24*
X89738Y-38879D03*
X89080Y-39379D03*
X89738Y-39379D03*
X89080Y-39879D03*
X89738Y-39879D03*
G54D23*
X97899Y-38879D03*
G54D24*
X98557Y-38879D03*
X97899Y-39379D03*
X98557Y-39379D03*
X97899Y-39879D03*
X98557Y-39879D03*
G54D22*
X99606Y-40088D03*
X99803Y-40088D03*
X100000Y-40088D03*
X100196Y-40088D03*
X100393Y-40088D03*
X100393Y-38671D03*
X100196Y-38671D03*
X100000Y-38671D03*
X99803Y-38671D03*
X99606Y-38671D03*
G54D21*
X98720Y-36222D03*
X98720Y-35922D03*
G54D19*
X100027Y-35068D03*
G54D20*
X98240Y-35068D03*
G54D19*
X100027Y-45383D03*
G54D20*
X98240Y-45383D03*
G54D17*
X97736Y-37647D03*
X97736Y-36899D03*
G54D18*
X99724Y-36289D03*
X100472Y-36289D03*
G54D17*
X98720Y-37647D03*
X98720Y-36899D03*
G54D16*
X97874Y-43435D03*
X97874Y-44103D03*
X100393Y-44064D03*
X100393Y-43396D03*
G54D14*
X98779Y-40944D03*
X97991Y-40944D03*
G54D15*
X98385Y-42224D03*
G54D14*
X100364Y-40944D03*
X99576Y-40944D03*
G54D15*
X99970Y-42224D03*
G54D13*
X99507Y-43297D03*
X98759Y-43297D03*
X99133Y-44163D03*
G54D12*
X100570Y-37844D03*
X100570Y-37470D03*
X100570Y-37096D03*
X99547Y-37096D03*
X99547Y-37844D03*
G54D23*
X97899Y-51025D03*
G54D24*
X98557Y-51025D03*
X97899Y-51525D03*
X98557Y-51525D03*
X97899Y-52025D03*
X98557Y-52025D03*
G54D22*
X99606Y-52234D03*
X99803Y-52234D03*
X100000Y-52234D03*
X100196Y-52234D03*
X100393Y-52234D03*
X100393Y-50816D03*
X100196Y-50816D03*
X100000Y-50816D03*
X99803Y-50816D03*
X99606Y-50816D03*
G54D21*
X98720Y-48368D03*
X98720Y-48068D03*
G54D19*
X100027Y-47214D03*
G54D20*
X98240Y-47214D03*
G54D19*
X100027Y-57529D03*
G54D20*
X98240Y-57529D03*
G54D17*
X97736Y-49793D03*
X97736Y-49045D03*
G54D18*
X99724Y-48435D03*
X100472Y-48435D03*
G54D17*
X98720Y-49793D03*
X98720Y-49045D03*
G54D16*
X97874Y-55581D03*
X97874Y-56249D03*
X100393Y-56209D03*
X100393Y-55541D03*
G54D14*
X98779Y-53090D03*
X97991Y-53090D03*
G54D15*
X98385Y-54370D03*
G54D14*
X100364Y-53090D03*
X99576Y-53090D03*
G54D15*
X99970Y-54370D03*
G54D13*
X99507Y-55442D03*
X98759Y-55442D03*
X99133Y-56309D03*
G54D12*
X100570Y-49990D03*
X100570Y-49616D03*
X100570Y-49242D03*
X99547Y-49242D03*
X99547Y-49990D03*
G54D23*
X97899Y-63171D03*
G54D24*
X98557Y-63171D03*
X97899Y-63671D03*
X98557Y-63671D03*
X97899Y-64171D03*
X98557Y-64171D03*
G54D22*
X99606Y-64379D03*
X99803Y-64379D03*
X100000Y-64379D03*
X100196Y-64379D03*
X100393Y-64379D03*
X100393Y-62962D03*
X100196Y-62962D03*
X100000Y-62962D03*
X99803Y-62962D03*
X99606Y-62962D03*
G54D21*
X98720Y-60514D03*
X98720Y-60214D03*
G54D19*
X100027Y-59360D03*
G54D20*
X98240Y-59360D03*
G54D19*
X100027Y-69675D03*
G54D20*
X98240Y-69675D03*
G54D17*
X97736Y-61938D03*
X97736Y-61190D03*
G54D18*
X99724Y-60580D03*
X100472Y-60580D03*
G54D17*
X98720Y-61938D03*
X98720Y-61190D03*
G54D16*
X97874Y-67727D03*
X97874Y-68395D03*
X100393Y-68355D03*
X100393Y-67687D03*
G54D14*
X98779Y-65235D03*
X97991Y-65235D03*
G54D15*
X98385Y-66515D03*
G54D14*
X100364Y-65235D03*
X99576Y-65235D03*
G54D15*
X99970Y-66515D03*
G54D13*
X99507Y-67588D03*
X98759Y-67588D03*
X99133Y-68454D03*
G54D12*
X100570Y-62135D03*
X100570Y-61761D03*
X100570Y-61387D03*
X99547Y-61387D03*
X99547Y-62135D03*
X104980Y-62135D03*
X104980Y-61761D03*
X104980Y-61387D03*
X103956Y-61387D03*
X103956Y-62135D03*
G54D13*
X103917Y-67588D03*
X103169Y-67588D03*
X103543Y-68454D03*
G54D14*
X104773Y-65235D03*
X103985Y-65235D03*
G54D15*
X104379Y-66515D03*
G54D14*
X103189Y-65235D03*
X102401Y-65235D03*
G54D15*
X102795Y-66515D03*
G54D16*
X104803Y-68355D03*
X104803Y-67687D03*
X102283Y-67727D03*
X102283Y-68395D03*
G54D17*
X103129Y-61938D03*
X103129Y-61190D03*
G54D18*
X104133Y-60580D03*
X104881Y-60580D03*
G54D17*
X102145Y-61938D03*
X102145Y-61190D03*
G54D19*
X104437Y-69675D03*
G54D20*
X102649Y-69675D03*
G54D19*
X104437Y-59360D03*
G54D20*
X102649Y-59360D03*
G54D21*
X103129Y-60514D03*
X103129Y-60214D03*
G54D22*
X104015Y-64379D03*
X104212Y-64379D03*
X104409Y-64379D03*
X104606Y-64379D03*
X104803Y-64379D03*
X104803Y-62962D03*
X104606Y-62962D03*
X104409Y-62962D03*
X104212Y-62962D03*
X104015Y-62962D03*
G54D23*
X102309Y-63171D03*
G54D24*
X102966Y-63171D03*
X102309Y-63671D03*
X102966Y-63671D03*
X102309Y-64171D03*
X102966Y-64171D03*
G54D12*
X104980Y-49990D03*
X104980Y-49616D03*
X104980Y-49242D03*
X103956Y-49242D03*
X103956Y-49990D03*
G54D13*
X103917Y-55442D03*
X103169Y-55442D03*
X103543Y-56309D03*
G54D14*
X104773Y-53090D03*
X103985Y-53090D03*
G54D15*
X104379Y-54370D03*
G54D14*
X103189Y-53090D03*
X102401Y-53090D03*
G54D15*
X102795Y-54370D03*
G54D16*
X104803Y-56209D03*
X104803Y-55541D03*
X102283Y-55581D03*
X102283Y-56249D03*
G54D17*
X103129Y-49793D03*
X103129Y-49045D03*
G54D18*
X104133Y-48435D03*
X104881Y-48435D03*
G54D17*
X102145Y-49793D03*
X102145Y-49045D03*
G54D19*
X104437Y-57529D03*
G54D20*
X102649Y-57529D03*
G54D19*
X104437Y-47214D03*
G54D20*
X102649Y-47214D03*
G54D21*
X103129Y-48368D03*
X103129Y-48068D03*
G54D22*
X104015Y-52234D03*
X104212Y-52234D03*
X104409Y-52234D03*
X104606Y-52234D03*
X104803Y-52234D03*
X104803Y-50816D03*
X104606Y-50816D03*
X104409Y-50816D03*
X104212Y-50816D03*
X104015Y-50816D03*
G54D23*
X102309Y-51025D03*
G54D24*
X102966Y-51025D03*
X102309Y-51525D03*
X102966Y-51525D03*
X102309Y-52025D03*
X102966Y-52025D03*
G54D12*
X104980Y-37844D03*
X104980Y-37470D03*
X104980Y-37096D03*
X103956Y-37096D03*
X103956Y-37844D03*
G54D13*
X103917Y-43297D03*
X103169Y-43297D03*
X103543Y-44163D03*
G54D14*
X104773Y-40944D03*
X103985Y-40944D03*
G54D15*
X104379Y-42224D03*
G54D14*
X103189Y-40944D03*
X102401Y-40944D03*
G54D15*
X102795Y-42224D03*
G54D16*
X104803Y-44064D03*
X104803Y-43396D03*
X102283Y-43435D03*
X102283Y-44103D03*
G54D17*
X103129Y-37647D03*
X103129Y-36899D03*
G54D18*
X104133Y-36289D03*
X104881Y-36289D03*
G54D17*
X102145Y-37647D03*
X102145Y-36899D03*
G54D19*
X104437Y-45383D03*
G54D20*
X102649Y-45383D03*
G54D19*
X104437Y-35068D03*
G54D20*
X102649Y-35068D03*
G54D21*
X103129Y-36222D03*
X103129Y-35922D03*
G54D22*
X104015Y-40088D03*
X104212Y-40088D03*
X104409Y-40088D03*
X104606Y-40088D03*
X104803Y-40088D03*
X104803Y-38671D03*
X104606Y-38671D03*
X104409Y-38671D03*
X104212Y-38671D03*
X104015Y-38671D03*
G54D23*
X102309Y-38879D03*
G54D24*
X102966Y-38879D03*
X102309Y-39379D03*
X102966Y-39379D03*
X102309Y-39879D03*
X102966Y-39879D03*
G54D25*
X72637Y-71259D03*
X72637Y-33464D03*
X108070Y-33464D03*
X108070Y-71259D03*
G54D26*
X77677Y-60580D03*
X77677Y-48435D03*
X77677Y-36289D03*
X82086Y-36289D03*
X82086Y-48435D03*
X82086Y-60580D03*
X86496Y-60580D03*
X86496Y-48435D03*
X86496Y-36289D03*
X95314Y-36289D03*
X95314Y-48435D03*
X95314Y-60580D03*
X90905Y-60580D03*
X90905Y-48435D03*
X90905Y-36289D03*
X99724Y-36289D03*
X99724Y-48435D03*
X99724Y-60580D03*
X104133Y-60580D03*
X104133Y-48435D03*
X104133Y-36289D03*
X75688Y-61171D03*
X75944Y-65235D03*
X75688Y-49025D03*
X75944Y-53090D03*
X75688Y-36879D03*
X75944Y-40944D03*
X80354Y-40944D03*
X80098Y-36879D03*
X80354Y-53090D03*
X80098Y-49025D03*
X80354Y-65235D03*
X80098Y-61171D03*
X84507Y-61171D03*
X84763Y-65235D03*
X84507Y-49025D03*
X84763Y-53090D03*
X84507Y-36879D03*
X84763Y-40944D03*
X93582Y-40944D03*
X93326Y-36879D03*
X93582Y-53090D03*
X93326Y-49025D03*
X93582Y-65235D03*
X93326Y-61171D03*
X88917Y-61171D03*
X89172Y-65235D03*
X88917Y-49025D03*
X89172Y-53090D03*
X88917Y-36879D03*
X89172Y-40944D03*
X97991Y-40944D03*
X97736Y-36879D03*
X97991Y-53090D03*
X97736Y-49025D03*
X97991Y-65235D03*
X97736Y-61171D03*
X102145Y-61171D03*
X102401Y-65235D03*
X102145Y-49025D03*
X102401Y-53090D03*
X102145Y-36879D03*
X102401Y-40944D03*
X76417Y-67135D03*
X76712Y-67135D03*
X76417Y-67549D03*
X77007Y-67549D03*
X77007Y-67135D03*
X76417Y-54990D03*
X76712Y-54990D03*
X76417Y-55403D03*
X77007Y-55403D03*
X77007Y-54990D03*
X76417Y-42844D03*
X76712Y-42844D03*
X76417Y-43257D03*
X77007Y-43257D03*
X77007Y-42844D03*
X81417Y-42844D03*
X81417Y-43257D03*
X80826Y-43257D03*
X81122Y-42844D03*
X80826Y-42844D03*
X81417Y-54990D03*
X81417Y-55403D03*
X80826Y-55403D03*
X81122Y-54990D03*
X80826Y-54990D03*
X81417Y-67135D03*
X81417Y-67549D03*
X80826Y-67549D03*
X81122Y-67135D03*
X80826Y-67135D03*
X85236Y-67135D03*
X85531Y-67135D03*
X85236Y-67549D03*
X85826Y-67549D03*
X85826Y-67135D03*
X85236Y-54990D03*
X85531Y-54990D03*
X85236Y-55403D03*
X85826Y-55403D03*
X85826Y-54990D03*
X85236Y-42844D03*
X85531Y-42844D03*
X85236Y-43257D03*
X85826Y-43257D03*
X85826Y-42844D03*
X94645Y-42844D03*
X94645Y-43257D03*
X94055Y-43257D03*
X94350Y-42844D03*
X94055Y-42844D03*
X94645Y-54990D03*
X94645Y-55403D03*
X94055Y-55403D03*
X94350Y-54990D03*
X94055Y-54990D03*
X94645Y-67135D03*
X94645Y-67549D03*
X94055Y-67549D03*
X94350Y-67135D03*
X94055Y-67135D03*
X89645Y-67135D03*
X89940Y-67135D03*
X89645Y-67549D03*
X90236Y-67549D03*
X90236Y-67135D03*
X89645Y-54990D03*
X89940Y-54990D03*
X89645Y-55403D03*
X90236Y-55403D03*
X90236Y-54990D03*
X89645Y-42844D03*
X89940Y-42844D03*
X89645Y-43257D03*
X90236Y-43257D03*
X90236Y-42844D03*
X99055Y-42844D03*
X99055Y-43257D03*
X98464Y-43257D03*
X98759Y-42844D03*
X98464Y-42844D03*
X99055Y-54990D03*
X99055Y-55403D03*
X98464Y-55403D03*
X98759Y-54990D03*
X98464Y-54990D03*
X99055Y-67135D03*
X99055Y-67549D03*
X98464Y-67549D03*
X98759Y-67135D03*
X98464Y-67135D03*
X102874Y-67135D03*
X103169Y-67135D03*
X102874Y-67549D03*
X103464Y-67549D03*
X103464Y-67135D03*
X102874Y-54990D03*
X103169Y-54990D03*
X102874Y-55403D03*
X103464Y-55403D03*
X103464Y-54990D03*
X102874Y-42844D03*
X103169Y-42844D03*
X102874Y-43257D03*
X103464Y-43257D03*
X103464Y-42844D03*
X76732Y-65235D03*
X76692Y-61919D03*
X76732Y-53090D03*
X76692Y-49773D03*
X76732Y-40944D03*
X76692Y-37627D03*
X81102Y-37627D03*
X81142Y-40944D03*
X81102Y-49773D03*
X81142Y-53090D03*
X81102Y-61919D03*
X81142Y-65235D03*
X85551Y-65235D03*
X85511Y-61919D03*
X85551Y-53090D03*
X85511Y-49773D03*
X85551Y-40944D03*
X85511Y-37627D03*
X94330Y-37627D03*
X94370Y-40944D03*
X94330Y-49773D03*
X94370Y-53090D03*
X94330Y-61919D03*
X94370Y-65235D03*
X89960Y-65235D03*
X89921Y-61919D03*
X89960Y-53090D03*
X89921Y-49773D03*
X89960Y-40944D03*
X89921Y-37627D03*
X98740Y-37627D03*
X98779Y-40944D03*
X98740Y-49773D03*
X98779Y-53090D03*
X98740Y-61919D03*
X98779Y-65235D03*
X103189Y-65235D03*
X103149Y-61919D03*
X103189Y-53090D03*
X103149Y-49773D03*
X103189Y-40944D03*
X103149Y-37627D03*
G54D27*
X76027Y-62785D02*
X75931Y-62881D01*
X75931Y-62881D02*
X75931Y-63171D01*
X78149Y-63080D02*
X78149Y-63435D01*
X78031Y-63552D02*
X78149Y-63435D01*
X77204Y-63552D02*
X78031Y-63552D01*
X77027Y-63375D02*
X77204Y-63552D01*
X77027Y-63080D02*
X77027Y-63375D01*
X76732Y-62785D02*
X77027Y-63080D01*
X76732Y-62785D02*
X76027Y-62785D01*
X76027Y-50639D02*
X75931Y-50736D01*
X75931Y-50736D02*
X75931Y-51025D01*
X78149Y-50935D02*
X78149Y-51289D01*
X78031Y-51407D02*
X78149Y-51289D01*
X77204Y-51407D02*
X78031Y-51407D01*
X77027Y-51230D02*
X77204Y-51407D01*
X77027Y-50935D02*
X77027Y-51230D01*
X76732Y-50639D02*
X77027Y-50935D01*
X76732Y-50639D02*
X76027Y-50639D01*
X76027Y-38494D02*
X75931Y-38590D01*
X75931Y-38590D02*
X75931Y-38879D01*
X78149Y-38789D02*
X78149Y-39143D01*
X78031Y-39261D02*
X78149Y-39143D01*
X77204Y-39261D02*
X78031Y-39261D01*
X77027Y-39084D02*
X77204Y-39261D01*
X77027Y-38789D02*
X77027Y-39084D01*
X76732Y-38494D02*
X77027Y-38789D01*
X76732Y-38494D02*
X76027Y-38494D01*
X81141Y-38494D02*
X80437Y-38494D01*
X81141Y-38494D02*
X81437Y-38789D01*
X81437Y-38789D02*
X81437Y-39084D01*
X81437Y-39084D02*
X81613Y-39261D01*
X81613Y-39261D02*
X82441Y-39261D01*
X82441Y-39261D02*
X82559Y-39143D01*
X82559Y-38789D02*
X82559Y-39143D01*
X80340Y-38590D02*
X80340Y-38879D01*
X80437Y-38494D02*
X80340Y-38590D01*
X81141Y-50639D02*
X80437Y-50639D01*
X81141Y-50639D02*
X81437Y-50935D01*
X81437Y-50935D02*
X81437Y-51230D01*
X81437Y-51230D02*
X81613Y-51407D01*
X81613Y-51407D02*
X82441Y-51407D01*
X82441Y-51407D02*
X82559Y-51289D01*
X82559Y-50935D02*
X82559Y-51289D01*
X80340Y-50736D02*
X80340Y-51025D01*
X80437Y-50639D02*
X80340Y-50736D01*
X81141Y-62785D02*
X80437Y-62785D01*
X81141Y-62785D02*
X81437Y-63080D01*
X81437Y-63080D02*
X81437Y-63375D01*
X81437Y-63375D02*
X81613Y-63552D01*
X81613Y-63552D02*
X82441Y-63552D01*
X82441Y-63552D02*
X82559Y-63435D01*
X82559Y-63080D02*
X82559Y-63435D01*
X80340Y-62881D02*
X80340Y-63171D01*
X80437Y-62785D02*
X80340Y-62881D01*
X84846Y-62785D02*
X84750Y-62881D01*
X84750Y-62881D02*
X84750Y-63171D01*
X86968Y-63080D02*
X86968Y-63435D01*
X86850Y-63552D02*
X86968Y-63435D01*
X86023Y-63552D02*
X86850Y-63552D01*
X85846Y-63375D02*
X86023Y-63552D01*
X85846Y-63080D02*
X85846Y-63375D01*
X85551Y-62785D02*
X85846Y-63080D01*
X85551Y-62785D02*
X84846Y-62785D01*
X84846Y-50639D02*
X84750Y-50736D01*
X84750Y-50736D02*
X84750Y-51025D01*
X86968Y-50935D02*
X86968Y-51289D01*
X86850Y-51407D02*
X86968Y-51289D01*
X86023Y-51407D02*
X86850Y-51407D01*
X85846Y-51230D02*
X86023Y-51407D01*
X85846Y-50935D02*
X85846Y-51230D01*
X85551Y-50639D02*
X85846Y-50935D01*
X85551Y-50639D02*
X84846Y-50639D01*
X84846Y-38494D02*
X84750Y-38590D01*
X84750Y-38590D02*
X84750Y-38879D01*
X86968Y-38789D02*
X86968Y-39143D01*
X86850Y-39261D02*
X86968Y-39143D01*
X86023Y-39261D02*
X86850Y-39261D01*
X85846Y-39084D02*
X86023Y-39261D01*
X85846Y-38789D02*
X85846Y-39084D01*
X85551Y-38494D02*
X85846Y-38789D01*
X85551Y-38494D02*
X84846Y-38494D01*
X94370Y-38494D02*
X93665Y-38494D01*
X94370Y-38494D02*
X94665Y-38789D01*
X94665Y-38789D02*
X94665Y-39084D01*
X94665Y-39084D02*
X94842Y-39261D01*
X94842Y-39261D02*
X95669Y-39261D01*
X95669Y-39261D02*
X95787Y-39143D01*
X95787Y-38789D02*
X95787Y-39143D01*
X93568Y-38590D02*
X93568Y-38879D01*
X93665Y-38494D02*
X93568Y-38590D01*
X94370Y-50639D02*
X93665Y-50639D01*
X94370Y-50639D02*
X94665Y-50935D01*
X94665Y-50935D02*
X94665Y-51230D01*
X94665Y-51230D02*
X94842Y-51407D01*
X94842Y-51407D02*
X95669Y-51407D01*
X95669Y-51407D02*
X95787Y-51289D01*
X95787Y-50935D02*
X95787Y-51289D01*
X93568Y-50736D02*
X93568Y-51025D01*
X93665Y-50639D02*
X93568Y-50736D01*
X94370Y-62785D02*
X93665Y-62785D01*
X94370Y-62785D02*
X94665Y-63080D01*
X94665Y-63080D02*
X94665Y-63375D01*
X94665Y-63375D02*
X94842Y-63552D01*
X94842Y-63552D02*
X95669Y-63552D01*
X95669Y-63552D02*
X95787Y-63435D01*
X95787Y-63080D02*
X95787Y-63435D01*
X93568Y-62881D02*
X93568Y-63171D01*
X93665Y-62785D02*
X93568Y-62881D01*
X89255Y-62785D02*
X89159Y-62881D01*
X89159Y-62881D02*
X89159Y-63171D01*
X91377Y-63080D02*
X91377Y-63435D01*
X91260Y-63552D02*
X91377Y-63435D01*
X90432Y-63552D02*
X91260Y-63552D01*
X90255Y-63375D02*
X90432Y-63552D01*
X90255Y-63080D02*
X90255Y-63375D01*
X89960Y-62785D02*
X90255Y-63080D01*
X89960Y-62785D02*
X89255Y-62785D01*
X89255Y-50639D02*
X89159Y-50736D01*
X89159Y-50736D02*
X89159Y-51025D01*
X91377Y-50935D02*
X91377Y-51289D01*
X91260Y-51407D02*
X91377Y-51289D01*
X90432Y-51407D02*
X91260Y-51407D01*
X90255Y-51230D02*
X90432Y-51407D01*
X90255Y-50935D02*
X90255Y-51230D01*
X89960Y-50639D02*
X90255Y-50935D01*
X89960Y-50639D02*
X89255Y-50639D01*
X89255Y-38494D02*
X89159Y-38590D01*
X89159Y-38590D02*
X89159Y-38879D01*
X91377Y-38789D02*
X91377Y-39143D01*
X91260Y-39261D02*
X91377Y-39143D01*
X90432Y-39261D02*
X91260Y-39261D01*
X90255Y-39084D02*
X90432Y-39261D01*
X90255Y-38789D02*
X90255Y-39084D01*
X89960Y-38494D02*
X90255Y-38789D01*
X89960Y-38494D02*
X89255Y-38494D01*
X98779Y-38494D02*
X98074Y-38494D01*
X98779Y-38494D02*
X99074Y-38789D01*
X99074Y-38789D02*
X99074Y-39084D01*
X99074Y-39084D02*
X99251Y-39261D01*
X99251Y-39261D02*
X100079Y-39261D01*
X100079Y-39261D02*
X100196Y-39143D01*
X100196Y-38789D02*
X100196Y-39143D01*
X97978Y-38590D02*
X97978Y-38879D01*
X98074Y-38494D02*
X97978Y-38590D01*
X98779Y-50639D02*
X98074Y-50639D01*
X98779Y-50639D02*
X99074Y-50935D01*
X99074Y-50935D02*
X99074Y-51230D01*
X99074Y-51230D02*
X99251Y-51407D01*
X99251Y-51407D02*
X100079Y-51407D01*
X100079Y-51407D02*
X100196Y-51289D01*
X100196Y-50935D02*
X100196Y-51289D01*
X97978Y-50736D02*
X97978Y-51025D01*
X98074Y-50639D02*
X97978Y-50736D01*
X98779Y-62785D02*
X98074Y-62785D01*
X98779Y-62785D02*
X99074Y-63080D01*
X99074Y-63080D02*
X99074Y-63375D01*
X99074Y-63375D02*
X99251Y-63552D01*
X99251Y-63552D02*
X100079Y-63552D01*
X100079Y-63552D02*
X100196Y-63435D01*
X100196Y-63080D02*
X100196Y-63435D01*
X97978Y-62881D02*
X97978Y-63171D01*
X98074Y-62785D02*
X97978Y-62881D01*
X102484Y-62785D02*
X102387Y-62881D01*
X102387Y-62881D02*
X102387Y-63171D01*
X104606Y-63080D02*
X104606Y-63435D01*
X104488Y-63552D02*
X104606Y-63435D01*
X103661Y-63552D02*
X104488Y-63552D01*
X103484Y-63375D02*
X103661Y-63552D01*
X103484Y-63080D02*
X103484Y-63375D01*
X103188Y-62785D02*
X103484Y-63080D01*
X103188Y-62785D02*
X102484Y-62785D01*
X102484Y-50639D02*
X102387Y-50736D01*
X102387Y-50736D02*
X102387Y-51025D01*
X104606Y-50935D02*
X104606Y-51289D01*
X104488Y-51407D02*
X104606Y-51289D01*
X103661Y-51407D02*
X104488Y-51407D01*
X103484Y-51230D02*
X103661Y-51407D01*
X103484Y-50935D02*
X103484Y-51230D01*
X103188Y-50639D02*
X103484Y-50935D01*
X103188Y-50639D02*
X102484Y-50639D01*
X102484Y-38494D02*
X102387Y-38590D01*
X102387Y-38590D02*
X102387Y-38879D01*
X104606Y-38789D02*
X104606Y-39143D01*
X104488Y-39261D02*
X104606Y-39143D01*
X103661Y-39261D02*
X104488Y-39261D01*
X103484Y-39084D02*
X103661Y-39261D01*
X103484Y-38789D02*
X103484Y-39084D01*
X103188Y-38494D02*
X103484Y-38789D01*
X103188Y-38494D02*
X102484Y-38494D01*
X77814Y-68355D02*
X77480Y-68021D01*
X77480Y-68021D02*
X76614Y-68021D01*
X76614Y-68021D02*
X76240Y-68395D01*
X76240Y-68395D02*
X75708Y-68395D01*
X78503Y-68355D02*
X77814Y-68355D01*
X76436Y-63676D02*
X76431Y-63671D01*
X78346Y-63080D02*
X78346Y-62746D01*
X78877Y-63208D02*
X78750Y-63080D01*
X78750Y-63080D02*
X78346Y-63080D01*
X78346Y-68355D02*
X78721Y-68355D01*
X78877Y-68198D02*
X78721Y-68355D01*
X78877Y-68198D02*
X78877Y-63208D01*
X78346Y-63407D02*
X78079Y-63675D01*
X76435Y-63675D02*
X76431Y-63671D01*
X76435Y-63675D02*
X78079Y-63675D01*
X78346Y-63080D02*
X78346Y-63407D01*
X77814Y-56209D02*
X77480Y-55875D01*
X77480Y-55875D02*
X76614Y-55875D01*
X76614Y-55875D02*
X76240Y-56249D01*
X76240Y-56249D02*
X75708Y-56249D01*
X78503Y-56209D02*
X77814Y-56209D01*
X76436Y-51531D02*
X76431Y-51525D01*
X78346Y-50935D02*
X78346Y-50600D01*
X78877Y-51062D02*
X78750Y-50935D01*
X78750Y-50935D02*
X78346Y-50935D01*
X78346Y-56209D02*
X78721Y-56209D01*
X78877Y-56053D02*
X78721Y-56209D01*
X78877Y-56053D02*
X78877Y-51062D01*
X78346Y-51262D02*
X78079Y-51529D01*
X76435Y-51529D02*
X76431Y-51525D01*
X76435Y-51529D02*
X78079Y-51529D01*
X78346Y-50935D02*
X78346Y-51262D01*
X77814Y-44064D02*
X77480Y-43730D01*
X77480Y-43730D02*
X76614Y-43730D01*
X76614Y-43730D02*
X76240Y-44103D01*
X76240Y-44103D02*
X75708Y-44103D01*
X78503Y-44064D02*
X77814Y-44064D01*
X76436Y-39385D02*
X76431Y-39379D01*
X78346Y-38789D02*
X78346Y-38454D01*
X78877Y-38917D02*
X78750Y-38789D01*
X78750Y-38789D02*
X78346Y-38789D01*
X78346Y-44064D02*
X78721Y-44064D01*
X78877Y-43907D02*
X78721Y-44064D01*
X78877Y-43907D02*
X78877Y-38917D01*
X78346Y-39116D02*
X78079Y-39383D01*
X76435Y-39383D02*
X76431Y-39379D01*
X76435Y-39383D02*
X78079Y-39383D01*
X78346Y-38789D02*
X78346Y-39116D01*
X82755Y-38789D02*
X82755Y-39116D01*
X80844Y-39383D02*
X82488Y-39383D01*
X80844Y-39383D02*
X80840Y-39379D01*
X82755Y-39116D02*
X82488Y-39383D01*
X83287Y-43907D02*
X83287Y-38917D01*
X83287Y-43907D02*
X83130Y-44064D01*
X82755Y-44064D02*
X83130Y-44064D01*
X83159Y-38789D02*
X82755Y-38789D01*
X83287Y-38917D02*
X83159Y-38789D01*
X82755Y-38789D02*
X82755Y-38454D01*
X80845Y-39385D02*
X80840Y-39379D01*
X82913Y-44064D02*
X82223Y-44064D01*
X80650Y-44103D02*
X80118Y-44103D01*
X81023Y-43730D02*
X80650Y-44103D01*
X81889Y-43730D02*
X81023Y-43730D01*
X82223Y-44064D02*
X81889Y-43730D01*
X82755Y-50935D02*
X82755Y-51262D01*
X80844Y-51529D02*
X82488Y-51529D01*
X80844Y-51529D02*
X80840Y-51525D01*
X82755Y-51262D02*
X82488Y-51529D01*
X83287Y-56053D02*
X83287Y-51062D01*
X83287Y-56053D02*
X83130Y-56209D01*
X82755Y-56209D02*
X83130Y-56209D01*
X83159Y-50935D02*
X82755Y-50935D01*
X83287Y-51062D02*
X83159Y-50935D01*
X82755Y-50935D02*
X82755Y-50600D01*
X80845Y-51531D02*
X80840Y-51525D01*
X82913Y-56209D02*
X82223Y-56209D01*
X80650Y-56249D02*
X80118Y-56249D01*
X81023Y-55875D02*
X80650Y-56249D01*
X81889Y-55875D02*
X81023Y-55875D01*
X82223Y-56209D02*
X81889Y-55875D01*
X82755Y-63080D02*
X82755Y-63407D01*
X80844Y-63675D02*
X82488Y-63675D01*
X80844Y-63675D02*
X80840Y-63671D01*
X82755Y-63407D02*
X82488Y-63675D01*
X83287Y-68198D02*
X83287Y-63208D01*
X83287Y-68198D02*
X83130Y-68355D01*
X82755Y-68355D02*
X83130Y-68355D01*
X83159Y-63080D02*
X82755Y-63080D01*
X83287Y-63208D02*
X83159Y-63080D01*
X82755Y-63080D02*
X82755Y-62746D01*
X80845Y-63676D02*
X80840Y-63671D01*
X82913Y-68355D02*
X82223Y-68355D01*
X80650Y-68395D02*
X80118Y-68395D01*
X81023Y-68021D02*
X80650Y-68395D01*
X81889Y-68021D02*
X81023Y-68021D01*
X82223Y-68355D02*
X81889Y-68021D01*
X86633Y-68355D02*
X86299Y-68021D01*
X86299Y-68021D02*
X85433Y-68021D01*
X85433Y-68021D02*
X85059Y-68395D01*
X85059Y-68395D02*
X84527Y-68395D01*
X87322Y-68355D02*
X86633Y-68355D01*
X85255Y-63676D02*
X85250Y-63671D01*
X87165Y-63080D02*
X87165Y-62746D01*
X87696Y-63208D02*
X87568Y-63080D01*
X87568Y-63080D02*
X87165Y-63080D01*
X87165Y-68355D02*
X87540Y-68355D01*
X87696Y-68198D02*
X87540Y-68355D01*
X87696Y-68198D02*
X87696Y-63208D01*
X87165Y-63407D02*
X86898Y-63675D01*
X85253Y-63675D02*
X85250Y-63671D01*
X85253Y-63675D02*
X86898Y-63675D01*
X87165Y-63080D02*
X87165Y-63407D01*
X86633Y-56209D02*
X86299Y-55875D01*
X86299Y-55875D02*
X85433Y-55875D01*
X85433Y-55875D02*
X85059Y-56249D01*
X85059Y-56249D02*
X84527Y-56249D01*
X87322Y-56209D02*
X86633Y-56209D01*
X85255Y-51531D02*
X85250Y-51525D01*
X87165Y-50935D02*
X87165Y-50600D01*
X87696Y-51062D02*
X87568Y-50935D01*
X87568Y-50935D02*
X87165Y-50935D01*
X87165Y-56209D02*
X87540Y-56209D01*
X87696Y-56053D02*
X87540Y-56209D01*
X87696Y-56053D02*
X87696Y-51062D01*
X87165Y-51262D02*
X86898Y-51529D01*
X85253Y-51529D02*
X85250Y-51525D01*
X85253Y-51529D02*
X86898Y-51529D01*
X87165Y-50935D02*
X87165Y-51262D01*
X86633Y-44064D02*
X86299Y-43730D01*
X86299Y-43730D02*
X85433Y-43730D01*
X85433Y-43730D02*
X85059Y-44103D01*
X85059Y-44103D02*
X84527Y-44103D01*
X87322Y-44064D02*
X86633Y-44064D01*
X85255Y-39385D02*
X85250Y-39379D01*
X87165Y-38789D02*
X87165Y-38454D01*
X87696Y-38917D02*
X87568Y-38789D01*
X87568Y-38789D02*
X87165Y-38789D01*
X87165Y-44064D02*
X87540Y-44064D01*
X87696Y-43907D02*
X87540Y-44064D01*
X87696Y-43907D02*
X87696Y-38917D01*
X87165Y-39116D02*
X86898Y-39383D01*
X85253Y-39383D02*
X85250Y-39379D01*
X85253Y-39383D02*
X86898Y-39383D01*
X87165Y-38789D02*
X87165Y-39116D01*
X95984Y-38789D02*
X95984Y-39116D01*
X94072Y-39383D02*
X95716Y-39383D01*
X94072Y-39383D02*
X94068Y-39379D01*
X95984Y-39116D02*
X95716Y-39383D01*
X96515Y-43907D02*
X96515Y-38917D01*
X96515Y-43907D02*
X96358Y-44064D01*
X95984Y-44064D02*
X96358Y-44064D01*
X96387Y-38789D02*
X95984Y-38789D01*
X96515Y-38917D02*
X96387Y-38789D01*
X95984Y-38789D02*
X95984Y-38454D01*
X94074Y-39385D02*
X94068Y-39379D01*
X96141Y-44064D02*
X95452Y-44064D01*
X93878Y-44103D02*
X93346Y-44103D01*
X94251Y-43730D02*
X93878Y-44103D01*
X95118Y-43730D02*
X94251Y-43730D01*
X95452Y-44064D02*
X95118Y-43730D01*
X95984Y-50935D02*
X95984Y-51262D01*
X94072Y-51529D02*
X95716Y-51529D01*
X94072Y-51529D02*
X94068Y-51525D01*
X95984Y-51262D02*
X95716Y-51529D01*
X96515Y-56053D02*
X96515Y-51062D01*
X96515Y-56053D02*
X96358Y-56209D01*
X95984Y-56209D02*
X96358Y-56209D01*
X96387Y-50935D02*
X95984Y-50935D01*
X96515Y-51062D02*
X96387Y-50935D01*
X95984Y-50935D02*
X95984Y-50600D01*
X94074Y-51531D02*
X94068Y-51525D01*
X96141Y-56209D02*
X95452Y-56209D01*
X93878Y-56249D02*
X93346Y-56249D01*
X94251Y-55875D02*
X93878Y-56249D01*
X95118Y-55875D02*
X94251Y-55875D01*
X95452Y-56209D02*
X95118Y-55875D01*
X95984Y-63080D02*
X95984Y-63407D01*
X94072Y-63675D02*
X95716Y-63675D01*
X94072Y-63675D02*
X94068Y-63671D01*
X95984Y-63407D02*
X95716Y-63675D01*
X96515Y-68198D02*
X96515Y-63208D01*
X96515Y-68198D02*
X96358Y-68355D01*
X95984Y-68355D02*
X96358Y-68355D01*
X96387Y-63080D02*
X95984Y-63080D01*
X96515Y-63208D02*
X96387Y-63080D01*
X95984Y-63080D02*
X95984Y-62746D01*
X94074Y-63676D02*
X94068Y-63671D01*
X96141Y-68355D02*
X95452Y-68355D01*
X93878Y-68395D02*
X93346Y-68395D01*
X94251Y-68021D02*
X93878Y-68395D01*
X95118Y-68021D02*
X94251Y-68021D01*
X95452Y-68355D02*
X95118Y-68021D01*
X91042Y-68355D02*
X90708Y-68021D01*
X90708Y-68021D02*
X89842Y-68021D01*
X89842Y-68021D02*
X89469Y-68395D01*
X89469Y-68395D02*
X88937Y-68395D01*
X91732Y-68355D02*
X91042Y-68355D01*
X89664Y-63676D02*
X89659Y-63671D01*
X91574Y-63080D02*
X91574Y-62746D01*
X92106Y-63208D02*
X91978Y-63080D01*
X91978Y-63080D02*
X91574Y-63080D01*
X91574Y-68355D02*
X91949Y-68355D01*
X92106Y-68198D02*
X91949Y-68355D01*
X92106Y-68198D02*
X92106Y-63208D01*
X91574Y-63407D02*
X91307Y-63675D01*
X89663Y-63675D02*
X89659Y-63671D01*
X89663Y-63675D02*
X91307Y-63675D01*
X91574Y-63080D02*
X91574Y-63407D01*
X91042Y-56209D02*
X90708Y-55875D01*
X90708Y-55875D02*
X89842Y-55875D01*
X89842Y-55875D02*
X89469Y-56249D01*
X89469Y-56249D02*
X88937Y-56249D01*
X91732Y-56209D02*
X91042Y-56209D01*
X89664Y-51531D02*
X89659Y-51525D01*
X91574Y-50935D02*
X91574Y-50600D01*
X92106Y-51062D02*
X91978Y-50935D01*
X91978Y-50935D02*
X91574Y-50935D01*
X91574Y-56209D02*
X91949Y-56209D01*
X92106Y-56053D02*
X91949Y-56209D01*
X92106Y-56053D02*
X92106Y-51062D01*
X91574Y-51262D02*
X91307Y-51529D01*
X89663Y-51529D02*
X89659Y-51525D01*
X89663Y-51529D02*
X91307Y-51529D01*
X91574Y-50935D02*
X91574Y-51262D01*
X91042Y-44064D02*
X90708Y-43730D01*
X90708Y-43730D02*
X89842Y-43730D01*
X89842Y-43730D02*
X89469Y-44103D01*
X89469Y-44103D02*
X88937Y-44103D01*
X91732Y-44064D02*
X91042Y-44064D01*
X89664Y-39385D02*
X89659Y-39379D01*
X91574Y-38789D02*
X91574Y-38454D01*
X92106Y-38917D02*
X91978Y-38789D01*
X91978Y-38789D02*
X91574Y-38789D01*
X91574Y-44064D02*
X91949Y-44064D01*
X92106Y-43907D02*
X91949Y-44064D01*
X92106Y-43907D02*
X92106Y-38917D01*
X91574Y-39116D02*
X91307Y-39383D01*
X89663Y-39383D02*
X89659Y-39379D01*
X89663Y-39383D02*
X91307Y-39383D01*
X91574Y-38789D02*
X91574Y-39116D01*
X100393Y-38789D02*
X100393Y-39116D01*
X98482Y-39383D02*
X100126Y-39383D01*
X98482Y-39383D02*
X98478Y-39379D01*
X100393Y-39116D02*
X100126Y-39383D01*
X100925Y-43907D02*
X100925Y-38917D01*
X100925Y-43907D02*
X100768Y-44064D01*
X100393Y-44064D02*
X100768Y-44064D01*
X100797Y-38789D02*
X100393Y-38789D01*
X100925Y-38917D02*
X100797Y-38789D01*
X100393Y-38789D02*
X100393Y-38454D01*
X98483Y-39385D02*
X98478Y-39379D01*
X100551Y-44064D02*
X99861Y-44064D01*
X98288Y-44103D02*
X97755Y-44103D01*
X98661Y-43730D02*
X98288Y-44103D01*
X99527Y-43730D02*
X98661Y-43730D01*
X99861Y-44064D02*
X99527Y-43730D01*
X100393Y-50935D02*
X100393Y-51262D01*
X98482Y-51529D02*
X100126Y-51529D01*
X98482Y-51529D02*
X98478Y-51525D01*
X100393Y-51262D02*
X100126Y-51529D01*
X100925Y-56053D02*
X100925Y-51062D01*
X100925Y-56053D02*
X100768Y-56209D01*
X100393Y-56209D02*
X100768Y-56209D01*
X100797Y-50935D02*
X100393Y-50935D01*
X100925Y-51062D02*
X100797Y-50935D01*
X100393Y-50935D02*
X100393Y-50600D01*
X98483Y-51531D02*
X98478Y-51525D01*
X100551Y-56209D02*
X99861Y-56209D01*
X98288Y-56249D02*
X97755Y-56249D01*
X98661Y-55875D02*
X98288Y-56249D01*
X99527Y-55875D02*
X98661Y-55875D01*
X99861Y-56209D02*
X99527Y-55875D01*
X100393Y-63080D02*
X100393Y-63407D01*
X98482Y-63675D02*
X100126Y-63675D01*
X98482Y-63675D02*
X98478Y-63671D01*
X100393Y-63407D02*
X100126Y-63675D01*
X100925Y-68198D02*
X100925Y-63208D01*
X100925Y-68198D02*
X100768Y-68355D01*
X100393Y-68355D02*
X100768Y-68355D01*
X100797Y-63080D02*
X100393Y-63080D01*
X100925Y-63208D02*
X100797Y-63080D01*
X100393Y-63080D02*
X100393Y-62746D01*
X98483Y-63676D02*
X98478Y-63671D01*
X100551Y-68355D02*
X99861Y-68355D01*
X98288Y-68395D02*
X97755Y-68395D01*
X98661Y-68021D02*
X98288Y-68395D01*
X99527Y-68021D02*
X98661Y-68021D01*
X99861Y-68355D02*
X99527Y-68021D01*
X104271Y-68355D02*
X103937Y-68021D01*
X103937Y-68021D02*
X103070Y-68021D01*
X103070Y-68021D02*
X102697Y-68395D01*
X102697Y-68395D02*
X102165Y-68395D01*
X104960Y-68355D02*
X104271Y-68355D01*
X102893Y-63676D02*
X102887Y-63671D01*
X104803Y-63080D02*
X104803Y-62746D01*
X105334Y-63208D02*
X105206Y-63080D01*
X105206Y-63080D02*
X104803Y-63080D01*
X104803Y-68355D02*
X105177Y-68355D01*
X105334Y-68198D02*
X105177Y-68355D01*
X105334Y-68198D02*
X105334Y-63208D01*
X104803Y-63407D02*
X104535Y-63675D01*
X102891Y-63675D02*
X102887Y-63671D01*
X102891Y-63675D02*
X104535Y-63675D01*
X104803Y-63080D02*
X104803Y-63407D01*
X104271Y-56209D02*
X103937Y-55875D01*
X103937Y-55875D02*
X103070Y-55875D01*
X103070Y-55875D02*
X102697Y-56249D01*
X102697Y-56249D02*
X102165Y-56249D01*
X104960Y-56209D02*
X104271Y-56209D01*
X102893Y-51531D02*
X102887Y-51525D01*
X104803Y-50935D02*
X104803Y-50600D01*
X105334Y-51062D02*
X105206Y-50935D01*
X105206Y-50935D02*
X104803Y-50935D01*
X104803Y-56209D02*
X105177Y-56209D01*
X105334Y-56053D02*
X105177Y-56209D01*
X105334Y-56053D02*
X105334Y-51062D01*
X104803Y-51262D02*
X104535Y-51529D01*
X102891Y-51529D02*
X102887Y-51525D01*
X102891Y-51529D02*
X104535Y-51529D01*
X104803Y-50935D02*
X104803Y-51262D01*
X104271Y-44064D02*
X103937Y-43730D01*
X103937Y-43730D02*
X103070Y-43730D01*
X103070Y-43730D02*
X102697Y-44103D01*
X102697Y-44103D02*
X102165Y-44103D01*
X104960Y-44064D02*
X104271Y-44064D01*
X102893Y-39385D02*
X102887Y-39379D01*
X104803Y-38789D02*
X104803Y-38454D01*
X105334Y-38917D02*
X105206Y-38789D01*
X105206Y-38789D02*
X104803Y-38789D01*
X104803Y-44064D02*
X105177Y-44064D01*
X105334Y-43907D02*
X105177Y-44064D01*
X105334Y-43907D02*
X105334Y-38917D01*
X104803Y-39116D02*
X104535Y-39383D01*
X102891Y-39383D02*
X102887Y-39379D01*
X102891Y-39383D02*
X104535Y-39383D01*
X104803Y-38789D02*
X104803Y-39116D01*
X77755Y-64635D02*
X77755Y-64261D01*
X75718Y-66515D02*
X76338Y-66515D01*
X75541Y-64822D02*
X77687Y-64822D01*
X75452Y-66250D02*
X75452Y-64911D01*
X75452Y-64911D02*
X75541Y-64822D01*
X77755Y-64261D02*
X77755Y-64753D01*
X77687Y-64822D02*
X77755Y-64753D01*
X75452Y-66250D02*
X75718Y-66515D01*
X77755Y-52490D02*
X77755Y-52116D01*
X75718Y-54370D02*
X76338Y-54370D01*
X75541Y-52677D02*
X77687Y-52677D01*
X75452Y-54104D02*
X75452Y-52765D01*
X75452Y-52765D02*
X75541Y-52677D01*
X77755Y-52116D02*
X77755Y-52608D01*
X77687Y-52677D02*
X77755Y-52608D01*
X75452Y-54104D02*
X75718Y-54370D01*
X77755Y-40344D02*
X77755Y-39970D01*
X75718Y-42224D02*
X76338Y-42224D01*
X75541Y-40531D02*
X77687Y-40531D01*
X75452Y-41958D02*
X75452Y-40620D01*
X75452Y-40620D02*
X75541Y-40531D01*
X77755Y-39970D02*
X77755Y-40462D01*
X77687Y-40531D02*
X77755Y-40462D01*
X75452Y-41958D02*
X75718Y-42224D01*
X79862Y-41958D02*
X80128Y-42224D01*
X82096Y-40531D02*
X82165Y-40462D01*
X82165Y-39970D02*
X82165Y-40462D01*
X79862Y-40620D02*
X79950Y-40531D01*
X79862Y-41958D02*
X79862Y-40620D01*
X79950Y-40531D02*
X82096Y-40531D01*
X80128Y-42224D02*
X80748Y-42224D01*
X82165Y-40344D02*
X82165Y-39970D01*
X79862Y-54104D02*
X80128Y-54370D01*
X82096Y-52677D02*
X82165Y-52608D01*
X82165Y-52116D02*
X82165Y-52608D01*
X79862Y-52765D02*
X79950Y-52677D01*
X79862Y-54104D02*
X79862Y-52765D01*
X79950Y-52677D02*
X82096Y-52677D01*
X80128Y-54370D02*
X80748Y-54370D01*
X82165Y-52490D02*
X82165Y-52116D01*
X79862Y-66250D02*
X80128Y-66515D01*
X82096Y-64822D02*
X82165Y-64753D01*
X82165Y-64261D02*
X82165Y-64753D01*
X79862Y-64911D02*
X79950Y-64822D01*
X79862Y-66250D02*
X79862Y-64911D01*
X79950Y-64822D02*
X82096Y-64822D01*
X80128Y-66515D02*
X80748Y-66515D01*
X82165Y-64635D02*
X82165Y-64261D01*
X86574Y-64635D02*
X86574Y-64261D01*
X84537Y-66515D02*
X85157Y-66515D01*
X84360Y-64822D02*
X86505Y-64822D01*
X84271Y-66250D02*
X84271Y-64911D01*
X84271Y-64911D02*
X84360Y-64822D01*
X86574Y-64261D02*
X86574Y-64753D01*
X86505Y-64822D02*
X86574Y-64753D01*
X84271Y-66250D02*
X84537Y-66515D01*
X86574Y-52490D02*
X86574Y-52116D01*
X84537Y-54370D02*
X85157Y-54370D01*
X84360Y-52677D02*
X86505Y-52677D01*
X84271Y-54104D02*
X84271Y-52765D01*
X84271Y-52765D02*
X84360Y-52677D01*
X86574Y-52116D02*
X86574Y-52608D01*
X86505Y-52677D02*
X86574Y-52608D01*
X84271Y-54104D02*
X84537Y-54370D01*
X86574Y-40344D02*
X86574Y-39970D01*
X84537Y-42224D02*
X85157Y-42224D01*
X84360Y-40531D02*
X86505Y-40531D01*
X84271Y-41958D02*
X84271Y-40620D01*
X84271Y-40620D02*
X84360Y-40531D01*
X86574Y-39970D02*
X86574Y-40462D01*
X86505Y-40531D02*
X86574Y-40462D01*
X84271Y-41958D02*
X84537Y-42224D01*
X93090Y-41958D02*
X93356Y-42224D01*
X95324Y-40531D02*
X95393Y-40462D01*
X95393Y-39970D02*
X95393Y-40462D01*
X93090Y-40620D02*
X93179Y-40531D01*
X93090Y-41958D02*
X93090Y-40620D01*
X93179Y-40531D02*
X95324Y-40531D01*
X93356Y-42224D02*
X93976Y-42224D01*
X95393Y-40344D02*
X95393Y-39970D01*
X93090Y-54104D02*
X93356Y-54370D01*
X95324Y-52677D02*
X95393Y-52608D01*
X95393Y-52116D02*
X95393Y-52608D01*
X93090Y-52765D02*
X93179Y-52677D01*
X93090Y-54104D02*
X93090Y-52765D01*
X93179Y-52677D02*
X95324Y-52677D01*
X93356Y-54370D02*
X93976Y-54370D01*
X95393Y-52490D02*
X95393Y-52116D01*
X93090Y-66250D02*
X93356Y-66515D01*
X95324Y-64822D02*
X95393Y-64753D01*
X95393Y-64261D02*
X95393Y-64753D01*
X93090Y-64911D02*
X93179Y-64822D01*
X93090Y-66250D02*
X93090Y-64911D01*
X93179Y-64822D02*
X95324Y-64822D01*
X93356Y-66515D02*
X93976Y-66515D01*
X95393Y-64635D02*
X95393Y-64261D01*
X90984Y-64635D02*
X90984Y-64261D01*
X88946Y-66515D02*
X89566Y-66515D01*
X88769Y-64822D02*
X90915Y-64822D01*
X88681Y-66250D02*
X88681Y-64911D01*
X88681Y-64911D02*
X88769Y-64822D01*
X90984Y-64261D02*
X90984Y-64753D01*
X90915Y-64822D02*
X90984Y-64753D01*
X88681Y-66250D02*
X88946Y-66515D01*
X90984Y-52490D02*
X90984Y-52116D01*
X88946Y-54370D02*
X89566Y-54370D01*
X88769Y-52677D02*
X90915Y-52677D01*
X88681Y-54104D02*
X88681Y-52765D01*
X88681Y-52765D02*
X88769Y-52677D01*
X90984Y-52116D02*
X90984Y-52608D01*
X90915Y-52677D02*
X90984Y-52608D01*
X88681Y-54104D02*
X88946Y-54370D01*
X90984Y-40344D02*
X90984Y-39970D01*
X88946Y-42224D02*
X89566Y-42224D01*
X88769Y-40531D02*
X90915Y-40531D01*
X88681Y-41958D02*
X88681Y-40620D01*
X88681Y-40620D02*
X88769Y-40531D01*
X90984Y-39970D02*
X90984Y-40462D01*
X90915Y-40531D02*
X90984Y-40462D01*
X88681Y-41958D02*
X88946Y-42224D01*
X97500Y-41958D02*
X97765Y-42224D01*
X99734Y-40531D02*
X99803Y-40462D01*
X99803Y-39970D02*
X99803Y-40462D01*
X97500Y-40620D02*
X97588Y-40531D01*
X97500Y-41958D02*
X97500Y-40620D01*
X97588Y-40531D02*
X99734Y-40531D01*
X97765Y-42224D02*
X98385Y-42224D01*
X99803Y-40344D02*
X99803Y-39970D01*
X97500Y-54104D02*
X97765Y-54370D01*
X99734Y-52677D02*
X99803Y-52608D01*
X99803Y-52116D02*
X99803Y-52608D01*
X97500Y-52765D02*
X97588Y-52677D01*
X97500Y-54104D02*
X97500Y-52765D01*
X97588Y-52677D02*
X99734Y-52677D01*
X97765Y-54370D02*
X98385Y-54370D01*
X99803Y-52490D02*
X99803Y-52116D01*
X97500Y-66250D02*
X97765Y-66515D01*
X99734Y-64822D02*
X99803Y-64753D01*
X99803Y-64261D02*
X99803Y-64753D01*
X97500Y-64911D02*
X97588Y-64822D01*
X97500Y-66250D02*
X97500Y-64911D01*
X97588Y-64822D02*
X99734Y-64822D01*
X97765Y-66515D02*
X98385Y-66515D01*
X99803Y-64635D02*
X99803Y-64261D01*
X104212Y-64635D02*
X104212Y-64261D01*
X102175Y-66515D02*
X102795Y-66515D01*
X101998Y-64822D02*
X104143Y-64822D01*
X101909Y-66250D02*
X101909Y-64911D01*
X101909Y-64911D02*
X101998Y-64822D01*
X104212Y-64261D02*
X104212Y-64753D01*
X104143Y-64822D02*
X104212Y-64753D01*
X101909Y-66250D02*
X102175Y-66515D01*
X104212Y-52490D02*
X104212Y-52116D01*
X102175Y-54370D02*
X102795Y-54370D01*
X101998Y-52677D02*
X104143Y-52677D01*
X101909Y-54104D02*
X101909Y-52765D01*
X101909Y-52765D02*
X101998Y-52677D01*
X104212Y-52116D02*
X104212Y-52608D01*
X104143Y-52677D02*
X104212Y-52608D01*
X101909Y-54104D02*
X102175Y-54370D01*
X104212Y-40344D02*
X104212Y-39970D01*
X102175Y-42224D02*
X102795Y-42224D01*
X101998Y-40531D02*
X104143Y-40531D01*
X101909Y-41958D02*
X101909Y-40620D01*
X101909Y-40620D02*
X101998Y-40531D01*
X104212Y-39970D02*
X104212Y-40462D01*
X104143Y-40531D02*
X104212Y-40462D01*
X101909Y-41958D02*
X102175Y-42224D01*
X78149Y-64616D02*
X78149Y-64261D01*
X78582Y-66515D02*
X77923Y-66515D01*
X78149Y-64261D02*
X78149Y-64783D01*
X78218Y-64852D02*
X78149Y-64783D01*
X78690Y-64852D02*
X78218Y-64852D01*
X78740Y-64901D02*
X78690Y-64852D01*
X78740Y-66358D02*
X78740Y-64901D01*
X78740Y-66358D02*
X78582Y-66515D01*
X78149Y-52470D02*
X78149Y-52116D01*
X78582Y-54370D02*
X77923Y-54370D01*
X78149Y-52116D02*
X78149Y-52637D01*
X78218Y-52706D02*
X78149Y-52637D01*
X78690Y-52706D02*
X78218Y-52706D01*
X78740Y-52755D02*
X78690Y-52706D01*
X78740Y-54212D02*
X78740Y-52755D01*
X78740Y-54212D02*
X78582Y-54370D01*
X78149Y-40324D02*
X78149Y-39970D01*
X78582Y-42224D02*
X77923Y-42224D01*
X78149Y-39970D02*
X78149Y-40492D01*
X78218Y-40561D02*
X78149Y-40492D01*
X78690Y-40561D02*
X78218Y-40561D01*
X78740Y-40610D02*
X78690Y-40561D01*
X78740Y-42066D02*
X78740Y-40610D01*
X78740Y-42066D02*
X78582Y-42224D01*
X83149Y-42066D02*
X82991Y-42224D01*
X83149Y-42066D02*
X83149Y-40610D01*
X83149Y-40610D02*
X83100Y-40561D01*
X83100Y-40561D02*
X82627Y-40561D01*
X82627Y-40561D02*
X82559Y-40492D01*
X82559Y-39970D02*
X82559Y-40492D01*
X82991Y-42224D02*
X82332Y-42224D01*
X82559Y-40324D02*
X82559Y-39970D01*
X83149Y-54212D02*
X82991Y-54370D01*
X83149Y-54212D02*
X83149Y-52755D01*
X83149Y-52755D02*
X83100Y-52706D01*
X83100Y-52706D02*
X82627Y-52706D01*
X82627Y-52706D02*
X82559Y-52637D01*
X82559Y-52116D02*
X82559Y-52637D01*
X82991Y-54370D02*
X82332Y-54370D01*
X82559Y-52470D02*
X82559Y-52116D01*
X83149Y-66358D02*
X82991Y-66515D01*
X83149Y-66358D02*
X83149Y-64901D01*
X83149Y-64901D02*
X83100Y-64852D01*
X83100Y-64852D02*
X82627Y-64852D01*
X82627Y-64852D02*
X82559Y-64783D01*
X82559Y-64261D02*
X82559Y-64783D01*
X82991Y-66515D02*
X82332Y-66515D01*
X82559Y-64616D02*
X82559Y-64261D01*
X86968Y-64616D02*
X86968Y-64261D01*
X87401Y-66515D02*
X86742Y-66515D01*
X86968Y-64261D02*
X86968Y-64783D01*
X87037Y-64852D02*
X86968Y-64783D01*
X87509Y-64852D02*
X87037Y-64852D01*
X87559Y-64901D02*
X87509Y-64852D01*
X87559Y-66358D02*
X87559Y-64901D01*
X87559Y-66358D02*
X87401Y-66515D01*
X86968Y-52470D02*
X86968Y-52116D01*
X87401Y-54370D02*
X86742Y-54370D01*
X86968Y-52116D02*
X86968Y-52637D01*
X87037Y-52706D02*
X86968Y-52637D01*
X87509Y-52706D02*
X87037Y-52706D01*
X87559Y-52755D02*
X87509Y-52706D01*
X87559Y-54212D02*
X87559Y-52755D01*
X87559Y-54212D02*
X87401Y-54370D01*
X86968Y-40324D02*
X86968Y-39970D01*
X87401Y-42224D02*
X86742Y-42224D01*
X86968Y-39970D02*
X86968Y-40492D01*
X87037Y-40561D02*
X86968Y-40492D01*
X87509Y-40561D02*
X87037Y-40561D01*
X87559Y-40610D02*
X87509Y-40561D01*
X87559Y-42066D02*
X87559Y-40610D01*
X87559Y-42066D02*
X87401Y-42224D01*
X96377Y-42066D02*
X96220Y-42224D01*
X96377Y-42066D02*
X96377Y-40610D01*
X96377Y-40610D02*
X96328Y-40561D01*
X96328Y-40561D02*
X95856Y-40561D01*
X95856Y-40561D02*
X95787Y-40492D01*
X95787Y-39970D02*
X95787Y-40492D01*
X96220Y-42224D02*
X95561Y-42224D01*
X95787Y-40324D02*
X95787Y-39970D01*
X96377Y-54212D02*
X96220Y-54370D01*
X96377Y-54212D02*
X96377Y-52755D01*
X96377Y-52755D02*
X96328Y-52706D01*
X96328Y-52706D02*
X95856Y-52706D01*
X95856Y-52706D02*
X95787Y-52637D01*
X95787Y-52116D02*
X95787Y-52637D01*
X96220Y-54370D02*
X95561Y-54370D01*
X95787Y-52470D02*
X95787Y-52116D01*
X96377Y-66358D02*
X96220Y-66515D01*
X96377Y-66358D02*
X96377Y-64901D01*
X96377Y-64901D02*
X96328Y-64852D01*
X96328Y-64852D02*
X95856Y-64852D01*
X95856Y-64852D02*
X95787Y-64783D01*
X95787Y-64261D02*
X95787Y-64783D01*
X96220Y-66515D02*
X95561Y-66515D01*
X95787Y-64616D02*
X95787Y-64261D01*
X91377Y-64616D02*
X91377Y-64261D01*
X91810Y-66515D02*
X91151Y-66515D01*
X91377Y-64261D02*
X91377Y-64783D01*
X91446Y-64852D02*
X91377Y-64783D01*
X91919Y-64852D02*
X91446Y-64852D01*
X91968Y-64901D02*
X91919Y-64852D01*
X91968Y-66358D02*
X91968Y-64901D01*
X91968Y-66358D02*
X91810Y-66515D01*
X91377Y-52470D02*
X91377Y-52116D01*
X91810Y-54370D02*
X91151Y-54370D01*
X91377Y-52116D02*
X91377Y-52637D01*
X91446Y-52706D02*
X91377Y-52637D01*
X91919Y-52706D02*
X91446Y-52706D01*
X91968Y-52755D02*
X91919Y-52706D01*
X91968Y-54212D02*
X91968Y-52755D01*
X91968Y-54212D02*
X91810Y-54370D01*
X91377Y-40324D02*
X91377Y-39970D01*
X91810Y-42224D02*
X91151Y-42224D01*
X91377Y-39970D02*
X91377Y-40492D01*
X91446Y-40561D02*
X91377Y-40492D01*
X91919Y-40561D02*
X91446Y-40561D01*
X91968Y-40610D02*
X91919Y-40561D01*
X91968Y-42066D02*
X91968Y-40610D01*
X91968Y-42066D02*
X91810Y-42224D01*
X100787Y-42066D02*
X100629Y-42224D01*
X100787Y-42066D02*
X100787Y-40610D01*
X100787Y-40610D02*
X100738Y-40561D01*
X100738Y-40561D02*
X100265Y-40561D01*
X100265Y-40561D02*
X100196Y-40492D01*
X100196Y-39970D02*
X100196Y-40492D01*
X100629Y-42224D02*
X99970Y-42224D01*
X100196Y-40324D02*
X100196Y-39970D01*
X100787Y-54212D02*
X100629Y-54370D01*
X100787Y-54212D02*
X100787Y-52755D01*
X100787Y-52755D02*
X100738Y-52706D01*
X100738Y-52706D02*
X100265Y-52706D01*
X100265Y-52706D02*
X100196Y-52637D01*
X100196Y-52116D02*
X100196Y-52637D01*
X100629Y-54370D02*
X99970Y-54370D01*
X100196Y-52470D02*
X100196Y-52116D01*
X100787Y-66358D02*
X100629Y-66515D01*
X100787Y-66358D02*
X100787Y-64901D01*
X100787Y-64901D02*
X100738Y-64852D01*
X100738Y-64852D02*
X100265Y-64852D01*
X100265Y-64852D02*
X100196Y-64783D01*
X100196Y-64261D02*
X100196Y-64783D01*
X100629Y-66515D02*
X99970Y-66515D01*
X100196Y-64616D02*
X100196Y-64261D01*
X104606Y-64616D02*
X104606Y-64261D01*
X105039Y-66515D02*
X104379Y-66515D01*
X104606Y-64261D02*
X104606Y-64783D01*
X104675Y-64852D02*
X104606Y-64783D01*
X105147Y-64852D02*
X104675Y-64852D01*
X105196Y-64901D02*
X105147Y-64852D01*
X105196Y-66358D02*
X105196Y-64901D01*
X105196Y-66358D02*
X105039Y-66515D01*
X104606Y-52470D02*
X104606Y-52116D01*
X105039Y-54370D02*
X104379Y-54370D01*
X104606Y-52116D02*
X104606Y-52637D01*
X104675Y-52706D02*
X104606Y-52637D01*
X105147Y-52706D02*
X104675Y-52706D01*
X105196Y-52755D02*
X105147Y-52706D01*
X105196Y-54212D02*
X105196Y-52755D01*
X105196Y-54212D02*
X105039Y-54370D01*
X104606Y-40324D02*
X104606Y-39970D01*
X105039Y-42224D02*
X104379Y-42224D01*
X104606Y-39970D02*
X104606Y-40492D01*
X104675Y-40561D02*
X104606Y-40492D01*
X105147Y-40561D02*
X104675Y-40561D01*
X105196Y-40610D02*
X105147Y-40561D01*
X105196Y-42066D02*
X105196Y-40610D01*
X105196Y-42066D02*
X105039Y-42224D01*
X77559Y-64261D02*
X77559Y-64478D01*
X76958Y-64616D02*
X77312Y-64261D01*
X77312Y-64261D02*
X77559Y-64261D01*
X75931Y-64171D02*
X75931Y-64503D01*
X76043Y-64616D02*
X75931Y-64503D01*
X76043Y-64616D02*
X76958Y-64616D01*
X77559Y-52116D02*
X77559Y-52332D01*
X76958Y-52470D02*
X77312Y-52116D01*
X77312Y-52116D02*
X77559Y-52116D01*
X75931Y-52025D02*
X75931Y-52358D01*
X76043Y-52470D02*
X75931Y-52358D01*
X76043Y-52470D02*
X76958Y-52470D01*
X77559Y-39970D02*
X77559Y-40187D01*
X76958Y-40324D02*
X77312Y-39970D01*
X77312Y-39970D02*
X77559Y-39970D01*
X75931Y-39879D02*
X75931Y-40212D01*
X76043Y-40324D02*
X75931Y-40212D01*
X76043Y-40324D02*
X76958Y-40324D01*
X80452Y-40324D02*
X81368Y-40324D01*
X80452Y-40324D02*
X80340Y-40212D01*
X80340Y-39879D02*
X80340Y-40212D01*
X81722Y-39970D02*
X81968Y-39970D01*
X81368Y-40324D02*
X81722Y-39970D01*
X81968Y-39970D02*
X81968Y-40187D01*
X80452Y-52470D02*
X81368Y-52470D01*
X80452Y-52470D02*
X80340Y-52358D01*
X80340Y-52025D02*
X80340Y-52358D01*
X81722Y-52116D02*
X81968Y-52116D01*
X81368Y-52470D02*
X81722Y-52116D01*
X81968Y-52116D02*
X81968Y-52332D01*
X80452Y-64616D02*
X81368Y-64616D01*
X80452Y-64616D02*
X80340Y-64503D01*
X80340Y-64171D02*
X80340Y-64503D01*
X81722Y-64261D02*
X81968Y-64261D01*
X81368Y-64616D02*
X81722Y-64261D01*
X81968Y-64261D02*
X81968Y-64478D01*
X86377Y-64261D02*
X86377Y-64478D01*
X85777Y-64616D02*
X86131Y-64261D01*
X86131Y-64261D02*
X86377Y-64261D01*
X84750Y-64171D02*
X84750Y-64503D01*
X84862Y-64616D02*
X84750Y-64503D01*
X84862Y-64616D02*
X85777Y-64616D01*
X86377Y-52116D02*
X86377Y-52332D01*
X85777Y-52470D02*
X86131Y-52116D01*
X86131Y-52116D02*
X86377Y-52116D01*
X84750Y-52025D02*
X84750Y-52358D01*
X84862Y-52470D02*
X84750Y-52358D01*
X84862Y-52470D02*
X85777Y-52470D01*
X86377Y-39970D02*
X86377Y-40187D01*
X85777Y-40324D02*
X86131Y-39970D01*
X86131Y-39970D02*
X86377Y-39970D01*
X84750Y-39879D02*
X84750Y-40212D01*
X84862Y-40324D02*
X84750Y-40212D01*
X84862Y-40324D02*
X85777Y-40324D01*
X93681Y-40324D02*
X94596Y-40324D01*
X93681Y-40324D02*
X93568Y-40212D01*
X93568Y-39879D02*
X93568Y-40212D01*
X94950Y-39970D02*
X95196Y-39970D01*
X94596Y-40324D02*
X94950Y-39970D01*
X95196Y-39970D02*
X95196Y-40187D01*
X93681Y-52470D02*
X94596Y-52470D01*
X93681Y-52470D02*
X93568Y-52358D01*
X93568Y-52025D02*
X93568Y-52358D01*
X94950Y-52116D02*
X95196Y-52116D01*
X94596Y-52470D02*
X94950Y-52116D01*
X95196Y-52116D02*
X95196Y-52332D01*
X93681Y-64616D02*
X94596Y-64616D01*
X93681Y-64616D02*
X93568Y-64503D01*
X93568Y-64171D02*
X93568Y-64503D01*
X94950Y-64261D02*
X95196Y-64261D01*
X94596Y-64616D02*
X94950Y-64261D01*
X95196Y-64261D02*
X95196Y-64478D01*
X90787Y-64261D02*
X90787Y-64478D01*
X90187Y-64616D02*
X90541Y-64261D01*
X90541Y-64261D02*
X90787Y-64261D01*
X89159Y-64171D02*
X89159Y-64503D01*
X89271Y-64616D02*
X89159Y-64503D01*
X89271Y-64616D02*
X90187Y-64616D01*
X90787Y-52116D02*
X90787Y-52332D01*
X90187Y-52470D02*
X90541Y-52116D01*
X90541Y-52116D02*
X90787Y-52116D01*
X89159Y-52025D02*
X89159Y-52358D01*
X89271Y-52470D02*
X89159Y-52358D01*
X89271Y-52470D02*
X90187Y-52470D01*
X90787Y-39970D02*
X90787Y-40187D01*
X90187Y-40324D02*
X90541Y-39970D01*
X90541Y-39970D02*
X90787Y-39970D01*
X89159Y-39879D02*
X89159Y-40212D01*
X89271Y-40324D02*
X89159Y-40212D01*
X89271Y-40324D02*
X90187Y-40324D01*
X98090Y-40324D02*
X99005Y-40324D01*
X98090Y-40324D02*
X97978Y-40212D01*
X97978Y-39879D02*
X97978Y-40212D01*
X99360Y-39970D02*
X99606Y-39970D01*
X99005Y-40324D02*
X99360Y-39970D01*
X99606Y-39970D02*
X99606Y-40187D01*
X98090Y-52470D02*
X99005Y-52470D01*
X98090Y-52470D02*
X97978Y-52358D01*
X97978Y-52025D02*
X97978Y-52358D01*
X99360Y-52116D02*
X99606Y-52116D01*
X99005Y-52470D02*
X99360Y-52116D01*
X99606Y-52116D02*
X99606Y-52332D01*
X98090Y-64616D02*
X99005Y-64616D01*
X98090Y-64616D02*
X97978Y-64503D01*
X97978Y-64171D02*
X97978Y-64503D01*
X99360Y-64261D02*
X99606Y-64261D01*
X99005Y-64616D02*
X99360Y-64261D01*
X99606Y-64261D02*
X99606Y-64478D01*
X104015Y-64261D02*
X104015Y-64478D01*
X103415Y-64616D02*
X103769Y-64261D01*
X103769Y-64261D02*
X104015Y-64261D01*
X102387Y-64171D02*
X102387Y-64503D01*
X102500Y-64616D02*
X102387Y-64503D01*
X102500Y-64616D02*
X103415Y-64616D01*
X104015Y-52116D02*
X104015Y-52332D01*
X103415Y-52470D02*
X103769Y-52116D01*
X103769Y-52116D02*
X104015Y-52116D01*
X102387Y-52025D02*
X102387Y-52358D01*
X102500Y-52470D02*
X102387Y-52358D01*
X102500Y-52470D02*
X103415Y-52470D01*
X104015Y-39970D02*
X104015Y-40187D01*
X103415Y-40324D02*
X103769Y-39970D01*
X103769Y-39970D02*
X104015Y-39970D01*
X102387Y-39879D02*
X102387Y-40212D01*
X102500Y-40324D02*
X102387Y-40212D01*
X102500Y-40324D02*
X103415Y-40324D01*
X75452Y-63671D02*
X75374Y-63592D01*
X75374Y-63592D02*
X75374Y-62844D01*
X75374Y-62844D02*
X75570Y-62647D01*
X75570Y-62647D02*
X76909Y-62647D01*
X77755Y-63360D02*
X77755Y-63080D01*
X77224Y-62962D02*
X76909Y-62647D01*
X77224Y-63257D02*
X77224Y-62962D01*
X77395Y-63428D02*
X77224Y-63257D01*
X77687Y-63428D02*
X77395Y-63428D01*
X77755Y-63360D02*
X77687Y-63428D01*
X75931Y-63671D02*
X75452Y-63671D01*
X75452Y-51525D02*
X75374Y-51446D01*
X75374Y-51446D02*
X75374Y-50698D01*
X75374Y-50698D02*
X75570Y-50501D01*
X75570Y-50501D02*
X76909Y-50501D01*
X77755Y-51214D02*
X77755Y-50935D01*
X77224Y-50816D02*
X76909Y-50501D01*
X77224Y-51112D02*
X77224Y-50816D01*
X77395Y-51283D02*
X77224Y-51112D01*
X77687Y-51283D02*
X77395Y-51283D01*
X77755Y-51214D02*
X77687Y-51283D01*
X75931Y-51525D02*
X75452Y-51525D01*
X75452Y-39379D02*
X75374Y-39301D01*
X75374Y-39301D02*
X75374Y-38553D01*
X75374Y-38553D02*
X75570Y-38356D01*
X75570Y-38356D02*
X76909Y-38356D01*
X77755Y-39068D02*
X77755Y-38789D01*
X77224Y-38671D02*
X76909Y-38356D01*
X77224Y-38966D02*
X77224Y-38671D01*
X77395Y-39137D02*
X77224Y-38966D01*
X77687Y-39137D02*
X77395Y-39137D01*
X77755Y-39068D02*
X77687Y-39137D01*
X75931Y-39379D02*
X75452Y-39379D01*
X80340Y-39379D02*
X79862Y-39379D01*
X82165Y-39068D02*
X82096Y-39137D01*
X82096Y-39137D02*
X81804Y-39137D01*
X81804Y-39137D02*
X81633Y-38966D01*
X81633Y-38966D02*
X81633Y-38671D01*
X81633Y-38671D02*
X81318Y-38356D01*
X82165Y-39068D02*
X82165Y-38789D01*
X79980Y-38356D02*
X81318Y-38356D01*
X79783Y-38553D02*
X79980Y-38356D01*
X79783Y-39301D02*
X79783Y-38553D01*
X79862Y-39379D02*
X79783Y-39301D01*
X80340Y-51525D02*
X79862Y-51525D01*
X82165Y-51214D02*
X82096Y-51283D01*
X82096Y-51283D02*
X81804Y-51283D01*
X81804Y-51283D02*
X81633Y-51112D01*
X81633Y-51112D02*
X81633Y-50816D01*
X81633Y-50816D02*
X81318Y-50501D01*
X82165Y-51214D02*
X82165Y-50935D01*
X79980Y-50501D02*
X81318Y-50501D01*
X79783Y-50698D02*
X79980Y-50501D01*
X79783Y-51446D02*
X79783Y-50698D01*
X79862Y-51525D02*
X79783Y-51446D01*
X80340Y-63671D02*
X79862Y-63671D01*
X82165Y-63360D02*
X82096Y-63428D01*
X82096Y-63428D02*
X81804Y-63428D01*
X81804Y-63428D02*
X81633Y-63257D01*
X81633Y-63257D02*
X81633Y-62962D01*
X81633Y-62962D02*
X81318Y-62647D01*
X82165Y-63360D02*
X82165Y-63080D01*
X79980Y-62647D02*
X81318Y-62647D01*
X79783Y-62844D02*
X79980Y-62647D01*
X79783Y-63592D02*
X79783Y-62844D01*
X79862Y-63671D02*
X79783Y-63592D01*
X84271Y-63671D02*
X84192Y-63592D01*
X84192Y-63592D02*
X84192Y-62844D01*
X84192Y-62844D02*
X84389Y-62647D01*
X84389Y-62647D02*
X85728Y-62647D01*
X86574Y-63360D02*
X86574Y-63080D01*
X86043Y-62962D02*
X85728Y-62647D01*
X86043Y-63257D02*
X86043Y-62962D01*
X86214Y-63428D02*
X86043Y-63257D01*
X86506Y-63428D02*
X86214Y-63428D01*
X86574Y-63360D02*
X86506Y-63428D01*
X84750Y-63671D02*
X84271Y-63671D01*
X84271Y-51525D02*
X84192Y-51446D01*
X84192Y-51446D02*
X84192Y-50698D01*
X84192Y-50698D02*
X84389Y-50501D01*
X84389Y-50501D02*
X85728Y-50501D01*
X86574Y-51214D02*
X86574Y-50935D01*
X86043Y-50816D02*
X85728Y-50501D01*
X86043Y-51112D02*
X86043Y-50816D01*
X86214Y-51283D02*
X86043Y-51112D01*
X86506Y-51283D02*
X86214Y-51283D01*
X86574Y-51214D02*
X86506Y-51283D01*
X84750Y-51525D02*
X84271Y-51525D01*
X84271Y-39379D02*
X84192Y-39301D01*
X84192Y-39301D02*
X84192Y-38553D01*
X84192Y-38553D02*
X84389Y-38356D01*
X84389Y-38356D02*
X85728Y-38356D01*
X86574Y-39068D02*
X86574Y-38789D01*
X86043Y-38671D02*
X85728Y-38356D01*
X86043Y-38966D02*
X86043Y-38671D01*
X86214Y-39137D02*
X86043Y-38966D01*
X86506Y-39137D02*
X86214Y-39137D01*
X86574Y-39068D02*
X86506Y-39137D01*
X84750Y-39379D02*
X84271Y-39379D01*
X93568Y-39379D02*
X93090Y-39379D01*
X95393Y-39068D02*
X95324Y-39137D01*
X95324Y-39137D02*
X95033Y-39137D01*
X95033Y-39137D02*
X94862Y-38966D01*
X94862Y-38966D02*
X94862Y-38671D01*
X94862Y-38671D02*
X94547Y-38356D01*
X95393Y-39068D02*
X95393Y-38789D01*
X93208Y-38356D02*
X94547Y-38356D01*
X93011Y-38553D02*
X93208Y-38356D01*
X93011Y-39301D02*
X93011Y-38553D01*
X93090Y-39379D02*
X93011Y-39301D01*
X93568Y-51525D02*
X93090Y-51525D01*
X95393Y-51214D02*
X95324Y-51283D01*
X95324Y-51283D02*
X95033Y-51283D01*
X95033Y-51283D02*
X94862Y-51112D01*
X94862Y-51112D02*
X94862Y-50816D01*
X94862Y-50816D02*
X94547Y-50501D01*
X95393Y-51214D02*
X95393Y-50935D01*
X93208Y-50501D02*
X94547Y-50501D01*
X93011Y-50698D02*
X93208Y-50501D01*
X93011Y-51446D02*
X93011Y-50698D01*
X93090Y-51525D02*
X93011Y-51446D01*
X93568Y-63671D02*
X93090Y-63671D01*
X95393Y-63360D02*
X95324Y-63428D01*
X95324Y-63428D02*
X95033Y-63428D01*
X95033Y-63428D02*
X94862Y-63257D01*
X94862Y-63257D02*
X94862Y-62962D01*
X94862Y-62962D02*
X94547Y-62647D01*
X95393Y-63360D02*
X95393Y-63080D01*
X93208Y-62647D02*
X94547Y-62647D01*
X93011Y-62844D02*
X93208Y-62647D01*
X93011Y-63592D02*
X93011Y-62844D01*
X93090Y-63671D02*
X93011Y-63592D01*
X88681Y-63671D02*
X88602Y-63592D01*
X88602Y-63592D02*
X88602Y-62844D01*
X88602Y-62844D02*
X88799Y-62647D01*
X88799Y-62647D02*
X90137Y-62647D01*
X90984Y-63360D02*
X90984Y-63080D01*
X90452Y-62962D02*
X90137Y-62647D01*
X90452Y-63257D02*
X90452Y-62962D01*
X90623Y-63428D02*
X90452Y-63257D01*
X90915Y-63428D02*
X90623Y-63428D01*
X90984Y-63360D02*
X90915Y-63428D01*
X89159Y-63671D02*
X88681Y-63671D01*
X88681Y-51525D02*
X88602Y-51446D01*
X88602Y-51446D02*
X88602Y-50698D01*
X88602Y-50698D02*
X88799Y-50501D01*
X88799Y-50501D02*
X90137Y-50501D01*
X90984Y-51214D02*
X90984Y-50935D01*
X90452Y-50816D02*
X90137Y-50501D01*
X90452Y-51112D02*
X90452Y-50816D01*
X90623Y-51283D02*
X90452Y-51112D01*
X90915Y-51283D02*
X90623Y-51283D01*
X90984Y-51214D02*
X90915Y-51283D01*
X89159Y-51525D02*
X88681Y-51525D01*
X88681Y-39379D02*
X88602Y-39301D01*
X88602Y-39301D02*
X88602Y-38553D01*
X88602Y-38553D02*
X88799Y-38356D01*
X88799Y-38356D02*
X90137Y-38356D01*
X90984Y-39068D02*
X90984Y-38789D01*
X90452Y-38671D02*
X90137Y-38356D01*
X90452Y-38966D02*
X90452Y-38671D01*
X90623Y-39137D02*
X90452Y-38966D01*
X90915Y-39137D02*
X90623Y-39137D01*
X90984Y-39068D02*
X90915Y-39137D01*
X89159Y-39379D02*
X88681Y-39379D01*
X97978Y-39379D02*
X97500Y-39379D01*
X99803Y-39068D02*
X99734Y-39137D01*
X99734Y-39137D02*
X99442Y-39137D01*
X99442Y-39137D02*
X99271Y-38966D01*
X99271Y-38966D02*
X99271Y-38671D01*
X99271Y-38671D02*
X98956Y-38356D01*
X99803Y-39068D02*
X99803Y-38789D01*
X97618Y-38356D02*
X98956Y-38356D01*
X97421Y-38553D02*
X97618Y-38356D01*
X97421Y-39301D02*
X97421Y-38553D01*
X97500Y-39379D02*
X97421Y-39301D01*
X97978Y-51525D02*
X97500Y-51525D01*
X99803Y-51214D02*
X99734Y-51283D01*
X99734Y-51283D02*
X99442Y-51283D01*
X99442Y-51283D02*
X99271Y-51112D01*
X99271Y-51112D02*
X99271Y-50816D01*
X99271Y-50816D02*
X98956Y-50501D01*
X99803Y-51214D02*
X99803Y-50935D01*
X97618Y-50501D02*
X98956Y-50501D01*
X97421Y-50698D02*
X97618Y-50501D01*
X97421Y-51446D02*
X97421Y-50698D01*
X97500Y-51525D02*
X97421Y-51446D01*
X97978Y-63671D02*
X97500Y-63671D01*
X99803Y-63360D02*
X99734Y-63428D01*
X99734Y-63428D02*
X99442Y-63428D01*
X99442Y-63428D02*
X99271Y-63257D01*
X99271Y-63257D02*
X99271Y-62962D01*
X99271Y-62962D02*
X98956Y-62647D01*
X99803Y-63360D02*
X99803Y-63080D01*
X97618Y-62647D02*
X98956Y-62647D01*
X97421Y-62844D02*
X97618Y-62647D01*
X97421Y-63592D02*
X97421Y-62844D01*
X97500Y-63671D02*
X97421Y-63592D01*
X101909Y-63671D02*
X101830Y-63592D01*
X101830Y-63592D02*
X101830Y-62844D01*
X101830Y-62844D02*
X102027Y-62647D01*
X102027Y-62647D02*
X103366Y-62647D01*
X104212Y-63360D02*
X104212Y-63080D01*
X103681Y-62962D02*
X103366Y-62647D01*
X103681Y-63257D02*
X103681Y-62962D01*
X103852Y-63428D02*
X103681Y-63257D01*
X104143Y-63428D02*
X103852Y-63428D01*
X104212Y-63360D02*
X104143Y-63428D01*
X102387Y-63671D02*
X101909Y-63671D01*
X101909Y-51525D02*
X101830Y-51446D01*
X101830Y-51446D02*
X101830Y-50698D01*
X101830Y-50698D02*
X102027Y-50501D01*
X102027Y-50501D02*
X103366Y-50501D01*
X104212Y-51214D02*
X104212Y-50935D01*
X103681Y-50816D02*
X103366Y-50501D01*
X103681Y-51112D02*
X103681Y-50816D01*
X103852Y-51283D02*
X103681Y-51112D01*
X104143Y-51283D02*
X103852Y-51283D01*
X104212Y-51214D02*
X104143Y-51283D01*
X102387Y-51525D02*
X101909Y-51525D01*
X101909Y-39379D02*
X101830Y-39301D01*
X101830Y-39301D02*
X101830Y-38553D01*
X101830Y-38553D02*
X102027Y-38356D01*
X102027Y-38356D02*
X103366Y-38356D01*
X104212Y-39068D02*
X104212Y-38789D01*
X103681Y-38671D02*
X103366Y-38356D01*
X103681Y-38966D02*
X103681Y-38671D01*
X103852Y-39137D02*
X103681Y-38966D01*
X104143Y-39137D02*
X103852Y-39137D01*
X104212Y-39068D02*
X104143Y-39137D01*
X102387Y-39379D02*
X101909Y-39379D01*
X77500Y-60757D02*
X77677Y-60580D01*
X77500Y-61643D02*
X77500Y-61387D01*
X77598Y-61742D02*
X77500Y-61643D01*
X77814Y-61742D02*
X77598Y-61742D01*
X77952Y-61879D02*
X77814Y-61742D01*
X77952Y-62037D02*
X77952Y-61879D01*
X78051Y-62135D02*
X77952Y-62037D01*
X78522Y-62135D02*
X78051Y-62135D01*
X77677Y-60978D02*
X77677Y-60580D01*
X77500Y-61155D02*
X77677Y-60978D01*
X77500Y-61387D02*
X77500Y-61155D01*
X77500Y-48611D02*
X77677Y-48435D01*
X77500Y-49498D02*
X77500Y-49242D01*
X77598Y-49596D02*
X77500Y-49498D01*
X77814Y-49596D02*
X77598Y-49596D01*
X77952Y-49734D02*
X77814Y-49596D01*
X77952Y-49891D02*
X77952Y-49734D01*
X78051Y-49990D02*
X77952Y-49891D01*
X78522Y-49990D02*
X78051Y-49990D01*
X77677Y-48832D02*
X77677Y-48435D01*
X77500Y-49009D02*
X77677Y-48832D01*
X77500Y-49242D02*
X77500Y-49009D01*
X77500Y-36465D02*
X77677Y-36289D01*
X77500Y-37352D02*
X77500Y-37096D01*
X77598Y-37450D02*
X77500Y-37352D01*
X77814Y-37450D02*
X77598Y-37450D01*
X77952Y-37588D02*
X77814Y-37450D01*
X77952Y-37746D02*
X77952Y-37588D01*
X78051Y-37844D02*
X77952Y-37746D01*
X78522Y-37844D02*
X78051Y-37844D01*
X77677Y-36686D02*
X77677Y-36289D01*
X77500Y-36864D02*
X77677Y-36686D01*
X77500Y-37096D02*
X77500Y-36864D01*
X81909Y-37096D02*
X81909Y-36864D01*
X81909Y-36864D02*
X82086Y-36686D01*
X82086Y-36686D02*
X82086Y-36289D01*
X82932Y-37844D02*
X82460Y-37844D01*
X82460Y-37844D02*
X82362Y-37746D01*
X82362Y-37746D02*
X82362Y-37588D01*
X82362Y-37588D02*
X82224Y-37450D01*
X82224Y-37450D02*
X82007Y-37450D01*
X82007Y-37450D02*
X81909Y-37352D01*
X81909Y-37352D02*
X81909Y-37096D01*
X81910Y-36465D02*
X82086Y-36289D01*
X81909Y-49242D02*
X81909Y-49009D01*
X81909Y-49009D02*
X82086Y-48832D01*
X82086Y-48832D02*
X82086Y-48435D01*
X82932Y-49990D02*
X82460Y-49990D01*
X82460Y-49990D02*
X82362Y-49891D01*
X82362Y-49891D02*
X82362Y-49734D01*
X82362Y-49734D02*
X82224Y-49596D01*
X82224Y-49596D02*
X82007Y-49596D01*
X82007Y-49596D02*
X81909Y-49498D01*
X81909Y-49498D02*
X81909Y-49242D01*
X81910Y-48611D02*
X82086Y-48435D01*
X81909Y-61387D02*
X81909Y-61155D01*
X81909Y-61155D02*
X82086Y-60978D01*
X82086Y-60978D02*
X82086Y-60580D01*
X82932Y-62135D02*
X82460Y-62135D01*
X82460Y-62135D02*
X82362Y-62037D01*
X82362Y-62037D02*
X82362Y-61879D01*
X82362Y-61879D02*
X82224Y-61742D01*
X82224Y-61742D02*
X82007Y-61742D01*
X82007Y-61742D02*
X81909Y-61643D01*
X81909Y-61643D02*
X81909Y-61387D01*
X81910Y-60757D02*
X82086Y-60580D01*
X86319Y-60757D02*
X86496Y-60580D01*
X86318Y-61643D02*
X86318Y-61387D01*
X86417Y-61742D02*
X86318Y-61643D01*
X86633Y-61742D02*
X86417Y-61742D01*
X86771Y-61879D02*
X86633Y-61742D01*
X86771Y-62037D02*
X86771Y-61879D01*
X86870Y-62135D02*
X86771Y-62037D01*
X87341Y-62135D02*
X86870Y-62135D01*
X86496Y-60978D02*
X86496Y-60580D01*
X86318Y-61155D02*
X86496Y-60978D01*
X86318Y-61387D02*
X86318Y-61155D01*
X86319Y-48611D02*
X86496Y-48435D01*
X86318Y-49498D02*
X86318Y-49242D01*
X86417Y-49596D02*
X86318Y-49498D01*
X86633Y-49596D02*
X86417Y-49596D01*
X86771Y-49734D02*
X86633Y-49596D01*
X86771Y-49891D02*
X86771Y-49734D01*
X86870Y-49990D02*
X86771Y-49891D01*
X87341Y-49990D02*
X86870Y-49990D01*
X86496Y-48832D02*
X86496Y-48435D01*
X86318Y-49009D02*
X86496Y-48832D01*
X86318Y-49242D02*
X86318Y-49009D01*
X86319Y-36465D02*
X86496Y-36289D01*
X86318Y-37352D02*
X86318Y-37096D01*
X86417Y-37450D02*
X86318Y-37352D01*
X86633Y-37450D02*
X86417Y-37450D01*
X86771Y-37588D02*
X86633Y-37450D01*
X86771Y-37746D02*
X86771Y-37588D01*
X86870Y-37844D02*
X86771Y-37746D01*
X87341Y-37844D02*
X86870Y-37844D01*
X86496Y-36686D02*
X86496Y-36289D01*
X86318Y-36864D02*
X86496Y-36686D01*
X86318Y-37096D02*
X86318Y-36864D01*
X95137Y-37096D02*
X95137Y-36864D01*
X95137Y-36864D02*
X95314Y-36686D01*
X95314Y-36686D02*
X95314Y-36289D01*
X96160Y-37844D02*
X95688Y-37844D01*
X95688Y-37844D02*
X95590Y-37746D01*
X95590Y-37746D02*
X95590Y-37588D01*
X95590Y-37588D02*
X95452Y-37450D01*
X95452Y-37450D02*
X95236Y-37450D01*
X95236Y-37450D02*
X95137Y-37352D01*
X95137Y-37352D02*
X95137Y-37096D01*
X95138Y-36465D02*
X95314Y-36289D01*
X95137Y-49242D02*
X95137Y-49009D01*
X95137Y-49009D02*
X95314Y-48832D01*
X95314Y-48832D02*
X95314Y-48435D01*
X96160Y-49990D02*
X95688Y-49990D01*
X95688Y-49990D02*
X95590Y-49891D01*
X95590Y-49891D02*
X95590Y-49734D01*
X95590Y-49734D02*
X95452Y-49596D01*
X95452Y-49596D02*
X95236Y-49596D01*
X95236Y-49596D02*
X95137Y-49498D01*
X95137Y-49498D02*
X95137Y-49242D01*
X95138Y-48611D02*
X95314Y-48435D01*
X95137Y-61387D02*
X95137Y-61155D01*
X95137Y-61155D02*
X95314Y-60978D01*
X95314Y-60978D02*
X95314Y-60580D01*
X96160Y-62135D02*
X95688Y-62135D01*
X95688Y-62135D02*
X95590Y-62037D01*
X95590Y-62037D02*
X95590Y-61879D01*
X95590Y-61879D02*
X95452Y-61742D01*
X95452Y-61742D02*
X95236Y-61742D01*
X95236Y-61742D02*
X95137Y-61643D01*
X95137Y-61643D02*
X95137Y-61387D01*
X95138Y-60757D02*
X95314Y-60580D01*
X90729Y-60757D02*
X90905Y-60580D01*
X90728Y-61643D02*
X90728Y-61387D01*
X90826Y-61742D02*
X90728Y-61643D01*
X91043Y-61742D02*
X90826Y-61742D01*
X91181Y-61879D02*
X91043Y-61742D01*
X91181Y-62037D02*
X91181Y-61879D01*
X91279Y-62135D02*
X91181Y-62037D01*
X91751Y-62135D02*
X91279Y-62135D01*
X90905Y-60978D02*
X90905Y-60580D01*
X90728Y-61155D02*
X90905Y-60978D01*
X90728Y-61387D02*
X90728Y-61155D01*
X90729Y-48611D02*
X90905Y-48435D01*
X90728Y-49498D02*
X90728Y-49242D01*
X90826Y-49596D02*
X90728Y-49498D01*
X91043Y-49596D02*
X90826Y-49596D01*
X91181Y-49734D02*
X91043Y-49596D01*
X91181Y-49891D02*
X91181Y-49734D01*
X91279Y-49990D02*
X91181Y-49891D01*
X91751Y-49990D02*
X91279Y-49990D01*
X90905Y-48832D02*
X90905Y-48435D01*
X90728Y-49009D02*
X90905Y-48832D01*
X90728Y-49242D02*
X90728Y-49009D01*
X90729Y-36465D02*
X90905Y-36289D01*
X90728Y-37352D02*
X90728Y-37096D01*
X90826Y-37450D02*
X90728Y-37352D01*
X91043Y-37450D02*
X90826Y-37450D01*
X91181Y-37588D02*
X91043Y-37450D01*
X91181Y-37746D02*
X91181Y-37588D01*
X91279Y-37844D02*
X91181Y-37746D01*
X91751Y-37844D02*
X91279Y-37844D01*
X90905Y-36686D02*
X90905Y-36289D01*
X90728Y-36864D02*
X90905Y-36686D01*
X90728Y-37096D02*
X90728Y-36864D01*
X99547Y-37096D02*
X99547Y-36864D01*
X99547Y-36864D02*
X99724Y-36686D01*
X99724Y-36686D02*
X99724Y-36289D01*
X100570Y-37844D02*
X100098Y-37844D01*
X100098Y-37844D02*
X100000Y-37746D01*
X100000Y-37746D02*
X100000Y-37588D01*
X100000Y-37588D02*
X99862Y-37450D01*
X99862Y-37450D02*
X99645Y-37450D01*
X99645Y-37450D02*
X99547Y-37352D01*
X99547Y-37352D02*
X99547Y-37096D01*
X99548Y-36465D02*
X99724Y-36289D01*
X99547Y-49242D02*
X99547Y-49009D01*
X99547Y-49009D02*
X99724Y-48832D01*
X99724Y-48832D02*
X99724Y-48435D01*
X100570Y-49990D02*
X100098Y-49990D01*
X100098Y-49990D02*
X100000Y-49891D01*
X100000Y-49891D02*
X100000Y-49734D01*
X100000Y-49734D02*
X99862Y-49596D01*
X99862Y-49596D02*
X99645Y-49596D01*
X99645Y-49596D02*
X99547Y-49498D01*
X99547Y-49498D02*
X99547Y-49242D01*
X99548Y-48611D02*
X99724Y-48435D01*
X99547Y-61387D02*
X99547Y-61155D01*
X99547Y-61155D02*
X99724Y-60978D01*
X99724Y-60978D02*
X99724Y-60580D01*
X100570Y-62135D02*
X100098Y-62135D01*
X100098Y-62135D02*
X100000Y-62037D01*
X100000Y-62037D02*
X100000Y-61879D01*
X100000Y-61879D02*
X99862Y-61742D01*
X99862Y-61742D02*
X99645Y-61742D01*
X99645Y-61742D02*
X99547Y-61643D01*
X99547Y-61643D02*
X99547Y-61387D01*
X99548Y-60757D02*
X99724Y-60580D01*
X103957Y-60757D02*
X104133Y-60580D01*
X103956Y-61643D02*
X103956Y-61387D01*
X104055Y-61742D02*
X103956Y-61643D01*
X104271Y-61742D02*
X104055Y-61742D01*
X104409Y-61879D02*
X104271Y-61742D01*
X104409Y-62037D02*
X104409Y-61879D01*
X104507Y-62135D02*
X104409Y-62037D01*
X104979Y-62135D02*
X104507Y-62135D01*
X104133Y-60978D02*
X104133Y-60580D01*
X103956Y-61155D02*
X104133Y-60978D01*
X103956Y-61387D02*
X103956Y-61155D01*
X103957Y-48611D02*
X104133Y-48435D01*
X103956Y-49498D02*
X103956Y-49242D01*
X104055Y-49596D02*
X103956Y-49498D01*
X104271Y-49596D02*
X104055Y-49596D01*
X104409Y-49734D02*
X104271Y-49596D01*
X104409Y-49891D02*
X104409Y-49734D01*
X104507Y-49990D02*
X104409Y-49891D01*
X104979Y-49990D02*
X104507Y-49990D01*
X104133Y-48832D02*
X104133Y-48435D01*
X103956Y-49009D02*
X104133Y-48832D01*
X103956Y-49242D02*
X103956Y-49009D01*
X103957Y-36465D02*
X104133Y-36289D01*
X103956Y-37352D02*
X103956Y-37096D01*
X104055Y-37450D02*
X103956Y-37352D01*
X104271Y-37450D02*
X104055Y-37450D01*
X104409Y-37588D02*
X104271Y-37450D01*
X104409Y-37746D02*
X104409Y-37588D01*
X104507Y-37844D02*
X104409Y-37746D01*
X104979Y-37844D02*
X104507Y-37844D01*
X104133Y-36686D02*
X104133Y-36289D01*
X103956Y-36864D02*
X104133Y-36686D01*
X103956Y-37096D02*
X103956Y-36864D01*
G54D28*
X76586Y-68541D02*
X76673Y-68454D01*
X76673Y-68454D02*
X77086Y-68454D01*
X76586Y-69675D02*
X76586Y-68541D01*
X76586Y-56395D02*
X76673Y-56309D01*
X76673Y-56309D02*
X77086Y-56309D01*
X76586Y-57529D02*
X76586Y-56395D01*
X76586Y-44250D02*
X76673Y-44163D01*
X76673Y-44163D02*
X77086Y-44163D01*
X76586Y-45383D02*
X76586Y-44250D01*
X80996Y-45383D02*
X80996Y-44250D01*
X81082Y-44163D02*
X81496Y-44163D01*
X80996Y-44250D02*
X81082Y-44163D01*
X80996Y-57529D02*
X80996Y-56395D01*
X81082Y-56309D02*
X81496Y-56309D01*
X80996Y-56395D02*
X81082Y-56309D01*
X80996Y-69675D02*
X80996Y-68541D01*
X81082Y-68454D02*
X81496Y-68454D01*
X80996Y-68541D02*
X81082Y-68454D01*
X85405Y-68541D02*
X85492Y-68454D01*
X85492Y-68454D02*
X85905Y-68454D01*
X85405Y-69675D02*
X85405Y-68541D01*
X85405Y-56395D02*
X85492Y-56309D01*
X85492Y-56309D02*
X85905Y-56309D01*
X85405Y-57529D02*
X85405Y-56395D01*
X85405Y-44250D02*
X85492Y-44163D01*
X85492Y-44163D02*
X85905Y-44163D01*
X85405Y-45383D02*
X85405Y-44250D01*
X94224Y-45383D02*
X94224Y-44250D01*
X94311Y-44163D02*
X94724Y-44163D01*
X94224Y-44250D02*
X94311Y-44163D01*
X94224Y-57529D02*
X94224Y-56395D01*
X94311Y-56309D02*
X94724Y-56309D01*
X94224Y-56395D02*
X94311Y-56309D01*
X94224Y-69675D02*
X94224Y-68541D01*
X94311Y-68454D02*
X94724Y-68454D01*
X94224Y-68541D02*
X94311Y-68454D01*
X89814Y-68541D02*
X89901Y-68454D01*
X89901Y-68454D02*
X90314Y-68454D01*
X89814Y-69675D02*
X89814Y-68541D01*
X89814Y-56395D02*
X89901Y-56309D01*
X89901Y-56309D02*
X90314Y-56309D01*
X89814Y-57529D02*
X89814Y-56395D01*
X89814Y-44250D02*
X89901Y-44163D01*
X89901Y-44163D02*
X90314Y-44163D01*
X89814Y-45383D02*
X89814Y-44250D01*
X98633Y-45383D02*
X98633Y-44250D01*
X98720Y-44163D02*
X99133Y-44163D01*
X98633Y-44250D02*
X98720Y-44163D01*
X98633Y-57529D02*
X98633Y-56395D01*
X98720Y-56309D02*
X99133Y-56309D01*
X98633Y-56395D02*
X98720Y-56309D01*
X98633Y-69675D02*
X98633Y-68541D01*
X98720Y-68454D02*
X99133Y-68454D01*
X98633Y-68541D02*
X98720Y-68454D01*
X103043Y-68541D02*
X103129Y-68454D01*
X103129Y-68454D02*
X103543Y-68454D01*
X103043Y-69675D02*
X103043Y-68541D01*
X103043Y-56395D02*
X103129Y-56309D01*
X103129Y-56309D02*
X103543Y-56309D01*
X103043Y-57529D02*
X103043Y-56395D01*
X103043Y-44250D02*
X103129Y-44163D01*
X103129Y-44163D02*
X103543Y-44163D01*
X103043Y-45383D02*
X103043Y-44250D01*
G54D29*
X75688Y-61210D02*
X75708Y-61190D01*
X75708Y-61190D02*
X75728Y-61190D01*
G54D27*
X76673Y-60514D02*
X76673Y-61190D01*
X75688Y-61190D02*
X76673Y-61190D01*
G54D29*
X75669Y-61171D02*
X75688Y-61190D01*
X75688Y-61190D02*
X75688Y-61190D01*
G54D27*
X76940Y-64171D02*
X77228Y-63883D01*
X77228Y-63883D02*
X78303Y-63883D01*
X78303Y-63883D02*
X78346Y-63927D01*
X78346Y-63927D02*
X78346Y-64261D01*
X76431Y-64171D02*
X76940Y-64171D01*
X75944Y-65235D02*
X75944Y-65688D01*
X78317Y-65659D02*
X78317Y-65235D01*
X76102Y-65846D02*
X75944Y-65688D01*
X78129Y-65846D02*
X76102Y-65846D01*
X78317Y-65659D02*
X78129Y-65846D01*
X75688Y-61190D02*
X75688Y-61171D01*
G54D29*
X75688Y-49064D02*
X75708Y-49045D01*
X75708Y-49045D02*
X75728Y-49045D01*
G54D27*
X76673Y-48368D02*
X76673Y-49045D01*
X75688Y-49045D02*
X76673Y-49045D01*
G54D29*
X75669Y-49025D02*
X75688Y-49045D01*
X75688Y-49045D02*
X75688Y-49045D01*
G54D27*
X76940Y-52025D02*
X77228Y-51738D01*
X77228Y-51738D02*
X78303Y-51738D01*
X78303Y-51738D02*
X78346Y-51781D01*
X78346Y-51781D02*
X78346Y-52116D01*
X76431Y-52025D02*
X76940Y-52025D01*
X75944Y-53090D02*
X75944Y-53543D01*
X78317Y-53513D02*
X78317Y-53090D01*
X76102Y-53700D02*
X75944Y-53543D01*
X78129Y-53700D02*
X76102Y-53700D01*
X78317Y-53513D02*
X78129Y-53700D01*
X75688Y-49045D02*
X75688Y-49025D01*
G54D29*
X75688Y-36919D02*
X75708Y-36899D01*
X75708Y-36899D02*
X75728Y-36899D01*
G54D27*
X76673Y-36222D02*
X76673Y-36899D01*
X75688Y-36899D02*
X76673Y-36899D01*
G54D29*
X75669Y-36879D02*
X75688Y-36899D01*
X75688Y-36899D02*
X75688Y-36899D01*
G54D27*
X76940Y-39879D02*
X77228Y-39592D01*
X77228Y-39592D02*
X78303Y-39592D01*
X78303Y-39592D02*
X78346Y-39635D01*
X78346Y-39635D02*
X78346Y-39970D01*
X76431Y-39879D02*
X76940Y-39879D01*
X75944Y-40944D02*
X75944Y-41397D01*
X78317Y-41367D02*
X78317Y-40944D01*
X76102Y-41555D02*
X75944Y-41397D01*
X78129Y-41555D02*
X76102Y-41555D01*
X78317Y-41367D02*
X78129Y-41555D01*
X75688Y-36899D02*
X75688Y-36879D01*
X80098Y-36899D02*
X80098Y-36879D01*
X82726Y-41367D02*
X82539Y-41555D01*
X82539Y-41555D02*
X80511Y-41555D01*
X80511Y-41555D02*
X80354Y-41397D01*
X82726Y-41367D02*
X82726Y-40944D01*
X80354Y-40944D02*
X80354Y-41397D01*
X80840Y-39879D02*
X81350Y-39879D01*
X82755Y-39635D02*
X82755Y-39970D01*
X82712Y-39592D02*
X82755Y-39635D01*
X81637Y-39592D02*
X82712Y-39592D01*
X81350Y-39879D02*
X81637Y-39592D01*
G54D29*
X80098Y-36899D02*
X80098Y-36899D01*
X80078Y-36879D02*
X80098Y-36899D01*
G54D27*
X80098Y-36899D02*
X81082Y-36899D01*
X81082Y-36222D02*
X81082Y-36899D01*
G54D29*
X80118Y-36899D02*
X80137Y-36899D01*
X80098Y-36919D02*
X80118Y-36899D01*
G54D27*
X80098Y-49045D02*
X80098Y-49025D01*
X82726Y-53513D02*
X82539Y-53700D01*
X82539Y-53700D02*
X80511Y-53700D01*
X80511Y-53700D02*
X80354Y-53543D01*
X82726Y-53513D02*
X82726Y-53090D01*
X80354Y-53090D02*
X80354Y-53543D01*
X80840Y-52025D02*
X81350Y-52025D01*
X82755Y-51781D02*
X82755Y-52116D01*
X82712Y-51738D02*
X82755Y-51781D01*
X81637Y-51738D02*
X82712Y-51738D01*
X81350Y-52025D02*
X81637Y-51738D01*
G54D29*
X80098Y-49045D02*
X80098Y-49045D01*
X80078Y-49025D02*
X80098Y-49045D01*
G54D27*
X80098Y-49045D02*
X81082Y-49045D01*
X81082Y-48368D02*
X81082Y-49045D01*
G54D29*
X80118Y-49045D02*
X80137Y-49045D01*
X80098Y-49064D02*
X80118Y-49045D01*
G54D27*
X80098Y-61190D02*
X80098Y-61171D01*
X82726Y-65659D02*
X82539Y-65846D01*
X82539Y-65846D02*
X80511Y-65846D01*
X80511Y-65846D02*
X80354Y-65688D01*
X82726Y-65659D02*
X82726Y-65235D01*
X80354Y-65235D02*
X80354Y-65688D01*
X80840Y-64171D02*
X81350Y-64171D01*
X82755Y-63927D02*
X82755Y-64261D01*
X82712Y-63883D02*
X82755Y-63927D01*
X81637Y-63883D02*
X82712Y-63883D01*
X81350Y-64171D02*
X81637Y-63883D01*
G54D29*
X80098Y-61190D02*
X80098Y-61190D01*
X80078Y-61171D02*
X80098Y-61190D01*
G54D27*
X80098Y-61190D02*
X81082Y-61190D01*
X81082Y-60514D02*
X81082Y-61190D01*
G54D29*
X80118Y-61190D02*
X80137Y-61190D01*
X80098Y-61210D02*
X80118Y-61190D01*
X84507Y-61210D02*
X84527Y-61190D01*
X84527Y-61190D02*
X84547Y-61190D01*
G54D27*
X85492Y-60514D02*
X85492Y-61190D01*
X84507Y-61190D02*
X85492Y-61190D01*
G54D29*
X84488Y-61171D02*
X84507Y-61190D01*
X84507Y-61190D02*
X84507Y-61190D01*
G54D27*
X85759Y-64171D02*
X86047Y-63883D01*
X86047Y-63883D02*
X87122Y-63883D01*
X87122Y-63883D02*
X87165Y-63927D01*
X87165Y-63927D02*
X87165Y-64261D01*
X85250Y-64171D02*
X85759Y-64171D01*
X84763Y-65235D02*
X84763Y-65688D01*
X87136Y-65659D02*
X87136Y-65235D01*
X84921Y-65846D02*
X84763Y-65688D01*
X86948Y-65846D02*
X84921Y-65846D01*
X87136Y-65659D02*
X86948Y-65846D01*
X84507Y-61190D02*
X84507Y-61171D01*
G54D29*
X84507Y-49064D02*
X84527Y-49045D01*
X84527Y-49045D02*
X84547Y-49045D01*
G54D27*
X85492Y-48368D02*
X85492Y-49045D01*
X84507Y-49045D02*
X85492Y-49045D01*
G54D29*
X84488Y-49025D02*
X84507Y-49045D01*
X84507Y-49045D02*
X84507Y-49045D01*
G54D27*
X85759Y-52025D02*
X86047Y-51738D01*
X86047Y-51738D02*
X87122Y-51738D01*
X87122Y-51738D02*
X87165Y-51781D01*
X87165Y-51781D02*
X87165Y-52116D01*
X85250Y-52025D02*
X85759Y-52025D01*
X84763Y-53090D02*
X84763Y-53543D01*
X87136Y-53513D02*
X87136Y-53090D01*
X84921Y-53700D02*
X84763Y-53543D01*
X86948Y-53700D02*
X84921Y-53700D01*
X87136Y-53513D02*
X86948Y-53700D01*
X84507Y-49045D02*
X84507Y-49025D01*
G54D29*
X84507Y-36919D02*
X84527Y-36899D01*
X84527Y-36899D02*
X84547Y-36899D01*
G54D27*
X85492Y-36222D02*
X85492Y-36899D01*
X84507Y-36899D02*
X85492Y-36899D01*
G54D29*
X84488Y-36879D02*
X84507Y-36899D01*
X84507Y-36899D02*
X84507Y-36899D01*
G54D27*
X85759Y-39879D02*
X86047Y-39592D01*
X86047Y-39592D02*
X87122Y-39592D01*
X87122Y-39592D02*
X87165Y-39635D01*
X87165Y-39635D02*
X87165Y-39970D01*
X85250Y-39879D02*
X85759Y-39879D01*
X84763Y-40944D02*
X84763Y-41397D01*
X87136Y-41367D02*
X87136Y-40944D01*
X84921Y-41555D02*
X84763Y-41397D01*
X86948Y-41555D02*
X84921Y-41555D01*
X87136Y-41367D02*
X86948Y-41555D01*
X84507Y-36899D02*
X84507Y-36879D01*
X93326Y-36899D02*
X93326Y-36879D01*
X95955Y-41367D02*
X95767Y-41555D01*
X95767Y-41555D02*
X93740Y-41555D01*
X93740Y-41555D02*
X93582Y-41397D01*
X95955Y-41367D02*
X95955Y-40944D01*
X93582Y-40944D02*
X93582Y-41397D01*
X94068Y-39879D02*
X94578Y-39879D01*
X95984Y-39635D02*
X95984Y-39970D01*
X95940Y-39592D02*
X95984Y-39635D01*
X94866Y-39592D02*
X95940Y-39592D01*
X94578Y-39879D02*
X94866Y-39592D01*
G54D29*
X93326Y-36899D02*
X93326Y-36899D01*
X93307Y-36879D02*
X93326Y-36899D01*
G54D27*
X93326Y-36899D02*
X94311Y-36899D01*
X94311Y-36222D02*
X94311Y-36899D01*
G54D29*
X93346Y-36899D02*
X93366Y-36899D01*
X93326Y-36919D02*
X93346Y-36899D01*
G54D27*
X93326Y-49045D02*
X93326Y-49025D01*
X95955Y-53513D02*
X95767Y-53700D01*
X95767Y-53700D02*
X93740Y-53700D01*
X93740Y-53700D02*
X93582Y-53543D01*
X95955Y-53513D02*
X95955Y-53090D01*
X93582Y-53090D02*
X93582Y-53543D01*
X94068Y-52025D02*
X94578Y-52025D01*
X95984Y-51781D02*
X95984Y-52116D01*
X95940Y-51738D02*
X95984Y-51781D01*
X94866Y-51738D02*
X95940Y-51738D01*
X94578Y-52025D02*
X94866Y-51738D01*
G54D29*
X93326Y-49045D02*
X93326Y-49045D01*
X93307Y-49025D02*
X93326Y-49045D01*
G54D27*
X93326Y-49045D02*
X94311Y-49045D01*
X94311Y-48368D02*
X94311Y-49045D01*
G54D29*
X93346Y-49045D02*
X93366Y-49045D01*
X93326Y-49064D02*
X93346Y-49045D01*
G54D27*
X93326Y-61190D02*
X93326Y-61171D01*
X95955Y-65659D02*
X95767Y-65846D01*
X95767Y-65846D02*
X93740Y-65846D01*
X93740Y-65846D02*
X93582Y-65688D01*
X95955Y-65659D02*
X95955Y-65235D01*
X93582Y-65235D02*
X93582Y-65688D01*
X94068Y-64171D02*
X94578Y-64171D01*
X95984Y-63927D02*
X95984Y-64261D01*
X95940Y-63883D02*
X95984Y-63927D01*
X94866Y-63883D02*
X95940Y-63883D01*
X94578Y-64171D02*
X94866Y-63883D01*
G54D29*
X93326Y-61190D02*
X93326Y-61190D01*
X93307Y-61171D02*
X93326Y-61190D01*
G54D27*
X93326Y-61190D02*
X94311Y-61190D01*
X94311Y-60514D02*
X94311Y-61190D01*
G54D29*
X93346Y-61190D02*
X93366Y-61190D01*
X93326Y-61210D02*
X93346Y-61190D01*
X88917Y-61210D02*
X88936Y-61190D01*
X88936Y-61190D02*
X88956Y-61190D01*
G54D27*
X89901Y-60514D02*
X89901Y-61190D01*
X88917Y-61190D02*
X89901Y-61190D01*
G54D29*
X88897Y-61171D02*
X88917Y-61190D01*
X88917Y-61190D02*
X88917Y-61190D01*
G54D27*
X90169Y-64171D02*
X90456Y-63883D01*
X90456Y-63883D02*
X91531Y-63883D01*
X91531Y-63883D02*
X91574Y-63927D01*
X91574Y-63927D02*
X91574Y-64261D01*
X89659Y-64171D02*
X90169Y-64171D01*
X89172Y-65235D02*
X89172Y-65688D01*
X91545Y-65659D02*
X91545Y-65235D01*
X89330Y-65846D02*
X89172Y-65688D01*
X91358Y-65846D02*
X89330Y-65846D01*
X91545Y-65659D02*
X91358Y-65846D01*
X88917Y-61190D02*
X88917Y-61171D01*
G54D29*
X88917Y-49064D02*
X88936Y-49045D01*
X88936Y-49045D02*
X88956Y-49045D01*
G54D27*
X89901Y-48368D02*
X89901Y-49045D01*
X88917Y-49045D02*
X89901Y-49045D01*
G54D29*
X88897Y-49025D02*
X88917Y-49045D01*
X88917Y-49045D02*
X88917Y-49045D01*
G54D27*
X90169Y-52025D02*
X90456Y-51738D01*
X90456Y-51738D02*
X91531Y-51738D01*
X91531Y-51738D02*
X91574Y-51781D01*
X91574Y-51781D02*
X91574Y-52116D01*
X89659Y-52025D02*
X90169Y-52025D01*
X89172Y-53090D02*
X89172Y-53543D01*
X91545Y-53513D02*
X91545Y-53090D01*
X89330Y-53700D02*
X89172Y-53543D01*
X91358Y-53700D02*
X89330Y-53700D01*
X91545Y-53513D02*
X91358Y-53700D01*
X88917Y-49045D02*
X88917Y-49025D01*
G54D29*
X88917Y-36919D02*
X88936Y-36899D01*
X88936Y-36899D02*
X88956Y-36899D01*
G54D27*
X89901Y-36222D02*
X89901Y-36899D01*
X88917Y-36899D02*
X89901Y-36899D01*
G54D29*
X88897Y-36879D02*
X88917Y-36899D01*
X88917Y-36899D02*
X88917Y-36899D01*
G54D27*
X90169Y-39879D02*
X90456Y-39592D01*
X90456Y-39592D02*
X91531Y-39592D01*
X91531Y-39592D02*
X91574Y-39635D01*
X91574Y-39635D02*
X91574Y-39970D01*
X89659Y-39879D02*
X90169Y-39879D01*
X89172Y-40944D02*
X89172Y-41397D01*
X91545Y-41367D02*
X91545Y-40944D01*
X89330Y-41555D02*
X89172Y-41397D01*
X91358Y-41555D02*
X89330Y-41555D01*
X91545Y-41367D02*
X91358Y-41555D01*
X88917Y-36899D02*
X88917Y-36879D01*
X97736Y-36899D02*
X97736Y-36879D01*
X100364Y-41367D02*
X100177Y-41555D01*
X100177Y-41555D02*
X98149Y-41555D01*
X98149Y-41555D02*
X97991Y-41397D01*
X100364Y-41367D02*
X100364Y-40944D01*
X97991Y-40944D02*
X97991Y-41397D01*
X98478Y-39879D02*
X98988Y-39879D01*
X100393Y-39635D02*
X100393Y-39970D01*
X100350Y-39592D02*
X100393Y-39635D01*
X99275Y-39592D02*
X100350Y-39592D01*
X98988Y-39879D02*
X99275Y-39592D01*
G54D29*
X97736Y-36899D02*
X97736Y-36899D01*
X97716Y-36879D02*
X97736Y-36899D01*
G54D27*
X97736Y-36899D02*
X98720Y-36899D01*
X98720Y-36222D02*
X98720Y-36899D01*
G54D29*
X97755Y-36899D02*
X97775Y-36899D01*
X97736Y-36919D02*
X97755Y-36899D01*
G54D27*
X97736Y-49045D02*
X97736Y-49025D01*
X100364Y-53513D02*
X100177Y-53700D01*
X100177Y-53700D02*
X98149Y-53700D01*
X98149Y-53700D02*
X97991Y-53543D01*
X100364Y-53513D02*
X100364Y-53090D01*
X97991Y-53090D02*
X97991Y-53543D01*
X98478Y-52025D02*
X98988Y-52025D01*
X100393Y-51781D02*
X100393Y-52116D01*
X100350Y-51738D02*
X100393Y-51781D01*
X99275Y-51738D02*
X100350Y-51738D01*
X98988Y-52025D02*
X99275Y-51738D01*
G54D29*
X97736Y-49045D02*
X97736Y-49045D01*
X97716Y-49025D02*
X97736Y-49045D01*
G54D27*
X97736Y-49045D02*
X98720Y-49045D01*
X98720Y-48368D02*
X98720Y-49045D01*
G54D29*
X97755Y-49045D02*
X97775Y-49045D01*
X97736Y-49064D02*
X97755Y-49045D01*
G54D27*
X97736Y-61190D02*
X97736Y-61171D01*
X100364Y-65659D02*
X100177Y-65846D01*
X100177Y-65846D02*
X98149Y-65846D01*
X98149Y-65846D02*
X97991Y-65688D01*
X100364Y-65659D02*
X100364Y-65235D01*
X97991Y-65235D02*
X97991Y-65688D01*
X98478Y-64171D02*
X98988Y-64171D01*
X100393Y-63927D02*
X100393Y-64261D01*
X100350Y-63883D02*
X100393Y-63927D01*
X99275Y-63883D02*
X100350Y-63883D01*
X98988Y-64171D02*
X99275Y-63883D01*
G54D29*
X97736Y-61190D02*
X97736Y-61190D01*
X97716Y-61171D02*
X97736Y-61190D01*
G54D27*
X97736Y-61190D02*
X98720Y-61190D01*
X98720Y-60514D02*
X98720Y-61190D01*
G54D29*
X97755Y-61190D02*
X97775Y-61190D01*
X97736Y-61210D02*
X97755Y-61190D01*
X102145Y-61210D02*
X102165Y-61190D01*
X102165Y-61190D02*
X102185Y-61190D01*
G54D27*
X103129Y-60514D02*
X103129Y-61190D01*
X102145Y-61190D02*
X103129Y-61190D01*
G54D29*
X102125Y-61171D02*
X102145Y-61190D01*
X102145Y-61190D02*
X102145Y-61190D01*
G54D27*
X103397Y-64171D02*
X103685Y-63883D01*
X103685Y-63883D02*
X104759Y-63883D01*
X104759Y-63883D02*
X104803Y-63927D01*
X104803Y-63927D02*
X104803Y-64261D01*
X102887Y-64171D02*
X103397Y-64171D01*
X102401Y-65235D02*
X102401Y-65688D01*
X104773Y-65659D02*
X104773Y-65235D01*
X102559Y-65846D02*
X102401Y-65688D01*
X104586Y-65846D02*
X102559Y-65846D01*
X104773Y-65659D02*
X104586Y-65846D01*
X102145Y-61190D02*
X102145Y-61171D01*
G54D29*
X102145Y-49064D02*
X102165Y-49045D01*
X102165Y-49045D02*
X102185Y-49045D01*
G54D27*
X103129Y-48368D02*
X103129Y-49045D01*
X102145Y-49045D02*
X103129Y-49045D01*
G54D29*
X102125Y-49025D02*
X102145Y-49045D01*
X102145Y-49045D02*
X102145Y-49045D01*
G54D27*
X103397Y-52025D02*
X103685Y-51738D01*
X103685Y-51738D02*
X104759Y-51738D01*
X104759Y-51738D02*
X104803Y-51781D01*
X104803Y-51781D02*
X104803Y-52116D01*
X102887Y-52025D02*
X103397Y-52025D01*
X102401Y-53090D02*
X102401Y-53543D01*
X104773Y-53513D02*
X104773Y-53090D01*
X102559Y-53700D02*
X102401Y-53543D01*
X104586Y-53700D02*
X102559Y-53700D01*
X104773Y-53513D02*
X104586Y-53700D01*
X102145Y-49045D02*
X102145Y-49025D01*
G54D29*
X102145Y-36919D02*
X102165Y-36899D01*
X102165Y-36899D02*
X102185Y-36899D01*
G54D27*
X103129Y-36222D02*
X103129Y-36899D01*
X102145Y-36899D02*
X103129Y-36899D01*
G54D29*
X102125Y-36879D02*
X102145Y-36899D01*
X102145Y-36899D02*
X102145Y-36899D01*
G54D27*
X103397Y-39879D02*
X103685Y-39592D01*
X103685Y-39592D02*
X104759Y-39592D01*
X104759Y-39592D02*
X104803Y-39635D01*
X104803Y-39635D02*
X104803Y-39970D01*
X102887Y-39879D02*
X103397Y-39879D01*
X102401Y-40944D02*
X102401Y-41397D01*
X104773Y-41367D02*
X104773Y-40944D01*
X102559Y-41555D02*
X102401Y-41397D01*
X104586Y-41555D02*
X102559Y-41555D01*
X104773Y-41367D02*
X104586Y-41555D01*
X102145Y-36899D02*
X102145Y-36879D01*
X76673Y-59446D02*
X76586Y-59360D01*
X76673Y-60214D02*
X76673Y-59446D01*
X75708Y-67727D02*
X76574Y-67727D01*
X76574Y-67727D02*
X76712Y-67588D01*
X78149Y-61761D02*
X78051Y-61663D01*
X78051Y-61663D02*
X78051Y-61151D01*
X78051Y-61151D02*
X78149Y-61053D01*
X78149Y-61053D02*
X78350Y-61053D01*
X78350Y-61053D02*
X78425Y-60978D01*
X78425Y-60978D02*
X78425Y-60580D01*
X78523Y-61761D02*
X78149Y-61761D01*
X77106Y-60214D02*
X77251Y-60068D01*
X77251Y-60068D02*
X78318Y-60068D01*
X78425Y-60175D02*
X78425Y-60580D01*
X78425Y-60175D02*
X78318Y-60068D01*
X76673Y-60214D02*
X77106Y-60214D01*
X76712Y-67135D02*
X76417Y-67135D01*
X76673Y-67549D02*
X76712Y-67588D01*
X76417Y-67549D02*
X76673Y-67549D01*
X77007Y-67549D02*
X77007Y-67553D01*
X76712Y-67135D02*
X77007Y-67135D01*
X76673Y-47301D02*
X76586Y-47214D01*
X76673Y-48068D02*
X76673Y-47301D01*
X75708Y-55581D02*
X76574Y-55581D01*
X76574Y-55581D02*
X76712Y-55442D01*
X78149Y-49616D02*
X78051Y-49517D01*
X78051Y-49517D02*
X78051Y-49005D01*
X78051Y-49005D02*
X78149Y-48907D01*
X78149Y-48907D02*
X78350Y-48907D01*
X78350Y-48907D02*
X78425Y-48832D01*
X78425Y-48832D02*
X78425Y-48435D01*
X78523Y-49616D02*
X78149Y-49616D01*
X77106Y-48068D02*
X77251Y-47923D01*
X77251Y-47923D02*
X78318Y-47923D01*
X78425Y-48029D02*
X78425Y-48435D01*
X78425Y-48029D02*
X78318Y-47923D01*
X76673Y-48068D02*
X77106Y-48068D01*
X76712Y-54990D02*
X76417Y-54990D01*
X76673Y-55403D02*
X76712Y-55442D01*
X76417Y-55403D02*
X76673Y-55403D01*
X77007Y-55403D02*
X77007Y-55407D01*
X76712Y-54990D02*
X77007Y-54990D01*
X76673Y-35155D02*
X76586Y-35068D01*
X76673Y-35922D02*
X76673Y-35155D01*
X75708Y-43435D02*
X76574Y-43435D01*
X76574Y-43435D02*
X76712Y-43297D01*
X78149Y-37470D02*
X78051Y-37372D01*
X78051Y-37372D02*
X78051Y-36860D01*
X78051Y-36860D02*
X78149Y-36761D01*
X78149Y-36761D02*
X78350Y-36761D01*
X78350Y-36761D02*
X78425Y-36687D01*
X78425Y-36687D02*
X78425Y-36289D01*
X78523Y-37470D02*
X78149Y-37470D01*
X77106Y-35922D02*
X77251Y-35777D01*
X77251Y-35777D02*
X78318Y-35777D01*
X78425Y-35883D02*
X78425Y-36289D01*
X78425Y-35883D02*
X78318Y-35777D01*
X76673Y-35922D02*
X77106Y-35922D01*
X76712Y-42844D02*
X76417Y-42844D01*
X76673Y-43257D02*
X76712Y-43297D01*
X76417Y-43257D02*
X76673Y-43257D01*
X77007Y-43257D02*
X77007Y-43261D01*
X76712Y-42844D02*
X77007Y-42844D01*
X81122Y-42844D02*
X81417Y-42844D01*
X81417Y-43257D02*
X81417Y-43261D01*
X80826Y-43257D02*
X81082Y-43257D01*
X81082Y-43257D02*
X81122Y-43297D01*
X81122Y-42844D02*
X80826Y-42844D01*
X81082Y-35922D02*
X81516Y-35922D01*
X82834Y-35883D02*
X82728Y-35777D01*
X82834Y-35883D02*
X82834Y-36289D01*
X81661Y-35777D02*
X82728Y-35777D01*
X81516Y-35922D02*
X81661Y-35777D01*
X82933Y-37470D02*
X82559Y-37470D01*
X82834Y-36687D02*
X82834Y-36289D01*
X82759Y-36761D02*
X82834Y-36687D01*
X82559Y-36761D02*
X82759Y-36761D01*
X82460Y-36860D02*
X82559Y-36761D01*
X82460Y-37372D02*
X82460Y-36860D01*
X82559Y-37470D02*
X82460Y-37372D01*
X80983Y-43435D02*
X81122Y-43297D01*
X80118Y-43435D02*
X80983Y-43435D01*
X81082Y-35922D02*
X81082Y-35155D01*
X81082Y-35155D02*
X80996Y-35068D01*
X81122Y-54990D02*
X81417Y-54990D01*
X81417Y-55403D02*
X81417Y-55407D01*
X80826Y-55403D02*
X81082Y-55403D01*
X81082Y-55403D02*
X81122Y-55442D01*
X81122Y-54990D02*
X80826Y-54990D01*
X81082Y-48068D02*
X81516Y-48068D01*
X82834Y-48029D02*
X82728Y-47923D01*
X82834Y-48029D02*
X82834Y-48435D01*
X81661Y-47923D02*
X82728Y-47923D01*
X81516Y-48068D02*
X81661Y-47923D01*
X82933Y-49616D02*
X82559Y-49616D01*
X82834Y-48832D02*
X82834Y-48435D01*
X82759Y-48907D02*
X82834Y-48832D01*
X82559Y-48907D02*
X82759Y-48907D01*
X82460Y-49005D02*
X82559Y-48907D01*
X82460Y-49517D02*
X82460Y-49005D01*
X82559Y-49616D02*
X82460Y-49517D01*
X80983Y-55581D02*
X81122Y-55442D01*
X80118Y-55581D02*
X80983Y-55581D01*
X81082Y-48068D02*
X81082Y-47301D01*
X81082Y-47301D02*
X80996Y-47214D01*
X81122Y-67135D02*
X81417Y-67135D01*
X81417Y-67549D02*
X81417Y-67553D01*
X80826Y-67549D02*
X81082Y-67549D01*
X81082Y-67549D02*
X81122Y-67588D01*
X81122Y-67135D02*
X80826Y-67135D01*
X81082Y-60214D02*
X81516Y-60214D01*
X82834Y-60175D02*
X82728Y-60068D01*
X82834Y-60175D02*
X82834Y-60580D01*
X81661Y-60068D02*
X82728Y-60068D01*
X81516Y-60214D02*
X81661Y-60068D01*
X82933Y-61761D02*
X82559Y-61761D01*
X82834Y-60978D02*
X82834Y-60580D01*
X82759Y-61053D02*
X82834Y-60978D01*
X82559Y-61053D02*
X82759Y-61053D01*
X82460Y-61151D02*
X82559Y-61053D01*
X82460Y-61663D02*
X82460Y-61151D01*
X82559Y-61761D02*
X82460Y-61663D01*
X80983Y-67727D02*
X81122Y-67588D01*
X80118Y-67727D02*
X80983Y-67727D01*
X81082Y-60214D02*
X81082Y-59446D01*
X81082Y-59446D02*
X80996Y-59360D01*
X85492Y-59446D02*
X85405Y-59360D01*
X85492Y-60214D02*
X85492Y-59446D01*
X84527Y-67727D02*
X85393Y-67727D01*
X85393Y-67727D02*
X85531Y-67588D01*
X86968Y-61761D02*
X86870Y-61663D01*
X86870Y-61663D02*
X86870Y-61151D01*
X86870Y-61151D02*
X86968Y-61053D01*
X86968Y-61053D02*
X87169Y-61053D01*
X87169Y-61053D02*
X87244Y-60978D01*
X87244Y-60978D02*
X87244Y-60580D01*
X87342Y-61761D02*
X86968Y-61761D01*
X85925Y-60214D02*
X86070Y-60068D01*
X86070Y-60068D02*
X87137Y-60068D01*
X87244Y-60175D02*
X87244Y-60580D01*
X87244Y-60175D02*
X87137Y-60068D01*
X85492Y-60214D02*
X85925Y-60214D01*
X85531Y-67135D02*
X85236Y-67135D01*
X85492Y-67549D02*
X85531Y-67588D01*
X85236Y-67549D02*
X85492Y-67549D01*
X85826Y-67549D02*
X85826Y-67553D01*
X85531Y-67135D02*
X85826Y-67135D01*
X85492Y-47301D02*
X85405Y-47214D01*
X85492Y-48068D02*
X85492Y-47301D01*
X84527Y-55581D02*
X85393Y-55581D01*
X85393Y-55581D02*
X85531Y-55442D01*
X86968Y-49616D02*
X86870Y-49517D01*
X86870Y-49517D02*
X86870Y-49005D01*
X86870Y-49005D02*
X86968Y-48907D01*
X86968Y-48907D02*
X87169Y-48907D01*
X87169Y-48907D02*
X87244Y-48832D01*
X87244Y-48832D02*
X87244Y-48435D01*
X87342Y-49616D02*
X86968Y-49616D01*
X85925Y-48068D02*
X86070Y-47923D01*
X86070Y-47923D02*
X87137Y-47923D01*
X87244Y-48029D02*
X87244Y-48435D01*
X87244Y-48029D02*
X87137Y-47923D01*
X85492Y-48068D02*
X85925Y-48068D01*
X85531Y-54990D02*
X85236Y-54990D01*
X85492Y-55403D02*
X85531Y-55442D01*
X85236Y-55403D02*
X85492Y-55403D01*
X85826Y-55403D02*
X85826Y-55407D01*
X85531Y-54990D02*
X85826Y-54990D01*
X85492Y-35155D02*
X85405Y-35068D01*
X85492Y-35922D02*
X85492Y-35155D01*
X84527Y-43435D02*
X85393Y-43435D01*
X85393Y-43435D02*
X85531Y-43297D01*
X86968Y-37470D02*
X86870Y-37372D01*
X86870Y-37372D02*
X86870Y-36860D01*
X86870Y-36860D02*
X86968Y-36761D01*
X86968Y-36761D02*
X87169Y-36761D01*
X87169Y-36761D02*
X87244Y-36687D01*
X87244Y-36687D02*
X87244Y-36289D01*
X87342Y-37470D02*
X86968Y-37470D01*
X85925Y-35922D02*
X86070Y-35777D01*
X86070Y-35777D02*
X87137Y-35777D01*
X87244Y-35883D02*
X87244Y-36289D01*
X87244Y-35883D02*
X87137Y-35777D01*
X85492Y-35922D02*
X85925Y-35922D01*
X85531Y-42844D02*
X85236Y-42844D01*
X85492Y-43257D02*
X85531Y-43297D01*
X85236Y-43257D02*
X85492Y-43257D01*
X85826Y-43257D02*
X85826Y-43261D01*
X85531Y-42844D02*
X85826Y-42844D01*
X94350Y-42844D02*
X94645Y-42844D01*
X94645Y-43257D02*
X94645Y-43261D01*
X94055Y-43257D02*
X94311Y-43257D01*
X94311Y-43257D02*
X94350Y-43297D01*
X94350Y-42844D02*
X94055Y-42844D01*
X94311Y-35922D02*
X94744Y-35922D01*
X96062Y-35883D02*
X95956Y-35777D01*
X96062Y-35883D02*
X96062Y-36289D01*
X94889Y-35777D02*
X95956Y-35777D01*
X94744Y-35922D02*
X94889Y-35777D01*
X96161Y-37470D02*
X95787Y-37470D01*
X96062Y-36687D02*
X96062Y-36289D01*
X95988Y-36761D02*
X96062Y-36687D01*
X95787Y-36761D02*
X95988Y-36761D01*
X95688Y-36860D02*
X95787Y-36761D01*
X95688Y-37372D02*
X95688Y-36860D01*
X95787Y-37470D02*
X95688Y-37372D01*
X94212Y-43435D02*
X94350Y-43297D01*
X93346Y-43435D02*
X94212Y-43435D01*
X94311Y-35922D02*
X94311Y-35155D01*
X94311Y-35155D02*
X94224Y-35068D01*
X94350Y-54990D02*
X94645Y-54990D01*
X94645Y-55403D02*
X94645Y-55407D01*
X94055Y-55403D02*
X94311Y-55403D01*
X94311Y-55403D02*
X94350Y-55442D01*
X94350Y-54990D02*
X94055Y-54990D01*
X94311Y-48068D02*
X94744Y-48068D01*
X96062Y-48029D02*
X95956Y-47923D01*
X96062Y-48029D02*
X96062Y-48435D01*
X94889Y-47923D02*
X95956Y-47923D01*
X94744Y-48068D02*
X94889Y-47923D01*
X96161Y-49616D02*
X95787Y-49616D01*
X96062Y-48832D02*
X96062Y-48435D01*
X95988Y-48907D02*
X96062Y-48832D01*
X95787Y-48907D02*
X95988Y-48907D01*
X95688Y-49005D02*
X95787Y-48907D01*
X95688Y-49517D02*
X95688Y-49005D01*
X95787Y-49616D02*
X95688Y-49517D01*
X94212Y-55581D02*
X94350Y-55442D01*
X93346Y-55581D02*
X94212Y-55581D01*
X94311Y-48068D02*
X94311Y-47301D01*
X94311Y-47301D02*
X94224Y-47214D01*
X94350Y-67135D02*
X94645Y-67135D01*
X94645Y-67549D02*
X94645Y-67553D01*
X94055Y-67549D02*
X94311Y-67549D01*
X94311Y-67549D02*
X94350Y-67588D01*
X94350Y-67135D02*
X94055Y-67135D01*
X94311Y-60214D02*
X94744Y-60214D01*
X96062Y-60175D02*
X95956Y-60068D01*
X96062Y-60175D02*
X96062Y-60580D01*
X94889Y-60068D02*
X95956Y-60068D01*
X94744Y-60214D02*
X94889Y-60068D01*
X96161Y-61761D02*
X95787Y-61761D01*
X96062Y-60978D02*
X96062Y-60580D01*
X95988Y-61053D02*
X96062Y-60978D01*
X95787Y-61053D02*
X95988Y-61053D01*
X95688Y-61151D02*
X95787Y-61053D01*
X95688Y-61663D02*
X95688Y-61151D01*
X95787Y-61761D02*
X95688Y-61663D01*
X94212Y-67727D02*
X94350Y-67588D01*
X93346Y-67727D02*
X94212Y-67727D01*
X94311Y-60214D02*
X94311Y-59446D01*
X94311Y-59446D02*
X94224Y-59360D01*
X89901Y-59446D02*
X89814Y-59360D01*
X89901Y-60214D02*
X89901Y-59446D01*
X88937Y-67727D02*
X89802Y-67727D01*
X89802Y-67727D02*
X89940Y-67588D01*
X91377Y-61761D02*
X91279Y-61663D01*
X91279Y-61663D02*
X91279Y-61151D01*
X91279Y-61151D02*
X91377Y-61053D01*
X91377Y-61053D02*
X91578Y-61053D01*
X91578Y-61053D02*
X91653Y-60978D01*
X91653Y-60978D02*
X91653Y-60580D01*
X91751Y-61761D02*
X91377Y-61761D01*
X90335Y-60214D02*
X90480Y-60068D01*
X90480Y-60068D02*
X91547Y-60068D01*
X91653Y-60175D02*
X91653Y-60580D01*
X91653Y-60175D02*
X91547Y-60068D01*
X89901Y-60214D02*
X90335Y-60214D01*
X89940Y-67135D02*
X89645Y-67135D01*
X89901Y-67549D02*
X89940Y-67588D01*
X89645Y-67549D02*
X89901Y-67549D01*
X90236Y-67549D02*
X90236Y-67553D01*
X89940Y-67135D02*
X90236Y-67135D01*
X89901Y-47301D02*
X89814Y-47214D01*
X89901Y-48068D02*
X89901Y-47301D01*
X88937Y-55581D02*
X89802Y-55581D01*
X89802Y-55581D02*
X89940Y-55442D01*
X91377Y-49616D02*
X91279Y-49517D01*
X91279Y-49517D02*
X91279Y-49005D01*
X91279Y-49005D02*
X91377Y-48907D01*
X91377Y-48907D02*
X91578Y-48907D01*
X91578Y-48907D02*
X91653Y-48832D01*
X91653Y-48832D02*
X91653Y-48435D01*
X91751Y-49616D02*
X91377Y-49616D01*
X90335Y-48068D02*
X90480Y-47923D01*
X90480Y-47923D02*
X91547Y-47923D01*
X91653Y-48029D02*
X91653Y-48435D01*
X91653Y-48029D02*
X91547Y-47923D01*
X89901Y-48068D02*
X90335Y-48068D01*
X89940Y-54990D02*
X89645Y-54990D01*
X89901Y-55403D02*
X89940Y-55442D01*
X89645Y-55403D02*
X89901Y-55403D01*
X90236Y-55403D02*
X90236Y-55407D01*
X89940Y-54990D02*
X90236Y-54990D01*
X89901Y-35155D02*
X89814Y-35068D01*
X89901Y-35922D02*
X89901Y-35155D01*
X88937Y-43435D02*
X89802Y-43435D01*
X89802Y-43435D02*
X89940Y-43297D01*
X91377Y-37470D02*
X91279Y-37372D01*
X91279Y-37372D02*
X91279Y-36860D01*
X91279Y-36860D02*
X91377Y-36761D01*
X91377Y-36761D02*
X91578Y-36761D01*
X91578Y-36761D02*
X91653Y-36687D01*
X91653Y-36687D02*
X91653Y-36289D01*
X91751Y-37470D02*
X91377Y-37470D01*
X90335Y-35922D02*
X90480Y-35777D01*
X90480Y-35777D02*
X91547Y-35777D01*
X91653Y-35883D02*
X91653Y-36289D01*
X91653Y-35883D02*
X91547Y-35777D01*
X89901Y-35922D02*
X90335Y-35922D01*
X89940Y-42844D02*
X89645Y-42844D01*
X89901Y-43257D02*
X89940Y-43297D01*
X89645Y-43257D02*
X89901Y-43257D01*
X90236Y-43257D02*
X90236Y-43261D01*
X89940Y-42844D02*
X90236Y-42844D01*
X98759Y-42844D02*
X99055Y-42844D01*
X99055Y-43257D02*
X99055Y-43261D01*
X98464Y-43257D02*
X98720Y-43257D01*
X98720Y-43257D02*
X98759Y-43297D01*
X98759Y-42844D02*
X98464Y-42844D01*
X98720Y-35922D02*
X99153Y-35922D01*
X100472Y-35883D02*
X100366Y-35777D01*
X100472Y-35883D02*
X100472Y-36289D01*
X99299Y-35777D02*
X100366Y-35777D01*
X99153Y-35922D02*
X99299Y-35777D01*
X100570Y-37470D02*
X100196Y-37470D01*
X100472Y-36687D02*
X100472Y-36289D01*
X100397Y-36761D02*
X100472Y-36687D01*
X100196Y-36761D02*
X100397Y-36761D01*
X100098Y-36860D02*
X100196Y-36761D01*
X100098Y-37372D02*
X100098Y-36860D01*
X100196Y-37470D02*
X100098Y-37372D01*
X98621Y-43435D02*
X98759Y-43297D01*
X97755Y-43435D02*
X98621Y-43435D01*
X98720Y-35922D02*
X98720Y-35155D01*
X98720Y-35155D02*
X98633Y-35068D01*
X98759Y-54990D02*
X99055Y-54990D01*
X99055Y-55403D02*
X99055Y-55407D01*
X98464Y-55403D02*
X98720Y-55403D01*
X98720Y-55403D02*
X98759Y-55442D01*
X98759Y-54990D02*
X98464Y-54990D01*
X98720Y-48068D02*
X99153Y-48068D01*
X100472Y-48029D02*
X100366Y-47923D01*
X100472Y-48029D02*
X100472Y-48435D01*
X99299Y-47923D02*
X100366Y-47923D01*
X99153Y-48068D02*
X99299Y-47923D01*
X100570Y-49616D02*
X100196Y-49616D01*
X100472Y-48832D02*
X100472Y-48435D01*
X100397Y-48907D02*
X100472Y-48832D01*
X100196Y-48907D02*
X100397Y-48907D01*
X100098Y-49005D02*
X100196Y-48907D01*
X100098Y-49517D02*
X100098Y-49005D01*
X100196Y-49616D02*
X100098Y-49517D01*
X98621Y-55581D02*
X98759Y-55442D01*
X97755Y-55581D02*
X98621Y-55581D01*
X98720Y-48068D02*
X98720Y-47301D01*
X98720Y-47301D02*
X98633Y-47214D01*
X98759Y-67135D02*
X99055Y-67135D01*
X99055Y-67549D02*
X99055Y-67553D01*
X98464Y-67549D02*
X98720Y-67549D01*
X98720Y-67549D02*
X98759Y-67588D01*
X98759Y-67135D02*
X98464Y-67135D01*
X98720Y-60214D02*
X99153Y-60214D01*
X100472Y-60175D02*
X100366Y-60068D01*
X100472Y-60175D02*
X100472Y-60580D01*
X99299Y-60068D02*
X100366Y-60068D01*
X99153Y-60214D02*
X99299Y-60068D01*
X100570Y-61761D02*
X100196Y-61761D01*
X100472Y-60978D02*
X100472Y-60580D01*
X100397Y-61053D02*
X100472Y-60978D01*
X100196Y-61053D02*
X100397Y-61053D01*
X100098Y-61151D02*
X100196Y-61053D01*
X100098Y-61663D02*
X100098Y-61151D01*
X100196Y-61761D02*
X100098Y-61663D01*
X98621Y-67727D02*
X98759Y-67588D01*
X97755Y-67727D02*
X98621Y-67727D01*
X98720Y-60214D02*
X98720Y-59446D01*
X98720Y-59446D02*
X98633Y-59360D01*
X103129Y-59446D02*
X103043Y-59360D01*
X103129Y-60214D02*
X103129Y-59446D01*
X102165Y-67727D02*
X103030Y-67727D01*
X103030Y-67727D02*
X103169Y-67588D01*
X104606Y-61761D02*
X104507Y-61663D01*
X104507Y-61663D02*
X104507Y-61151D01*
X104507Y-61151D02*
X104606Y-61053D01*
X104606Y-61053D02*
X104807Y-61053D01*
X104807Y-61053D02*
X104881Y-60978D01*
X104881Y-60978D02*
X104881Y-60580D01*
X104980Y-61761D02*
X104606Y-61761D01*
X103563Y-60214D02*
X103708Y-60068D01*
X103708Y-60068D02*
X104775Y-60068D01*
X104881Y-60175D02*
X104881Y-60580D01*
X104881Y-60175D02*
X104775Y-60068D01*
X103129Y-60214D02*
X103563Y-60214D01*
X103169Y-67135D02*
X102874Y-67135D01*
X103129Y-67549D02*
X103169Y-67588D01*
X102874Y-67549D02*
X103129Y-67549D01*
X103464Y-67549D02*
X103464Y-67553D01*
X103169Y-67135D02*
X103464Y-67135D01*
X103129Y-47301D02*
X103043Y-47214D01*
X103129Y-48068D02*
X103129Y-47301D01*
X102165Y-55581D02*
X103030Y-55581D01*
X103030Y-55581D02*
X103169Y-55442D01*
X104606Y-49616D02*
X104507Y-49517D01*
X104507Y-49517D02*
X104507Y-49005D01*
X104507Y-49005D02*
X104606Y-48907D01*
X104606Y-48907D02*
X104807Y-48907D01*
X104807Y-48907D02*
X104881Y-48832D01*
X104881Y-48832D02*
X104881Y-48435D01*
X104980Y-49616D02*
X104606Y-49616D01*
X103563Y-48068D02*
X103708Y-47923D01*
X103708Y-47923D02*
X104775Y-47923D01*
X104881Y-48029D02*
X104881Y-48435D01*
X104881Y-48029D02*
X104775Y-47923D01*
X103129Y-48068D02*
X103563Y-48068D01*
X103169Y-54990D02*
X102874Y-54990D01*
X103129Y-55403D02*
X103169Y-55442D01*
X102874Y-55403D02*
X103129Y-55403D01*
X103464Y-55403D02*
X103464Y-55407D01*
X103169Y-54990D02*
X103464Y-54990D01*
X103129Y-35155D02*
X103043Y-35068D01*
X103129Y-35922D02*
X103129Y-35155D01*
X102165Y-43435D02*
X103030Y-43435D01*
X103030Y-43435D02*
X103169Y-43297D01*
X104606Y-37470D02*
X104507Y-37372D01*
X104507Y-37372D02*
X104507Y-36860D01*
X104507Y-36860D02*
X104606Y-36761D01*
X104606Y-36761D02*
X104807Y-36761D01*
X104807Y-36761D02*
X104881Y-36687D01*
X104881Y-36687D02*
X104881Y-36289D01*
X104980Y-37470D02*
X104606Y-37470D01*
X103563Y-35922D02*
X103708Y-35777D01*
X103708Y-35777D02*
X104775Y-35777D01*
X104881Y-35883D02*
X104881Y-36289D01*
X104881Y-35883D02*
X104775Y-35777D01*
X103129Y-35922D02*
X103563Y-35922D01*
X103169Y-42844D02*
X102874Y-42844D01*
X103129Y-43257D02*
X103169Y-43297D01*
X102874Y-43257D02*
X103129Y-43257D01*
X103464Y-43257D02*
X103464Y-43261D01*
X103169Y-42844D02*
X103464Y-42844D01*
G54D30*
X78404Y-67588D02*
X78503Y-67687D01*
G54D27*
X77854Y-67588D02*
X77953Y-67687D01*
X77953Y-67687D02*
X78346Y-67687D01*
X77460Y-67588D02*
X77854Y-67588D01*
G54D30*
X78404Y-55442D02*
X78503Y-55541D01*
G54D27*
X77854Y-55442D02*
X77953Y-55541D01*
X77953Y-55541D02*
X78346Y-55541D01*
X77460Y-55442D02*
X77854Y-55442D01*
G54D30*
X78404Y-43297D02*
X78503Y-43396D01*
G54D27*
X77854Y-43297D02*
X77953Y-43396D01*
X77953Y-43396D02*
X78346Y-43396D01*
X77460Y-43297D02*
X77854Y-43297D01*
X81870Y-43297D02*
X82263Y-43297D01*
X82362Y-43396D02*
X82755Y-43396D01*
X82263Y-43297D02*
X82362Y-43396D01*
G54D30*
X82814Y-43297D02*
X82913Y-43396D01*
G54D27*
X81870Y-55442D02*
X82263Y-55442D01*
X82362Y-55541D02*
X82755Y-55541D01*
X82263Y-55442D02*
X82362Y-55541D01*
G54D30*
X82814Y-55442D02*
X82913Y-55541D01*
G54D27*
X81870Y-67588D02*
X82263Y-67588D01*
X82362Y-67687D02*
X82755Y-67687D01*
X82263Y-67588D02*
X82362Y-67687D01*
G54D30*
X82814Y-67588D02*
X82913Y-67687D01*
X87223Y-67588D02*
X87322Y-67687D01*
G54D27*
X86673Y-67588D02*
X86772Y-67687D01*
X86772Y-67687D02*
X87165Y-67687D01*
X86279Y-67588D02*
X86673Y-67588D01*
G54D30*
X87223Y-55442D02*
X87322Y-55541D01*
G54D27*
X86673Y-55442D02*
X86772Y-55541D01*
X86772Y-55541D02*
X87165Y-55541D01*
X86279Y-55442D02*
X86673Y-55442D01*
G54D30*
X87223Y-43297D02*
X87322Y-43396D01*
G54D27*
X86673Y-43297D02*
X86772Y-43396D01*
X86772Y-43396D02*
X87165Y-43396D01*
X86279Y-43297D02*
X86673Y-43297D01*
X95098Y-43297D02*
X95492Y-43297D01*
X95591Y-43396D02*
X95984Y-43396D01*
X95492Y-43297D02*
X95591Y-43396D01*
G54D30*
X96042Y-43297D02*
X96141Y-43396D01*
G54D27*
X95098Y-55442D02*
X95492Y-55442D01*
X95591Y-55541D02*
X95984Y-55541D01*
X95492Y-55442D02*
X95591Y-55541D01*
G54D30*
X96042Y-55442D02*
X96141Y-55541D01*
G54D27*
X95098Y-67588D02*
X95492Y-67588D01*
X95591Y-67687D02*
X95984Y-67687D01*
X95492Y-67588D02*
X95591Y-67687D01*
G54D30*
X96042Y-67588D02*
X96141Y-67687D01*
X91633Y-67588D02*
X91732Y-67687D01*
G54D27*
X91082Y-67588D02*
X91181Y-67687D01*
X91181Y-67687D02*
X91574Y-67687D01*
X90688Y-67588D02*
X91082Y-67588D01*
G54D30*
X91633Y-55442D02*
X91732Y-55541D01*
G54D27*
X91082Y-55442D02*
X91181Y-55541D01*
X91181Y-55541D02*
X91574Y-55541D01*
X90688Y-55442D02*
X91082Y-55442D01*
G54D30*
X91633Y-43297D02*
X91732Y-43396D01*
G54D27*
X91082Y-43297D02*
X91181Y-43396D01*
X91181Y-43396D02*
X91574Y-43396D01*
X90688Y-43297D02*
X91082Y-43297D01*
X99507Y-43297D02*
X99901Y-43297D01*
X100000Y-43396D02*
X100393Y-43396D01*
X99901Y-43297D02*
X100000Y-43396D01*
G54D30*
X100452Y-43297D02*
X100551Y-43396D01*
G54D27*
X99507Y-55442D02*
X99901Y-55442D01*
X100000Y-55541D02*
X100393Y-55541D01*
X99901Y-55442D02*
X100000Y-55541D01*
G54D30*
X100452Y-55442D02*
X100551Y-55541D01*
G54D27*
X99507Y-67588D02*
X99901Y-67588D01*
X100000Y-67687D02*
X100393Y-67687D01*
X99901Y-67588D02*
X100000Y-67687D01*
G54D30*
X100452Y-67588D02*
X100551Y-67687D01*
X104861Y-67588D02*
X104960Y-67687D01*
G54D27*
X104311Y-67588D02*
X104410Y-67687D01*
X104410Y-67687D02*
X104803Y-67687D01*
X103917Y-67588D02*
X104311Y-67588D01*
G54D30*
X104861Y-55442D02*
X104960Y-55541D01*
G54D27*
X104311Y-55442D02*
X104410Y-55541D01*
X104410Y-55541D02*
X104803Y-55541D01*
X103917Y-55442D02*
X104311Y-55442D01*
G54D30*
X104861Y-43297D02*
X104960Y-43396D01*
G54D27*
X104311Y-43297D02*
X104410Y-43396D01*
X104410Y-43396D02*
X104803Y-43396D01*
X103917Y-43297D02*
X104311Y-43297D01*
G54D29*
X76614Y-61998D02*
X76673Y-61938D01*
G54D27*
X75688Y-61938D02*
X76673Y-61938D01*
X77529Y-65235D02*
X76732Y-65235D01*
X77559Y-62194D02*
X77500Y-62135D01*
X77559Y-63080D02*
X77559Y-62194D01*
X77500Y-61931D02*
X77401Y-61832D01*
X77401Y-61832D02*
X77188Y-61832D01*
X77188Y-61832D02*
X77082Y-61938D01*
X77082Y-61938D02*
X76673Y-61938D01*
X77500Y-62135D02*
X77500Y-61931D01*
X76692Y-61919D02*
X76692Y-61919D01*
X76692Y-61919D02*
X76673Y-61938D01*
G54D29*
X76614Y-49852D02*
X76673Y-49793D01*
G54D27*
X75688Y-49793D02*
X76673Y-49793D01*
X77529Y-53090D02*
X76732Y-53090D01*
X77559Y-50049D02*
X77500Y-49990D01*
X77559Y-50935D02*
X77559Y-50049D01*
X77500Y-49785D02*
X77401Y-49687D01*
X77401Y-49687D02*
X77188Y-49687D01*
X77188Y-49687D02*
X77082Y-49793D01*
X77082Y-49793D02*
X76673Y-49793D01*
X77500Y-49990D02*
X77500Y-49785D01*
X76692Y-49773D02*
X76692Y-49773D01*
X76692Y-49773D02*
X76673Y-49793D01*
G54D29*
X76614Y-37706D02*
X76673Y-37647D01*
G54D27*
X75688Y-37647D02*
X76673Y-37647D01*
X77529Y-40944D02*
X76732Y-40944D01*
X77559Y-37903D02*
X77500Y-37844D01*
X77559Y-38789D02*
X77559Y-37903D01*
X77500Y-37639D02*
X77401Y-37541D01*
X77401Y-37541D02*
X77188Y-37541D01*
X77188Y-37541D02*
X77082Y-37647D01*
X77082Y-37647D02*
X76673Y-37647D01*
X77500Y-37844D02*
X77500Y-37639D01*
X76692Y-37627D02*
X76692Y-37627D01*
X76692Y-37627D02*
X76673Y-37647D01*
X81102Y-37627D02*
X81082Y-37647D01*
X81102Y-37627D02*
X81102Y-37627D01*
X81909Y-37844D02*
X81909Y-37639D01*
X81492Y-37647D02*
X81082Y-37647D01*
X81598Y-37541D02*
X81492Y-37647D01*
X81811Y-37541D02*
X81598Y-37541D01*
X81909Y-37639D02*
X81811Y-37541D01*
X81968Y-38789D02*
X81968Y-37903D01*
X81968Y-37903D02*
X81909Y-37844D01*
X81938Y-40944D02*
X81142Y-40944D01*
X80098Y-37647D02*
X81082Y-37647D01*
G54D29*
X81023Y-37706D02*
X81082Y-37647D01*
G54D27*
X81102Y-49773D02*
X81082Y-49793D01*
X81102Y-49773D02*
X81102Y-49773D01*
X81909Y-49990D02*
X81909Y-49785D01*
X81492Y-49793D02*
X81082Y-49793D01*
X81598Y-49687D02*
X81492Y-49793D01*
X81811Y-49687D02*
X81598Y-49687D01*
X81909Y-49785D02*
X81811Y-49687D01*
X81968Y-50935D02*
X81968Y-50049D01*
X81968Y-50049D02*
X81909Y-49990D01*
X81938Y-53090D02*
X81142Y-53090D01*
X80098Y-49793D02*
X81082Y-49793D01*
G54D29*
X81023Y-49852D02*
X81082Y-49793D01*
G54D27*
X81102Y-61919D02*
X81082Y-61938D01*
X81102Y-61919D02*
X81102Y-61919D01*
X81909Y-62135D02*
X81909Y-61931D01*
X81492Y-61938D02*
X81082Y-61938D01*
X81598Y-61832D02*
X81492Y-61938D01*
X81811Y-61832D02*
X81598Y-61832D01*
X81909Y-61931D02*
X81811Y-61832D01*
X81968Y-63080D02*
X81968Y-62194D01*
X81968Y-62194D02*
X81909Y-62135D01*
X81938Y-65235D02*
X81142Y-65235D01*
X80098Y-61938D02*
X81082Y-61938D01*
G54D29*
X81023Y-61998D02*
X81082Y-61938D01*
X85433Y-61998D02*
X85492Y-61938D01*
G54D27*
X84507Y-61938D02*
X85492Y-61938D01*
X86348Y-65235D02*
X85551Y-65235D01*
X86377Y-62194D02*
X86318Y-62135D01*
X86377Y-63080D02*
X86377Y-62194D01*
X86318Y-61931D02*
X86220Y-61832D01*
X86220Y-61832D02*
X86007Y-61832D01*
X86007Y-61832D02*
X85901Y-61938D01*
X85901Y-61938D02*
X85492Y-61938D01*
X86318Y-62135D02*
X86318Y-61931D01*
X85511Y-61919D02*
X85511Y-61919D01*
X85511Y-61919D02*
X85492Y-61938D01*
G54D29*
X85433Y-49852D02*
X85492Y-49793D01*
G54D27*
X84507Y-49793D02*
X85492Y-49793D01*
X86348Y-53090D02*
X85551Y-53090D01*
X86377Y-50049D02*
X86318Y-49990D01*
X86377Y-50935D02*
X86377Y-50049D01*
X86318Y-49785D02*
X86220Y-49687D01*
X86220Y-49687D02*
X86007Y-49687D01*
X86007Y-49687D02*
X85901Y-49793D01*
X85901Y-49793D02*
X85492Y-49793D01*
X86318Y-49990D02*
X86318Y-49785D01*
X85511Y-49773D02*
X85511Y-49773D01*
X85511Y-49773D02*
X85492Y-49793D01*
G54D29*
X85433Y-37706D02*
X85492Y-37647D01*
G54D27*
X84507Y-37647D02*
X85492Y-37647D01*
X86348Y-40944D02*
X85551Y-40944D01*
X86377Y-37903D02*
X86318Y-37844D01*
X86377Y-38789D02*
X86377Y-37903D01*
X86318Y-37639D02*
X86220Y-37541D01*
X86220Y-37541D02*
X86007Y-37541D01*
X86007Y-37541D02*
X85901Y-37647D01*
X85901Y-37647D02*
X85492Y-37647D01*
X86318Y-37844D02*
X86318Y-37639D01*
X85511Y-37627D02*
X85511Y-37627D01*
X85511Y-37627D02*
X85492Y-37647D01*
X94330Y-37627D02*
X94311Y-37647D01*
X94330Y-37627D02*
X94330Y-37627D01*
X95137Y-37844D02*
X95137Y-37639D01*
X94720Y-37647D02*
X94311Y-37647D01*
X94826Y-37541D02*
X94720Y-37647D01*
X95039Y-37541D02*
X94826Y-37541D01*
X95137Y-37639D02*
X95039Y-37541D01*
X95196Y-38789D02*
X95196Y-37903D01*
X95196Y-37903D02*
X95137Y-37844D01*
X95167Y-40944D02*
X94370Y-40944D01*
X93326Y-37647D02*
X94311Y-37647D01*
G54D29*
X94251Y-37706D02*
X94311Y-37647D01*
G54D27*
X94330Y-49773D02*
X94311Y-49793D01*
X94330Y-49773D02*
X94330Y-49773D01*
X95137Y-49990D02*
X95137Y-49785D01*
X94720Y-49793D02*
X94311Y-49793D01*
X94826Y-49687D02*
X94720Y-49793D01*
X95039Y-49687D02*
X94826Y-49687D01*
X95137Y-49785D02*
X95039Y-49687D01*
X95196Y-50935D02*
X95196Y-50049D01*
X95196Y-50049D02*
X95137Y-49990D01*
X95167Y-53090D02*
X94370Y-53090D01*
X93326Y-49793D02*
X94311Y-49793D01*
G54D29*
X94251Y-49852D02*
X94311Y-49793D01*
G54D27*
X94330Y-61919D02*
X94311Y-61938D01*
X94330Y-61919D02*
X94330Y-61919D01*
X95137Y-62135D02*
X95137Y-61931D01*
X94720Y-61938D02*
X94311Y-61938D01*
X94826Y-61832D02*
X94720Y-61938D01*
X95039Y-61832D02*
X94826Y-61832D01*
X95137Y-61931D02*
X95039Y-61832D01*
X95196Y-63080D02*
X95196Y-62194D01*
X95196Y-62194D02*
X95137Y-62135D01*
X95167Y-65235D02*
X94370Y-65235D01*
X93326Y-61938D02*
X94311Y-61938D01*
G54D29*
X94251Y-61998D02*
X94311Y-61938D01*
X89842Y-61998D02*
X89901Y-61938D01*
G54D27*
X88917Y-61938D02*
X89901Y-61938D01*
X90757Y-65235D02*
X89960Y-65235D01*
X90787Y-62194D02*
X90728Y-62135D01*
X90787Y-63080D02*
X90787Y-62194D01*
X90728Y-61931D02*
X90629Y-61832D01*
X90629Y-61832D02*
X90417Y-61832D01*
X90417Y-61832D02*
X90311Y-61938D01*
X90311Y-61938D02*
X89901Y-61938D01*
X90728Y-62135D02*
X90728Y-61931D01*
X89921Y-61919D02*
X89921Y-61919D01*
X89921Y-61919D02*
X89901Y-61938D01*
G54D29*
X89842Y-49852D02*
X89901Y-49793D01*
G54D27*
X88917Y-49793D02*
X89901Y-49793D01*
X90757Y-53090D02*
X89960Y-53090D01*
X90787Y-50049D02*
X90728Y-49990D01*
X90787Y-50935D02*
X90787Y-50049D01*
X90728Y-49785D02*
X90629Y-49687D01*
X90629Y-49687D02*
X90417Y-49687D01*
X90417Y-49687D02*
X90311Y-49793D01*
X90311Y-49793D02*
X89901Y-49793D01*
X90728Y-49990D02*
X90728Y-49785D01*
X89921Y-49773D02*
X89921Y-49773D01*
X89921Y-49773D02*
X89901Y-49793D01*
G54D29*
X89842Y-37706D02*
X89901Y-37647D01*
G54D27*
X88917Y-37647D02*
X89901Y-37647D01*
X90757Y-40944D02*
X89960Y-40944D01*
X90787Y-37903D02*
X90728Y-37844D01*
X90787Y-38789D02*
X90787Y-37903D01*
X90728Y-37639D02*
X90629Y-37541D01*
X90629Y-37541D02*
X90417Y-37541D01*
X90417Y-37541D02*
X90311Y-37647D01*
X90311Y-37647D02*
X89901Y-37647D01*
X90728Y-37844D02*
X90728Y-37639D01*
X89921Y-37627D02*
X89921Y-37627D01*
X89921Y-37627D02*
X89901Y-37647D01*
X98740Y-37627D02*
X98720Y-37647D01*
X98740Y-37627D02*
X98740Y-37627D01*
X99547Y-37844D02*
X99547Y-37639D01*
X99129Y-37647D02*
X98720Y-37647D01*
X99236Y-37541D02*
X99129Y-37647D01*
X99448Y-37541D02*
X99236Y-37541D01*
X99547Y-37639D02*
X99448Y-37541D01*
X99606Y-38789D02*
X99606Y-37903D01*
X99606Y-37903D02*
X99547Y-37844D01*
X99576Y-40944D02*
X98779Y-40944D01*
X97736Y-37647D02*
X98720Y-37647D01*
G54D29*
X98661Y-37706D02*
X98720Y-37647D01*
G54D27*
X98740Y-49773D02*
X98720Y-49793D01*
X98740Y-49773D02*
X98740Y-49773D01*
X99547Y-49990D02*
X99547Y-49785D01*
X99129Y-49793D02*
X98720Y-49793D01*
X99236Y-49687D02*
X99129Y-49793D01*
X99448Y-49687D02*
X99236Y-49687D01*
X99547Y-49785D02*
X99448Y-49687D01*
X99606Y-50935D02*
X99606Y-50049D01*
X99606Y-50049D02*
X99547Y-49990D01*
X99576Y-53090D02*
X98779Y-53090D01*
X97736Y-49793D02*
X98720Y-49793D01*
G54D29*
X98661Y-49852D02*
X98720Y-49793D01*
G54D27*
X98740Y-61919D02*
X98720Y-61938D01*
X98740Y-61919D02*
X98740Y-61919D01*
X99547Y-62135D02*
X99547Y-61931D01*
X99129Y-61938D02*
X98720Y-61938D01*
X99236Y-61832D02*
X99129Y-61938D01*
X99448Y-61832D02*
X99236Y-61832D01*
X99547Y-61931D02*
X99448Y-61832D01*
X99606Y-63080D02*
X99606Y-62194D01*
X99606Y-62194D02*
X99547Y-62135D01*
X99576Y-65235D02*
X98779Y-65235D01*
X97736Y-61938D02*
X98720Y-61938D01*
G54D29*
X98661Y-61998D02*
X98720Y-61938D01*
X103070Y-61998D02*
X103129Y-61938D01*
G54D27*
X102145Y-61938D02*
X103129Y-61938D01*
X103985Y-65235D02*
X103189Y-65235D01*
X104015Y-62194D02*
X103956Y-62135D01*
X104015Y-63080D02*
X104015Y-62194D01*
X103956Y-61931D02*
X103858Y-61832D01*
X103858Y-61832D02*
X103645Y-61832D01*
X103645Y-61832D02*
X103539Y-61938D01*
X103539Y-61938D02*
X103129Y-61938D01*
X103956Y-62135D02*
X103956Y-61931D01*
X103149Y-61919D02*
X103149Y-61919D01*
X103149Y-61919D02*
X103129Y-61938D01*
G54D29*
X103070Y-49852D02*
X103129Y-49793D01*
G54D27*
X102145Y-49793D02*
X103129Y-49793D01*
X103985Y-53090D02*
X103189Y-53090D01*
X104015Y-50049D02*
X103956Y-49990D01*
X104015Y-50935D02*
X104015Y-50049D01*
X103956Y-49785D02*
X103858Y-49687D01*
X103858Y-49687D02*
X103645Y-49687D01*
X103645Y-49687D02*
X103539Y-49793D01*
X103539Y-49793D02*
X103129Y-49793D01*
X103956Y-49990D02*
X103956Y-49785D01*
X103149Y-49773D02*
X103149Y-49773D01*
X103149Y-49773D02*
X103129Y-49793D01*
G54D29*
X103070Y-37706D02*
X103129Y-37647D01*
G54D27*
X102145Y-37647D02*
X103129Y-37647D01*
X103985Y-40944D02*
X103189Y-40944D01*
X104015Y-37903D02*
X103956Y-37844D01*
X104015Y-38789D02*
X104015Y-37903D01*
X103956Y-37639D02*
X103858Y-37541D01*
X103858Y-37541D02*
X103645Y-37541D01*
X103645Y-37541D02*
X103539Y-37647D01*
X103539Y-37647D02*
X103129Y-37647D01*
X103956Y-37844D02*
X103956Y-37639D01*
X103149Y-37627D02*
X103149Y-37627D01*
X103149Y-37627D02*
X103129Y-37647D01*
G54D10*
G36*
X103572Y-43373D02*
X103569Y-43404D01*
X103561Y-43432D01*
X103547Y-43457D01*
X103529Y-43480D01*
X103507Y-43498D01*
X103481Y-43512D01*
X103453Y-43520D01*
X103422Y-43523D01*
X102915Y-43523D01*
X102884Y-43520D01*
X102856Y-43512D01*
X102831Y-43498D01*
X102809Y-43480D01*
X102790Y-43457D01*
X102777Y-43432D01*
X102768Y-43404D01*
X102765Y-43373D01*
X102765Y-42866D01*
X102768Y-42835D01*
X102777Y-42807D01*
X102790Y-42782D01*
X102809Y-42759D01*
X102831Y-42741D01*
X102856Y-42727D01*
X102884Y-42719D01*
X102915Y-42716D01*
X103422Y-42716D01*
X103453Y-42719D01*
X103481Y-42727D01*
X103507Y-42741D01*
X103529Y-42759D01*
X103547Y-42782D01*
X103561Y-42807D01*
X103569Y-42835D01*
X103572Y-42866D01*
X103572Y-43007D01*
X103572Y-43036D01*
X103572Y-43373D01*
X103572Y-43373D01*
G37*
G54D11*
X103572Y-43373D02*
X103569Y-43404D01*
X103561Y-43432D01*
X103547Y-43457D01*
X103529Y-43480D01*
X103507Y-43498D01*
X103481Y-43512D01*
X103453Y-43520D01*
X103422Y-43523D01*
X102915Y-43523D01*
X102884Y-43520D01*
X102856Y-43512D01*
X102831Y-43498D01*
X102809Y-43480D01*
X102790Y-43457D01*
X102777Y-43432D01*
X102768Y-43404D01*
X102765Y-43373D01*
X102765Y-42866D01*
X102768Y-42835D01*
X102777Y-42807D01*
X102790Y-42782D01*
X102809Y-42759D01*
X102831Y-42741D01*
X102856Y-42727D01*
X102884Y-42719D01*
X102915Y-42716D01*
X103422Y-42716D01*
X103453Y-42719D01*
X103481Y-42727D01*
X103507Y-42741D01*
X103529Y-42759D01*
X103547Y-42782D01*
X103561Y-42807D01*
X103569Y-42835D01*
X103572Y-42866D01*
X103572Y-43007D01*
X103572Y-43036D01*
X103572Y-43373D01*
G54D10*
G36*
X105206Y-39665D02*
X104872Y-39665D01*
X104851Y-39665D01*
X104840Y-39665D01*
X104812Y-39665D01*
X104793Y-39665D01*
X104766Y-39665D01*
X104754Y-39665D01*
X104733Y-39665D01*
X103887Y-39665D01*
X103887Y-39503D01*
X104946Y-39503D01*
X104946Y-39114D01*
X105206Y-39114D01*
X105206Y-39665D01*
X105206Y-39665D01*
G37*
X105206Y-39665D02*
X104872Y-39665D01*
X104851Y-39665D01*
X104840Y-39665D01*
X104812Y-39665D01*
X104793Y-39665D01*
X104766Y-39665D01*
X104754Y-39665D01*
X104733Y-39665D01*
X103887Y-39665D01*
X103887Y-39503D01*
X104946Y-39503D01*
X104946Y-39114D01*
X105206Y-39114D01*
X105206Y-39665D01*
G36*
X103572Y-55519D02*
X103569Y-55550D01*
X103561Y-55578D01*
X103547Y-55603D01*
X103529Y-55625D01*
X103507Y-55644D01*
X103481Y-55657D01*
X103453Y-55666D01*
X103422Y-55669D01*
X102915Y-55669D01*
X102884Y-55666D01*
X102856Y-55657D01*
X102831Y-55644D01*
X102809Y-55625D01*
X102790Y-55603D01*
X102777Y-55578D01*
X102768Y-55550D01*
X102765Y-55519D01*
X102765Y-55012D01*
X102768Y-54981D01*
X102777Y-54953D01*
X102790Y-54927D01*
X102809Y-54905D01*
X102831Y-54887D01*
X102856Y-54873D01*
X102884Y-54865D01*
X102915Y-54862D01*
X103422Y-54862D01*
X103453Y-54865D01*
X103481Y-54873D01*
X103507Y-54887D01*
X103529Y-54905D01*
X103547Y-54927D01*
X103561Y-54953D01*
X103569Y-54981D01*
X103572Y-55012D01*
X103572Y-55152D01*
X103572Y-55181D01*
X103572Y-55519D01*
X103572Y-55519D01*
G37*
G54D11*
X103572Y-55519D02*
X103569Y-55550D01*
X103561Y-55578D01*
X103547Y-55603D01*
X103529Y-55625D01*
X103507Y-55644D01*
X103481Y-55657D01*
X103453Y-55666D01*
X103422Y-55669D01*
X102915Y-55669D01*
X102884Y-55666D01*
X102856Y-55657D01*
X102831Y-55644D01*
X102809Y-55625D01*
X102790Y-55603D01*
X102777Y-55578D01*
X102768Y-55550D01*
X102765Y-55519D01*
X102765Y-55012D01*
X102768Y-54981D01*
X102777Y-54953D01*
X102790Y-54927D01*
X102809Y-54905D01*
X102831Y-54887D01*
X102856Y-54873D01*
X102884Y-54865D01*
X102915Y-54862D01*
X103422Y-54862D01*
X103453Y-54865D01*
X103481Y-54873D01*
X103507Y-54887D01*
X103529Y-54905D01*
X103547Y-54927D01*
X103561Y-54953D01*
X103569Y-54981D01*
X103572Y-55012D01*
X103572Y-55152D01*
X103572Y-55181D01*
X103572Y-55519D01*
G54D10*
G36*
X105206Y-51811D02*
X104872Y-51811D01*
X104851Y-51811D01*
X104840Y-51811D01*
X104812Y-51811D01*
X104793Y-51811D01*
X104766Y-51811D01*
X104754Y-51811D01*
X104733Y-51811D01*
X103887Y-51811D01*
X103887Y-51649D01*
X104946Y-51649D01*
X104946Y-51259D01*
X105206Y-51259D01*
X105206Y-51811D01*
X105206Y-51811D01*
G37*
X105206Y-51811D02*
X104872Y-51811D01*
X104851Y-51811D01*
X104840Y-51811D01*
X104812Y-51811D01*
X104793Y-51811D01*
X104766Y-51811D01*
X104754Y-51811D01*
X104733Y-51811D01*
X103887Y-51811D01*
X103887Y-51649D01*
X104946Y-51649D01*
X104946Y-51259D01*
X105206Y-51259D01*
X105206Y-51811D01*
G36*
X103572Y-67664D02*
X103569Y-67696D01*
X103561Y-67723D01*
X103547Y-67749D01*
X103529Y-67771D01*
X103507Y-67789D01*
X103481Y-67803D01*
X103453Y-67811D01*
X103422Y-67814D01*
X102915Y-67814D01*
X102884Y-67811D01*
X102856Y-67803D01*
X102831Y-67789D01*
X102809Y-67771D01*
X102790Y-67749D01*
X102777Y-67723D01*
X102768Y-67696D01*
X102765Y-67664D01*
X102765Y-67157D01*
X102768Y-67126D01*
X102777Y-67099D01*
X102790Y-67073D01*
X102809Y-67051D01*
X102831Y-67032D01*
X102856Y-67019D01*
X102884Y-67010D01*
X102915Y-67007D01*
X103422Y-67007D01*
X103453Y-67010D01*
X103481Y-67019D01*
X103507Y-67032D01*
X103529Y-67051D01*
X103547Y-67073D01*
X103561Y-67099D01*
X103569Y-67126D01*
X103572Y-67157D01*
X103572Y-67298D01*
X103572Y-67327D01*
X103572Y-67664D01*
X103572Y-67664D01*
G37*
G54D11*
X103572Y-67664D02*
X103569Y-67696D01*
X103561Y-67723D01*
X103547Y-67749D01*
X103529Y-67771D01*
X103507Y-67789D01*
X103481Y-67803D01*
X103453Y-67811D01*
X103422Y-67814D01*
X102915Y-67814D01*
X102884Y-67811D01*
X102856Y-67803D01*
X102831Y-67789D01*
X102809Y-67771D01*
X102790Y-67749D01*
X102777Y-67723D01*
X102768Y-67696D01*
X102765Y-67664D01*
X102765Y-67157D01*
X102768Y-67126D01*
X102777Y-67099D01*
X102790Y-67073D01*
X102809Y-67051D01*
X102831Y-67032D01*
X102856Y-67019D01*
X102884Y-67010D01*
X102915Y-67007D01*
X103422Y-67007D01*
X103453Y-67010D01*
X103481Y-67019D01*
X103507Y-67032D01*
X103529Y-67051D01*
X103547Y-67073D01*
X103561Y-67099D01*
X103569Y-67126D01*
X103572Y-67157D01*
X103572Y-67298D01*
X103572Y-67327D01*
X103572Y-67664D01*
G54D10*
G36*
X105206Y-63956D02*
X104872Y-63956D01*
X104851Y-63956D01*
X104840Y-63956D01*
X104812Y-63956D01*
X104793Y-63956D01*
X104766Y-63956D01*
X104754Y-63956D01*
X104733Y-63956D01*
X103887Y-63956D01*
X103887Y-63795D01*
X104946Y-63795D01*
X104946Y-63405D01*
X105206Y-63405D01*
X105206Y-63956D01*
X105206Y-63956D01*
G37*
X105206Y-63956D02*
X104872Y-63956D01*
X104851Y-63956D01*
X104840Y-63956D01*
X104812Y-63956D01*
X104793Y-63956D01*
X104766Y-63956D01*
X104754Y-63956D01*
X104733Y-63956D01*
X103887Y-63956D01*
X103887Y-63795D01*
X104946Y-63795D01*
X104946Y-63405D01*
X105206Y-63405D01*
X105206Y-63956D01*
G36*
X99163Y-43373D02*
X99160Y-43404D01*
X99151Y-43432D01*
X99138Y-43457D01*
X99119Y-43480D01*
X99097Y-43498D01*
X99072Y-43512D01*
X99044Y-43520D01*
X99013Y-43523D01*
X98506Y-43523D01*
X98475Y-43520D01*
X98447Y-43512D01*
X98422Y-43498D01*
X98399Y-43480D01*
X98381Y-43457D01*
X98367Y-43432D01*
X98359Y-43404D01*
X98356Y-43373D01*
X98356Y-42866D01*
X98359Y-42835D01*
X98367Y-42807D01*
X98381Y-42782D01*
X98399Y-42759D01*
X98422Y-42741D01*
X98447Y-42727D01*
X98475Y-42719D01*
X98506Y-42716D01*
X99013Y-42716D01*
X99044Y-42719D01*
X99072Y-42727D01*
X99097Y-42741D01*
X99119Y-42759D01*
X99138Y-42782D01*
X99151Y-42807D01*
X99160Y-42835D01*
X99163Y-42866D01*
X99163Y-43007D01*
X99163Y-43036D01*
X99163Y-43373D01*
X99163Y-43373D01*
G37*
G54D11*
X99163Y-43373D02*
X99160Y-43404D01*
X99151Y-43432D01*
X99138Y-43457D01*
X99119Y-43480D01*
X99097Y-43498D01*
X99072Y-43512D01*
X99044Y-43520D01*
X99013Y-43523D01*
X98506Y-43523D01*
X98475Y-43520D01*
X98447Y-43512D01*
X98422Y-43498D01*
X98399Y-43480D01*
X98381Y-43457D01*
X98367Y-43432D01*
X98359Y-43404D01*
X98356Y-43373D01*
X98356Y-42866D01*
X98359Y-42835D01*
X98367Y-42807D01*
X98381Y-42782D01*
X98399Y-42759D01*
X98422Y-42741D01*
X98447Y-42727D01*
X98475Y-42719D01*
X98506Y-42716D01*
X99013Y-42716D01*
X99044Y-42719D01*
X99072Y-42727D01*
X99097Y-42741D01*
X99119Y-42759D01*
X99138Y-42782D01*
X99151Y-42807D01*
X99160Y-42835D01*
X99163Y-42866D01*
X99163Y-43007D01*
X99163Y-43036D01*
X99163Y-43373D01*
G54D10*
G36*
X100797Y-39665D02*
X100463Y-39665D01*
X100442Y-39665D01*
X100430Y-39665D01*
X100403Y-39665D01*
X100383Y-39665D01*
X100356Y-39665D01*
X100345Y-39665D01*
X100323Y-39665D01*
X99478Y-39665D01*
X99478Y-39503D01*
X100537Y-39503D01*
X100537Y-39114D01*
X100797Y-39114D01*
X100797Y-39665D01*
X100797Y-39665D01*
G37*
X100797Y-39665D02*
X100463Y-39665D01*
X100442Y-39665D01*
X100430Y-39665D01*
X100403Y-39665D01*
X100383Y-39665D01*
X100356Y-39665D01*
X100345Y-39665D01*
X100323Y-39665D01*
X99478Y-39665D01*
X99478Y-39503D01*
X100537Y-39503D01*
X100537Y-39114D01*
X100797Y-39114D01*
X100797Y-39665D01*
G36*
X99163Y-55519D02*
X99160Y-55550D01*
X99151Y-55578D01*
X99138Y-55603D01*
X99119Y-55625D01*
X99097Y-55644D01*
X99072Y-55657D01*
X99044Y-55666D01*
X99013Y-55669D01*
X98506Y-55669D01*
X98475Y-55666D01*
X98447Y-55657D01*
X98422Y-55644D01*
X98399Y-55625D01*
X98381Y-55603D01*
X98367Y-55578D01*
X98359Y-55550D01*
X98356Y-55519D01*
X98356Y-55012D01*
X98359Y-54981D01*
X98367Y-54953D01*
X98381Y-54927D01*
X98399Y-54905D01*
X98422Y-54887D01*
X98447Y-54873D01*
X98475Y-54865D01*
X98506Y-54862D01*
X99013Y-54862D01*
X99044Y-54865D01*
X99072Y-54873D01*
X99097Y-54887D01*
X99119Y-54905D01*
X99138Y-54927D01*
X99151Y-54953D01*
X99160Y-54981D01*
X99163Y-55012D01*
X99163Y-55152D01*
X99163Y-55181D01*
X99163Y-55519D01*
X99163Y-55519D01*
G37*
G54D11*
X99163Y-55519D02*
X99160Y-55550D01*
X99151Y-55578D01*
X99138Y-55603D01*
X99119Y-55625D01*
X99097Y-55644D01*
X99072Y-55657D01*
X99044Y-55666D01*
X99013Y-55669D01*
X98506Y-55669D01*
X98475Y-55666D01*
X98447Y-55657D01*
X98422Y-55644D01*
X98399Y-55625D01*
X98381Y-55603D01*
X98367Y-55578D01*
X98359Y-55550D01*
X98356Y-55519D01*
X98356Y-55012D01*
X98359Y-54981D01*
X98367Y-54953D01*
X98381Y-54927D01*
X98399Y-54905D01*
X98422Y-54887D01*
X98447Y-54873D01*
X98475Y-54865D01*
X98506Y-54862D01*
X99013Y-54862D01*
X99044Y-54865D01*
X99072Y-54873D01*
X99097Y-54887D01*
X99119Y-54905D01*
X99138Y-54927D01*
X99151Y-54953D01*
X99160Y-54981D01*
X99163Y-55012D01*
X99163Y-55152D01*
X99163Y-55181D01*
X99163Y-55519D01*
G54D10*
G36*
X100797Y-51811D02*
X100463Y-51811D01*
X100442Y-51811D01*
X100430Y-51811D01*
X100403Y-51811D01*
X100383Y-51811D01*
X100356Y-51811D01*
X100345Y-51811D01*
X100323Y-51811D01*
X99478Y-51811D01*
X99478Y-51649D01*
X100537Y-51649D01*
X100537Y-51259D01*
X100797Y-51259D01*
X100797Y-51811D01*
X100797Y-51811D01*
G37*
X100797Y-51811D02*
X100463Y-51811D01*
X100442Y-51811D01*
X100430Y-51811D01*
X100403Y-51811D01*
X100383Y-51811D01*
X100356Y-51811D01*
X100345Y-51811D01*
X100323Y-51811D01*
X99478Y-51811D01*
X99478Y-51649D01*
X100537Y-51649D01*
X100537Y-51259D01*
X100797Y-51259D01*
X100797Y-51811D01*
G36*
X99163Y-67664D02*
X99160Y-67696D01*
X99151Y-67723D01*
X99138Y-67749D01*
X99119Y-67771D01*
X99097Y-67789D01*
X99072Y-67803D01*
X99044Y-67811D01*
X99013Y-67814D01*
X98506Y-67814D01*
X98475Y-67811D01*
X98447Y-67803D01*
X98422Y-67789D01*
X98399Y-67771D01*
X98381Y-67749D01*
X98367Y-67723D01*
X98359Y-67696D01*
X98356Y-67664D01*
X98356Y-67157D01*
X98359Y-67126D01*
X98367Y-67099D01*
X98381Y-67073D01*
X98399Y-67051D01*
X98422Y-67032D01*
X98447Y-67019D01*
X98475Y-67010D01*
X98506Y-67007D01*
X99013Y-67007D01*
X99044Y-67010D01*
X99072Y-67019D01*
X99097Y-67032D01*
X99119Y-67051D01*
X99138Y-67073D01*
X99151Y-67099D01*
X99160Y-67126D01*
X99163Y-67157D01*
X99163Y-67298D01*
X99163Y-67327D01*
X99163Y-67664D01*
X99163Y-67664D01*
G37*
G54D11*
X99163Y-67664D02*
X99160Y-67696D01*
X99151Y-67723D01*
X99138Y-67749D01*
X99119Y-67771D01*
X99097Y-67789D01*
X99072Y-67803D01*
X99044Y-67811D01*
X99013Y-67814D01*
X98506Y-67814D01*
X98475Y-67811D01*
X98447Y-67803D01*
X98422Y-67789D01*
X98399Y-67771D01*
X98381Y-67749D01*
X98367Y-67723D01*
X98359Y-67696D01*
X98356Y-67664D01*
X98356Y-67157D01*
X98359Y-67126D01*
X98367Y-67099D01*
X98381Y-67073D01*
X98399Y-67051D01*
X98422Y-67032D01*
X98447Y-67019D01*
X98475Y-67010D01*
X98506Y-67007D01*
X99013Y-67007D01*
X99044Y-67010D01*
X99072Y-67019D01*
X99097Y-67032D01*
X99119Y-67051D01*
X99138Y-67073D01*
X99151Y-67099D01*
X99160Y-67126D01*
X99163Y-67157D01*
X99163Y-67298D01*
X99163Y-67327D01*
X99163Y-67664D01*
G54D10*
G36*
X100797Y-63956D02*
X100463Y-63956D01*
X100442Y-63956D01*
X100430Y-63956D01*
X100403Y-63956D01*
X100383Y-63956D01*
X100356Y-63956D01*
X100345Y-63956D01*
X100323Y-63956D01*
X99478Y-63956D01*
X99478Y-63795D01*
X100537Y-63795D01*
X100537Y-63405D01*
X100797Y-63405D01*
X100797Y-63956D01*
X100797Y-63956D01*
G37*
X100797Y-63956D02*
X100463Y-63956D01*
X100442Y-63956D01*
X100430Y-63956D01*
X100403Y-63956D01*
X100383Y-63956D01*
X100356Y-63956D01*
X100345Y-63956D01*
X100323Y-63956D01*
X99478Y-63956D01*
X99478Y-63795D01*
X100537Y-63795D01*
X100537Y-63405D01*
X100797Y-63405D01*
X100797Y-63956D01*
G36*
X94753Y-43373D02*
X94750Y-43404D01*
X94742Y-43432D01*
X94728Y-43457D01*
X94710Y-43480D01*
X94688Y-43498D01*
X94662Y-43512D01*
X94635Y-43520D01*
X94603Y-43523D01*
X94096Y-43523D01*
X94065Y-43520D01*
X94038Y-43512D01*
X94012Y-43498D01*
X93990Y-43480D01*
X93971Y-43457D01*
X93958Y-43432D01*
X93949Y-43404D01*
X93946Y-43373D01*
X93946Y-42866D01*
X93949Y-42835D01*
X93958Y-42807D01*
X93971Y-42782D01*
X93990Y-42759D01*
X94012Y-42741D01*
X94038Y-42727D01*
X94065Y-42719D01*
X94096Y-42716D01*
X94603Y-42716D01*
X94635Y-42719D01*
X94662Y-42727D01*
X94688Y-42741D01*
X94710Y-42759D01*
X94728Y-42782D01*
X94742Y-42807D01*
X94750Y-42835D01*
X94753Y-42866D01*
X94753Y-43007D01*
X94753Y-43036D01*
X94753Y-43373D01*
X94753Y-43373D01*
G37*
G54D11*
X94753Y-43373D02*
X94750Y-43404D01*
X94742Y-43432D01*
X94728Y-43457D01*
X94710Y-43480D01*
X94688Y-43498D01*
X94662Y-43512D01*
X94635Y-43520D01*
X94603Y-43523D01*
X94096Y-43523D01*
X94065Y-43520D01*
X94038Y-43512D01*
X94012Y-43498D01*
X93990Y-43480D01*
X93971Y-43457D01*
X93958Y-43432D01*
X93949Y-43404D01*
X93946Y-43373D01*
X93946Y-42866D01*
X93949Y-42835D01*
X93958Y-42807D01*
X93971Y-42782D01*
X93990Y-42759D01*
X94012Y-42741D01*
X94038Y-42727D01*
X94065Y-42719D01*
X94096Y-42716D01*
X94603Y-42716D01*
X94635Y-42719D01*
X94662Y-42727D01*
X94688Y-42741D01*
X94710Y-42759D01*
X94728Y-42782D01*
X94742Y-42807D01*
X94750Y-42835D01*
X94753Y-42866D01*
X94753Y-43007D01*
X94753Y-43036D01*
X94753Y-43373D01*
G54D10*
G36*
X96387Y-39665D02*
X96053Y-39665D01*
X96032Y-39665D01*
X96021Y-39665D01*
X95994Y-39665D01*
X95974Y-39665D01*
X95947Y-39665D01*
X95935Y-39665D01*
X95914Y-39665D01*
X95068Y-39665D01*
X95068Y-39503D01*
X96127Y-39503D01*
X96127Y-39114D01*
X96387Y-39114D01*
X96387Y-39665D01*
X96387Y-39665D01*
G37*
X96387Y-39665D02*
X96053Y-39665D01*
X96032Y-39665D01*
X96021Y-39665D01*
X95994Y-39665D01*
X95974Y-39665D01*
X95947Y-39665D01*
X95935Y-39665D01*
X95914Y-39665D01*
X95068Y-39665D01*
X95068Y-39503D01*
X96127Y-39503D01*
X96127Y-39114D01*
X96387Y-39114D01*
X96387Y-39665D01*
G36*
X94753Y-55519D02*
X94750Y-55550D01*
X94742Y-55578D01*
X94728Y-55603D01*
X94710Y-55625D01*
X94688Y-55644D01*
X94662Y-55657D01*
X94635Y-55666D01*
X94603Y-55669D01*
X94096Y-55669D01*
X94065Y-55666D01*
X94038Y-55657D01*
X94012Y-55644D01*
X93990Y-55625D01*
X93971Y-55603D01*
X93958Y-55578D01*
X93949Y-55550D01*
X93946Y-55519D01*
X93946Y-55012D01*
X93949Y-54981D01*
X93958Y-54953D01*
X93971Y-54927D01*
X93990Y-54905D01*
X94012Y-54887D01*
X94038Y-54873D01*
X94065Y-54865D01*
X94096Y-54862D01*
X94603Y-54862D01*
X94635Y-54865D01*
X94662Y-54873D01*
X94688Y-54887D01*
X94710Y-54905D01*
X94728Y-54927D01*
X94742Y-54953D01*
X94750Y-54981D01*
X94753Y-55012D01*
X94753Y-55152D01*
X94753Y-55181D01*
X94753Y-55519D01*
X94753Y-55519D01*
G37*
G54D11*
X94753Y-55519D02*
X94750Y-55550D01*
X94742Y-55578D01*
X94728Y-55603D01*
X94710Y-55625D01*
X94688Y-55644D01*
X94662Y-55657D01*
X94635Y-55666D01*
X94603Y-55669D01*
X94096Y-55669D01*
X94065Y-55666D01*
X94038Y-55657D01*
X94012Y-55644D01*
X93990Y-55625D01*
X93971Y-55603D01*
X93958Y-55578D01*
X93949Y-55550D01*
X93946Y-55519D01*
X93946Y-55012D01*
X93949Y-54981D01*
X93958Y-54953D01*
X93971Y-54927D01*
X93990Y-54905D01*
X94012Y-54887D01*
X94038Y-54873D01*
X94065Y-54865D01*
X94096Y-54862D01*
X94603Y-54862D01*
X94635Y-54865D01*
X94662Y-54873D01*
X94688Y-54887D01*
X94710Y-54905D01*
X94728Y-54927D01*
X94742Y-54953D01*
X94750Y-54981D01*
X94753Y-55012D01*
X94753Y-55152D01*
X94753Y-55181D01*
X94753Y-55519D01*
G54D10*
G36*
X96387Y-51811D02*
X96053Y-51811D01*
X96032Y-51811D01*
X96021Y-51811D01*
X95994Y-51811D01*
X95974Y-51811D01*
X95947Y-51811D01*
X95935Y-51811D01*
X95914Y-51811D01*
X95068Y-51811D01*
X95068Y-51649D01*
X96127Y-51649D01*
X96127Y-51259D01*
X96387Y-51259D01*
X96387Y-51811D01*
X96387Y-51811D01*
G37*
X96387Y-51811D02*
X96053Y-51811D01*
X96032Y-51811D01*
X96021Y-51811D01*
X95994Y-51811D01*
X95974Y-51811D01*
X95947Y-51811D01*
X95935Y-51811D01*
X95914Y-51811D01*
X95068Y-51811D01*
X95068Y-51649D01*
X96127Y-51649D01*
X96127Y-51259D01*
X96387Y-51259D01*
X96387Y-51811D01*
G36*
X94753Y-67664D02*
X94750Y-67696D01*
X94742Y-67723D01*
X94728Y-67749D01*
X94710Y-67771D01*
X94688Y-67789D01*
X94662Y-67803D01*
X94635Y-67811D01*
X94603Y-67814D01*
X94096Y-67814D01*
X94065Y-67811D01*
X94038Y-67803D01*
X94012Y-67789D01*
X93990Y-67771D01*
X93971Y-67749D01*
X93958Y-67723D01*
X93949Y-67696D01*
X93946Y-67664D01*
X93946Y-67157D01*
X93949Y-67126D01*
X93958Y-67099D01*
X93971Y-67073D01*
X93990Y-67051D01*
X94012Y-67032D01*
X94038Y-67019D01*
X94065Y-67010D01*
X94096Y-67007D01*
X94603Y-67007D01*
X94635Y-67010D01*
X94662Y-67019D01*
X94688Y-67032D01*
X94710Y-67051D01*
X94728Y-67073D01*
X94742Y-67099D01*
X94750Y-67126D01*
X94753Y-67157D01*
X94753Y-67298D01*
X94753Y-67327D01*
X94753Y-67664D01*
X94753Y-67664D01*
G37*
G54D11*
X94753Y-67664D02*
X94750Y-67696D01*
X94742Y-67723D01*
X94728Y-67749D01*
X94710Y-67771D01*
X94688Y-67789D01*
X94662Y-67803D01*
X94635Y-67811D01*
X94603Y-67814D01*
X94096Y-67814D01*
X94065Y-67811D01*
X94038Y-67803D01*
X94012Y-67789D01*
X93990Y-67771D01*
X93971Y-67749D01*
X93958Y-67723D01*
X93949Y-67696D01*
X93946Y-67664D01*
X93946Y-67157D01*
X93949Y-67126D01*
X93958Y-67099D01*
X93971Y-67073D01*
X93990Y-67051D01*
X94012Y-67032D01*
X94038Y-67019D01*
X94065Y-67010D01*
X94096Y-67007D01*
X94603Y-67007D01*
X94635Y-67010D01*
X94662Y-67019D01*
X94688Y-67032D01*
X94710Y-67051D01*
X94728Y-67073D01*
X94742Y-67099D01*
X94750Y-67126D01*
X94753Y-67157D01*
X94753Y-67298D01*
X94753Y-67327D01*
X94753Y-67664D01*
G54D10*
G36*
X96387Y-63956D02*
X96053Y-63956D01*
X96032Y-63956D01*
X96021Y-63956D01*
X95994Y-63956D01*
X95974Y-63956D01*
X95947Y-63956D01*
X95935Y-63956D01*
X95914Y-63956D01*
X95068Y-63956D01*
X95068Y-63795D01*
X96127Y-63795D01*
X96127Y-63405D01*
X96387Y-63405D01*
X96387Y-63956D01*
X96387Y-63956D01*
G37*
X96387Y-63956D02*
X96053Y-63956D01*
X96032Y-63956D01*
X96021Y-63956D01*
X95994Y-63956D01*
X95974Y-63956D01*
X95947Y-63956D01*
X95935Y-63956D01*
X95914Y-63956D01*
X95068Y-63956D01*
X95068Y-63795D01*
X96127Y-63795D01*
X96127Y-63405D01*
X96387Y-63405D01*
X96387Y-63956D01*
G36*
X90344Y-43373D02*
X90341Y-43404D01*
X90333Y-43432D01*
X90319Y-43457D01*
X90301Y-43480D01*
X90278Y-43498D01*
X90253Y-43512D01*
X90225Y-43520D01*
X90194Y-43523D01*
X89687Y-43523D01*
X89656Y-43520D01*
X89628Y-43512D01*
X89603Y-43498D01*
X89580Y-43480D01*
X89562Y-43457D01*
X89548Y-43432D01*
X89540Y-43404D01*
X89537Y-43373D01*
X89537Y-42866D01*
X89540Y-42835D01*
X89548Y-42807D01*
X89562Y-42782D01*
X89580Y-42759D01*
X89603Y-42741D01*
X89628Y-42727D01*
X89656Y-42719D01*
X89687Y-42716D01*
X90194Y-42716D01*
X90225Y-42719D01*
X90253Y-42727D01*
X90278Y-42741D01*
X90301Y-42759D01*
X90319Y-42782D01*
X90333Y-42807D01*
X90341Y-42835D01*
X90344Y-42866D01*
X90344Y-43007D01*
X90344Y-43036D01*
X90344Y-43373D01*
X90344Y-43373D01*
G37*
G54D11*
X90344Y-43373D02*
X90341Y-43404D01*
X90333Y-43432D01*
X90319Y-43457D01*
X90301Y-43480D01*
X90278Y-43498D01*
X90253Y-43512D01*
X90225Y-43520D01*
X90194Y-43523D01*
X89687Y-43523D01*
X89656Y-43520D01*
X89628Y-43512D01*
X89603Y-43498D01*
X89580Y-43480D01*
X89562Y-43457D01*
X89548Y-43432D01*
X89540Y-43404D01*
X89537Y-43373D01*
X89537Y-42866D01*
X89540Y-42835D01*
X89548Y-42807D01*
X89562Y-42782D01*
X89580Y-42759D01*
X89603Y-42741D01*
X89628Y-42727D01*
X89656Y-42719D01*
X89687Y-42716D01*
X90194Y-42716D01*
X90225Y-42719D01*
X90253Y-42727D01*
X90278Y-42741D01*
X90301Y-42759D01*
X90319Y-42782D01*
X90333Y-42807D01*
X90341Y-42835D01*
X90344Y-42866D01*
X90344Y-43007D01*
X90344Y-43036D01*
X90344Y-43373D01*
G54D10*
G36*
X91978Y-39665D02*
X91644Y-39665D01*
X91623Y-39665D01*
X91611Y-39665D01*
X91584Y-39665D01*
X91564Y-39665D01*
X91537Y-39665D01*
X91526Y-39665D01*
X91505Y-39665D01*
X90659Y-39665D01*
X90659Y-39503D01*
X91718Y-39503D01*
X91718Y-39114D01*
X91978Y-39114D01*
X91978Y-39665D01*
X91978Y-39665D01*
G37*
X91978Y-39665D02*
X91644Y-39665D01*
X91623Y-39665D01*
X91611Y-39665D01*
X91584Y-39665D01*
X91564Y-39665D01*
X91537Y-39665D01*
X91526Y-39665D01*
X91505Y-39665D01*
X90659Y-39665D01*
X90659Y-39503D01*
X91718Y-39503D01*
X91718Y-39114D01*
X91978Y-39114D01*
X91978Y-39665D01*
G36*
X90344Y-55519D02*
X90341Y-55550D01*
X90333Y-55578D01*
X90319Y-55603D01*
X90301Y-55625D01*
X90278Y-55644D01*
X90253Y-55657D01*
X90225Y-55666D01*
X90194Y-55669D01*
X89687Y-55669D01*
X89656Y-55666D01*
X89628Y-55657D01*
X89603Y-55644D01*
X89580Y-55625D01*
X89562Y-55603D01*
X89548Y-55578D01*
X89540Y-55550D01*
X89537Y-55519D01*
X89537Y-55012D01*
X89540Y-54981D01*
X89548Y-54953D01*
X89562Y-54927D01*
X89580Y-54905D01*
X89603Y-54887D01*
X89628Y-54873D01*
X89656Y-54865D01*
X89687Y-54862D01*
X90194Y-54862D01*
X90225Y-54865D01*
X90253Y-54873D01*
X90278Y-54887D01*
X90301Y-54905D01*
X90319Y-54927D01*
X90333Y-54953D01*
X90341Y-54981D01*
X90344Y-55012D01*
X90344Y-55152D01*
X90344Y-55181D01*
X90344Y-55519D01*
X90344Y-55519D01*
G37*
G54D11*
X90344Y-55519D02*
X90341Y-55550D01*
X90333Y-55578D01*
X90319Y-55603D01*
X90301Y-55625D01*
X90278Y-55644D01*
X90253Y-55657D01*
X90225Y-55666D01*
X90194Y-55669D01*
X89687Y-55669D01*
X89656Y-55666D01*
X89628Y-55657D01*
X89603Y-55644D01*
X89580Y-55625D01*
X89562Y-55603D01*
X89548Y-55578D01*
X89540Y-55550D01*
X89537Y-55519D01*
X89537Y-55012D01*
X89540Y-54981D01*
X89548Y-54953D01*
X89562Y-54927D01*
X89580Y-54905D01*
X89603Y-54887D01*
X89628Y-54873D01*
X89656Y-54865D01*
X89687Y-54862D01*
X90194Y-54862D01*
X90225Y-54865D01*
X90253Y-54873D01*
X90278Y-54887D01*
X90301Y-54905D01*
X90319Y-54927D01*
X90333Y-54953D01*
X90341Y-54981D01*
X90344Y-55012D01*
X90344Y-55152D01*
X90344Y-55181D01*
X90344Y-55519D01*
G54D10*
G36*
X91978Y-51811D02*
X91644Y-51811D01*
X91623Y-51811D01*
X91611Y-51811D01*
X91584Y-51811D01*
X91564Y-51811D01*
X91537Y-51811D01*
X91526Y-51811D01*
X91505Y-51811D01*
X90659Y-51811D01*
X90659Y-51649D01*
X91718Y-51649D01*
X91718Y-51259D01*
X91978Y-51259D01*
X91978Y-51811D01*
X91978Y-51811D01*
G37*
X91978Y-51811D02*
X91644Y-51811D01*
X91623Y-51811D01*
X91611Y-51811D01*
X91584Y-51811D01*
X91564Y-51811D01*
X91537Y-51811D01*
X91526Y-51811D01*
X91505Y-51811D01*
X90659Y-51811D01*
X90659Y-51649D01*
X91718Y-51649D01*
X91718Y-51259D01*
X91978Y-51259D01*
X91978Y-51811D01*
G36*
X90344Y-67664D02*
X90341Y-67696D01*
X90333Y-67723D01*
X90319Y-67749D01*
X90301Y-67771D01*
X90278Y-67789D01*
X90253Y-67803D01*
X90225Y-67811D01*
X90194Y-67814D01*
X89687Y-67814D01*
X89656Y-67811D01*
X89628Y-67803D01*
X89603Y-67789D01*
X89580Y-67771D01*
X89562Y-67749D01*
X89548Y-67723D01*
X89540Y-67696D01*
X89537Y-67664D01*
X89537Y-67157D01*
X89540Y-67126D01*
X89548Y-67099D01*
X89562Y-67073D01*
X89580Y-67051D01*
X89603Y-67032D01*
X89628Y-67019D01*
X89656Y-67010D01*
X89687Y-67007D01*
X90194Y-67007D01*
X90225Y-67010D01*
X90253Y-67019D01*
X90278Y-67032D01*
X90301Y-67051D01*
X90319Y-67073D01*
X90333Y-67099D01*
X90341Y-67126D01*
X90344Y-67157D01*
X90344Y-67298D01*
X90344Y-67327D01*
X90344Y-67664D01*
X90344Y-67664D01*
G37*
G54D11*
X90344Y-67664D02*
X90341Y-67696D01*
X90333Y-67723D01*
X90319Y-67749D01*
X90301Y-67771D01*
X90278Y-67789D01*
X90253Y-67803D01*
X90225Y-67811D01*
X90194Y-67814D01*
X89687Y-67814D01*
X89656Y-67811D01*
X89628Y-67803D01*
X89603Y-67789D01*
X89580Y-67771D01*
X89562Y-67749D01*
X89548Y-67723D01*
X89540Y-67696D01*
X89537Y-67664D01*
X89537Y-67157D01*
X89540Y-67126D01*
X89548Y-67099D01*
X89562Y-67073D01*
X89580Y-67051D01*
X89603Y-67032D01*
X89628Y-67019D01*
X89656Y-67010D01*
X89687Y-67007D01*
X90194Y-67007D01*
X90225Y-67010D01*
X90253Y-67019D01*
X90278Y-67032D01*
X90301Y-67051D01*
X90319Y-67073D01*
X90333Y-67099D01*
X90341Y-67126D01*
X90344Y-67157D01*
X90344Y-67298D01*
X90344Y-67327D01*
X90344Y-67664D01*
G54D10*
G36*
X91978Y-63956D02*
X91644Y-63956D01*
X91623Y-63956D01*
X91611Y-63956D01*
X91584Y-63956D01*
X91564Y-63956D01*
X91537Y-63956D01*
X91526Y-63956D01*
X91505Y-63956D01*
X90659Y-63956D01*
X90659Y-63795D01*
X91718Y-63795D01*
X91718Y-63405D01*
X91978Y-63405D01*
X91978Y-63956D01*
X91978Y-63956D01*
G37*
X91978Y-63956D02*
X91644Y-63956D01*
X91623Y-63956D01*
X91611Y-63956D01*
X91584Y-63956D01*
X91564Y-63956D01*
X91537Y-63956D01*
X91526Y-63956D01*
X91505Y-63956D01*
X90659Y-63956D01*
X90659Y-63795D01*
X91718Y-63795D01*
X91718Y-63405D01*
X91978Y-63405D01*
X91978Y-63956D01*
G36*
X85935Y-43373D02*
X85931Y-43404D01*
X85923Y-43432D01*
X85909Y-43457D01*
X85891Y-43480D01*
X85869Y-43498D01*
X85843Y-43512D01*
X85816Y-43520D01*
X85784Y-43523D01*
X85278Y-43523D01*
X85246Y-43520D01*
X85219Y-43512D01*
X85193Y-43498D01*
X85171Y-43480D01*
X85153Y-43457D01*
X85139Y-43432D01*
X85131Y-43404D01*
X85127Y-43373D01*
X85127Y-42866D01*
X85131Y-42835D01*
X85139Y-42807D01*
X85153Y-42782D01*
X85171Y-42759D01*
X85193Y-42741D01*
X85219Y-42727D01*
X85246Y-42719D01*
X85278Y-42716D01*
X85784Y-42716D01*
X85816Y-42719D01*
X85843Y-42727D01*
X85869Y-42741D01*
X85891Y-42759D01*
X85909Y-42782D01*
X85923Y-42807D01*
X85931Y-42835D01*
X85935Y-42866D01*
X85935Y-43007D01*
X85935Y-43036D01*
X85935Y-43373D01*
X85935Y-43373D01*
G37*
G54D11*
X85935Y-43373D02*
X85931Y-43404D01*
X85923Y-43432D01*
X85909Y-43457D01*
X85891Y-43480D01*
X85869Y-43498D01*
X85843Y-43512D01*
X85816Y-43520D01*
X85784Y-43523D01*
X85278Y-43523D01*
X85246Y-43520D01*
X85219Y-43512D01*
X85193Y-43498D01*
X85171Y-43480D01*
X85153Y-43457D01*
X85139Y-43432D01*
X85131Y-43404D01*
X85127Y-43373D01*
X85127Y-42866D01*
X85131Y-42835D01*
X85139Y-42807D01*
X85153Y-42782D01*
X85171Y-42759D01*
X85193Y-42741D01*
X85219Y-42727D01*
X85246Y-42719D01*
X85278Y-42716D01*
X85784Y-42716D01*
X85816Y-42719D01*
X85843Y-42727D01*
X85869Y-42741D01*
X85891Y-42759D01*
X85909Y-42782D01*
X85923Y-42807D01*
X85931Y-42835D01*
X85935Y-42866D01*
X85935Y-43007D01*
X85935Y-43036D01*
X85935Y-43373D01*
G54D10*
G36*
X87568Y-39665D02*
X87235Y-39665D01*
X87213Y-39665D01*
X87202Y-39665D01*
X87175Y-39665D01*
X87155Y-39665D01*
X87128Y-39665D01*
X87116Y-39665D01*
X87095Y-39665D01*
X86250Y-39665D01*
X86250Y-39503D01*
X87309Y-39503D01*
X87309Y-39114D01*
X87568Y-39114D01*
X87568Y-39665D01*
X87568Y-39665D01*
G37*
X87568Y-39665D02*
X87235Y-39665D01*
X87213Y-39665D01*
X87202Y-39665D01*
X87175Y-39665D01*
X87155Y-39665D01*
X87128Y-39665D01*
X87116Y-39665D01*
X87095Y-39665D01*
X86250Y-39665D01*
X86250Y-39503D01*
X87309Y-39503D01*
X87309Y-39114D01*
X87568Y-39114D01*
X87568Y-39665D01*
G36*
X85935Y-55519D02*
X85931Y-55550D01*
X85923Y-55578D01*
X85909Y-55603D01*
X85891Y-55625D01*
X85869Y-55644D01*
X85843Y-55657D01*
X85816Y-55666D01*
X85784Y-55669D01*
X85278Y-55669D01*
X85246Y-55666D01*
X85219Y-55657D01*
X85193Y-55644D01*
X85171Y-55625D01*
X85153Y-55603D01*
X85139Y-55578D01*
X85131Y-55550D01*
X85127Y-55519D01*
X85127Y-55012D01*
X85131Y-54981D01*
X85139Y-54953D01*
X85153Y-54927D01*
X85171Y-54905D01*
X85193Y-54887D01*
X85219Y-54873D01*
X85246Y-54865D01*
X85278Y-54862D01*
X85784Y-54862D01*
X85816Y-54865D01*
X85843Y-54873D01*
X85869Y-54887D01*
X85891Y-54905D01*
X85909Y-54927D01*
X85923Y-54953D01*
X85931Y-54981D01*
X85935Y-55012D01*
X85935Y-55152D01*
X85935Y-55181D01*
X85935Y-55519D01*
X85935Y-55519D01*
G37*
G54D11*
X85935Y-55519D02*
X85931Y-55550D01*
X85923Y-55578D01*
X85909Y-55603D01*
X85891Y-55625D01*
X85869Y-55644D01*
X85843Y-55657D01*
X85816Y-55666D01*
X85784Y-55669D01*
X85278Y-55669D01*
X85246Y-55666D01*
X85219Y-55657D01*
X85193Y-55644D01*
X85171Y-55625D01*
X85153Y-55603D01*
X85139Y-55578D01*
X85131Y-55550D01*
X85127Y-55519D01*
X85127Y-55012D01*
X85131Y-54981D01*
X85139Y-54953D01*
X85153Y-54927D01*
X85171Y-54905D01*
X85193Y-54887D01*
X85219Y-54873D01*
X85246Y-54865D01*
X85278Y-54862D01*
X85784Y-54862D01*
X85816Y-54865D01*
X85843Y-54873D01*
X85869Y-54887D01*
X85891Y-54905D01*
X85909Y-54927D01*
X85923Y-54953D01*
X85931Y-54981D01*
X85935Y-55012D01*
X85935Y-55152D01*
X85935Y-55181D01*
X85935Y-55519D01*
G54D10*
G36*
X87568Y-51811D02*
X87235Y-51811D01*
X87213Y-51811D01*
X87202Y-51811D01*
X87175Y-51811D01*
X87155Y-51811D01*
X87128Y-51811D01*
X87116Y-51811D01*
X87095Y-51811D01*
X86250Y-51811D01*
X86250Y-51649D01*
X87309Y-51649D01*
X87309Y-51259D01*
X87568Y-51259D01*
X87568Y-51811D01*
X87568Y-51811D01*
G37*
X87568Y-51811D02*
X87235Y-51811D01*
X87213Y-51811D01*
X87202Y-51811D01*
X87175Y-51811D01*
X87155Y-51811D01*
X87128Y-51811D01*
X87116Y-51811D01*
X87095Y-51811D01*
X86250Y-51811D01*
X86250Y-51649D01*
X87309Y-51649D01*
X87309Y-51259D01*
X87568Y-51259D01*
X87568Y-51811D01*
G36*
X85935Y-67664D02*
X85931Y-67696D01*
X85923Y-67723D01*
X85909Y-67749D01*
X85891Y-67771D01*
X85869Y-67789D01*
X85843Y-67803D01*
X85816Y-67811D01*
X85784Y-67814D01*
X85278Y-67814D01*
X85246Y-67811D01*
X85219Y-67803D01*
X85193Y-67789D01*
X85171Y-67771D01*
X85153Y-67749D01*
X85139Y-67723D01*
X85131Y-67696D01*
X85127Y-67664D01*
X85127Y-67157D01*
X85131Y-67126D01*
X85139Y-67099D01*
X85153Y-67073D01*
X85171Y-67051D01*
X85193Y-67032D01*
X85219Y-67019D01*
X85246Y-67010D01*
X85278Y-67007D01*
X85784Y-67007D01*
X85816Y-67010D01*
X85843Y-67019D01*
X85869Y-67032D01*
X85891Y-67051D01*
X85909Y-67073D01*
X85923Y-67099D01*
X85931Y-67126D01*
X85935Y-67157D01*
X85935Y-67298D01*
X85935Y-67327D01*
X85935Y-67664D01*
X85935Y-67664D01*
G37*
G54D11*
X85935Y-67664D02*
X85931Y-67696D01*
X85923Y-67723D01*
X85909Y-67749D01*
X85891Y-67771D01*
X85869Y-67789D01*
X85843Y-67803D01*
X85816Y-67811D01*
X85784Y-67814D01*
X85278Y-67814D01*
X85246Y-67811D01*
X85219Y-67803D01*
X85193Y-67789D01*
X85171Y-67771D01*
X85153Y-67749D01*
X85139Y-67723D01*
X85131Y-67696D01*
X85127Y-67664D01*
X85127Y-67157D01*
X85131Y-67126D01*
X85139Y-67099D01*
X85153Y-67073D01*
X85171Y-67051D01*
X85193Y-67032D01*
X85219Y-67019D01*
X85246Y-67010D01*
X85278Y-67007D01*
X85784Y-67007D01*
X85816Y-67010D01*
X85843Y-67019D01*
X85869Y-67032D01*
X85891Y-67051D01*
X85909Y-67073D01*
X85923Y-67099D01*
X85931Y-67126D01*
X85935Y-67157D01*
X85935Y-67298D01*
X85935Y-67327D01*
X85935Y-67664D01*
G54D10*
G36*
X87568Y-63956D02*
X87235Y-63956D01*
X87213Y-63956D01*
X87202Y-63956D01*
X87175Y-63956D01*
X87155Y-63956D01*
X87128Y-63956D01*
X87116Y-63956D01*
X87095Y-63956D01*
X86250Y-63956D01*
X86250Y-63795D01*
X87309Y-63795D01*
X87309Y-63405D01*
X87568Y-63405D01*
X87568Y-63956D01*
X87568Y-63956D01*
G37*
X87568Y-63956D02*
X87235Y-63956D01*
X87213Y-63956D01*
X87202Y-63956D01*
X87175Y-63956D01*
X87155Y-63956D01*
X87128Y-63956D01*
X87116Y-63956D01*
X87095Y-63956D01*
X86250Y-63956D01*
X86250Y-63795D01*
X87309Y-63795D01*
X87309Y-63405D01*
X87568Y-63405D01*
X87568Y-63956D01*
G36*
X81525Y-43373D02*
X81522Y-43404D01*
X81514Y-43432D01*
X81500Y-43457D01*
X81482Y-43480D01*
X81459Y-43498D01*
X81434Y-43512D01*
X81406Y-43520D01*
X81375Y-43523D01*
X80868Y-43523D01*
X80837Y-43520D01*
X80809Y-43512D01*
X80784Y-43498D01*
X80761Y-43480D01*
X80743Y-43457D01*
X80729Y-43432D01*
X80721Y-43404D01*
X80718Y-43373D01*
X80718Y-42866D01*
X80721Y-42835D01*
X80729Y-42807D01*
X80743Y-42782D01*
X80761Y-42759D01*
X80784Y-42741D01*
X80809Y-42727D01*
X80837Y-42719D01*
X80868Y-42716D01*
X81375Y-42716D01*
X81406Y-42719D01*
X81434Y-42727D01*
X81459Y-42741D01*
X81482Y-42759D01*
X81500Y-42782D01*
X81514Y-42807D01*
X81522Y-42835D01*
X81525Y-42866D01*
X81525Y-43007D01*
X81525Y-43036D01*
X81525Y-43373D01*
X81525Y-43373D01*
G37*
G54D11*
X81525Y-43373D02*
X81522Y-43404D01*
X81514Y-43432D01*
X81500Y-43457D01*
X81482Y-43480D01*
X81459Y-43498D01*
X81434Y-43512D01*
X81406Y-43520D01*
X81375Y-43523D01*
X80868Y-43523D01*
X80837Y-43520D01*
X80809Y-43512D01*
X80784Y-43498D01*
X80761Y-43480D01*
X80743Y-43457D01*
X80729Y-43432D01*
X80721Y-43404D01*
X80718Y-43373D01*
X80718Y-42866D01*
X80721Y-42835D01*
X80729Y-42807D01*
X80743Y-42782D01*
X80761Y-42759D01*
X80784Y-42741D01*
X80809Y-42727D01*
X80837Y-42719D01*
X80868Y-42716D01*
X81375Y-42716D01*
X81406Y-42719D01*
X81434Y-42727D01*
X81459Y-42741D01*
X81482Y-42759D01*
X81500Y-42782D01*
X81514Y-42807D01*
X81522Y-42835D01*
X81525Y-42866D01*
X81525Y-43007D01*
X81525Y-43036D01*
X81525Y-43373D01*
G54D10*
G36*
X83159Y-39665D02*
X82825Y-39665D01*
X82804Y-39665D01*
X82792Y-39665D01*
X82765Y-39665D01*
X82746Y-39665D01*
X82718Y-39665D01*
X82707Y-39665D01*
X82686Y-39665D01*
X81840Y-39665D01*
X81840Y-39503D01*
X82899Y-39503D01*
X82899Y-39114D01*
X83159Y-39114D01*
X83159Y-39665D01*
X83159Y-39665D01*
G37*
X83159Y-39665D02*
X82825Y-39665D01*
X82804Y-39665D01*
X82792Y-39665D01*
X82765Y-39665D01*
X82746Y-39665D01*
X82718Y-39665D01*
X82707Y-39665D01*
X82686Y-39665D01*
X81840Y-39665D01*
X81840Y-39503D01*
X82899Y-39503D01*
X82899Y-39114D01*
X83159Y-39114D01*
X83159Y-39665D01*
G36*
X81525Y-55519D02*
X81522Y-55550D01*
X81514Y-55578D01*
X81500Y-55603D01*
X81482Y-55625D01*
X81459Y-55644D01*
X81434Y-55657D01*
X81406Y-55666D01*
X81375Y-55669D01*
X80868Y-55669D01*
X80837Y-55666D01*
X80809Y-55657D01*
X80784Y-55644D01*
X80761Y-55625D01*
X80743Y-55603D01*
X80729Y-55578D01*
X80721Y-55550D01*
X80718Y-55519D01*
X80718Y-55012D01*
X80721Y-54981D01*
X80729Y-54953D01*
X80743Y-54927D01*
X80761Y-54905D01*
X80784Y-54887D01*
X80809Y-54873D01*
X80837Y-54865D01*
X80868Y-54862D01*
X81375Y-54862D01*
X81406Y-54865D01*
X81434Y-54873D01*
X81459Y-54887D01*
X81482Y-54905D01*
X81500Y-54927D01*
X81514Y-54953D01*
X81522Y-54981D01*
X81525Y-55012D01*
X81525Y-55152D01*
X81525Y-55181D01*
X81525Y-55519D01*
X81525Y-55519D01*
G37*
G54D11*
X81525Y-55519D02*
X81522Y-55550D01*
X81514Y-55578D01*
X81500Y-55603D01*
X81482Y-55625D01*
X81459Y-55644D01*
X81434Y-55657D01*
X81406Y-55666D01*
X81375Y-55669D01*
X80868Y-55669D01*
X80837Y-55666D01*
X80809Y-55657D01*
X80784Y-55644D01*
X80761Y-55625D01*
X80743Y-55603D01*
X80729Y-55578D01*
X80721Y-55550D01*
X80718Y-55519D01*
X80718Y-55012D01*
X80721Y-54981D01*
X80729Y-54953D01*
X80743Y-54927D01*
X80761Y-54905D01*
X80784Y-54887D01*
X80809Y-54873D01*
X80837Y-54865D01*
X80868Y-54862D01*
X81375Y-54862D01*
X81406Y-54865D01*
X81434Y-54873D01*
X81459Y-54887D01*
X81482Y-54905D01*
X81500Y-54927D01*
X81514Y-54953D01*
X81522Y-54981D01*
X81525Y-55012D01*
X81525Y-55152D01*
X81525Y-55181D01*
X81525Y-55519D01*
G54D10*
G36*
X83159Y-51811D02*
X82825Y-51811D01*
X82804Y-51811D01*
X82792Y-51811D01*
X82765Y-51811D01*
X82746Y-51811D01*
X82718Y-51811D01*
X82707Y-51811D01*
X82686Y-51811D01*
X81840Y-51811D01*
X81840Y-51649D01*
X82899Y-51649D01*
X82899Y-51259D01*
X83159Y-51259D01*
X83159Y-51811D01*
X83159Y-51811D01*
G37*
X83159Y-51811D02*
X82825Y-51811D01*
X82804Y-51811D01*
X82792Y-51811D01*
X82765Y-51811D01*
X82746Y-51811D01*
X82718Y-51811D01*
X82707Y-51811D01*
X82686Y-51811D01*
X81840Y-51811D01*
X81840Y-51649D01*
X82899Y-51649D01*
X82899Y-51259D01*
X83159Y-51259D01*
X83159Y-51811D01*
G36*
X81525Y-67664D02*
X81522Y-67696D01*
X81514Y-67723D01*
X81500Y-67749D01*
X81482Y-67771D01*
X81459Y-67789D01*
X81434Y-67803D01*
X81406Y-67811D01*
X81375Y-67814D01*
X80868Y-67814D01*
X80837Y-67811D01*
X80809Y-67803D01*
X80784Y-67789D01*
X80761Y-67771D01*
X80743Y-67749D01*
X80729Y-67723D01*
X80721Y-67696D01*
X80718Y-67664D01*
X80718Y-67157D01*
X80721Y-67126D01*
X80729Y-67099D01*
X80743Y-67073D01*
X80761Y-67051D01*
X80784Y-67032D01*
X80809Y-67019D01*
X80837Y-67010D01*
X80868Y-67007D01*
X81375Y-67007D01*
X81406Y-67010D01*
X81434Y-67019D01*
X81459Y-67032D01*
X81482Y-67051D01*
X81500Y-67073D01*
X81514Y-67099D01*
X81522Y-67126D01*
X81525Y-67157D01*
X81525Y-67298D01*
X81525Y-67327D01*
X81525Y-67664D01*
X81525Y-67664D01*
G37*
G54D11*
X81525Y-67664D02*
X81522Y-67696D01*
X81514Y-67723D01*
X81500Y-67749D01*
X81482Y-67771D01*
X81459Y-67789D01*
X81434Y-67803D01*
X81406Y-67811D01*
X81375Y-67814D01*
X80868Y-67814D01*
X80837Y-67811D01*
X80809Y-67803D01*
X80784Y-67789D01*
X80761Y-67771D01*
X80743Y-67749D01*
X80729Y-67723D01*
X80721Y-67696D01*
X80718Y-67664D01*
X80718Y-67157D01*
X80721Y-67126D01*
X80729Y-67099D01*
X80743Y-67073D01*
X80761Y-67051D01*
X80784Y-67032D01*
X80809Y-67019D01*
X80837Y-67010D01*
X80868Y-67007D01*
X81375Y-67007D01*
X81406Y-67010D01*
X81434Y-67019D01*
X81459Y-67032D01*
X81482Y-67051D01*
X81500Y-67073D01*
X81514Y-67099D01*
X81522Y-67126D01*
X81525Y-67157D01*
X81525Y-67298D01*
X81525Y-67327D01*
X81525Y-67664D01*
G54D10*
G36*
X83159Y-63956D02*
X82825Y-63956D01*
X82804Y-63956D01*
X82792Y-63956D01*
X82765Y-63956D01*
X82746Y-63956D01*
X82718Y-63956D01*
X82707Y-63956D01*
X82686Y-63956D01*
X81840Y-63956D01*
X81840Y-63795D01*
X82899Y-63795D01*
X82899Y-63405D01*
X83159Y-63405D01*
X83159Y-63956D01*
X83159Y-63956D01*
G37*
X83159Y-63956D02*
X82825Y-63956D01*
X82804Y-63956D01*
X82792Y-63956D01*
X82765Y-63956D01*
X82746Y-63956D01*
X82718Y-63956D01*
X82707Y-63956D01*
X82686Y-63956D01*
X81840Y-63956D01*
X81840Y-63795D01*
X82899Y-63795D01*
X82899Y-63405D01*
X83159Y-63405D01*
X83159Y-63956D01*
G36*
X77116Y-43373D02*
X77113Y-43404D01*
X77104Y-43432D01*
X77091Y-43457D01*
X77072Y-43480D01*
X77050Y-43498D01*
X77024Y-43512D01*
X76997Y-43520D01*
X76966Y-43523D01*
X76459Y-43523D01*
X76427Y-43520D01*
X76400Y-43512D01*
X76374Y-43498D01*
X76352Y-43480D01*
X76334Y-43457D01*
X76320Y-43432D01*
X76312Y-43404D01*
X76309Y-43373D01*
X76309Y-42866D01*
X76312Y-42835D01*
X76320Y-42807D01*
X76334Y-42782D01*
X76352Y-42759D01*
X76374Y-42741D01*
X76400Y-42727D01*
X76427Y-42719D01*
X76459Y-42716D01*
X76966Y-42716D01*
X76997Y-42719D01*
X77024Y-42727D01*
X77050Y-42741D01*
X77072Y-42759D01*
X77091Y-42782D01*
X77104Y-42807D01*
X77113Y-42835D01*
X77116Y-42866D01*
X77116Y-43007D01*
X77116Y-43036D01*
X77116Y-43373D01*
X77116Y-43373D01*
G37*
G54D11*
X77116Y-43373D02*
X77113Y-43404D01*
X77104Y-43432D01*
X77091Y-43457D01*
X77072Y-43480D01*
X77050Y-43498D01*
X77024Y-43512D01*
X76997Y-43520D01*
X76966Y-43523D01*
X76459Y-43523D01*
X76427Y-43520D01*
X76400Y-43512D01*
X76374Y-43498D01*
X76352Y-43480D01*
X76334Y-43457D01*
X76320Y-43432D01*
X76312Y-43404D01*
X76309Y-43373D01*
X76309Y-42866D01*
X76312Y-42835D01*
X76320Y-42807D01*
X76334Y-42782D01*
X76352Y-42759D01*
X76374Y-42741D01*
X76400Y-42727D01*
X76427Y-42719D01*
X76459Y-42716D01*
X76966Y-42716D01*
X76997Y-42719D01*
X77024Y-42727D01*
X77050Y-42741D01*
X77072Y-42759D01*
X77091Y-42782D01*
X77104Y-42807D01*
X77113Y-42835D01*
X77116Y-42866D01*
X77116Y-43007D01*
X77116Y-43036D01*
X77116Y-43373D01*
G54D10*
G36*
X78750Y-39665D02*
X78416Y-39665D01*
X78394Y-39665D01*
X78383Y-39665D01*
X78356Y-39665D01*
X78336Y-39665D01*
X78309Y-39665D01*
X78298Y-39665D01*
X78276Y-39665D01*
X77431Y-39665D01*
X77431Y-39503D01*
X78490Y-39503D01*
X78490Y-39114D01*
X78750Y-39114D01*
X78750Y-39665D01*
X78750Y-39665D01*
G37*
X78750Y-39665D02*
X78416Y-39665D01*
X78394Y-39665D01*
X78383Y-39665D01*
X78356Y-39665D01*
X78336Y-39665D01*
X78309Y-39665D01*
X78298Y-39665D01*
X78276Y-39665D01*
X77431Y-39665D01*
X77431Y-39503D01*
X78490Y-39503D01*
X78490Y-39114D01*
X78750Y-39114D01*
X78750Y-39665D01*
G36*
X77116Y-55519D02*
X77113Y-55550D01*
X77104Y-55578D01*
X77091Y-55603D01*
X77072Y-55625D01*
X77050Y-55644D01*
X77024Y-55657D01*
X76997Y-55666D01*
X76966Y-55669D01*
X76459Y-55669D01*
X76427Y-55666D01*
X76400Y-55657D01*
X76374Y-55644D01*
X76352Y-55625D01*
X76334Y-55603D01*
X76320Y-55578D01*
X76312Y-55550D01*
X76309Y-55519D01*
X76309Y-55012D01*
X76312Y-54981D01*
X76320Y-54953D01*
X76334Y-54927D01*
X76352Y-54905D01*
X76374Y-54887D01*
X76400Y-54873D01*
X76427Y-54865D01*
X76459Y-54862D01*
X76966Y-54862D01*
X76997Y-54865D01*
X77024Y-54873D01*
X77050Y-54887D01*
X77072Y-54905D01*
X77091Y-54927D01*
X77104Y-54953D01*
X77113Y-54981D01*
X77116Y-55012D01*
X77116Y-55152D01*
X77116Y-55181D01*
X77116Y-55519D01*
X77116Y-55519D01*
G37*
G54D11*
X77116Y-55519D02*
X77113Y-55550D01*
X77104Y-55578D01*
X77091Y-55603D01*
X77072Y-55625D01*
X77050Y-55644D01*
X77024Y-55657D01*
X76997Y-55666D01*
X76966Y-55669D01*
X76459Y-55669D01*
X76427Y-55666D01*
X76400Y-55657D01*
X76374Y-55644D01*
X76352Y-55625D01*
X76334Y-55603D01*
X76320Y-55578D01*
X76312Y-55550D01*
X76309Y-55519D01*
X76309Y-55012D01*
X76312Y-54981D01*
X76320Y-54953D01*
X76334Y-54927D01*
X76352Y-54905D01*
X76374Y-54887D01*
X76400Y-54873D01*
X76427Y-54865D01*
X76459Y-54862D01*
X76966Y-54862D01*
X76997Y-54865D01*
X77024Y-54873D01*
X77050Y-54887D01*
X77072Y-54905D01*
X77091Y-54927D01*
X77104Y-54953D01*
X77113Y-54981D01*
X77116Y-55012D01*
X77116Y-55152D01*
X77116Y-55181D01*
X77116Y-55519D01*
G54D10*
G36*
X78750Y-51811D02*
X78416Y-51811D01*
X78394Y-51811D01*
X78383Y-51811D01*
X78356Y-51811D01*
X78336Y-51811D01*
X78309Y-51811D01*
X78298Y-51811D01*
X78276Y-51811D01*
X77431Y-51811D01*
X77431Y-51649D01*
X78490Y-51649D01*
X78490Y-51259D01*
X78750Y-51259D01*
X78750Y-51811D01*
X78750Y-51811D01*
G37*
X78750Y-51811D02*
X78416Y-51811D01*
X78394Y-51811D01*
X78383Y-51811D01*
X78356Y-51811D01*
X78336Y-51811D01*
X78309Y-51811D01*
X78298Y-51811D01*
X78276Y-51811D01*
X77431Y-51811D01*
X77431Y-51649D01*
X78490Y-51649D01*
X78490Y-51259D01*
X78750Y-51259D01*
X78750Y-51811D01*
G36*
X77116Y-67664D02*
X77113Y-67696D01*
X77104Y-67723D01*
X77091Y-67749D01*
X77072Y-67771D01*
X77050Y-67789D01*
X77024Y-67803D01*
X76997Y-67811D01*
X76966Y-67814D01*
X76459Y-67814D01*
X76427Y-67811D01*
X76400Y-67803D01*
X76374Y-67789D01*
X76352Y-67771D01*
X76334Y-67749D01*
X76320Y-67723D01*
X76312Y-67696D01*
X76309Y-67664D01*
X76309Y-67157D01*
X76312Y-67126D01*
X76320Y-67099D01*
X76334Y-67073D01*
X76352Y-67051D01*
X76374Y-67032D01*
X76400Y-67019D01*
X76427Y-67010D01*
X76459Y-67007D01*
X76966Y-67007D01*
X76997Y-67010D01*
X77024Y-67019D01*
X77050Y-67032D01*
X77072Y-67051D01*
X77091Y-67073D01*
X77104Y-67099D01*
X77113Y-67126D01*
X77116Y-67157D01*
X77116Y-67298D01*
X77116Y-67327D01*
X77116Y-67664D01*
X77116Y-67664D01*
G37*
G54D11*
X77116Y-67664D02*
X77113Y-67696D01*
X77104Y-67723D01*
X77091Y-67749D01*
X77072Y-67771D01*
X77050Y-67789D01*
X77024Y-67803D01*
X76997Y-67811D01*
X76966Y-67814D01*
X76459Y-67814D01*
X76427Y-67811D01*
X76400Y-67803D01*
X76374Y-67789D01*
X76352Y-67771D01*
X76334Y-67749D01*
X76320Y-67723D01*
X76312Y-67696D01*
X76309Y-67664D01*
X76309Y-67157D01*
X76312Y-67126D01*
X76320Y-67099D01*
X76334Y-67073D01*
X76352Y-67051D01*
X76374Y-67032D01*
X76400Y-67019D01*
X76427Y-67010D01*
X76459Y-67007D01*
X76966Y-67007D01*
X76997Y-67010D01*
X77024Y-67019D01*
X77050Y-67032D01*
X77072Y-67051D01*
X77091Y-67073D01*
X77104Y-67099D01*
X77113Y-67126D01*
X77116Y-67157D01*
X77116Y-67298D01*
X77116Y-67327D01*
X77116Y-67664D01*
G54D10*
G36*
X78750Y-63956D02*
X78416Y-63956D01*
X78394Y-63956D01*
X78383Y-63956D01*
X78356Y-63956D01*
X78336Y-63956D01*
X78309Y-63956D01*
X78298Y-63956D01*
X78276Y-63956D01*
X77431Y-63956D01*
X77431Y-63795D01*
X78490Y-63795D01*
X78490Y-63405D01*
X78750Y-63405D01*
X78750Y-63956D01*
X78750Y-63956D01*
G37*
X78750Y-63956D02*
X78416Y-63956D01*
X78394Y-63956D01*
X78383Y-63956D01*
X78356Y-63956D01*
X78336Y-63956D01*
X78309Y-63956D01*
X78298Y-63956D01*
X78276Y-63956D01*
X77431Y-63956D01*
X77431Y-63795D01*
X78490Y-63795D01*
X78490Y-63405D01*
X78750Y-63405D01*
X78750Y-63956D01*
M02*
